G04 #@! TF.FileFunction,Legend,Bot*
%FSLAX46Y46*%
G04 Gerber Fmt 4.6, Leading zero omitted, Abs format (unit mm)*
G04 Created by KiCad (PCBNEW 4.0.2+dfsg1-stable) date Wed 06 Sep 2017 09:14:37 PM CST*
%MOMM*%
G01*
G04 APERTURE LIST*
%ADD10C,0.100000*%
%ADD11C,0.150000*%
%ADD12C,0.010000*%
G04 APERTURE END LIST*
D10*
D11*
X122205785Y-82367381D02*
X122777214Y-82367381D01*
X122491500Y-82367381D02*
X122491500Y-81367381D01*
X122586738Y-81510238D01*
X122681976Y-81605476D01*
X122777214Y-81653095D01*
X104806738Y-81732452D02*
X104901976Y-81684833D01*
X104949595Y-81637214D01*
X104997214Y-81541976D01*
X104997214Y-81494357D01*
X104949595Y-81399119D01*
X104901976Y-81351500D01*
X104806738Y-81303881D01*
X104616261Y-81303881D01*
X104521023Y-81351500D01*
X104473404Y-81399119D01*
X104425785Y-81494357D01*
X104425785Y-81541976D01*
X104473404Y-81637214D01*
X104521023Y-81684833D01*
X104616261Y-81732452D01*
X104806738Y-81732452D01*
X104901976Y-81780071D01*
X104949595Y-81827690D01*
X104997214Y-81922929D01*
X104997214Y-82113405D01*
X104949595Y-82208643D01*
X104901976Y-82256262D01*
X104806738Y-82303881D01*
X104616261Y-82303881D01*
X104521023Y-82256262D01*
X104473404Y-82208643D01*
X104425785Y-82113405D01*
X104425785Y-81922929D01*
X104473404Y-81827690D01*
X104521023Y-81780071D01*
X104616261Y-81732452D01*
X101973095Y-81351500D02*
X102068333Y-81303881D01*
X102211190Y-81303881D01*
X102354048Y-81351500D01*
X102449286Y-81446738D01*
X102496905Y-81541976D01*
X102544524Y-81732452D01*
X102544524Y-81875310D01*
X102496905Y-82065786D01*
X102449286Y-82161024D01*
X102354048Y-82256262D01*
X102211190Y-82303881D01*
X102115952Y-82303881D01*
X101973095Y-82256262D01*
X101925476Y-82208643D01*
X101925476Y-81875310D01*
X102115952Y-81875310D01*
X121879833Y-104572214D02*
X121879833Y-105238881D01*
X122117929Y-104191262D02*
X122356024Y-104905548D01*
X121736976Y-104905548D01*
X121213167Y-104667452D02*
X121308405Y-104619833D01*
X121356024Y-104572214D01*
X121403643Y-104476976D01*
X121403643Y-104429357D01*
X121356024Y-104334119D01*
X121308405Y-104286500D01*
X121213167Y-104238881D01*
X121022690Y-104238881D01*
X120927452Y-104286500D01*
X120879833Y-104334119D01*
X120832214Y-104429357D01*
X120832214Y-104476976D01*
X120879833Y-104572214D01*
X120927452Y-104619833D01*
X121022690Y-104667452D01*
X121213167Y-104667452D01*
X121308405Y-104715071D01*
X121356024Y-104762690D01*
X121403643Y-104857929D01*
X121403643Y-105048405D01*
X121356024Y-105143643D01*
X121308405Y-105191262D01*
X121213167Y-105238881D01*
X121022690Y-105238881D01*
X120927452Y-105191262D01*
X120879833Y-105143643D01*
X120832214Y-105048405D01*
X120832214Y-104857929D01*
X120879833Y-104762690D01*
X120927452Y-104715071D01*
X121022690Y-104667452D01*
X119927452Y-104238881D02*
X120403643Y-104238881D01*
X120451262Y-104715071D01*
X120403643Y-104667452D01*
X120308405Y-104619833D01*
X120070309Y-104619833D01*
X119975071Y-104667452D01*
X119927452Y-104715071D01*
X119879833Y-104810310D01*
X119879833Y-105048405D01*
X119927452Y-105143643D01*
X119975071Y-105191262D01*
X120070309Y-105238881D01*
X120308405Y-105238881D01*
X120403643Y-105191262D01*
X120451262Y-105143643D01*
X118736976Y-104191262D02*
X119594119Y-105476976D01*
X118451262Y-104334119D02*
X118403643Y-104286500D01*
X118308405Y-104238881D01*
X118070309Y-104238881D01*
X117975071Y-104286500D01*
X117927452Y-104334119D01*
X117879833Y-104429357D01*
X117879833Y-104524595D01*
X117927452Y-104667452D01*
X118498881Y-105238881D01*
X117879833Y-105238881D01*
X117451262Y-105143643D02*
X117403643Y-105191262D01*
X117451262Y-105238881D01*
X117498881Y-105191262D01*
X117451262Y-105143643D01*
X117451262Y-105238881D01*
X116546500Y-104572214D02*
X116546500Y-105238881D01*
X116784596Y-104191262D02*
X117022691Y-104905548D01*
X116403643Y-104905548D01*
X115498881Y-104286500D02*
X115594119Y-104238881D01*
X115736976Y-104238881D01*
X115879834Y-104286500D01*
X115975072Y-104381738D01*
X116022691Y-104476976D01*
X116070310Y-104667452D01*
X116070310Y-104810310D01*
X116022691Y-105000786D01*
X115975072Y-105096024D01*
X115879834Y-105191262D01*
X115736976Y-105238881D01*
X115641738Y-105238881D01*
X115498881Y-105191262D01*
X115451262Y-105143643D01*
X115451262Y-104810310D01*
X115641738Y-104810310D01*
X115022691Y-105238881D02*
X115022691Y-104238881D01*
X114594119Y-105238881D02*
X114594119Y-104715071D01*
X114641738Y-104619833D01*
X114736976Y-104572214D01*
X114879834Y-104572214D01*
X114975072Y-104619833D01*
X115022691Y-104667452D01*
X114213167Y-104572214D02*
X113689357Y-104572214D01*
X114213167Y-105238881D01*
X113689357Y-105238881D01*
X121451263Y-106217452D02*
X121546501Y-106169833D01*
X121594120Y-106122214D01*
X121641739Y-106026976D01*
X121641739Y-105979357D01*
X121594120Y-105884119D01*
X121546501Y-105836500D01*
X121451263Y-105788881D01*
X121260786Y-105788881D01*
X121165548Y-105836500D01*
X121117929Y-105884119D01*
X121070310Y-105979357D01*
X121070310Y-106026976D01*
X121117929Y-106122214D01*
X121165548Y-106169833D01*
X121260786Y-106217452D01*
X121451263Y-106217452D01*
X121546501Y-106265071D01*
X121594120Y-106312690D01*
X121641739Y-106407929D01*
X121641739Y-106598405D01*
X121594120Y-106693643D01*
X121546501Y-106741262D01*
X121451263Y-106788881D01*
X121260786Y-106788881D01*
X121165548Y-106741262D01*
X121117929Y-106693643D01*
X121070310Y-106598405D01*
X121070310Y-106407929D01*
X121117929Y-106312690D01*
X121165548Y-106265071D01*
X121260786Y-106217452D01*
X119451262Y-106741262D02*
X119546500Y-106788881D01*
X119736977Y-106788881D01*
X119832215Y-106741262D01*
X119879834Y-106693643D01*
X119927453Y-106598405D01*
X119927453Y-106312690D01*
X119879834Y-106217452D01*
X119832215Y-106169833D01*
X119736977Y-106122214D01*
X119546500Y-106122214D01*
X119451262Y-106169833D01*
X119022691Y-106788881D02*
X119022691Y-105788881D01*
X118594119Y-106788881D02*
X118594119Y-106265071D01*
X118641738Y-106169833D01*
X118736976Y-106122214D01*
X118879834Y-106122214D01*
X118975072Y-106169833D01*
X119022691Y-106217452D01*
X117689357Y-106788881D02*
X117689357Y-106265071D01*
X117736976Y-106169833D01*
X117832214Y-106122214D01*
X118022691Y-106122214D01*
X118117929Y-106169833D01*
X117689357Y-106741262D02*
X117784595Y-106788881D01*
X118022691Y-106788881D01*
X118117929Y-106741262D01*
X118165548Y-106646024D01*
X118165548Y-106550786D01*
X118117929Y-106455548D01*
X118022691Y-106407929D01*
X117784595Y-106407929D01*
X117689357Y-106360310D01*
X117213167Y-106122214D02*
X117213167Y-106788881D01*
X117213167Y-106217452D02*
X117165548Y-106169833D01*
X117070310Y-106122214D01*
X116927452Y-106122214D01*
X116832214Y-106169833D01*
X116784595Y-106265071D01*
X116784595Y-106788881D01*
X116308405Y-106122214D02*
X116308405Y-106788881D01*
X116308405Y-106217452D02*
X116260786Y-106169833D01*
X116165548Y-106122214D01*
X116022690Y-106122214D01*
X115927452Y-106169833D01*
X115879833Y-106265071D01*
X115879833Y-106788881D01*
X115022690Y-106741262D02*
X115117928Y-106788881D01*
X115308405Y-106788881D01*
X115403643Y-106741262D01*
X115451262Y-106646024D01*
X115451262Y-106265071D01*
X115403643Y-106169833D01*
X115308405Y-106122214D01*
X115117928Y-106122214D01*
X115022690Y-106169833D01*
X114975071Y-106265071D01*
X114975071Y-106360310D01*
X115451262Y-106455548D01*
X114403643Y-106788881D02*
X114498881Y-106741262D01*
X114546500Y-106646024D01*
X114546500Y-105788881D01*
X120356024Y-107672214D02*
X120356024Y-108338881D01*
X120594120Y-107291262D02*
X120832215Y-108005548D01*
X120213167Y-108005548D01*
X118641738Y-107672214D02*
X118641738Y-108481738D01*
X118689357Y-108576976D01*
X118736976Y-108624595D01*
X118832215Y-108672214D01*
X118975072Y-108672214D01*
X119070310Y-108624595D01*
X118641738Y-108291262D02*
X118736976Y-108338881D01*
X118927453Y-108338881D01*
X119022691Y-108291262D01*
X119070310Y-108243643D01*
X119117929Y-108148405D01*
X119117929Y-107862690D01*
X119070310Y-107767452D01*
X119022691Y-107719833D01*
X118927453Y-107672214D01*
X118736976Y-107672214D01*
X118641738Y-107719833D01*
X118165548Y-108338881D02*
X118165548Y-107672214D01*
X118165548Y-107862690D02*
X118117929Y-107767452D01*
X118070310Y-107719833D01*
X117975072Y-107672214D01*
X117879833Y-107672214D01*
X117403643Y-108338881D02*
X117498881Y-108291262D01*
X117546500Y-108243643D01*
X117594119Y-108148405D01*
X117594119Y-107862690D01*
X117546500Y-107767452D01*
X117498881Y-107719833D01*
X117403643Y-107672214D01*
X117260785Y-107672214D01*
X117165547Y-107719833D01*
X117117928Y-107767452D01*
X117070309Y-107862690D01*
X117070309Y-108148405D01*
X117117928Y-108243643D01*
X117165547Y-108291262D01*
X117260785Y-108338881D01*
X117403643Y-108338881D01*
X116213166Y-107672214D02*
X116213166Y-108338881D01*
X116641738Y-107672214D02*
X116641738Y-108196024D01*
X116594119Y-108291262D01*
X116498881Y-108338881D01*
X116356023Y-108338881D01*
X116260785Y-108291262D01*
X116213166Y-108243643D01*
X115736976Y-107672214D02*
X115736976Y-108672214D01*
X115736976Y-107719833D02*
X115641738Y-107672214D01*
X115451261Y-107672214D01*
X115356023Y-107719833D01*
X115308404Y-107767452D01*
X115260785Y-107862690D01*
X115260785Y-108148405D01*
X115308404Y-108243643D01*
X115356023Y-108291262D01*
X115451261Y-108338881D01*
X115641738Y-108338881D01*
X115736976Y-108291262D01*
X120903642Y-109793643D02*
X120951261Y-109841262D01*
X121094118Y-109888881D01*
X121189356Y-109888881D01*
X121332214Y-109841262D01*
X121427452Y-109746024D01*
X121475071Y-109650786D01*
X121522690Y-109460310D01*
X121522690Y-109317452D01*
X121475071Y-109126976D01*
X121427452Y-109031738D01*
X121332214Y-108936500D01*
X121189356Y-108888881D01*
X121094118Y-108888881D01*
X120951261Y-108936500D01*
X120903642Y-108984119D01*
X120570309Y-108888881D02*
X120332214Y-109888881D01*
X120141737Y-109174595D01*
X119951261Y-109888881D01*
X119713166Y-108888881D01*
X119427452Y-108888881D02*
X119189357Y-109888881D01*
X118998880Y-109174595D01*
X118808404Y-109888881D01*
X118570309Y-108888881D01*
X117427452Y-109888881D02*
X117427452Y-108888881D01*
X117046499Y-108888881D01*
X116951261Y-108936500D01*
X116903642Y-108984119D01*
X116856023Y-109079357D01*
X116856023Y-109222214D01*
X116903642Y-109317452D01*
X116951261Y-109365071D01*
X117046499Y-109412690D01*
X117427452Y-109412690D01*
X116522690Y-108888881D02*
X116284595Y-109888881D01*
X116094118Y-109174595D01*
X115903642Y-109888881D01*
X115665547Y-108888881D01*
X115284595Y-109888881D02*
X115284595Y-108888881D01*
X114951261Y-109603167D01*
X114617928Y-108888881D01*
X114617928Y-109888881D01*
X120951263Y-111343643D02*
X120998882Y-111391262D01*
X121141739Y-111438881D01*
X121236977Y-111438881D01*
X121379835Y-111391262D01*
X121475073Y-111296024D01*
X121522692Y-111200786D01*
X121570311Y-111010310D01*
X121570311Y-110867452D01*
X121522692Y-110676976D01*
X121475073Y-110581738D01*
X121379835Y-110486500D01*
X121236977Y-110438881D01*
X121141739Y-110438881D01*
X120998882Y-110486500D01*
X120951263Y-110534119D01*
X120379835Y-111438881D02*
X120475073Y-111391262D01*
X120522692Y-111343643D01*
X120570311Y-111248405D01*
X120570311Y-110962690D01*
X120522692Y-110867452D01*
X120475073Y-110819833D01*
X120379835Y-110772214D01*
X120236977Y-110772214D01*
X120141739Y-110819833D01*
X120094120Y-110867452D01*
X120046501Y-110962690D01*
X120046501Y-111248405D01*
X120094120Y-111343643D01*
X120141739Y-111391262D01*
X120236977Y-111438881D01*
X120379835Y-111438881D01*
X119617930Y-110772214D02*
X119617930Y-111438881D01*
X119617930Y-110867452D02*
X119570311Y-110819833D01*
X119475073Y-110772214D01*
X119332215Y-110772214D01*
X119236977Y-110819833D01*
X119189358Y-110915071D01*
X119189358Y-111438881D01*
X118856025Y-110772214D02*
X118475073Y-110772214D01*
X118713168Y-110438881D02*
X118713168Y-111296024D01*
X118665549Y-111391262D01*
X118570311Y-111438881D01*
X118475073Y-111438881D01*
X118141739Y-111438881D02*
X118141739Y-110772214D01*
X118141739Y-110962690D02*
X118094120Y-110867452D01*
X118046501Y-110819833D01*
X117951263Y-110772214D01*
X117856024Y-110772214D01*
X117379834Y-111438881D02*
X117475072Y-111391262D01*
X117522691Y-111343643D01*
X117570310Y-111248405D01*
X117570310Y-110962690D01*
X117522691Y-110867452D01*
X117475072Y-110819833D01*
X117379834Y-110772214D01*
X117236976Y-110772214D01*
X117141738Y-110819833D01*
X117094119Y-110867452D01*
X117046500Y-110962690D01*
X117046500Y-111248405D01*
X117094119Y-111343643D01*
X117141738Y-111391262D01*
X117236976Y-111438881D01*
X117379834Y-111438881D01*
X116475072Y-111438881D02*
X116570310Y-111391262D01*
X116617929Y-111296024D01*
X116617929Y-110438881D01*
X115951262Y-111438881D02*
X116046500Y-111391262D01*
X116094119Y-111296024D01*
X116094119Y-110438881D01*
X115189356Y-111391262D02*
X115284594Y-111438881D01*
X115475071Y-111438881D01*
X115570309Y-111391262D01*
X115617928Y-111296024D01*
X115617928Y-110915071D01*
X115570309Y-110819833D01*
X115475071Y-110772214D01*
X115284594Y-110772214D01*
X115189356Y-110819833D01*
X115141737Y-110915071D01*
X115141737Y-111010310D01*
X115617928Y-111105548D01*
X114713166Y-111438881D02*
X114713166Y-110772214D01*
X114713166Y-110962690D02*
X114665547Y-110867452D01*
X114617928Y-110819833D01*
X114522690Y-110772214D01*
X114427451Y-110772214D01*
X119524495Y-123782200D02*
X119619733Y-123734581D01*
X119762590Y-123734581D01*
X119905448Y-123782200D01*
X120000686Y-123877438D01*
X120048305Y-123972676D01*
X120095924Y-124163152D01*
X120095924Y-124306010D01*
X120048305Y-124496486D01*
X120000686Y-124591724D01*
X119905448Y-124686962D01*
X119762590Y-124734581D01*
X119667352Y-124734581D01*
X119524495Y-124686962D01*
X119476876Y-124639343D01*
X119476876Y-124306010D01*
X119667352Y-124306010D01*
X117481314Y-123880619D02*
X117433695Y-123833000D01*
X117338457Y-123785381D01*
X117100361Y-123785381D01*
X117005123Y-123833000D01*
X116957504Y-123880619D01*
X116909885Y-123975857D01*
X116909885Y-124071095D01*
X116957504Y-124213952D01*
X117528933Y-124785381D01*
X116909885Y-124785381D01*
X114369885Y-124785381D02*
X114941314Y-124785381D01*
X114655600Y-124785381D02*
X114655600Y-123785381D01*
X114750838Y-123928238D01*
X114846076Y-124023476D01*
X114941314Y-124071095D01*
X118651162Y-123413781D02*
X118651162Y-122413781D01*
X118270209Y-122413781D01*
X118174971Y-122461400D01*
X118127352Y-122509019D01*
X118079733Y-122604257D01*
X118079733Y-122747114D01*
X118127352Y-122842352D01*
X118174971Y-122889971D01*
X118270209Y-122937590D01*
X118651162Y-122937590D01*
X117746400Y-122413781D02*
X117508305Y-123413781D01*
X117317828Y-122699495D01*
X117127352Y-123413781D01*
X116889257Y-122413781D01*
X116508305Y-123413781D02*
X116508305Y-122413781D01*
X116174971Y-123128067D01*
X115841638Y-122413781D01*
X115841638Y-123413781D01*
X101269752Y-124429829D02*
X100507847Y-124429829D01*
X100888799Y-124810781D02*
X100888799Y-124048876D01*
X106502152Y-124506029D02*
X105740247Y-124506029D01*
X107032038Y-122714981D02*
X107032038Y-121714981D01*
X106651085Y-121714981D01*
X106555847Y-121762600D01*
X106508228Y-121810219D01*
X106460609Y-121905457D01*
X106460609Y-122048314D01*
X106508228Y-122143552D01*
X106555847Y-122191171D01*
X106651085Y-122238790D01*
X107032038Y-122238790D01*
X106127276Y-121714981D02*
X105889181Y-122714981D01*
X105698704Y-122000695D01*
X105508228Y-122714981D01*
X105270133Y-121714981D01*
X104317752Y-122714981D02*
X104651086Y-122238790D01*
X104889181Y-122714981D02*
X104889181Y-121714981D01*
X104508228Y-121714981D01*
X104412990Y-121762600D01*
X104365371Y-121810219D01*
X104317752Y-121905457D01*
X104317752Y-122048314D01*
X104365371Y-122143552D01*
X104412990Y-122191171D01*
X104508228Y-122238790D01*
X104889181Y-122238790D01*
X103174895Y-121810219D02*
X103127276Y-121762600D01*
X103032038Y-121714981D01*
X102793942Y-121714981D01*
X102698704Y-121762600D01*
X102651085Y-121810219D01*
X102603466Y-121905457D01*
X102603466Y-122000695D01*
X102651085Y-122143552D01*
X103222514Y-122714981D01*
X102603466Y-122714981D01*
X101746323Y-122048314D02*
X101746323Y-122714981D01*
X101984419Y-121667362D02*
X102222514Y-122381648D01*
X101603466Y-122381648D01*
X101365371Y-121714981D02*
X101032038Y-122714981D01*
X100698704Y-121714981D01*
X105127276Y-124264981D02*
X105127276Y-123264981D01*
X104793942Y-123979267D01*
X104460609Y-123264981D01*
X104460609Y-124264981D01*
X103555847Y-124264981D02*
X103555847Y-123741171D01*
X103603466Y-123645933D01*
X103698704Y-123598314D01*
X103889181Y-123598314D01*
X103984419Y-123645933D01*
X103555847Y-124217362D02*
X103651085Y-124264981D01*
X103889181Y-124264981D01*
X103984419Y-124217362D01*
X104032038Y-124122124D01*
X104032038Y-124026886D01*
X103984419Y-123931648D01*
X103889181Y-123884029D01*
X103651085Y-123884029D01*
X103555847Y-123836410D01*
X103174895Y-124264981D02*
X102651085Y-123598314D01*
X103174895Y-123598314D02*
X102651085Y-124264981D01*
X104411495Y-104960800D02*
X104506733Y-104913181D01*
X104649590Y-104913181D01*
X104792448Y-104960800D01*
X104887686Y-105056038D01*
X104935305Y-105151276D01*
X104982924Y-105341752D01*
X104982924Y-105484610D01*
X104935305Y-105675086D01*
X104887686Y-105770324D01*
X104792448Y-105865562D01*
X104649590Y-105913181D01*
X104554352Y-105913181D01*
X104411495Y-105865562D01*
X104363876Y-105817943D01*
X104363876Y-105484610D01*
X104554352Y-105484610D01*
X105624238Y-103277943D02*
X105671857Y-103325562D01*
X105814714Y-103373181D01*
X105909952Y-103373181D01*
X106052810Y-103325562D01*
X106148048Y-103230324D01*
X106195667Y-103135086D01*
X106243286Y-102944610D01*
X106243286Y-102801752D01*
X106195667Y-102611276D01*
X106148048Y-102516038D01*
X106052810Y-102420800D01*
X105909952Y-102373181D01*
X105814714Y-102373181D01*
X105671857Y-102420800D01*
X105624238Y-102468419D01*
X104719476Y-103373181D02*
X105195667Y-103373181D01*
X105195667Y-102373181D01*
X104386143Y-103373181D02*
X104386143Y-102373181D01*
X103814714Y-103373181D02*
X104243286Y-102801752D01*
X103814714Y-102373181D02*
X104386143Y-102944610D01*
X105502009Y-100680781D02*
X105502009Y-99680781D01*
X104835343Y-99680781D02*
X104644866Y-99680781D01*
X104549628Y-99728400D01*
X104454390Y-99823638D01*
X104406771Y-100014114D01*
X104406771Y-100347448D01*
X104454390Y-100537924D01*
X104549628Y-100633162D01*
X104644866Y-100680781D01*
X104835343Y-100680781D01*
X104930581Y-100633162D01*
X105025819Y-100537924D01*
X105073438Y-100347448D01*
X105073438Y-100014114D01*
X105025819Y-99823638D01*
X104930581Y-99728400D01*
X104835343Y-99680781D01*
X107013190Y-97089981D02*
X106394142Y-97089981D01*
X106727476Y-97470933D01*
X106584618Y-97470933D01*
X106489380Y-97518552D01*
X106441761Y-97566171D01*
X106394142Y-97661410D01*
X106394142Y-97899505D01*
X106441761Y-97994743D01*
X106489380Y-98042362D01*
X106584618Y-98089981D01*
X106870333Y-98089981D01*
X106965571Y-98042362D01*
X107013190Y-97994743D01*
X105965571Y-97994743D02*
X105917952Y-98042362D01*
X105965571Y-98089981D01*
X106013190Y-98042362D01*
X105965571Y-97994743D01*
X105965571Y-98089981D01*
X105584619Y-97089981D02*
X104965571Y-97089981D01*
X105298905Y-97470933D01*
X105156047Y-97470933D01*
X105060809Y-97518552D01*
X105013190Y-97566171D01*
X104965571Y-97661410D01*
X104965571Y-97899505D01*
X105013190Y-97994743D01*
X105060809Y-98042362D01*
X105156047Y-98089981D01*
X105441762Y-98089981D01*
X105537000Y-98042362D01*
X105584619Y-97994743D01*
X104679857Y-97089981D02*
X104346524Y-98089981D01*
X104013190Y-97089981D01*
X120280181Y-92062324D02*
X120280181Y-91586133D01*
X120756371Y-91538514D01*
X120708752Y-91586133D01*
X120661133Y-91681371D01*
X120661133Y-91919467D01*
X120708752Y-92014705D01*
X120756371Y-92062324D01*
X120851610Y-92109943D01*
X121089705Y-92109943D01*
X121184943Y-92062324D01*
X121232562Y-92014705D01*
X121280181Y-91919467D01*
X121280181Y-91681371D01*
X121232562Y-91586133D01*
X121184943Y-91538514D01*
X120280181Y-92395657D02*
X121280181Y-92728990D01*
X120280181Y-93062324D01*
X120378600Y-84869305D02*
X120330981Y-84774067D01*
X120330981Y-84631210D01*
X120378600Y-84488352D01*
X120473838Y-84393114D01*
X120569076Y-84345495D01*
X120759552Y-84297876D01*
X120902410Y-84297876D01*
X121092886Y-84345495D01*
X121188124Y-84393114D01*
X121283362Y-84488352D01*
X121330981Y-84631210D01*
X121330981Y-84726448D01*
X121283362Y-84869305D01*
X121235743Y-84916924D01*
X120902410Y-84916924D01*
X120902410Y-84726448D01*
X120756371Y-87295029D02*
X120803990Y-87437886D01*
X120851610Y-87485505D01*
X120946848Y-87533124D01*
X121089705Y-87533124D01*
X121184943Y-87485505D01*
X121232562Y-87437886D01*
X121280181Y-87342648D01*
X121280181Y-86961695D01*
X120280181Y-86961695D01*
X120280181Y-87295029D01*
X120327800Y-87390267D01*
X120375419Y-87437886D01*
X120470657Y-87485505D01*
X120565895Y-87485505D01*
X120661133Y-87437886D01*
X120708752Y-87390267D01*
X120756371Y-87295029D01*
X120756371Y-86961695D01*
X120943667Y-89423905D02*
X120943667Y-89900096D01*
X121229381Y-89328667D02*
X120229381Y-89662000D01*
X121229381Y-89995334D01*
X101982000Y-90519000D02*
X101982000Y-93519000D01*
X104982000Y-90519000D02*
X101982000Y-90519000D01*
X104982000Y-89519000D02*
X104982000Y-90519000D01*
X101982000Y-89519000D02*
X104982000Y-89519000D01*
X101982000Y-88519000D02*
X101982000Y-89519000D01*
X104982000Y-88519000D02*
X101982000Y-88519000D01*
X104982000Y-87519000D02*
X104982000Y-88519000D01*
X101982000Y-87519000D02*
X104982000Y-87519000D01*
X101982000Y-86519000D02*
X101982000Y-87519000D01*
X104982000Y-86519000D02*
X101982000Y-86519000D01*
X104982000Y-85519000D02*
X104982000Y-86519000D01*
X101982000Y-85519000D02*
X104982000Y-85519000D01*
X101982000Y-83519000D02*
X101982000Y-85519000D01*
X106982000Y-83519000D02*
X101982000Y-83519000D01*
X106982000Y-94519000D02*
X106982000Y-82519000D01*
X118982000Y-82519000D02*
X100982000Y-82519000D01*
X118982000Y-94519000D02*
X118982000Y-82519000D01*
X100982000Y-94519000D02*
X118982000Y-94519000D01*
X100982000Y-82519000D02*
X100982000Y-94519000D01*
D12*
G36*
X120862254Y-119924445D02*
X120809689Y-119924980D01*
X120655665Y-119928696D01*
X120526671Y-119939735D01*
X120418309Y-119959282D01*
X120326184Y-119988519D01*
X120245899Y-120028633D01*
X120173058Y-120080805D01*
X120147041Y-120103469D01*
X120103883Y-120156498D01*
X120064967Y-120228457D01*
X120034973Y-120308220D01*
X120018581Y-120384661D01*
X120016878Y-120412908D01*
X120027551Y-120491210D01*
X120056153Y-120576741D01*
X120097557Y-120657699D01*
X120146641Y-120722282D01*
X120154613Y-120730074D01*
X120222146Y-120784844D01*
X120296098Y-120827599D01*
X120380734Y-120859459D01*
X120480317Y-120881544D01*
X120599112Y-120894974D01*
X120741380Y-120900870D01*
X120806546Y-120901370D01*
X120889401Y-120900971D01*
X120947669Y-120899302D01*
X120986816Y-120895658D01*
X121012309Y-120889329D01*
X121029614Y-120879610D01*
X121038890Y-120871310D01*
X121047652Y-120861228D01*
X121054525Y-120848221D01*
X121059738Y-120828805D01*
X121063519Y-120799496D01*
X121066097Y-120756809D01*
X121067700Y-120697261D01*
X121068557Y-120617366D01*
X121068897Y-120513641D01*
X121068949Y-120412908D01*
X121069280Y-120278555D01*
X121069208Y-120171228D01*
X121067930Y-120119831D01*
X120873565Y-120119831D01*
X120873565Y-120705985D01*
X120749571Y-120705871D01*
X120674961Y-120703732D01*
X120596818Y-120698219D01*
X120531620Y-120690508D01*
X120529636Y-120690191D01*
X120424263Y-120664714D01*
X120342532Y-120625036D01*
X120280362Y-120568574D01*
X120240860Y-120507442D01*
X120216520Y-120439629D01*
X120218407Y-120375955D01*
X120246655Y-120307701D01*
X120301908Y-120237092D01*
X120378473Y-120184771D01*
X120477995Y-120149799D01*
X120544507Y-120137422D01*
X120620007Y-120128730D01*
X120700025Y-120122440D01*
X120768084Y-120119824D01*
X120772115Y-120119812D01*
X120873565Y-120119831D01*
X121067930Y-120119831D01*
X121067136Y-120087917D01*
X121061461Y-120025615D01*
X121050587Y-119981311D01*
X121032914Y-119951996D01*
X121006843Y-119934661D01*
X120970775Y-119926297D01*
X120923112Y-119923895D01*
X120862254Y-119924445D01*
X120862254Y-119924445D01*
G37*
X120862254Y-119924445D02*
X120809689Y-119924980D01*
X120655665Y-119928696D01*
X120526671Y-119939735D01*
X120418309Y-119959282D01*
X120326184Y-119988519D01*
X120245899Y-120028633D01*
X120173058Y-120080805D01*
X120147041Y-120103469D01*
X120103883Y-120156498D01*
X120064967Y-120228457D01*
X120034973Y-120308220D01*
X120018581Y-120384661D01*
X120016878Y-120412908D01*
X120027551Y-120491210D01*
X120056153Y-120576741D01*
X120097557Y-120657699D01*
X120146641Y-120722282D01*
X120154613Y-120730074D01*
X120222146Y-120784844D01*
X120296098Y-120827599D01*
X120380734Y-120859459D01*
X120480317Y-120881544D01*
X120599112Y-120894974D01*
X120741380Y-120900870D01*
X120806546Y-120901370D01*
X120889401Y-120900971D01*
X120947669Y-120899302D01*
X120986816Y-120895658D01*
X121012309Y-120889329D01*
X121029614Y-120879610D01*
X121038890Y-120871310D01*
X121047652Y-120861228D01*
X121054525Y-120848221D01*
X121059738Y-120828805D01*
X121063519Y-120799496D01*
X121066097Y-120756809D01*
X121067700Y-120697261D01*
X121068557Y-120617366D01*
X121068897Y-120513641D01*
X121068949Y-120412908D01*
X121069280Y-120278555D01*
X121069208Y-120171228D01*
X121067930Y-120119831D01*
X120873565Y-120119831D01*
X120873565Y-120705985D01*
X120749571Y-120705871D01*
X120674961Y-120703732D01*
X120596818Y-120698219D01*
X120531620Y-120690508D01*
X120529636Y-120690191D01*
X120424263Y-120664714D01*
X120342532Y-120625036D01*
X120280362Y-120568574D01*
X120240860Y-120507442D01*
X120216520Y-120439629D01*
X120218407Y-120375955D01*
X120246655Y-120307701D01*
X120301908Y-120237092D01*
X120378473Y-120184771D01*
X120477995Y-120149799D01*
X120544507Y-120137422D01*
X120620007Y-120128730D01*
X120700025Y-120122440D01*
X120768084Y-120119824D01*
X120772115Y-120119812D01*
X120873565Y-120119831D01*
X121067930Y-120119831D01*
X121067136Y-120087917D01*
X121061461Y-120025615D01*
X121050587Y-119981311D01*
X121032914Y-119951996D01*
X121006843Y-119934661D01*
X120970775Y-119926297D01*
X120923112Y-119923895D01*
X120862254Y-119924445D01*
G36*
X118986930Y-119924552D02*
X118894522Y-119925048D01*
X118824773Y-119926201D01*
X118773983Y-119928280D01*
X118738451Y-119931551D01*
X118714478Y-119936283D01*
X118698364Y-119942743D01*
X118686409Y-119951199D01*
X118682079Y-119955091D01*
X118655751Y-119996440D01*
X118651011Y-120043952D01*
X118668330Y-120086131D01*
X118676339Y-120094656D01*
X118689292Y-120102921D01*
X118710148Y-120109297D01*
X118742776Y-120114095D01*
X118791042Y-120117624D01*
X118858814Y-120120194D01*
X118949960Y-120122117D01*
X119033291Y-120123287D01*
X119363092Y-120127346D01*
X119372106Y-120300186D01*
X119148242Y-120300186D01*
X119051054Y-120301025D01*
X118979903Y-120304532D01*
X118930791Y-120312195D01*
X118899717Y-120325503D01*
X118882684Y-120345941D01*
X118875692Y-120374999D01*
X118874630Y-120401967D01*
X118877930Y-120435057D01*
X118890383Y-120459440D01*
X118915820Y-120476389D01*
X118958071Y-120487179D01*
X119020966Y-120493084D01*
X119108335Y-120495377D01*
X119156021Y-120495571D01*
X119370606Y-120495571D01*
X119370606Y-120705985D01*
X119039955Y-120705985D01*
X118931570Y-120706136D01*
X118849197Y-120706814D01*
X118788789Y-120708356D01*
X118746299Y-120711099D01*
X118717681Y-120715381D01*
X118698888Y-120721539D01*
X118685874Y-120729909D01*
X118679245Y-120736044D01*
X118656507Y-120771849D01*
X118649186Y-120803677D01*
X118659639Y-120842554D01*
X118679245Y-120871310D01*
X118689705Y-120880363D01*
X118703208Y-120887393D01*
X118723386Y-120892654D01*
X118753871Y-120896401D01*
X118798295Y-120898890D01*
X118860291Y-120900375D01*
X118943491Y-120901111D01*
X119051527Y-120901354D01*
X119107589Y-120901370D01*
X119227644Y-120901263D01*
X119321274Y-120900775D01*
X119392109Y-120899649D01*
X119443781Y-120897631D01*
X119479923Y-120894466D01*
X119504168Y-120889899D01*
X119520147Y-120883676D01*
X119531493Y-120875540D01*
X119535932Y-120871310D01*
X119544717Y-120861196D01*
X119551604Y-120848148D01*
X119556821Y-120828670D01*
X119560599Y-120799264D01*
X119563170Y-120756434D01*
X119564764Y-120696684D01*
X119565611Y-120616517D01*
X119565942Y-120512437D01*
X119565991Y-120415528D01*
X119565946Y-120291423D01*
X119565634Y-120193866D01*
X119564788Y-120119346D01*
X119563142Y-120064351D01*
X119560429Y-120025370D01*
X119556383Y-119998893D01*
X119550737Y-119981406D01*
X119543226Y-119969400D01*
X119533582Y-119959363D01*
X119531206Y-119957126D01*
X119519675Y-119947219D01*
X119506278Y-119939548D01*
X119487296Y-119933826D01*
X119459015Y-119929768D01*
X119417718Y-119927088D01*
X119359688Y-119925502D01*
X119281209Y-119924724D01*
X119178566Y-119924468D01*
X119105696Y-119924446D01*
X118986930Y-119924552D01*
X118986930Y-119924552D01*
G37*
X118986930Y-119924552D02*
X118894522Y-119925048D01*
X118824773Y-119926201D01*
X118773983Y-119928280D01*
X118738451Y-119931551D01*
X118714478Y-119936283D01*
X118698364Y-119942743D01*
X118686409Y-119951199D01*
X118682079Y-119955091D01*
X118655751Y-119996440D01*
X118651011Y-120043952D01*
X118668330Y-120086131D01*
X118676339Y-120094656D01*
X118689292Y-120102921D01*
X118710148Y-120109297D01*
X118742776Y-120114095D01*
X118791042Y-120117624D01*
X118858814Y-120120194D01*
X118949960Y-120122117D01*
X119033291Y-120123287D01*
X119363092Y-120127346D01*
X119372106Y-120300186D01*
X119148242Y-120300186D01*
X119051054Y-120301025D01*
X118979903Y-120304532D01*
X118930791Y-120312195D01*
X118899717Y-120325503D01*
X118882684Y-120345941D01*
X118875692Y-120374999D01*
X118874630Y-120401967D01*
X118877930Y-120435057D01*
X118890383Y-120459440D01*
X118915820Y-120476389D01*
X118958071Y-120487179D01*
X119020966Y-120493084D01*
X119108335Y-120495377D01*
X119156021Y-120495571D01*
X119370606Y-120495571D01*
X119370606Y-120705985D01*
X119039955Y-120705985D01*
X118931570Y-120706136D01*
X118849197Y-120706814D01*
X118788789Y-120708356D01*
X118746299Y-120711099D01*
X118717681Y-120715381D01*
X118698888Y-120721539D01*
X118685874Y-120729909D01*
X118679245Y-120736044D01*
X118656507Y-120771849D01*
X118649186Y-120803677D01*
X118659639Y-120842554D01*
X118679245Y-120871310D01*
X118689705Y-120880363D01*
X118703208Y-120887393D01*
X118723386Y-120892654D01*
X118753871Y-120896401D01*
X118798295Y-120898890D01*
X118860291Y-120900375D01*
X118943491Y-120901111D01*
X119051527Y-120901354D01*
X119107589Y-120901370D01*
X119227644Y-120901263D01*
X119321274Y-120900775D01*
X119392109Y-120899649D01*
X119443781Y-120897631D01*
X119479923Y-120894466D01*
X119504168Y-120889899D01*
X119520147Y-120883676D01*
X119531493Y-120875540D01*
X119535932Y-120871310D01*
X119544717Y-120861196D01*
X119551604Y-120848148D01*
X119556821Y-120828670D01*
X119560599Y-120799264D01*
X119563170Y-120756434D01*
X119564764Y-120696684D01*
X119565611Y-120616517D01*
X119565942Y-120512437D01*
X119565991Y-120415528D01*
X119565946Y-120291423D01*
X119565634Y-120193866D01*
X119564788Y-120119346D01*
X119563142Y-120064351D01*
X119560429Y-120025370D01*
X119556383Y-119998893D01*
X119550737Y-119981406D01*
X119543226Y-119969400D01*
X119533582Y-119959363D01*
X119531206Y-119957126D01*
X119519675Y-119947219D01*
X119506278Y-119939548D01*
X119487296Y-119933826D01*
X119459015Y-119929768D01*
X119417718Y-119927088D01*
X119359688Y-119925502D01*
X119281209Y-119924724D01*
X119178566Y-119924468D01*
X119105696Y-119924446D01*
X118986930Y-119924552D01*
G36*
X117627488Y-119926157D02*
X117527883Y-119933120D01*
X117435244Y-119943995D01*
X117354958Y-119958374D01*
X117292408Y-119975846D01*
X117252981Y-119996002D01*
X117246929Y-120001935D01*
X117225884Y-120047975D01*
X117232266Y-120095240D01*
X117264907Y-120135678D01*
X117266464Y-120136837D01*
X117285663Y-120149297D01*
X117305705Y-120155849D01*
X117333660Y-120156644D01*
X117376599Y-120151836D01*
X117441591Y-120141575D01*
X117446819Y-120140711D01*
X117543661Y-120128814D01*
X117648144Y-120122945D01*
X117752935Y-120122888D01*
X117850702Y-120128427D01*
X117934112Y-120139345D01*
X117995833Y-120155425D01*
X117999888Y-120157041D01*
X118044664Y-120182129D01*
X118060396Y-120207518D01*
X118048080Y-120232487D01*
X118008715Y-120256316D01*
X117943298Y-120278282D01*
X117852826Y-120297666D01*
X117792500Y-120306998D01*
X117667100Y-120324949D01*
X117567365Y-120341359D01*
X117489046Y-120357648D01*
X117427893Y-120375238D01*
X117379659Y-120395549D01*
X117340095Y-120420003D01*
X117304952Y-120450020D01*
X117276711Y-120479496D01*
X117243208Y-120520567D01*
X117226719Y-120555882D01*
X117221563Y-120599393D01*
X117221376Y-120615328D01*
X117225248Y-120668205D01*
X117240727Y-120707543D01*
X117267515Y-120742460D01*
X117321959Y-120795834D01*
X117382670Y-120836538D01*
X117454158Y-120865900D01*
X117540936Y-120885247D01*
X117647514Y-120895906D01*
X117778403Y-120899205D01*
X117800015Y-120899149D01*
X117887298Y-120897340D01*
X117973859Y-120893229D01*
X118050262Y-120887406D01*
X118107070Y-120880461D01*
X118111664Y-120879664D01*
X118168145Y-120866284D01*
X118216052Y-120849382D01*
X118243173Y-120833931D01*
X118268411Y-120793166D01*
X118270169Y-120745698D01*
X118248412Y-120703395D01*
X118243544Y-120698612D01*
X118223422Y-120684399D01*
X118198258Y-120678276D01*
X118159313Y-120679318D01*
X118112035Y-120684734D01*
X118059205Y-120689573D01*
X117985148Y-120693655D01*
X117898691Y-120696618D01*
X117808663Y-120698097D01*
X117784985Y-120698194D01*
X117694622Y-120697830D01*
X117628489Y-120696076D01*
X117580767Y-120692323D01*
X117545638Y-120685963D01*
X117517282Y-120676387D01*
X117500241Y-120668411D01*
X117462796Y-120646265D01*
X117438921Y-120626208D01*
X117435432Y-120620523D01*
X117442793Y-120597045D01*
X117477787Y-120574317D01*
X117537988Y-120553370D01*
X117620971Y-120535236D01*
X117645420Y-120531197D01*
X117773122Y-120511139D01*
X117875040Y-120494374D01*
X117955106Y-120479683D01*
X118017254Y-120465848D01*
X118065418Y-120451651D01*
X118103532Y-120435873D01*
X118135530Y-120417296D01*
X118165344Y-120394702D01*
X118196910Y-120366873D01*
X118207532Y-120357116D01*
X118244773Y-120320702D01*
X118264487Y-120291852D01*
X118272199Y-120258838D01*
X118273447Y-120217235D01*
X118259715Y-120135651D01*
X118218678Y-120066334D01*
X118150570Y-120009508D01*
X118055627Y-119965397D01*
X117987884Y-119945612D01*
X117914259Y-119932833D01*
X117826061Y-119925604D01*
X117728676Y-119923515D01*
X117627488Y-119926157D01*
X117627488Y-119926157D01*
G37*
X117627488Y-119926157D02*
X117527883Y-119933120D01*
X117435244Y-119943995D01*
X117354958Y-119958374D01*
X117292408Y-119975846D01*
X117252981Y-119996002D01*
X117246929Y-120001935D01*
X117225884Y-120047975D01*
X117232266Y-120095240D01*
X117264907Y-120135678D01*
X117266464Y-120136837D01*
X117285663Y-120149297D01*
X117305705Y-120155849D01*
X117333660Y-120156644D01*
X117376599Y-120151836D01*
X117441591Y-120141575D01*
X117446819Y-120140711D01*
X117543661Y-120128814D01*
X117648144Y-120122945D01*
X117752935Y-120122888D01*
X117850702Y-120128427D01*
X117934112Y-120139345D01*
X117995833Y-120155425D01*
X117999888Y-120157041D01*
X118044664Y-120182129D01*
X118060396Y-120207518D01*
X118048080Y-120232487D01*
X118008715Y-120256316D01*
X117943298Y-120278282D01*
X117852826Y-120297666D01*
X117792500Y-120306998D01*
X117667100Y-120324949D01*
X117567365Y-120341359D01*
X117489046Y-120357648D01*
X117427893Y-120375238D01*
X117379659Y-120395549D01*
X117340095Y-120420003D01*
X117304952Y-120450020D01*
X117276711Y-120479496D01*
X117243208Y-120520567D01*
X117226719Y-120555882D01*
X117221563Y-120599393D01*
X117221376Y-120615328D01*
X117225248Y-120668205D01*
X117240727Y-120707543D01*
X117267515Y-120742460D01*
X117321959Y-120795834D01*
X117382670Y-120836538D01*
X117454158Y-120865900D01*
X117540936Y-120885247D01*
X117647514Y-120895906D01*
X117778403Y-120899205D01*
X117800015Y-120899149D01*
X117887298Y-120897340D01*
X117973859Y-120893229D01*
X118050262Y-120887406D01*
X118107070Y-120880461D01*
X118111664Y-120879664D01*
X118168145Y-120866284D01*
X118216052Y-120849382D01*
X118243173Y-120833931D01*
X118268411Y-120793166D01*
X118270169Y-120745698D01*
X118248412Y-120703395D01*
X118243544Y-120698612D01*
X118223422Y-120684399D01*
X118198258Y-120678276D01*
X118159313Y-120679318D01*
X118112035Y-120684734D01*
X118059205Y-120689573D01*
X117985148Y-120693655D01*
X117898691Y-120696618D01*
X117808663Y-120698097D01*
X117784985Y-120698194D01*
X117694622Y-120697830D01*
X117628489Y-120696076D01*
X117580767Y-120692323D01*
X117545638Y-120685963D01*
X117517282Y-120676387D01*
X117500241Y-120668411D01*
X117462796Y-120646265D01*
X117438921Y-120626208D01*
X117435432Y-120620523D01*
X117442793Y-120597045D01*
X117477787Y-120574317D01*
X117537988Y-120553370D01*
X117620971Y-120535236D01*
X117645420Y-120531197D01*
X117773122Y-120511139D01*
X117875040Y-120494374D01*
X117955106Y-120479683D01*
X118017254Y-120465848D01*
X118065418Y-120451651D01*
X118103532Y-120435873D01*
X118135530Y-120417296D01*
X118165344Y-120394702D01*
X118196910Y-120366873D01*
X118207532Y-120357116D01*
X118244773Y-120320702D01*
X118264487Y-120291852D01*
X118272199Y-120258838D01*
X118273447Y-120217235D01*
X118259715Y-120135651D01*
X118218678Y-120066334D01*
X118150570Y-120009508D01*
X118055627Y-119965397D01*
X117987884Y-119945612D01*
X117914259Y-119932833D01*
X117826061Y-119925604D01*
X117728676Y-119923515D01*
X117627488Y-119926157D01*
G36*
X116605163Y-119954506D02*
X116596401Y-119964588D01*
X116589528Y-119977595D01*
X116584315Y-119997011D01*
X116580534Y-120026320D01*
X116577956Y-120069007D01*
X116576353Y-120128555D01*
X116575495Y-120208450D01*
X116575156Y-120312176D01*
X116575103Y-120412908D01*
X116575196Y-120537852D01*
X116575627Y-120636221D01*
X116576623Y-120711501D01*
X116578415Y-120767174D01*
X116581229Y-120806726D01*
X116585296Y-120833641D01*
X116590842Y-120851403D01*
X116598097Y-120863497D01*
X116605163Y-120871310D01*
X116649102Y-120897512D01*
X116695920Y-120895161D01*
X116737809Y-120866584D01*
X116747434Y-120855427D01*
X116754955Y-120842483D01*
X116760634Y-120824172D01*
X116764727Y-120796918D01*
X116767495Y-120757140D01*
X116769196Y-120701262D01*
X116770089Y-120625704D01*
X116770433Y-120526888D01*
X116770488Y-120415014D01*
X116770488Y-119998228D01*
X116733597Y-119961337D01*
X116688125Y-119930300D01*
X116644016Y-119929181D01*
X116605163Y-119954506D01*
X116605163Y-119954506D01*
G37*
X116605163Y-119954506D02*
X116596401Y-119964588D01*
X116589528Y-119977595D01*
X116584315Y-119997011D01*
X116580534Y-120026320D01*
X116577956Y-120069007D01*
X116576353Y-120128555D01*
X116575495Y-120208450D01*
X116575156Y-120312176D01*
X116575103Y-120412908D01*
X116575196Y-120537852D01*
X116575627Y-120636221D01*
X116576623Y-120711501D01*
X116578415Y-120767174D01*
X116581229Y-120806726D01*
X116585296Y-120833641D01*
X116590842Y-120851403D01*
X116598097Y-120863497D01*
X116605163Y-120871310D01*
X116649102Y-120897512D01*
X116695920Y-120895161D01*
X116737809Y-120866584D01*
X116747434Y-120855427D01*
X116754955Y-120842483D01*
X116760634Y-120824172D01*
X116764727Y-120796918D01*
X116767495Y-120757140D01*
X116769196Y-120701262D01*
X116770089Y-120625704D01*
X116770433Y-120526888D01*
X116770488Y-120415014D01*
X116770488Y-119998228D01*
X116733597Y-119961337D01*
X116688125Y-119930300D01*
X116644016Y-119929181D01*
X116605163Y-119954506D01*
G36*
X115308762Y-119931812D02*
X115217541Y-119947118D01*
X115147482Y-119970911D01*
X115101904Y-120002240D01*
X115089484Y-120020114D01*
X115076854Y-120061685D01*
X115085353Y-120099292D01*
X115112185Y-120134955D01*
X115153876Y-120151639D01*
X115214370Y-120150284D01*
X115261159Y-120141245D01*
X115365128Y-120124023D01*
X115471380Y-120122387D01*
X115590309Y-120136365D01*
X115623160Y-120142288D01*
X115733745Y-120173467D01*
X115820259Y-120219846D01*
X115881753Y-120280635D01*
X115917278Y-120355044D01*
X115924625Y-120393514D01*
X115919816Y-120471563D01*
X115888766Y-120540617D01*
X115834306Y-120599329D01*
X115759264Y-120646353D01*
X115666470Y-120680343D01*
X115558752Y-120699954D01*
X115438941Y-120703841D01*
X115309865Y-120690656D01*
X115302577Y-120689412D01*
X115251238Y-120679850D01*
X115222772Y-120670614D01*
X115210434Y-120656909D01*
X115207478Y-120633942D01*
X115207411Y-120621779D01*
X115207411Y-120570719D01*
X115298577Y-120570719D01*
X115379082Y-120565204D01*
X115434021Y-120547630D01*
X115465986Y-120516453D01*
X115477572Y-120470130D01*
X115477713Y-120464084D01*
X115470935Y-120424489D01*
X115447691Y-120396217D01*
X115404430Y-120377507D01*
X115337601Y-120366600D01*
X115272870Y-120362590D01*
X115178787Y-120360289D01*
X115110544Y-120363800D01*
X115064001Y-120376755D01*
X115035018Y-120402786D01*
X115019455Y-120445527D01*
X115013171Y-120508610D01*
X115012026Y-120591464D01*
X115013902Y-120683946D01*
X115019546Y-120746854D01*
X115028982Y-120780439D01*
X115030813Y-120783069D01*
X115082625Y-120825034D01*
X115158590Y-120858268D01*
X115253892Y-120882059D01*
X115363716Y-120895699D01*
X115483246Y-120898478D01*
X115607666Y-120889685D01*
X115680843Y-120878885D01*
X115795620Y-120846398D01*
X115902296Y-120793286D01*
X115991611Y-120724355D01*
X116005186Y-120710578D01*
X116049292Y-120652658D01*
X116089089Y-120580876D01*
X116119927Y-120505619D01*
X116137157Y-120437277D01*
X116139234Y-120411029D01*
X116130393Y-120356277D01*
X116106895Y-120288155D01*
X116073249Y-120216450D01*
X116033964Y-120150949D01*
X115999255Y-120107198D01*
X115918103Y-120042119D01*
X115813198Y-119990321D01*
X115688300Y-119952974D01*
X115547167Y-119931253D01*
X115417825Y-119925945D01*
X115308762Y-119931812D01*
X115308762Y-119931812D01*
G37*
X115308762Y-119931812D02*
X115217541Y-119947118D01*
X115147482Y-119970911D01*
X115101904Y-120002240D01*
X115089484Y-120020114D01*
X115076854Y-120061685D01*
X115085353Y-120099292D01*
X115112185Y-120134955D01*
X115153876Y-120151639D01*
X115214370Y-120150284D01*
X115261159Y-120141245D01*
X115365128Y-120124023D01*
X115471380Y-120122387D01*
X115590309Y-120136365D01*
X115623160Y-120142288D01*
X115733745Y-120173467D01*
X115820259Y-120219846D01*
X115881753Y-120280635D01*
X115917278Y-120355044D01*
X115924625Y-120393514D01*
X115919816Y-120471563D01*
X115888766Y-120540617D01*
X115834306Y-120599329D01*
X115759264Y-120646353D01*
X115666470Y-120680343D01*
X115558752Y-120699954D01*
X115438941Y-120703841D01*
X115309865Y-120690656D01*
X115302577Y-120689412D01*
X115251238Y-120679850D01*
X115222772Y-120670614D01*
X115210434Y-120656909D01*
X115207478Y-120633942D01*
X115207411Y-120621779D01*
X115207411Y-120570719D01*
X115298577Y-120570719D01*
X115379082Y-120565204D01*
X115434021Y-120547630D01*
X115465986Y-120516453D01*
X115477572Y-120470130D01*
X115477713Y-120464084D01*
X115470935Y-120424489D01*
X115447691Y-120396217D01*
X115404430Y-120377507D01*
X115337601Y-120366600D01*
X115272870Y-120362590D01*
X115178787Y-120360289D01*
X115110544Y-120363800D01*
X115064001Y-120376755D01*
X115035018Y-120402786D01*
X115019455Y-120445527D01*
X115013171Y-120508610D01*
X115012026Y-120591464D01*
X115013902Y-120683946D01*
X115019546Y-120746854D01*
X115028982Y-120780439D01*
X115030813Y-120783069D01*
X115082625Y-120825034D01*
X115158590Y-120858268D01*
X115253892Y-120882059D01*
X115363716Y-120895699D01*
X115483246Y-120898478D01*
X115607666Y-120889685D01*
X115680843Y-120878885D01*
X115795620Y-120846398D01*
X115902296Y-120793286D01*
X115991611Y-120724355D01*
X116005186Y-120710578D01*
X116049292Y-120652658D01*
X116089089Y-120580876D01*
X116119927Y-120505619D01*
X116137157Y-120437277D01*
X116139234Y-120411029D01*
X116130393Y-120356277D01*
X116106895Y-120288155D01*
X116073249Y-120216450D01*
X116033964Y-120150949D01*
X115999255Y-120107198D01*
X115918103Y-120042119D01*
X115813198Y-119990321D01*
X115688300Y-119952974D01*
X115547167Y-119931253D01*
X115417825Y-119925945D01*
X115308762Y-119931812D01*
G36*
X114443420Y-119930280D02*
X114412045Y-119948685D01*
X114371022Y-119978785D01*
X114318224Y-120021996D01*
X114251525Y-120079738D01*
X114168799Y-120153428D01*
X114067920Y-120244484D01*
X113952441Y-120349174D01*
X113711967Y-120567243D01*
X113704452Y-120274544D01*
X113701739Y-120173790D01*
X113699122Y-120098758D01*
X113696020Y-120045120D01*
X113691856Y-120008546D01*
X113686051Y-119984707D01*
X113678024Y-119969274D01*
X113667197Y-119957918D01*
X113661456Y-119953146D01*
X113615483Y-119927913D01*
X113571737Y-119931602D01*
X113537035Y-119953159D01*
X113501553Y-119981871D01*
X113497140Y-120401186D01*
X113495919Y-120524507D01*
X113495297Y-120621384D01*
X113495490Y-120695430D01*
X113496714Y-120750257D01*
X113499184Y-120789479D01*
X113503114Y-120816709D01*
X113508720Y-120835559D01*
X113516218Y-120849641D01*
X113524533Y-120860935D01*
X113542522Y-120881882D01*
X113560421Y-120895767D01*
X113580712Y-120901096D01*
X113605878Y-120896376D01*
X113638400Y-120880113D01*
X113680763Y-120850813D01*
X113735448Y-120806982D01*
X113804937Y-120747127D01*
X113891715Y-120669754D01*
X113990015Y-120580850D01*
X114343210Y-120260471D01*
X114350725Y-120552213D01*
X114353443Y-120652783D01*
X114356067Y-120727640D01*
X114359179Y-120781120D01*
X114363362Y-120817562D01*
X114369197Y-120841304D01*
X114377266Y-120856682D01*
X114388151Y-120868036D01*
X114393721Y-120872662D01*
X114442956Y-120898078D01*
X114489477Y-120894245D01*
X114529989Y-120861769D01*
X114539256Y-120848703D01*
X114546479Y-120833445D01*
X114551912Y-120812332D01*
X114555808Y-120781705D01*
X114558421Y-120737902D01*
X114560007Y-120677263D01*
X114560818Y-120596127D01*
X114561108Y-120490833D01*
X114561139Y-120412908D01*
X114561041Y-120291024D01*
X114560579Y-120195539D01*
X114559497Y-120122791D01*
X114557543Y-120069119D01*
X114554462Y-120030863D01*
X114550000Y-120004363D01*
X114543903Y-119985956D01*
X114535917Y-119971984D01*
X114529989Y-119964047D01*
X114514962Y-119945248D01*
X114500918Y-119931053D01*
X114485730Y-119922882D01*
X114467273Y-119922152D01*
X114443420Y-119930280D01*
X114443420Y-119930280D01*
G37*
X114443420Y-119930280D02*
X114412045Y-119948685D01*
X114371022Y-119978785D01*
X114318224Y-120021996D01*
X114251525Y-120079738D01*
X114168799Y-120153428D01*
X114067920Y-120244484D01*
X113952441Y-120349174D01*
X113711967Y-120567243D01*
X113704452Y-120274544D01*
X113701739Y-120173790D01*
X113699122Y-120098758D01*
X113696020Y-120045120D01*
X113691856Y-120008546D01*
X113686051Y-119984707D01*
X113678024Y-119969274D01*
X113667197Y-119957918D01*
X113661456Y-119953146D01*
X113615483Y-119927913D01*
X113571737Y-119931602D01*
X113537035Y-119953159D01*
X113501553Y-119981871D01*
X113497140Y-120401186D01*
X113495919Y-120524507D01*
X113495297Y-120621384D01*
X113495490Y-120695430D01*
X113496714Y-120750257D01*
X113499184Y-120789479D01*
X113503114Y-120816709D01*
X113508720Y-120835559D01*
X113516218Y-120849641D01*
X113524533Y-120860935D01*
X113542522Y-120881882D01*
X113560421Y-120895767D01*
X113580712Y-120901096D01*
X113605878Y-120896376D01*
X113638400Y-120880113D01*
X113680763Y-120850813D01*
X113735448Y-120806982D01*
X113804937Y-120747127D01*
X113891715Y-120669754D01*
X113990015Y-120580850D01*
X114343210Y-120260471D01*
X114350725Y-120552213D01*
X114353443Y-120652783D01*
X114356067Y-120727640D01*
X114359179Y-120781120D01*
X114363362Y-120817562D01*
X114369197Y-120841304D01*
X114377266Y-120856682D01*
X114388151Y-120868036D01*
X114393721Y-120872662D01*
X114442956Y-120898078D01*
X114489477Y-120894245D01*
X114529989Y-120861769D01*
X114539256Y-120848703D01*
X114546479Y-120833445D01*
X114551912Y-120812332D01*
X114555808Y-120781705D01*
X114558421Y-120737902D01*
X114560007Y-120677263D01*
X114560818Y-120596127D01*
X114561108Y-120490833D01*
X114561139Y-120412908D01*
X114561041Y-120291024D01*
X114560579Y-120195539D01*
X114559497Y-120122791D01*
X114557543Y-120069119D01*
X114554462Y-120030863D01*
X114550000Y-120004363D01*
X114543903Y-119985956D01*
X114535917Y-119971984D01*
X114529989Y-119964047D01*
X114514962Y-119945248D01*
X114500918Y-119931053D01*
X114485730Y-119922882D01*
X114467273Y-119922152D01*
X114443420Y-119930280D01*
G36*
X112405830Y-119924703D02*
X112304169Y-119925920D01*
X112226264Y-119928766D01*
X112168965Y-119933910D01*
X112129119Y-119942020D01*
X112103578Y-119953767D01*
X112089189Y-119969818D01*
X112082801Y-119990844D01*
X112081265Y-120017512D01*
X112081257Y-120020662D01*
X112082591Y-120050826D01*
X112088895Y-120074139D01*
X112103624Y-120091542D01*
X112130231Y-120103976D01*
X112172172Y-120112381D01*
X112232900Y-120117701D01*
X112315870Y-120120875D01*
X112424535Y-120122845D01*
X112457841Y-120123281D01*
X112780133Y-120127346D01*
X112784640Y-120213766D01*
X112789148Y-120300186D01*
X112565283Y-120300186D01*
X112477825Y-120300509D01*
X112415377Y-120301873D01*
X112372892Y-120304875D01*
X112345323Y-120310109D01*
X112327624Y-120318171D01*
X112314749Y-120329656D01*
X112314666Y-120329747D01*
X112291316Y-120374507D01*
X112292160Y-120422883D01*
X112316667Y-120464122D01*
X112321517Y-120468361D01*
X112338731Y-120479285D01*
X112362320Y-120486885D01*
X112397539Y-120491733D01*
X112449646Y-120494402D01*
X112523896Y-120495464D01*
X112571384Y-120495571D01*
X112787648Y-120495571D01*
X112787648Y-120705985D01*
X112459326Y-120705985D01*
X112350928Y-120706175D01*
X112268611Y-120706950D01*
X112208397Y-120708620D01*
X112166311Y-120711494D01*
X112138375Y-120715883D01*
X112120612Y-120722095D01*
X112109046Y-120730440D01*
X112106131Y-120733470D01*
X112084610Y-120775470D01*
X112083036Y-120823250D01*
X112100691Y-120864678D01*
X112114661Y-120877973D01*
X112129192Y-120885292D01*
X112151708Y-120890955D01*
X112185770Y-120895159D01*
X112234939Y-120898104D01*
X112302778Y-120899987D01*
X112392848Y-120901006D01*
X112508709Y-120901361D01*
X112534903Y-120901370D01*
X112652707Y-120901292D01*
X112744150Y-120900867D01*
X112812932Y-120899802D01*
X112862750Y-120897805D01*
X112897306Y-120894586D01*
X112920296Y-120889852D01*
X112935420Y-120883313D01*
X112946377Y-120874677D01*
X112952388Y-120868476D01*
X112961436Y-120857493D01*
X112968504Y-120843888D01*
X112973837Y-120824092D01*
X112977678Y-120794538D01*
X112980271Y-120751657D01*
X112981859Y-120691881D01*
X112982685Y-120611643D01*
X112982994Y-120507375D01*
X112983032Y-120419616D01*
X112982938Y-120296644D01*
X112982489Y-120200105D01*
X112981438Y-120126375D01*
X112979536Y-120071826D01*
X112976537Y-120032835D01*
X112972191Y-120005775D01*
X112966252Y-119987020D01*
X112958471Y-119972946D01*
X112951882Y-119964047D01*
X112920732Y-119924446D01*
X112534398Y-119924446D01*
X112405830Y-119924703D01*
X112405830Y-119924703D01*
G37*
X112405830Y-119924703D02*
X112304169Y-119925920D01*
X112226264Y-119928766D01*
X112168965Y-119933910D01*
X112129119Y-119942020D01*
X112103578Y-119953767D01*
X112089189Y-119969818D01*
X112082801Y-119990844D01*
X112081265Y-120017512D01*
X112081257Y-120020662D01*
X112082591Y-120050826D01*
X112088895Y-120074139D01*
X112103624Y-120091542D01*
X112130231Y-120103976D01*
X112172172Y-120112381D01*
X112232900Y-120117701D01*
X112315870Y-120120875D01*
X112424535Y-120122845D01*
X112457841Y-120123281D01*
X112780133Y-120127346D01*
X112784640Y-120213766D01*
X112789148Y-120300186D01*
X112565283Y-120300186D01*
X112477825Y-120300509D01*
X112415377Y-120301873D01*
X112372892Y-120304875D01*
X112345323Y-120310109D01*
X112327624Y-120318171D01*
X112314749Y-120329656D01*
X112314666Y-120329747D01*
X112291316Y-120374507D01*
X112292160Y-120422883D01*
X112316667Y-120464122D01*
X112321517Y-120468361D01*
X112338731Y-120479285D01*
X112362320Y-120486885D01*
X112397539Y-120491733D01*
X112449646Y-120494402D01*
X112523896Y-120495464D01*
X112571384Y-120495571D01*
X112787648Y-120495571D01*
X112787648Y-120705985D01*
X112459326Y-120705985D01*
X112350928Y-120706175D01*
X112268611Y-120706950D01*
X112208397Y-120708620D01*
X112166311Y-120711494D01*
X112138375Y-120715883D01*
X112120612Y-120722095D01*
X112109046Y-120730440D01*
X112106131Y-120733470D01*
X112084610Y-120775470D01*
X112083036Y-120823250D01*
X112100691Y-120864678D01*
X112114661Y-120877973D01*
X112129192Y-120885292D01*
X112151708Y-120890955D01*
X112185770Y-120895159D01*
X112234939Y-120898104D01*
X112302778Y-120899987D01*
X112392848Y-120901006D01*
X112508709Y-120901361D01*
X112534903Y-120901370D01*
X112652707Y-120901292D01*
X112744150Y-120900867D01*
X112812932Y-120899802D01*
X112862750Y-120897805D01*
X112897306Y-120894586D01*
X112920296Y-120889852D01*
X112935420Y-120883313D01*
X112946377Y-120874677D01*
X112952388Y-120868476D01*
X112961436Y-120857493D01*
X112968504Y-120843888D01*
X112973837Y-120824092D01*
X112977678Y-120794538D01*
X112980271Y-120751657D01*
X112981859Y-120691881D01*
X112982685Y-120611643D01*
X112982994Y-120507375D01*
X112983032Y-120419616D01*
X112982938Y-120296644D01*
X112982489Y-120200105D01*
X112981438Y-120126375D01*
X112979536Y-120071826D01*
X112976537Y-120032835D01*
X112972191Y-120005775D01*
X112966252Y-119987020D01*
X112958471Y-119972946D01*
X112951882Y-119964047D01*
X112920732Y-119924446D01*
X112534398Y-119924446D01*
X112405830Y-119924703D01*
G36*
X111356763Y-119924723D02*
X111185045Y-119930529D01*
X111038991Y-119948137D01*
X110916193Y-119978599D01*
X110814243Y-120022971D01*
X110730732Y-120082307D01*
X110663253Y-120157660D01*
X110609397Y-120250086D01*
X110608338Y-120252340D01*
X110576197Y-120335060D01*
X110564745Y-120408320D01*
X110574026Y-120482048D01*
X110604085Y-120566171D01*
X110609785Y-120578973D01*
X110648661Y-120653898D01*
X110692351Y-120711793D01*
X110748740Y-120761008D01*
X110825708Y-120809893D01*
X110830180Y-120812445D01*
X110897183Y-120844631D01*
X110972915Y-120868668D01*
X111062242Y-120885387D01*
X111170031Y-120895615D01*
X111301148Y-120900182D01*
X111347474Y-120900579D01*
X111568070Y-120901370D01*
X111599220Y-120861769D01*
X111608460Y-120848747D01*
X111615668Y-120833540D01*
X111621096Y-120812502D01*
X111624995Y-120781986D01*
X111627617Y-120738347D01*
X111628472Y-120705985D01*
X111419955Y-120705985D01*
X111294964Y-120705985D01*
X111221823Y-120703846D01*
X111146739Y-120698217D01*
X111085116Y-120690279D01*
X111081397Y-120689611D01*
X110971947Y-120660248D01*
X110887052Y-120616133D01*
X110824028Y-120555219D01*
X110780186Y-120475460D01*
X110772563Y-120454320D01*
X110765090Y-120421398D01*
X110768325Y-120388872D01*
X110784067Y-120345600D01*
X110793556Y-120324343D01*
X110824629Y-120267856D01*
X110862067Y-120228227D01*
X110903259Y-120200630D01*
X110985770Y-120164718D01*
X111091367Y-120138704D01*
X111214382Y-120123724D01*
X111303476Y-120120428D01*
X111419955Y-120119831D01*
X111419955Y-120705985D01*
X111628472Y-120705985D01*
X111629214Y-120677936D01*
X111630036Y-120597108D01*
X111630336Y-120492217D01*
X111630370Y-120410198D01*
X111630370Y-119998228D01*
X111593479Y-119961337D01*
X111577106Y-119946384D01*
X111559403Y-119936144D01*
X111534681Y-119929737D01*
X111497252Y-119926283D01*
X111441427Y-119924903D01*
X111361518Y-119924717D01*
X111356763Y-119924723D01*
X111356763Y-119924723D01*
G37*
X111356763Y-119924723D02*
X111185045Y-119930529D01*
X111038991Y-119948137D01*
X110916193Y-119978599D01*
X110814243Y-120022971D01*
X110730732Y-120082307D01*
X110663253Y-120157660D01*
X110609397Y-120250086D01*
X110608338Y-120252340D01*
X110576197Y-120335060D01*
X110564745Y-120408320D01*
X110574026Y-120482048D01*
X110604085Y-120566171D01*
X110609785Y-120578973D01*
X110648661Y-120653898D01*
X110692351Y-120711793D01*
X110748740Y-120761008D01*
X110825708Y-120809893D01*
X110830180Y-120812445D01*
X110897183Y-120844631D01*
X110972915Y-120868668D01*
X111062242Y-120885387D01*
X111170031Y-120895615D01*
X111301148Y-120900182D01*
X111347474Y-120900579D01*
X111568070Y-120901370D01*
X111599220Y-120861769D01*
X111608460Y-120848747D01*
X111615668Y-120833540D01*
X111621096Y-120812502D01*
X111624995Y-120781986D01*
X111627617Y-120738347D01*
X111628472Y-120705985D01*
X111419955Y-120705985D01*
X111294964Y-120705985D01*
X111221823Y-120703846D01*
X111146739Y-120698217D01*
X111085116Y-120690279D01*
X111081397Y-120689611D01*
X110971947Y-120660248D01*
X110887052Y-120616133D01*
X110824028Y-120555219D01*
X110780186Y-120475460D01*
X110772563Y-120454320D01*
X110765090Y-120421398D01*
X110768325Y-120388872D01*
X110784067Y-120345600D01*
X110793556Y-120324343D01*
X110824629Y-120267856D01*
X110862067Y-120228227D01*
X110903259Y-120200630D01*
X110985770Y-120164718D01*
X111091367Y-120138704D01*
X111214382Y-120123724D01*
X111303476Y-120120428D01*
X111419955Y-120119831D01*
X111419955Y-120705985D01*
X111628472Y-120705985D01*
X111629214Y-120677936D01*
X111630036Y-120597108D01*
X111630336Y-120492217D01*
X111630370Y-120410198D01*
X111630370Y-119998228D01*
X111593479Y-119961337D01*
X111577106Y-119946384D01*
X111559403Y-119936144D01*
X111534681Y-119929737D01*
X111497252Y-119926283D01*
X111441427Y-119924903D01*
X111361518Y-119924717D01*
X111356763Y-119924723D01*
G36*
X107726999Y-119927066D02*
X107700918Y-119936386D01*
X107699912Y-119936842D01*
X107664494Y-119963870D01*
X107644980Y-119991672D01*
X107641162Y-120004708D01*
X107641351Y-120022028D01*
X107646724Y-120046703D01*
X107658458Y-120081800D01*
X107677733Y-120130389D01*
X107705724Y-120195538D01*
X107743610Y-120280317D01*
X107792568Y-120387795D01*
X107819515Y-120446539D01*
X107868176Y-120551409D01*
X107913856Y-120647850D01*
X107954812Y-120732334D01*
X107989300Y-120801336D01*
X108015577Y-120851330D01*
X108031900Y-120878790D01*
X108035130Y-120882583D01*
X108076457Y-120899316D01*
X108123137Y-120897075D01*
X108160576Y-120876723D01*
X108162102Y-120875068D01*
X108176995Y-120852522D01*
X108201977Y-120808607D01*
X108233967Y-120748976D01*
X108269886Y-120679282D01*
X108282794Y-120653599D01*
X108380232Y-120458433D01*
X108486440Y-120670443D01*
X108524349Y-120743697D01*
X108559519Y-120807226D01*
X108589078Y-120856167D01*
X108610152Y-120885658D01*
X108617294Y-120891912D01*
X108672808Y-120900381D01*
X108718617Y-120882583D01*
X108732092Y-120863561D01*
X108755410Y-120821285D01*
X108786669Y-120759916D01*
X108823966Y-120683612D01*
X108865400Y-120596535D01*
X108909068Y-120502843D01*
X108953068Y-120406697D01*
X108995498Y-120312257D01*
X109034456Y-120223681D01*
X109068039Y-120145132D01*
X109094345Y-120080767D01*
X109111472Y-120034747D01*
X109117517Y-120011233D01*
X109117455Y-120010381D01*
X109102746Y-119980792D01*
X109073344Y-119950656D01*
X109071613Y-119949344D01*
X109035476Y-119928918D01*
X109002052Y-119929116D01*
X108989524Y-119932967D01*
X108974259Y-119941289D01*
X108958048Y-119957661D01*
X108938947Y-119985478D01*
X108915011Y-120028136D01*
X108884295Y-120089031D01*
X108844855Y-120171561D01*
X108809288Y-120247743D01*
X108768369Y-120336050D01*
X108731702Y-120415462D01*
X108701192Y-120481832D01*
X108678744Y-120531011D01*
X108666263Y-120558849D01*
X108664443Y-120563204D01*
X108656256Y-120556085D01*
X108637441Y-120526277D01*
X108610500Y-120478132D01*
X108577938Y-120415999D01*
X108564980Y-120390364D01*
X108521086Y-120303801D01*
X108487235Y-120240761D01*
X108460649Y-120197578D01*
X108438551Y-120170588D01*
X108418162Y-120156124D01*
X108396706Y-120150523D01*
X108382723Y-120149890D01*
X108358058Y-120152076D01*
X108336444Y-120161115D01*
X108314968Y-120180733D01*
X108290716Y-120214653D01*
X108260776Y-120266598D01*
X108222233Y-120340294D01*
X108200968Y-120382216D01*
X108166474Y-120449030D01*
X108136390Y-120504437D01*
X108113369Y-120543763D01*
X108100066Y-120562332D01*
X108098257Y-120563105D01*
X108089666Y-120548491D01*
X108070432Y-120510543D01*
X108042481Y-120453232D01*
X108007739Y-120380532D01*
X107968133Y-120296412D01*
X107948650Y-120254630D01*
X107897966Y-120146799D01*
X107857153Y-120063826D01*
X107824092Y-120003002D01*
X107796665Y-119961621D01*
X107772754Y-119936976D01*
X107750238Y-119926360D01*
X107726999Y-119927066D01*
X107726999Y-119927066D01*
G37*
X107726999Y-119927066D02*
X107700918Y-119936386D01*
X107699912Y-119936842D01*
X107664494Y-119963870D01*
X107644980Y-119991672D01*
X107641162Y-120004708D01*
X107641351Y-120022028D01*
X107646724Y-120046703D01*
X107658458Y-120081800D01*
X107677733Y-120130389D01*
X107705724Y-120195538D01*
X107743610Y-120280317D01*
X107792568Y-120387795D01*
X107819515Y-120446539D01*
X107868176Y-120551409D01*
X107913856Y-120647850D01*
X107954812Y-120732334D01*
X107989300Y-120801336D01*
X108015577Y-120851330D01*
X108031900Y-120878790D01*
X108035130Y-120882583D01*
X108076457Y-120899316D01*
X108123137Y-120897075D01*
X108160576Y-120876723D01*
X108162102Y-120875068D01*
X108176995Y-120852522D01*
X108201977Y-120808607D01*
X108233967Y-120748976D01*
X108269886Y-120679282D01*
X108282794Y-120653599D01*
X108380232Y-120458433D01*
X108486440Y-120670443D01*
X108524349Y-120743697D01*
X108559519Y-120807226D01*
X108589078Y-120856167D01*
X108610152Y-120885658D01*
X108617294Y-120891912D01*
X108672808Y-120900381D01*
X108718617Y-120882583D01*
X108732092Y-120863561D01*
X108755410Y-120821285D01*
X108786669Y-120759916D01*
X108823966Y-120683612D01*
X108865400Y-120596535D01*
X108909068Y-120502843D01*
X108953068Y-120406697D01*
X108995498Y-120312257D01*
X109034456Y-120223681D01*
X109068039Y-120145132D01*
X109094345Y-120080767D01*
X109111472Y-120034747D01*
X109117517Y-120011233D01*
X109117455Y-120010381D01*
X109102746Y-119980792D01*
X109073344Y-119950656D01*
X109071613Y-119949344D01*
X109035476Y-119928918D01*
X109002052Y-119929116D01*
X108989524Y-119932967D01*
X108974259Y-119941289D01*
X108958048Y-119957661D01*
X108938947Y-119985478D01*
X108915011Y-120028136D01*
X108884295Y-120089031D01*
X108844855Y-120171561D01*
X108809288Y-120247743D01*
X108768369Y-120336050D01*
X108731702Y-120415462D01*
X108701192Y-120481832D01*
X108678744Y-120531011D01*
X108666263Y-120558849D01*
X108664443Y-120563204D01*
X108656256Y-120556085D01*
X108637441Y-120526277D01*
X108610500Y-120478132D01*
X108577938Y-120415999D01*
X108564980Y-120390364D01*
X108521086Y-120303801D01*
X108487235Y-120240761D01*
X108460649Y-120197578D01*
X108438551Y-120170588D01*
X108418162Y-120156124D01*
X108396706Y-120150523D01*
X108382723Y-120149890D01*
X108358058Y-120152076D01*
X108336444Y-120161115D01*
X108314968Y-120180733D01*
X108290716Y-120214653D01*
X108260776Y-120266598D01*
X108222233Y-120340294D01*
X108200968Y-120382216D01*
X108166474Y-120449030D01*
X108136390Y-120504437D01*
X108113369Y-120543763D01*
X108100066Y-120562332D01*
X108098257Y-120563105D01*
X108089666Y-120548491D01*
X108070432Y-120510543D01*
X108042481Y-120453232D01*
X108007739Y-120380532D01*
X107968133Y-120296412D01*
X107948650Y-120254630D01*
X107897966Y-120146799D01*
X107857153Y-120063826D01*
X107824092Y-120003002D01*
X107796665Y-119961621D01*
X107772754Y-119936976D01*
X107750238Y-119926360D01*
X107726999Y-119927066D01*
G36*
X107135942Y-119933513D02*
X107104372Y-119953178D01*
X107068890Y-119981909D01*
X107068890Y-120410002D01*
X107069003Y-120535226D01*
X107069487Y-120633883D01*
X107070560Y-120709466D01*
X107072438Y-120765469D01*
X107075340Y-120805383D01*
X107079483Y-120832702D01*
X107085084Y-120850917D01*
X107092361Y-120863522D01*
X107097522Y-120869732D01*
X107139378Y-120897016D01*
X107187041Y-120895903D01*
X107228793Y-120872638D01*
X107264275Y-120843907D01*
X107264275Y-119981909D01*
X107228793Y-119953178D01*
X107194548Y-119932278D01*
X107166583Y-119924446D01*
X107135942Y-119933513D01*
X107135942Y-119933513D01*
G37*
X107135942Y-119933513D02*
X107104372Y-119953178D01*
X107068890Y-119981909D01*
X107068890Y-120410002D01*
X107069003Y-120535226D01*
X107069487Y-120633883D01*
X107070560Y-120709466D01*
X107072438Y-120765469D01*
X107075340Y-120805383D01*
X107079483Y-120832702D01*
X107085084Y-120850917D01*
X107092361Y-120863522D01*
X107097522Y-120869732D01*
X107139378Y-120897016D01*
X107187041Y-120895903D01*
X107228793Y-120872638D01*
X107264275Y-120843907D01*
X107264275Y-119981909D01*
X107228793Y-119953178D01*
X107194548Y-119932278D01*
X107166583Y-119924446D01*
X107135942Y-119933513D01*
G36*
X106104869Y-119924575D02*
X106000081Y-119925079D01*
X105918747Y-119926132D01*
X105857566Y-119927912D01*
X105813235Y-119930593D01*
X105782452Y-119934350D01*
X105761915Y-119939361D01*
X105748321Y-119945799D01*
X105741743Y-119950748D01*
X105707602Y-119994065D01*
X105703472Y-120039039D01*
X105724570Y-120079896D01*
X105738367Y-120096222D01*
X105753214Y-120107354D01*
X105774731Y-120114286D01*
X105808538Y-120118013D01*
X105860254Y-120119530D01*
X105935499Y-120119830D01*
X105950277Y-120119831D01*
X106144571Y-120119831D01*
X106144571Y-120480541D01*
X106144699Y-120594237D01*
X106145280Y-120681721D01*
X106146610Y-120746838D01*
X106148986Y-120793434D01*
X106152702Y-120825355D01*
X106158054Y-120846448D01*
X106165339Y-120860559D01*
X106174630Y-120871310D01*
X106218475Y-120897732D01*
X106264246Y-120895650D01*
X106305756Y-120865505D01*
X106308805Y-120861769D01*
X106318734Y-120847646D01*
X106326298Y-120831122D01*
X106331817Y-120808182D01*
X106335613Y-120774809D01*
X106338004Y-120726991D01*
X106339312Y-120660710D01*
X106339855Y-120571954D01*
X106339955Y-120470999D01*
X106339955Y-120119831D01*
X106525496Y-120119831D01*
X106605119Y-120119292D01*
X106660242Y-120117193D01*
X106696414Y-120112807D01*
X106719184Y-120105412D01*
X106734099Y-120094281D01*
X106735910Y-120092346D01*
X106757688Y-120048093D01*
X106755762Y-119998065D01*
X106730725Y-119954506D01*
X106721042Y-119946056D01*
X106708558Y-119939357D01*
X106689943Y-119934205D01*
X106661869Y-119930397D01*
X106621005Y-119927733D01*
X106564024Y-119926008D01*
X106487594Y-119925020D01*
X106388389Y-119924568D01*
X106263077Y-119924448D01*
X106236413Y-119924446D01*
X106104869Y-119924575D01*
X106104869Y-119924575D01*
G37*
X106104869Y-119924575D02*
X106000081Y-119925079D01*
X105918747Y-119926132D01*
X105857566Y-119927912D01*
X105813235Y-119930593D01*
X105782452Y-119934350D01*
X105761915Y-119939361D01*
X105748321Y-119945799D01*
X105741743Y-119950748D01*
X105707602Y-119994065D01*
X105703472Y-120039039D01*
X105724570Y-120079896D01*
X105738367Y-120096222D01*
X105753214Y-120107354D01*
X105774731Y-120114286D01*
X105808538Y-120118013D01*
X105860254Y-120119530D01*
X105935499Y-120119830D01*
X105950277Y-120119831D01*
X106144571Y-120119831D01*
X106144571Y-120480541D01*
X106144699Y-120594237D01*
X106145280Y-120681721D01*
X106146610Y-120746838D01*
X106148986Y-120793434D01*
X106152702Y-120825355D01*
X106158054Y-120846448D01*
X106165339Y-120860559D01*
X106174630Y-120871310D01*
X106218475Y-120897732D01*
X106264246Y-120895650D01*
X106305756Y-120865505D01*
X106308805Y-120861769D01*
X106318734Y-120847646D01*
X106326298Y-120831122D01*
X106331817Y-120808182D01*
X106335613Y-120774809D01*
X106338004Y-120726991D01*
X106339312Y-120660710D01*
X106339855Y-120571954D01*
X106339955Y-120470999D01*
X106339955Y-120119831D01*
X106525496Y-120119831D01*
X106605119Y-120119292D01*
X106660242Y-120117193D01*
X106696414Y-120112807D01*
X106719184Y-120105412D01*
X106734099Y-120094281D01*
X106735910Y-120092346D01*
X106757688Y-120048093D01*
X106755762Y-119998065D01*
X106730725Y-119954506D01*
X106721042Y-119946056D01*
X106708558Y-119939357D01*
X106689943Y-119934205D01*
X106661869Y-119930397D01*
X106621005Y-119927733D01*
X106564024Y-119926008D01*
X106487594Y-119925020D01*
X106388389Y-119924568D01*
X106263077Y-119924448D01*
X106236413Y-119924446D01*
X106104869Y-119924575D01*
G36*
X104419687Y-119931724D02*
X104377911Y-119961337D01*
X104341021Y-119998228D01*
X104341021Y-120410198D01*
X104341117Y-120532522D01*
X104341574Y-120628434D01*
X104342643Y-120701580D01*
X104344575Y-120755606D01*
X104347623Y-120794159D01*
X104352037Y-120820884D01*
X104358070Y-120839430D01*
X104365972Y-120853441D01*
X104372171Y-120861769D01*
X104413085Y-120894485D01*
X104460064Y-120898036D01*
X104503002Y-120877973D01*
X104517190Y-120866128D01*
X104526674Y-120850394D01*
X104532395Y-120825058D01*
X104535293Y-120784406D01*
X104536308Y-120722724D01*
X104536405Y-120675074D01*
X104536405Y-120495571D01*
X105197707Y-120495571D01*
X105197707Y-120658869D01*
X105198391Y-120733541D01*
X105201127Y-120784860D01*
X105206942Y-120819513D01*
X105216862Y-120844191D01*
X105228857Y-120861769D01*
X105270000Y-120894393D01*
X105316529Y-120898256D01*
X105361073Y-120875068D01*
X105373234Y-120862912D01*
X105381823Y-120846797D01*
X105387488Y-120821696D01*
X105390877Y-120782580D01*
X105392638Y-120724422D01*
X105393418Y-120642194D01*
X105393510Y-120623322D01*
X105394154Y-120468393D01*
X105394486Y-120340710D01*
X105394378Y-120237463D01*
X105393701Y-120155839D01*
X105392328Y-120093028D01*
X105390130Y-120046217D01*
X105386980Y-120012595D01*
X105382748Y-119989351D01*
X105377308Y-119973672D01*
X105370531Y-119962747D01*
X105363032Y-119954506D01*
X105320613Y-119928143D01*
X105276374Y-119931724D01*
X105234598Y-119961337D01*
X105217693Y-119980443D01*
X105206917Y-120001547D01*
X105200905Y-120031604D01*
X105198290Y-120077569D01*
X105197707Y-120146396D01*
X105197707Y-120300186D01*
X104536405Y-120300186D01*
X104536405Y-120142375D01*
X104535730Y-120069672D01*
X104533020Y-120020581D01*
X104527245Y-119988672D01*
X104517377Y-119967514D01*
X104506346Y-119954506D01*
X104463927Y-119928143D01*
X104419687Y-119931724D01*
X104419687Y-119931724D01*
G37*
X104419687Y-119931724D02*
X104377911Y-119961337D01*
X104341021Y-119998228D01*
X104341021Y-120410198D01*
X104341117Y-120532522D01*
X104341574Y-120628434D01*
X104342643Y-120701580D01*
X104344575Y-120755606D01*
X104347623Y-120794159D01*
X104352037Y-120820884D01*
X104358070Y-120839430D01*
X104365972Y-120853441D01*
X104372171Y-120861769D01*
X104413085Y-120894485D01*
X104460064Y-120898036D01*
X104503002Y-120877973D01*
X104517190Y-120866128D01*
X104526674Y-120850394D01*
X104532395Y-120825058D01*
X104535293Y-120784406D01*
X104536308Y-120722724D01*
X104536405Y-120675074D01*
X104536405Y-120495571D01*
X105197707Y-120495571D01*
X105197707Y-120658869D01*
X105198391Y-120733541D01*
X105201127Y-120784860D01*
X105206942Y-120819513D01*
X105216862Y-120844191D01*
X105228857Y-120861769D01*
X105270000Y-120894393D01*
X105316529Y-120898256D01*
X105361073Y-120875068D01*
X105373234Y-120862912D01*
X105381823Y-120846797D01*
X105387488Y-120821696D01*
X105390877Y-120782580D01*
X105392638Y-120724422D01*
X105393418Y-120642194D01*
X105393510Y-120623322D01*
X105394154Y-120468393D01*
X105394486Y-120340710D01*
X105394378Y-120237463D01*
X105393701Y-120155839D01*
X105392328Y-120093028D01*
X105390130Y-120046217D01*
X105386980Y-120012595D01*
X105382748Y-119989351D01*
X105377308Y-119973672D01*
X105370531Y-119962747D01*
X105363032Y-119954506D01*
X105320613Y-119928143D01*
X105276374Y-119931724D01*
X105234598Y-119961337D01*
X105217693Y-119980443D01*
X105206917Y-120001547D01*
X105200905Y-120031604D01*
X105198290Y-120077569D01*
X105197707Y-120146396D01*
X105197707Y-120300186D01*
X104536405Y-120300186D01*
X104536405Y-120142375D01*
X104535730Y-120069672D01*
X104533020Y-120020581D01*
X104527245Y-119988672D01*
X104517377Y-119967514D01*
X104506346Y-119954506D01*
X104463927Y-119928143D01*
X104419687Y-119931724D01*
G36*
X116635222Y-113560524D02*
X116620756Y-113712219D01*
X116578663Y-113855503D01*
X116510893Y-113987307D01*
X116419399Y-114104558D01*
X116306135Y-114204187D01*
X116177010Y-114281229D01*
X116035528Y-114333979D01*
X115893054Y-114358701D01*
X115752396Y-114357184D01*
X115616364Y-114331217D01*
X115487767Y-114282590D01*
X115369414Y-114213093D01*
X115264114Y-114124514D01*
X115174677Y-114018643D01*
X115103912Y-113897270D01*
X115054629Y-113762183D01*
X115029635Y-113615174D01*
X115027056Y-113548744D01*
X115027056Y-113431665D01*
X114957920Y-113431665D01*
X114909581Y-113435453D01*
X114873771Y-113451162D01*
X114837683Y-113482766D01*
X114786583Y-113533867D01*
X114786583Y-116451638D01*
X114786595Y-116800638D01*
X114786638Y-117120832D01*
X114786723Y-117413474D01*
X114786861Y-117679818D01*
X114787062Y-117921117D01*
X114787338Y-118138625D01*
X114787700Y-118333595D01*
X114788158Y-118507280D01*
X114788723Y-118660935D01*
X114789406Y-118795813D01*
X114790217Y-118913168D01*
X114791169Y-119014253D01*
X114792271Y-119100321D01*
X114793535Y-119172627D01*
X114794970Y-119232423D01*
X114796589Y-119280964D01*
X114798402Y-119319503D01*
X114800420Y-119349293D01*
X114802654Y-119371589D01*
X114805114Y-119387643D01*
X114807812Y-119398710D01*
X114810758Y-119406042D01*
X114812199Y-119408505D01*
X114817741Y-119417840D01*
X114822447Y-119426423D01*
X114827545Y-119434284D01*
X114834265Y-119441455D01*
X114843836Y-119447967D01*
X114857486Y-119453853D01*
X114876445Y-119459142D01*
X114901942Y-119463868D01*
X114935205Y-119468060D01*
X114977464Y-119471751D01*
X115029948Y-119474972D01*
X115093886Y-119477754D01*
X115170507Y-119480130D01*
X115261040Y-119482129D01*
X115366714Y-119483784D01*
X115488758Y-119485127D01*
X115628401Y-119486187D01*
X115786872Y-119486998D01*
X115965400Y-119487590D01*
X116165215Y-119487995D01*
X116387545Y-119488244D01*
X116633619Y-119488369D01*
X116904666Y-119488401D01*
X117201916Y-119488371D01*
X117526597Y-119488311D01*
X117879938Y-119488252D01*
X117931041Y-119488246D01*
X118286485Y-119488189D01*
X118613094Y-119488095D01*
X118912092Y-119487955D01*
X119184704Y-119487759D01*
X119432153Y-119487497D01*
X119655664Y-119487160D01*
X119856460Y-119486739D01*
X120035766Y-119486223D01*
X120194807Y-119485604D01*
X120334806Y-119484871D01*
X120456987Y-119484015D01*
X120562575Y-119483026D01*
X120652793Y-119481894D01*
X120728866Y-119480611D01*
X120792019Y-119479166D01*
X120843475Y-119477549D01*
X120884458Y-119475752D01*
X120916192Y-119473765D01*
X120939902Y-119471577D01*
X120956812Y-119469179D01*
X120968146Y-119466563D01*
X120973948Y-119464341D01*
X120985214Y-119459588D01*
X120995558Y-119456078D01*
X121005017Y-119452568D01*
X121013632Y-119447813D01*
X121021442Y-119440569D01*
X121028485Y-119429591D01*
X121034802Y-119413635D01*
X121040431Y-119391455D01*
X121045412Y-119361809D01*
X121049784Y-119323451D01*
X121053586Y-119275137D01*
X121056858Y-119215622D01*
X121059639Y-119143663D01*
X121061967Y-119058013D01*
X121063883Y-118957431D01*
X121065425Y-118840669D01*
X121066634Y-118706485D01*
X121067547Y-118553634D01*
X121068205Y-118380871D01*
X121068646Y-118186952D01*
X121068911Y-117970633D01*
X121069036Y-117730668D01*
X121069064Y-117465814D01*
X121069033Y-117174826D01*
X121068981Y-116856460D01*
X121068949Y-116509470D01*
X121068949Y-116453352D01*
X121068967Y-116103341D01*
X121069001Y-115782136D01*
X121069015Y-115488483D01*
X121068976Y-115221128D01*
X121068851Y-114978817D01*
X121068603Y-114760297D01*
X121068200Y-114564313D01*
X121067607Y-114389613D01*
X121066835Y-114243263D01*
X120663649Y-114243263D01*
X120610674Y-114320275D01*
X120595802Y-114341268D01*
X120582395Y-114359856D01*
X120570376Y-114377620D01*
X120559670Y-114396138D01*
X120550203Y-114416991D01*
X120541897Y-114441757D01*
X120534678Y-114472017D01*
X120528469Y-114509350D01*
X120523196Y-114555335D01*
X120518782Y-114611552D01*
X120515152Y-114679580D01*
X120512230Y-114761000D01*
X120509941Y-114857390D01*
X120508209Y-114970330D01*
X120506958Y-115101399D01*
X120506114Y-115252178D01*
X120505599Y-115424246D01*
X120505339Y-115619181D01*
X120505257Y-115838565D01*
X120505279Y-116083976D01*
X120505328Y-116356994D01*
X120505340Y-116520245D01*
X120505308Y-116809083D01*
X120505263Y-117069443D01*
X120505279Y-117302906D01*
X120505431Y-117511054D01*
X120505794Y-117695469D01*
X120506443Y-117857731D01*
X120507453Y-117999422D01*
X120508899Y-118122124D01*
X120510855Y-118227417D01*
X120513396Y-118316883D01*
X120516597Y-118392103D01*
X120520533Y-118454659D01*
X120525280Y-118506132D01*
X120530910Y-118548103D01*
X120537501Y-118582153D01*
X120545126Y-118609865D01*
X120553860Y-118632818D01*
X120563779Y-118652596D01*
X120574956Y-118670778D01*
X120587467Y-118688946D01*
X120601388Y-118708682D01*
X120609497Y-118720519D01*
X120661118Y-118797228D01*
X119953414Y-118797228D01*
X119789326Y-118797181D01*
X119652867Y-118796981D01*
X119541609Y-118796533D01*
X119453121Y-118795744D01*
X119384976Y-118794520D01*
X119334743Y-118792769D01*
X119299993Y-118790397D01*
X119278298Y-118787310D01*
X119267227Y-118783416D01*
X119264351Y-118778620D01*
X119267241Y-118772830D01*
X119268833Y-118770926D01*
X119302317Y-118721570D01*
X119336796Y-118651273D01*
X119368229Y-118568727D01*
X119379238Y-118533561D01*
X119385384Y-118509675D01*
X119390578Y-118481635D01*
X119394930Y-118446665D01*
X119398548Y-118401989D01*
X119401543Y-118344829D01*
X119404023Y-118272410D01*
X119406098Y-118181955D01*
X119407877Y-118070688D01*
X119409470Y-117935831D01*
X119410986Y-117774609D01*
X119411488Y-117715097D01*
X119412842Y-117548476D01*
X119413852Y-117409526D01*
X119414441Y-117295861D01*
X119414531Y-117205096D01*
X119414044Y-117134844D01*
X119412903Y-117082719D01*
X119411030Y-117046334D01*
X119408347Y-117023304D01*
X119404776Y-117011242D01*
X119400239Y-117007761D01*
X119394659Y-117010476D01*
X119388703Y-117016222D01*
X119374917Y-117033443D01*
X119345550Y-117072151D01*
X119302679Y-117129510D01*
X119248382Y-117202681D01*
X119184737Y-117288826D01*
X119113823Y-117385109D01*
X119037716Y-117488692D01*
X118958495Y-117596737D01*
X118878238Y-117706407D01*
X118799022Y-117814864D01*
X118722926Y-117919270D01*
X118652027Y-118016789D01*
X118588403Y-118104583D01*
X118534133Y-118179814D01*
X118491293Y-118239644D01*
X118461962Y-118281237D01*
X118455880Y-118290067D01*
X118425364Y-118339198D01*
X118389672Y-118403090D01*
X118355857Y-118469042D01*
X118351569Y-118477937D01*
X118322708Y-118542102D01*
X118305952Y-118592110D01*
X118298323Y-118639807D01*
X118296834Y-118695778D01*
X118297678Y-118797228D01*
X116760704Y-118797228D01*
X116882075Y-118672438D01*
X116944379Y-118606010D01*
X117011330Y-118530816D01*
X117072632Y-118458563D01*
X117099825Y-118424810D01*
X117140349Y-118372161D01*
X117193676Y-118301317D01*
X117258247Y-118214447D01*
X117332501Y-118113722D01*
X117414881Y-118001309D01*
X117503826Y-117879379D01*
X117597778Y-117750102D01*
X117695178Y-117615646D01*
X117794465Y-117478181D01*
X117894081Y-117339877D01*
X117992467Y-117202903D01*
X118088064Y-117069429D01*
X118179312Y-116941624D01*
X118264652Y-116821657D01*
X118342525Y-116711699D01*
X118411371Y-116613918D01*
X118469632Y-116530484D01*
X118515749Y-116463566D01*
X118548161Y-116415334D01*
X118565310Y-116387958D01*
X118567650Y-116382496D01*
X118557054Y-116367417D01*
X118529368Y-116331230D01*
X118486409Y-116276201D01*
X118429990Y-116204593D01*
X118361926Y-116118671D01*
X118284033Y-116020698D01*
X118198125Y-115912938D01*
X118106017Y-115797655D01*
X118009523Y-115677114D01*
X117910459Y-115553579D01*
X117830938Y-115454582D01*
X116484926Y-115454582D01*
X116477058Y-115471833D01*
X116457980Y-115501455D01*
X116456586Y-115503428D01*
X116431573Y-115543573D01*
X116405416Y-115592609D01*
X116400225Y-115603441D01*
X116395517Y-115614663D01*
X116391357Y-115628134D01*
X116387703Y-115645710D01*
X116384515Y-115669245D01*
X116381755Y-115700594D01*
X116379381Y-115741612D01*
X116377353Y-115794152D01*
X116375632Y-115860071D01*
X116374176Y-115941223D01*
X116372947Y-116039462D01*
X116371904Y-116156643D01*
X116371006Y-116294621D01*
X116370214Y-116455251D01*
X116369488Y-116640388D01*
X116368787Y-116851886D01*
X116368077Y-117090009D01*
X116367360Y-117336467D01*
X116366782Y-117554729D01*
X116366431Y-117746655D01*
X116366398Y-117914107D01*
X116366772Y-118058949D01*
X116367643Y-118183040D01*
X116369101Y-118288244D01*
X116371236Y-118376422D01*
X116374137Y-118449436D01*
X116377894Y-118509148D01*
X116382597Y-118557420D01*
X116388335Y-118596114D01*
X116395199Y-118627091D01*
X116403278Y-118652214D01*
X116412662Y-118673345D01*
X116423440Y-118692345D01*
X116435703Y-118711076D01*
X116447020Y-118727675D01*
X116469834Y-118762682D01*
X116483343Y-118786093D01*
X116484926Y-118790380D01*
X116470405Y-118791814D01*
X116428875Y-118793146D01*
X116363389Y-118794345D01*
X116276995Y-118795377D01*
X116172746Y-118796212D01*
X116053692Y-118796817D01*
X115922884Y-118797160D01*
X115831139Y-118797228D01*
X115691355Y-118796934D01*
X115562424Y-118796093D01*
X115447258Y-118794763D01*
X115348770Y-118793003D01*
X115269876Y-118790872D01*
X115213488Y-118788428D01*
X115182520Y-118785731D01*
X115177352Y-118784038D01*
X115187600Y-118764197D01*
X115198249Y-118753506D01*
X115215786Y-118730704D01*
X115238737Y-118690429D01*
X115254610Y-118657731D01*
X115290074Y-118579299D01*
X115294168Y-117012464D01*
X115298262Y-115445630D01*
X115891594Y-115445630D01*
X116021823Y-115445849D01*
X116142170Y-115446473D01*
X116249432Y-115447453D01*
X116340407Y-115448743D01*
X116411893Y-115450292D01*
X116460686Y-115452054D01*
X116483585Y-115453979D01*
X116484926Y-115454582D01*
X117830938Y-115454582D01*
X117810640Y-115429313D01*
X117711880Y-115306581D01*
X117615993Y-115187647D01*
X117524796Y-115074774D01*
X117440102Y-114970228D01*
X117363727Y-114876271D01*
X117297484Y-114795168D01*
X117243190Y-114729184D01*
X117220338Y-114701665D01*
X117105452Y-114567649D01*
X117003471Y-114456803D01*
X116911855Y-114366509D01*
X116828066Y-114294151D01*
X116815577Y-114284342D01*
X116762973Y-114243596D01*
X117516364Y-114243430D01*
X118269754Y-114243263D01*
X118262713Y-114307139D01*
X118267110Y-114383484D01*
X118295776Y-114474382D01*
X118348996Y-114580557D01*
X118409317Y-114676792D01*
X118430909Y-114706941D01*
X118468258Y-114756941D01*
X118519137Y-114823942D01*
X118581320Y-114905091D01*
X118652581Y-114997538D01*
X118730692Y-115098433D01*
X118813428Y-115204923D01*
X118898563Y-115314158D01*
X118983869Y-115423287D01*
X119067121Y-115529459D01*
X119146092Y-115629823D01*
X119218555Y-115721527D01*
X119282285Y-115801721D01*
X119335055Y-115867554D01*
X119374638Y-115916174D01*
X119398809Y-115944730D01*
X119402881Y-115949121D01*
X119406688Y-115938462D01*
X119409635Y-115898130D01*
X119411717Y-115828500D01*
X119412929Y-115729947D01*
X119413266Y-115602844D01*
X119412723Y-115447568D01*
X119411513Y-115287819D01*
X119409753Y-115111931D01*
X119407723Y-114963167D01*
X119405093Y-114838592D01*
X119401531Y-114735271D01*
X119396706Y-114650269D01*
X119390287Y-114580652D01*
X119381944Y-114523484D01*
X119371344Y-114475831D01*
X119358157Y-114434757D01*
X119342052Y-114397327D01*
X119322697Y-114360607D01*
X119303150Y-114327271D01*
X119252563Y-114243263D01*
X120663649Y-114243263D01*
X121066835Y-114243263D01*
X121066791Y-114234942D01*
X121065718Y-114099047D01*
X121064353Y-113980674D01*
X121062662Y-113878569D01*
X121060612Y-113791479D01*
X121058168Y-113718150D01*
X121055296Y-113657329D01*
X121051962Y-113607760D01*
X121048133Y-113568192D01*
X121043774Y-113537370D01*
X121038851Y-113514040D01*
X121033330Y-113496948D01*
X121027178Y-113484842D01*
X121020359Y-113476467D01*
X121012840Y-113470570D01*
X121004587Y-113465896D01*
X120995567Y-113461193D01*
X120987584Y-113456442D01*
X120980617Y-113453012D01*
X120969732Y-113449912D01*
X120953472Y-113447125D01*
X120930379Y-113444634D01*
X120898997Y-113442423D01*
X120857868Y-113440476D01*
X120805534Y-113438776D01*
X120740539Y-113437307D01*
X120661425Y-113436052D01*
X120566736Y-113434994D01*
X120455012Y-113434118D01*
X120324799Y-113433407D01*
X120174637Y-113432845D01*
X120003070Y-113432414D01*
X119808641Y-113432099D01*
X119589892Y-113431883D01*
X119345366Y-113431750D01*
X119073605Y-113431683D01*
X118792496Y-113431665D01*
X116635222Y-113431665D01*
X116635222Y-113560524D01*
X116635222Y-113560524D01*
G37*
X116635222Y-113560524D02*
X116620756Y-113712219D01*
X116578663Y-113855503D01*
X116510893Y-113987307D01*
X116419399Y-114104558D01*
X116306135Y-114204187D01*
X116177010Y-114281229D01*
X116035528Y-114333979D01*
X115893054Y-114358701D01*
X115752396Y-114357184D01*
X115616364Y-114331217D01*
X115487767Y-114282590D01*
X115369414Y-114213093D01*
X115264114Y-114124514D01*
X115174677Y-114018643D01*
X115103912Y-113897270D01*
X115054629Y-113762183D01*
X115029635Y-113615174D01*
X115027056Y-113548744D01*
X115027056Y-113431665D01*
X114957920Y-113431665D01*
X114909581Y-113435453D01*
X114873771Y-113451162D01*
X114837683Y-113482766D01*
X114786583Y-113533867D01*
X114786583Y-116451638D01*
X114786595Y-116800638D01*
X114786638Y-117120832D01*
X114786723Y-117413474D01*
X114786861Y-117679818D01*
X114787062Y-117921117D01*
X114787338Y-118138625D01*
X114787700Y-118333595D01*
X114788158Y-118507280D01*
X114788723Y-118660935D01*
X114789406Y-118795813D01*
X114790217Y-118913168D01*
X114791169Y-119014253D01*
X114792271Y-119100321D01*
X114793535Y-119172627D01*
X114794970Y-119232423D01*
X114796589Y-119280964D01*
X114798402Y-119319503D01*
X114800420Y-119349293D01*
X114802654Y-119371589D01*
X114805114Y-119387643D01*
X114807812Y-119398710D01*
X114810758Y-119406042D01*
X114812199Y-119408505D01*
X114817741Y-119417840D01*
X114822447Y-119426423D01*
X114827545Y-119434284D01*
X114834265Y-119441455D01*
X114843836Y-119447967D01*
X114857486Y-119453853D01*
X114876445Y-119459142D01*
X114901942Y-119463868D01*
X114935205Y-119468060D01*
X114977464Y-119471751D01*
X115029948Y-119474972D01*
X115093886Y-119477754D01*
X115170507Y-119480130D01*
X115261040Y-119482129D01*
X115366714Y-119483784D01*
X115488758Y-119485127D01*
X115628401Y-119486187D01*
X115786872Y-119486998D01*
X115965400Y-119487590D01*
X116165215Y-119487995D01*
X116387545Y-119488244D01*
X116633619Y-119488369D01*
X116904666Y-119488401D01*
X117201916Y-119488371D01*
X117526597Y-119488311D01*
X117879938Y-119488252D01*
X117931041Y-119488246D01*
X118286485Y-119488189D01*
X118613094Y-119488095D01*
X118912092Y-119487955D01*
X119184704Y-119487759D01*
X119432153Y-119487497D01*
X119655664Y-119487160D01*
X119856460Y-119486739D01*
X120035766Y-119486223D01*
X120194807Y-119485604D01*
X120334806Y-119484871D01*
X120456987Y-119484015D01*
X120562575Y-119483026D01*
X120652793Y-119481894D01*
X120728866Y-119480611D01*
X120792019Y-119479166D01*
X120843475Y-119477549D01*
X120884458Y-119475752D01*
X120916192Y-119473765D01*
X120939902Y-119471577D01*
X120956812Y-119469179D01*
X120968146Y-119466563D01*
X120973948Y-119464341D01*
X120985214Y-119459588D01*
X120995558Y-119456078D01*
X121005017Y-119452568D01*
X121013632Y-119447813D01*
X121021442Y-119440569D01*
X121028485Y-119429591D01*
X121034802Y-119413635D01*
X121040431Y-119391455D01*
X121045412Y-119361809D01*
X121049784Y-119323451D01*
X121053586Y-119275137D01*
X121056858Y-119215622D01*
X121059639Y-119143663D01*
X121061967Y-119058013D01*
X121063883Y-118957431D01*
X121065425Y-118840669D01*
X121066634Y-118706485D01*
X121067547Y-118553634D01*
X121068205Y-118380871D01*
X121068646Y-118186952D01*
X121068911Y-117970633D01*
X121069036Y-117730668D01*
X121069064Y-117465814D01*
X121069033Y-117174826D01*
X121068981Y-116856460D01*
X121068949Y-116509470D01*
X121068949Y-116453352D01*
X121068967Y-116103341D01*
X121069001Y-115782136D01*
X121069015Y-115488483D01*
X121068976Y-115221128D01*
X121068851Y-114978817D01*
X121068603Y-114760297D01*
X121068200Y-114564313D01*
X121067607Y-114389613D01*
X121066835Y-114243263D01*
X120663649Y-114243263D01*
X120610674Y-114320275D01*
X120595802Y-114341268D01*
X120582395Y-114359856D01*
X120570376Y-114377620D01*
X120559670Y-114396138D01*
X120550203Y-114416991D01*
X120541897Y-114441757D01*
X120534678Y-114472017D01*
X120528469Y-114509350D01*
X120523196Y-114555335D01*
X120518782Y-114611552D01*
X120515152Y-114679580D01*
X120512230Y-114761000D01*
X120509941Y-114857390D01*
X120508209Y-114970330D01*
X120506958Y-115101399D01*
X120506114Y-115252178D01*
X120505599Y-115424246D01*
X120505339Y-115619181D01*
X120505257Y-115838565D01*
X120505279Y-116083976D01*
X120505328Y-116356994D01*
X120505340Y-116520245D01*
X120505308Y-116809083D01*
X120505263Y-117069443D01*
X120505279Y-117302906D01*
X120505431Y-117511054D01*
X120505794Y-117695469D01*
X120506443Y-117857731D01*
X120507453Y-117999422D01*
X120508899Y-118122124D01*
X120510855Y-118227417D01*
X120513396Y-118316883D01*
X120516597Y-118392103D01*
X120520533Y-118454659D01*
X120525280Y-118506132D01*
X120530910Y-118548103D01*
X120537501Y-118582153D01*
X120545126Y-118609865D01*
X120553860Y-118632818D01*
X120563779Y-118652596D01*
X120574956Y-118670778D01*
X120587467Y-118688946D01*
X120601388Y-118708682D01*
X120609497Y-118720519D01*
X120661118Y-118797228D01*
X119953414Y-118797228D01*
X119789326Y-118797181D01*
X119652867Y-118796981D01*
X119541609Y-118796533D01*
X119453121Y-118795744D01*
X119384976Y-118794520D01*
X119334743Y-118792769D01*
X119299993Y-118790397D01*
X119278298Y-118787310D01*
X119267227Y-118783416D01*
X119264351Y-118778620D01*
X119267241Y-118772830D01*
X119268833Y-118770926D01*
X119302317Y-118721570D01*
X119336796Y-118651273D01*
X119368229Y-118568727D01*
X119379238Y-118533561D01*
X119385384Y-118509675D01*
X119390578Y-118481635D01*
X119394930Y-118446665D01*
X119398548Y-118401989D01*
X119401543Y-118344829D01*
X119404023Y-118272410D01*
X119406098Y-118181955D01*
X119407877Y-118070688D01*
X119409470Y-117935831D01*
X119410986Y-117774609D01*
X119411488Y-117715097D01*
X119412842Y-117548476D01*
X119413852Y-117409526D01*
X119414441Y-117295861D01*
X119414531Y-117205096D01*
X119414044Y-117134844D01*
X119412903Y-117082719D01*
X119411030Y-117046334D01*
X119408347Y-117023304D01*
X119404776Y-117011242D01*
X119400239Y-117007761D01*
X119394659Y-117010476D01*
X119388703Y-117016222D01*
X119374917Y-117033443D01*
X119345550Y-117072151D01*
X119302679Y-117129510D01*
X119248382Y-117202681D01*
X119184737Y-117288826D01*
X119113823Y-117385109D01*
X119037716Y-117488692D01*
X118958495Y-117596737D01*
X118878238Y-117706407D01*
X118799022Y-117814864D01*
X118722926Y-117919270D01*
X118652027Y-118016789D01*
X118588403Y-118104583D01*
X118534133Y-118179814D01*
X118491293Y-118239644D01*
X118461962Y-118281237D01*
X118455880Y-118290067D01*
X118425364Y-118339198D01*
X118389672Y-118403090D01*
X118355857Y-118469042D01*
X118351569Y-118477937D01*
X118322708Y-118542102D01*
X118305952Y-118592110D01*
X118298323Y-118639807D01*
X118296834Y-118695778D01*
X118297678Y-118797228D01*
X116760704Y-118797228D01*
X116882075Y-118672438D01*
X116944379Y-118606010D01*
X117011330Y-118530816D01*
X117072632Y-118458563D01*
X117099825Y-118424810D01*
X117140349Y-118372161D01*
X117193676Y-118301317D01*
X117258247Y-118214447D01*
X117332501Y-118113722D01*
X117414881Y-118001309D01*
X117503826Y-117879379D01*
X117597778Y-117750102D01*
X117695178Y-117615646D01*
X117794465Y-117478181D01*
X117894081Y-117339877D01*
X117992467Y-117202903D01*
X118088064Y-117069429D01*
X118179312Y-116941624D01*
X118264652Y-116821657D01*
X118342525Y-116711699D01*
X118411371Y-116613918D01*
X118469632Y-116530484D01*
X118515749Y-116463566D01*
X118548161Y-116415334D01*
X118565310Y-116387958D01*
X118567650Y-116382496D01*
X118557054Y-116367417D01*
X118529368Y-116331230D01*
X118486409Y-116276201D01*
X118429990Y-116204593D01*
X118361926Y-116118671D01*
X118284033Y-116020698D01*
X118198125Y-115912938D01*
X118106017Y-115797655D01*
X118009523Y-115677114D01*
X117910459Y-115553579D01*
X117830938Y-115454582D01*
X116484926Y-115454582D01*
X116477058Y-115471833D01*
X116457980Y-115501455D01*
X116456586Y-115503428D01*
X116431573Y-115543573D01*
X116405416Y-115592609D01*
X116400225Y-115603441D01*
X116395517Y-115614663D01*
X116391357Y-115628134D01*
X116387703Y-115645710D01*
X116384515Y-115669245D01*
X116381755Y-115700594D01*
X116379381Y-115741612D01*
X116377353Y-115794152D01*
X116375632Y-115860071D01*
X116374176Y-115941223D01*
X116372947Y-116039462D01*
X116371904Y-116156643D01*
X116371006Y-116294621D01*
X116370214Y-116455251D01*
X116369488Y-116640388D01*
X116368787Y-116851886D01*
X116368077Y-117090009D01*
X116367360Y-117336467D01*
X116366782Y-117554729D01*
X116366431Y-117746655D01*
X116366398Y-117914107D01*
X116366772Y-118058949D01*
X116367643Y-118183040D01*
X116369101Y-118288244D01*
X116371236Y-118376422D01*
X116374137Y-118449436D01*
X116377894Y-118509148D01*
X116382597Y-118557420D01*
X116388335Y-118596114D01*
X116395199Y-118627091D01*
X116403278Y-118652214D01*
X116412662Y-118673345D01*
X116423440Y-118692345D01*
X116435703Y-118711076D01*
X116447020Y-118727675D01*
X116469834Y-118762682D01*
X116483343Y-118786093D01*
X116484926Y-118790380D01*
X116470405Y-118791814D01*
X116428875Y-118793146D01*
X116363389Y-118794345D01*
X116276995Y-118795377D01*
X116172746Y-118796212D01*
X116053692Y-118796817D01*
X115922884Y-118797160D01*
X115831139Y-118797228D01*
X115691355Y-118796934D01*
X115562424Y-118796093D01*
X115447258Y-118794763D01*
X115348770Y-118793003D01*
X115269876Y-118790872D01*
X115213488Y-118788428D01*
X115182520Y-118785731D01*
X115177352Y-118784038D01*
X115187600Y-118764197D01*
X115198249Y-118753506D01*
X115215786Y-118730704D01*
X115238737Y-118690429D01*
X115254610Y-118657731D01*
X115290074Y-118579299D01*
X115294168Y-117012464D01*
X115298262Y-115445630D01*
X115891594Y-115445630D01*
X116021823Y-115445849D01*
X116142170Y-115446473D01*
X116249432Y-115447453D01*
X116340407Y-115448743D01*
X116411893Y-115450292D01*
X116460686Y-115452054D01*
X116483585Y-115453979D01*
X116484926Y-115454582D01*
X117830938Y-115454582D01*
X117810640Y-115429313D01*
X117711880Y-115306581D01*
X117615993Y-115187647D01*
X117524796Y-115074774D01*
X117440102Y-114970228D01*
X117363727Y-114876271D01*
X117297484Y-114795168D01*
X117243190Y-114729184D01*
X117220338Y-114701665D01*
X117105452Y-114567649D01*
X117003471Y-114456803D01*
X116911855Y-114366509D01*
X116828066Y-114294151D01*
X116815577Y-114284342D01*
X116762973Y-114243596D01*
X117516364Y-114243430D01*
X118269754Y-114243263D01*
X118262713Y-114307139D01*
X118267110Y-114383484D01*
X118295776Y-114474382D01*
X118348996Y-114580557D01*
X118409317Y-114676792D01*
X118430909Y-114706941D01*
X118468258Y-114756941D01*
X118519137Y-114823942D01*
X118581320Y-114905091D01*
X118652581Y-114997538D01*
X118730692Y-115098433D01*
X118813428Y-115204923D01*
X118898563Y-115314158D01*
X118983869Y-115423287D01*
X119067121Y-115529459D01*
X119146092Y-115629823D01*
X119218555Y-115721527D01*
X119282285Y-115801721D01*
X119335055Y-115867554D01*
X119374638Y-115916174D01*
X119398809Y-115944730D01*
X119402881Y-115949121D01*
X119406688Y-115938462D01*
X119409635Y-115898130D01*
X119411717Y-115828500D01*
X119412929Y-115729947D01*
X119413266Y-115602844D01*
X119412723Y-115447568D01*
X119411513Y-115287819D01*
X119409753Y-115111931D01*
X119407723Y-114963167D01*
X119405093Y-114838592D01*
X119401531Y-114735271D01*
X119396706Y-114650269D01*
X119390287Y-114580652D01*
X119381944Y-114523484D01*
X119371344Y-114475831D01*
X119358157Y-114434757D01*
X119342052Y-114397327D01*
X119322697Y-114360607D01*
X119303150Y-114327271D01*
X119252563Y-114243263D01*
X120663649Y-114243263D01*
X121066835Y-114243263D01*
X121066791Y-114234942D01*
X121065718Y-114099047D01*
X121064353Y-113980674D01*
X121062662Y-113878569D01*
X121060612Y-113791479D01*
X121058168Y-113718150D01*
X121055296Y-113657329D01*
X121051962Y-113607760D01*
X121048133Y-113568192D01*
X121043774Y-113537370D01*
X121038851Y-113514040D01*
X121033330Y-113496948D01*
X121027178Y-113484842D01*
X121020359Y-113476467D01*
X121012840Y-113470570D01*
X121004587Y-113465896D01*
X120995567Y-113461193D01*
X120987584Y-113456442D01*
X120980617Y-113453012D01*
X120969732Y-113449912D01*
X120953472Y-113447125D01*
X120930379Y-113444634D01*
X120898997Y-113442423D01*
X120857868Y-113440476D01*
X120805534Y-113438776D01*
X120740539Y-113437307D01*
X120661425Y-113436052D01*
X120566736Y-113434994D01*
X120455012Y-113434118D01*
X120324799Y-113433407D01*
X120174637Y-113432845D01*
X120003070Y-113432414D01*
X119808641Y-113432099D01*
X119589892Y-113431883D01*
X119345366Y-113431750D01*
X119073605Y-113431683D01*
X118792496Y-113431665D01*
X116635222Y-113431665D01*
X116635222Y-113560524D01*
G36*
X112275242Y-114172973D02*
X112062036Y-114201163D01*
X111843773Y-114254603D01*
X111617704Y-114333825D01*
X111381082Y-114439356D01*
X111366080Y-114446738D01*
X111289268Y-114484050D01*
X111220640Y-114516105D01*
X111165203Y-114540666D01*
X111127964Y-114555492D01*
X111115222Y-114558884D01*
X111089637Y-114565551D01*
X111083497Y-114571151D01*
X111090292Y-114585041D01*
X111111647Y-114620040D01*
X111145104Y-114672480D01*
X111188206Y-114738694D01*
X111238492Y-114815014D01*
X111293505Y-114897773D01*
X111350786Y-114983301D01*
X111407877Y-115067933D01*
X111462317Y-115148000D01*
X111511650Y-115219834D01*
X111553417Y-115279768D01*
X111585158Y-115324135D01*
X111604415Y-115349265D01*
X111607058Y-115352180D01*
X111620529Y-115345991D01*
X111650273Y-115323123D01*
X111690973Y-115287814D01*
X111711934Y-115268540D01*
X111840396Y-115168314D01*
X111982466Y-115094502D01*
X112136244Y-115047770D01*
X112299828Y-115028784D01*
X112392225Y-115030343D01*
X112553505Y-115053190D01*
X112698913Y-115100962D01*
X112828884Y-115174008D01*
X112943853Y-115272676D01*
X113044254Y-115397315D01*
X113130522Y-115548276D01*
X113180339Y-115663559D01*
X113238722Y-115844224D01*
X113281752Y-116040578D01*
X113309540Y-116247557D01*
X113322195Y-116460098D01*
X113319830Y-116673138D01*
X113302555Y-116881613D01*
X113270481Y-117080461D01*
X113223718Y-117264618D01*
X113162377Y-117429020D01*
X113140700Y-117474624D01*
X113049840Y-117626514D01*
X112942719Y-117754981D01*
X112820912Y-117858978D01*
X112685990Y-117937458D01*
X112539529Y-117989374D01*
X112383100Y-118013679D01*
X112327892Y-118015467D01*
X112166054Y-118000928D01*
X112005709Y-117957237D01*
X111848890Y-117885298D01*
X111697633Y-117786012D01*
X111575936Y-117681732D01*
X111513988Y-117622445D01*
X111272655Y-118018209D01*
X111212614Y-118116946D01*
X111157711Y-118207762D01*
X111109894Y-118287395D01*
X111071109Y-118352580D01*
X111043306Y-118400054D01*
X111028430Y-118426555D01*
X111026497Y-118430675D01*
X111037453Y-118443509D01*
X111071507Y-118466516D01*
X111124355Y-118497515D01*
X111191689Y-118534329D01*
X111269206Y-118574778D01*
X111352598Y-118616682D01*
X111437560Y-118657863D01*
X111519786Y-118696142D01*
X111594971Y-118729338D01*
X111658809Y-118755275D01*
X111690033Y-118766497D01*
X111868123Y-118816842D01*
X112051709Y-118850130D01*
X112248358Y-118867443D01*
X112417159Y-118870543D01*
X112507633Y-118869085D01*
X112594971Y-118866292D01*
X112671432Y-118862509D01*
X112729270Y-118858078D01*
X112748049Y-118855837D01*
X112933128Y-118817447D01*
X113121551Y-118757377D01*
X113304590Y-118679202D01*
X113473513Y-118586500D01*
X113576701Y-118516364D01*
X113746326Y-118372309D01*
X113903830Y-118203802D01*
X114046295Y-118015008D01*
X114170803Y-117810091D01*
X114274438Y-117593215D01*
X114332824Y-117437050D01*
X114399722Y-117192576D01*
X114444321Y-116933564D01*
X114466635Y-116665619D01*
X114466679Y-116394345D01*
X114444466Y-116125347D01*
X114400009Y-115864229D01*
X114333324Y-115616595D01*
X114328243Y-115601166D01*
X114244522Y-115385415D01*
X114142344Y-115188483D01*
X114018242Y-115004799D01*
X113868750Y-114828788D01*
X113810350Y-114768527D01*
X113629096Y-114603516D01*
X113442763Y-114466995D01*
X113248491Y-114357479D01*
X113043421Y-114273481D01*
X112824690Y-114213515D01*
X112697470Y-114190230D01*
X112486137Y-114169505D01*
X112275242Y-114172973D01*
X112275242Y-114172973D01*
G37*
X112275242Y-114172973D02*
X112062036Y-114201163D01*
X111843773Y-114254603D01*
X111617704Y-114333825D01*
X111381082Y-114439356D01*
X111366080Y-114446738D01*
X111289268Y-114484050D01*
X111220640Y-114516105D01*
X111165203Y-114540666D01*
X111127964Y-114555492D01*
X111115222Y-114558884D01*
X111089637Y-114565551D01*
X111083497Y-114571151D01*
X111090292Y-114585041D01*
X111111647Y-114620040D01*
X111145104Y-114672480D01*
X111188206Y-114738694D01*
X111238492Y-114815014D01*
X111293505Y-114897773D01*
X111350786Y-114983301D01*
X111407877Y-115067933D01*
X111462317Y-115148000D01*
X111511650Y-115219834D01*
X111553417Y-115279768D01*
X111585158Y-115324135D01*
X111604415Y-115349265D01*
X111607058Y-115352180D01*
X111620529Y-115345991D01*
X111650273Y-115323123D01*
X111690973Y-115287814D01*
X111711934Y-115268540D01*
X111840396Y-115168314D01*
X111982466Y-115094502D01*
X112136244Y-115047770D01*
X112299828Y-115028784D01*
X112392225Y-115030343D01*
X112553505Y-115053190D01*
X112698913Y-115100962D01*
X112828884Y-115174008D01*
X112943853Y-115272676D01*
X113044254Y-115397315D01*
X113130522Y-115548276D01*
X113180339Y-115663559D01*
X113238722Y-115844224D01*
X113281752Y-116040578D01*
X113309540Y-116247557D01*
X113322195Y-116460098D01*
X113319830Y-116673138D01*
X113302555Y-116881613D01*
X113270481Y-117080461D01*
X113223718Y-117264618D01*
X113162377Y-117429020D01*
X113140700Y-117474624D01*
X113049840Y-117626514D01*
X112942719Y-117754981D01*
X112820912Y-117858978D01*
X112685990Y-117937458D01*
X112539529Y-117989374D01*
X112383100Y-118013679D01*
X112327892Y-118015467D01*
X112166054Y-118000928D01*
X112005709Y-117957237D01*
X111848890Y-117885298D01*
X111697633Y-117786012D01*
X111575936Y-117681732D01*
X111513988Y-117622445D01*
X111272655Y-118018209D01*
X111212614Y-118116946D01*
X111157711Y-118207762D01*
X111109894Y-118287395D01*
X111071109Y-118352580D01*
X111043306Y-118400054D01*
X111028430Y-118426555D01*
X111026497Y-118430675D01*
X111037453Y-118443509D01*
X111071507Y-118466516D01*
X111124355Y-118497515D01*
X111191689Y-118534329D01*
X111269206Y-118574778D01*
X111352598Y-118616682D01*
X111437560Y-118657863D01*
X111519786Y-118696142D01*
X111594971Y-118729338D01*
X111658809Y-118755275D01*
X111690033Y-118766497D01*
X111868123Y-118816842D01*
X112051709Y-118850130D01*
X112248358Y-118867443D01*
X112417159Y-118870543D01*
X112507633Y-118869085D01*
X112594971Y-118866292D01*
X112671432Y-118862509D01*
X112729270Y-118858078D01*
X112748049Y-118855837D01*
X112933128Y-118817447D01*
X113121551Y-118757377D01*
X113304590Y-118679202D01*
X113473513Y-118586500D01*
X113576701Y-118516364D01*
X113746326Y-118372309D01*
X113903830Y-118203802D01*
X114046295Y-118015008D01*
X114170803Y-117810091D01*
X114274438Y-117593215D01*
X114332824Y-117437050D01*
X114399722Y-117192576D01*
X114444321Y-116933564D01*
X114466635Y-116665619D01*
X114466679Y-116394345D01*
X114444466Y-116125347D01*
X114400009Y-115864229D01*
X114333324Y-115616595D01*
X114328243Y-115601166D01*
X114244522Y-115385415D01*
X114142344Y-115188483D01*
X114018242Y-115004799D01*
X113868750Y-114828788D01*
X113810350Y-114768527D01*
X113629096Y-114603516D01*
X113442763Y-114466995D01*
X113248491Y-114357479D01*
X113043421Y-114273481D01*
X112824690Y-114213515D01*
X112697470Y-114190230D01*
X112486137Y-114169505D01*
X112275242Y-114172973D01*
G36*
X109153008Y-115394471D02*
X108950750Y-115421118D01*
X108770664Y-115465898D01*
X108611589Y-115529169D01*
X108472362Y-115611287D01*
X108369035Y-115695909D01*
X108277384Y-115794608D01*
X108205834Y-115900813D01*
X108148714Y-116023592D01*
X108128112Y-116080933D01*
X108110992Y-116132831D01*
X108096078Y-116180955D01*
X108083198Y-116227746D01*
X108072180Y-116275644D01*
X108062850Y-116327087D01*
X108055037Y-116384516D01*
X108048568Y-116450370D01*
X108043270Y-116527089D01*
X108038970Y-116617112D01*
X108035497Y-116722880D01*
X108032677Y-116846831D01*
X108030338Y-116991406D01*
X108028307Y-117159044D01*
X108026412Y-117352185D01*
X108024745Y-117542257D01*
X108022979Y-117750203D01*
X108021374Y-117930297D01*
X108019763Y-118084744D01*
X108017980Y-118215749D01*
X108015857Y-118325517D01*
X108013228Y-118416253D01*
X108009924Y-118490162D01*
X108005781Y-118549450D01*
X108000630Y-118596322D01*
X107994304Y-118632983D01*
X107986637Y-118661637D01*
X107977462Y-118684490D01*
X107966612Y-118703748D01*
X107953919Y-118721615D01*
X107939217Y-118740296D01*
X107933491Y-118747529D01*
X107912430Y-118777936D01*
X107903062Y-118798642D01*
X107903032Y-118799254D01*
X107917514Y-118802182D01*
X107958767Y-118804878D01*
X108023503Y-118807269D01*
X108108436Y-118809278D01*
X108210277Y-118810829D01*
X108325740Y-118811846D01*
X108451536Y-118812253D01*
X108466057Y-118812257D01*
X109029081Y-118812257D01*
X109033424Y-118684358D01*
X109037766Y-118556458D01*
X109120429Y-118624341D01*
X109250010Y-118714226D01*
X109396328Y-118787041D01*
X109511444Y-118827287D01*
X109603402Y-118846842D01*
X109714374Y-118860147D01*
X109833885Y-118866785D01*
X109951463Y-118866343D01*
X110056633Y-118858405D01*
X110104867Y-118850798D01*
X110291282Y-118800390D01*
X110459600Y-118727374D01*
X110608604Y-118632837D01*
X110737076Y-118517865D01*
X110843801Y-118383546D01*
X110927560Y-118230967D01*
X110986640Y-118063094D01*
X111003062Y-117987761D01*
X111013193Y-117904951D01*
X111018024Y-117805315D01*
X111018683Y-117760186D01*
X111018596Y-117755946D01*
X110006844Y-117755946D01*
X109994471Y-117855867D01*
X109956944Y-117940843D01*
X109892415Y-118014917D01*
X109885682Y-118020792D01*
X109821385Y-118067159D01*
X109752542Y-118097224D01*
X109671686Y-118113095D01*
X109571351Y-118116880D01*
X109547243Y-118116340D01*
X109475591Y-118112809D01*
X109422297Y-118105598D01*
X109375677Y-118092066D01*
X109324048Y-118069572D01*
X109309880Y-118062678D01*
X109229132Y-118014978D01*
X109166799Y-117958219D01*
X109149841Y-117937931D01*
X109090370Y-117862694D01*
X109090370Y-117601913D01*
X109091083Y-117497206D01*
X109093333Y-117420052D01*
X109097285Y-117367978D01*
X109103104Y-117338509D01*
X109108542Y-117329900D01*
X109129745Y-117325688D01*
X109174722Y-117322197D01*
X109237195Y-117319756D01*
X109310881Y-117318694D01*
X109322714Y-117318674D01*
X109483510Y-117325669D01*
X109620201Y-117347193D01*
X109735435Y-117384069D01*
X109831859Y-117437120D01*
X109904991Y-117499627D01*
X109964299Y-117576695D01*
X109997215Y-117660635D01*
X110006844Y-117755946D01*
X111018596Y-117755946D01*
X111016109Y-117635364D01*
X111004999Y-117530321D01*
X110983371Y-117435498D01*
X110949239Y-117341337D01*
X110917291Y-117271611D01*
X110839248Y-117144736D01*
X110735273Y-117027542D01*
X110608530Y-116922162D01*
X110462182Y-116830728D01*
X110299394Y-116755374D01*
X110123329Y-116698232D01*
X110037234Y-116678342D01*
X109855926Y-116648913D01*
X109658292Y-116629497D01*
X109456650Y-116621002D01*
X109288154Y-116623175D01*
X109072625Y-116632200D01*
X109082503Y-116553678D01*
X109108189Y-116421670D01*
X109149639Y-116314202D01*
X109207999Y-116230452D01*
X109284417Y-116169595D01*
X109380039Y-116130808D01*
X109496010Y-116113266D01*
X109633479Y-116116147D01*
X109684038Y-116121474D01*
X109872014Y-116154982D01*
X110054162Y-116209613D01*
X110180015Y-116260206D01*
X110240139Y-116286001D01*
X110291306Y-116306731D01*
X110326389Y-116319571D01*
X110336625Y-116322297D01*
X110349598Y-116310210D01*
X110371857Y-116271642D01*
X110403610Y-116206155D01*
X110445068Y-116113316D01*
X110496439Y-115992687D01*
X110505223Y-115971665D01*
X110545239Y-115875385D01*
X110581159Y-115788385D01*
X110611431Y-115714469D01*
X110634504Y-115657441D01*
X110648826Y-115621107D01*
X110652962Y-115609339D01*
X110639650Y-115603009D01*
X110604667Y-115595983D01*
X110567026Y-115591085D01*
X110526877Y-115584752D01*
X110463254Y-115572177D01*
X110381803Y-115554592D01*
X110288164Y-115533230D01*
X110187980Y-115509325D01*
X110149955Y-115499975D01*
X110010081Y-115465908D01*
X109893369Y-115439198D01*
X109794065Y-115418991D01*
X109706415Y-115404434D01*
X109624664Y-115394673D01*
X109543059Y-115388856D01*
X109455844Y-115386130D01*
X109378602Y-115385600D01*
X109153008Y-115394471D01*
X109153008Y-115394471D01*
G37*
X109153008Y-115394471D02*
X108950750Y-115421118D01*
X108770664Y-115465898D01*
X108611589Y-115529169D01*
X108472362Y-115611287D01*
X108369035Y-115695909D01*
X108277384Y-115794608D01*
X108205834Y-115900813D01*
X108148714Y-116023592D01*
X108128112Y-116080933D01*
X108110992Y-116132831D01*
X108096078Y-116180955D01*
X108083198Y-116227746D01*
X108072180Y-116275644D01*
X108062850Y-116327087D01*
X108055037Y-116384516D01*
X108048568Y-116450370D01*
X108043270Y-116527089D01*
X108038970Y-116617112D01*
X108035497Y-116722880D01*
X108032677Y-116846831D01*
X108030338Y-116991406D01*
X108028307Y-117159044D01*
X108026412Y-117352185D01*
X108024745Y-117542257D01*
X108022979Y-117750203D01*
X108021374Y-117930297D01*
X108019763Y-118084744D01*
X108017980Y-118215749D01*
X108015857Y-118325517D01*
X108013228Y-118416253D01*
X108009924Y-118490162D01*
X108005781Y-118549450D01*
X108000630Y-118596322D01*
X107994304Y-118632983D01*
X107986637Y-118661637D01*
X107977462Y-118684490D01*
X107966612Y-118703748D01*
X107953919Y-118721615D01*
X107939217Y-118740296D01*
X107933491Y-118747529D01*
X107912430Y-118777936D01*
X107903062Y-118798642D01*
X107903032Y-118799254D01*
X107917514Y-118802182D01*
X107958767Y-118804878D01*
X108023503Y-118807269D01*
X108108436Y-118809278D01*
X108210277Y-118810829D01*
X108325740Y-118811846D01*
X108451536Y-118812253D01*
X108466057Y-118812257D01*
X109029081Y-118812257D01*
X109033424Y-118684358D01*
X109037766Y-118556458D01*
X109120429Y-118624341D01*
X109250010Y-118714226D01*
X109396328Y-118787041D01*
X109511444Y-118827287D01*
X109603402Y-118846842D01*
X109714374Y-118860147D01*
X109833885Y-118866785D01*
X109951463Y-118866343D01*
X110056633Y-118858405D01*
X110104867Y-118850798D01*
X110291282Y-118800390D01*
X110459600Y-118727374D01*
X110608604Y-118632837D01*
X110737076Y-118517865D01*
X110843801Y-118383546D01*
X110927560Y-118230967D01*
X110986640Y-118063094D01*
X111003062Y-117987761D01*
X111013193Y-117904951D01*
X111018024Y-117805315D01*
X111018683Y-117760186D01*
X111018596Y-117755946D01*
X110006844Y-117755946D01*
X109994471Y-117855867D01*
X109956944Y-117940843D01*
X109892415Y-118014917D01*
X109885682Y-118020792D01*
X109821385Y-118067159D01*
X109752542Y-118097224D01*
X109671686Y-118113095D01*
X109571351Y-118116880D01*
X109547243Y-118116340D01*
X109475591Y-118112809D01*
X109422297Y-118105598D01*
X109375677Y-118092066D01*
X109324048Y-118069572D01*
X109309880Y-118062678D01*
X109229132Y-118014978D01*
X109166799Y-117958219D01*
X109149841Y-117937931D01*
X109090370Y-117862694D01*
X109090370Y-117601913D01*
X109091083Y-117497206D01*
X109093333Y-117420052D01*
X109097285Y-117367978D01*
X109103104Y-117338509D01*
X109108542Y-117329900D01*
X109129745Y-117325688D01*
X109174722Y-117322197D01*
X109237195Y-117319756D01*
X109310881Y-117318694D01*
X109322714Y-117318674D01*
X109483510Y-117325669D01*
X109620201Y-117347193D01*
X109735435Y-117384069D01*
X109831859Y-117437120D01*
X109904991Y-117499627D01*
X109964299Y-117576695D01*
X109997215Y-117660635D01*
X110006844Y-117755946D01*
X111018596Y-117755946D01*
X111016109Y-117635364D01*
X111004999Y-117530321D01*
X110983371Y-117435498D01*
X110949239Y-117341337D01*
X110917291Y-117271611D01*
X110839248Y-117144736D01*
X110735273Y-117027542D01*
X110608530Y-116922162D01*
X110462182Y-116830728D01*
X110299394Y-116755374D01*
X110123329Y-116698232D01*
X110037234Y-116678342D01*
X109855926Y-116648913D01*
X109658292Y-116629497D01*
X109456650Y-116621002D01*
X109288154Y-116623175D01*
X109072625Y-116632200D01*
X109082503Y-116553678D01*
X109108189Y-116421670D01*
X109149639Y-116314202D01*
X109207999Y-116230452D01*
X109284417Y-116169595D01*
X109380039Y-116130808D01*
X109496010Y-116113266D01*
X109633479Y-116116147D01*
X109684038Y-116121474D01*
X109872014Y-116154982D01*
X110054162Y-116209613D01*
X110180015Y-116260206D01*
X110240139Y-116286001D01*
X110291306Y-116306731D01*
X110326389Y-116319571D01*
X110336625Y-116322297D01*
X110349598Y-116310210D01*
X110371857Y-116271642D01*
X110403610Y-116206155D01*
X110445068Y-116113316D01*
X110496439Y-115992687D01*
X110505223Y-115971665D01*
X110545239Y-115875385D01*
X110581159Y-115788385D01*
X110611431Y-115714469D01*
X110634504Y-115657441D01*
X110648826Y-115621107D01*
X110652962Y-115609339D01*
X110639650Y-115603009D01*
X110604667Y-115595983D01*
X110567026Y-115591085D01*
X110526877Y-115584752D01*
X110463254Y-115572177D01*
X110381803Y-115554592D01*
X110288164Y-115533230D01*
X110187980Y-115509325D01*
X110149955Y-115499975D01*
X110010081Y-115465908D01*
X109893369Y-115439198D01*
X109794065Y-115418991D01*
X109706415Y-115404434D01*
X109624664Y-115394673D01*
X109543059Y-115388856D01*
X109455844Y-115386130D01*
X109378602Y-115385600D01*
X109153008Y-115394471D01*
G36*
X104476026Y-116200867D02*
X104476000Y-116512961D01*
X104475965Y-116796462D01*
X104475869Y-117052836D01*
X104475659Y-117283548D01*
X104475284Y-117490065D01*
X104474691Y-117673851D01*
X104473830Y-117836374D01*
X104472647Y-117979098D01*
X104471092Y-118103490D01*
X104469111Y-118211015D01*
X104466654Y-118303140D01*
X104463667Y-118381330D01*
X104460100Y-118447051D01*
X104455901Y-118501769D01*
X104451016Y-118546949D01*
X104445396Y-118584058D01*
X104438987Y-118614562D01*
X104431737Y-118639926D01*
X104423595Y-118661615D01*
X104414510Y-118681097D01*
X104404427Y-118699837D01*
X104393297Y-118719300D01*
X104386383Y-118731424D01*
X104340764Y-118812257D01*
X105483269Y-118812257D01*
X105483269Y-118684506D01*
X105484243Y-118626773D01*
X105486842Y-118582619D01*
X105490582Y-118558946D01*
X105492235Y-118556754D01*
X105507442Y-118565919D01*
X105537683Y-118589675D01*
X105567905Y-118615469D01*
X105640576Y-118669701D01*
X105733077Y-118724292D01*
X105835661Y-118774225D01*
X105938581Y-118814487D01*
X105979657Y-118827333D01*
X106070851Y-118846725D01*
X106181157Y-118859987D01*
X106300171Y-118866702D01*
X106417495Y-118866453D01*
X106522727Y-118858824D01*
X106572914Y-118851092D01*
X106756770Y-118800418D01*
X106926255Y-118723567D01*
X107080454Y-118621237D01*
X107218456Y-118494128D01*
X107339349Y-118342940D01*
X107428286Y-118195427D01*
X107501335Y-118039983D01*
X107557252Y-117881086D01*
X107597189Y-117713343D01*
X107622293Y-117531361D01*
X107633714Y-117329745D01*
X107634681Y-117226636D01*
X107631893Y-117151045D01*
X106528040Y-117151045D01*
X106527763Y-117274952D01*
X106523885Y-117391699D01*
X106516346Y-117494320D01*
X106505089Y-117575849D01*
X106501649Y-117592279D01*
X106459311Y-117735112D01*
X106403848Y-117850973D01*
X106334797Y-117940154D01*
X106251696Y-118002944D01*
X106154082Y-118039637D01*
X106041490Y-118050521D01*
X105913459Y-118035890D01*
X105828949Y-118014958D01*
X105763522Y-117990741D01*
X105691457Y-117956328D01*
X105637322Y-117924772D01*
X105543387Y-117863040D01*
X105543387Y-116331720D01*
X105633131Y-116273716D01*
X105737677Y-116219233D01*
X105849758Y-116183751D01*
X105963089Y-116167876D01*
X106071383Y-116172212D01*
X106168355Y-116197365D01*
X106210897Y-116218093D01*
X106288015Y-116275338D01*
X106353195Y-116350922D01*
X106407987Y-116447608D01*
X106453939Y-116568158D01*
X106492603Y-116715333D01*
X106494309Y-116723145D01*
X106507850Y-116806027D01*
X106518024Y-116909616D01*
X106524774Y-117026944D01*
X106528040Y-117151045D01*
X107631893Y-117151045D01*
X107624228Y-116943301D01*
X107595012Y-116682573D01*
X107547104Y-116444623D01*
X107480572Y-116229624D01*
X107395485Y-116037750D01*
X107291913Y-115869174D01*
X107169925Y-115724068D01*
X107029589Y-115602605D01*
X106969459Y-115561398D01*
X106835059Y-115486645D01*
X106697543Y-115433909D01*
X106550976Y-115401743D01*
X106389427Y-115388703D01*
X106266269Y-115390095D01*
X106093652Y-115404695D01*
X105943749Y-115433739D01*
X105812222Y-115478563D01*
X105694735Y-115540500D01*
X105629677Y-115586049D01*
X105590580Y-115615225D01*
X105561702Y-115635156D01*
X105550772Y-115641015D01*
X105548622Y-115626597D01*
X105546904Y-115585787D01*
X105545600Y-115522247D01*
X105544695Y-115439640D01*
X105544172Y-115341630D01*
X105544013Y-115231879D01*
X105544202Y-115114051D01*
X105544722Y-114991807D01*
X105545556Y-114868813D01*
X105546688Y-114748730D01*
X105548101Y-114635221D01*
X105549777Y-114531950D01*
X105551700Y-114442580D01*
X105553854Y-114370773D01*
X105556220Y-114320193D01*
X105556875Y-114310896D01*
X105566963Y-114217147D01*
X105582355Y-114143724D01*
X105605972Y-114080989D01*
X105640733Y-114019302D01*
X105649077Y-114006547D01*
X105681605Y-113957701D01*
X104476287Y-113957701D01*
X104476026Y-116200867D01*
X104476026Y-116200867D01*
G37*
X104476026Y-116200867D02*
X104476000Y-116512961D01*
X104475965Y-116796462D01*
X104475869Y-117052836D01*
X104475659Y-117283548D01*
X104475284Y-117490065D01*
X104474691Y-117673851D01*
X104473830Y-117836374D01*
X104472647Y-117979098D01*
X104471092Y-118103490D01*
X104469111Y-118211015D01*
X104466654Y-118303140D01*
X104463667Y-118381330D01*
X104460100Y-118447051D01*
X104455901Y-118501769D01*
X104451016Y-118546949D01*
X104445396Y-118584058D01*
X104438987Y-118614562D01*
X104431737Y-118639926D01*
X104423595Y-118661615D01*
X104414510Y-118681097D01*
X104404427Y-118699837D01*
X104393297Y-118719300D01*
X104386383Y-118731424D01*
X104340764Y-118812257D01*
X105483269Y-118812257D01*
X105483269Y-118684506D01*
X105484243Y-118626773D01*
X105486842Y-118582619D01*
X105490582Y-118558946D01*
X105492235Y-118556754D01*
X105507442Y-118565919D01*
X105537683Y-118589675D01*
X105567905Y-118615469D01*
X105640576Y-118669701D01*
X105733077Y-118724292D01*
X105835661Y-118774225D01*
X105938581Y-118814487D01*
X105979657Y-118827333D01*
X106070851Y-118846725D01*
X106181157Y-118859987D01*
X106300171Y-118866702D01*
X106417495Y-118866453D01*
X106522727Y-118858824D01*
X106572914Y-118851092D01*
X106756770Y-118800418D01*
X106926255Y-118723567D01*
X107080454Y-118621237D01*
X107218456Y-118494128D01*
X107339349Y-118342940D01*
X107428286Y-118195427D01*
X107501335Y-118039983D01*
X107557252Y-117881086D01*
X107597189Y-117713343D01*
X107622293Y-117531361D01*
X107633714Y-117329745D01*
X107634681Y-117226636D01*
X107631893Y-117151045D01*
X106528040Y-117151045D01*
X106527763Y-117274952D01*
X106523885Y-117391699D01*
X106516346Y-117494320D01*
X106505089Y-117575849D01*
X106501649Y-117592279D01*
X106459311Y-117735112D01*
X106403848Y-117850973D01*
X106334797Y-117940154D01*
X106251696Y-118002944D01*
X106154082Y-118039637D01*
X106041490Y-118050521D01*
X105913459Y-118035890D01*
X105828949Y-118014958D01*
X105763522Y-117990741D01*
X105691457Y-117956328D01*
X105637322Y-117924772D01*
X105543387Y-117863040D01*
X105543387Y-116331720D01*
X105633131Y-116273716D01*
X105737677Y-116219233D01*
X105849758Y-116183751D01*
X105963089Y-116167876D01*
X106071383Y-116172212D01*
X106168355Y-116197365D01*
X106210897Y-116218093D01*
X106288015Y-116275338D01*
X106353195Y-116350922D01*
X106407987Y-116447608D01*
X106453939Y-116568158D01*
X106492603Y-116715333D01*
X106494309Y-116723145D01*
X106507850Y-116806027D01*
X106518024Y-116909616D01*
X106524774Y-117026944D01*
X106528040Y-117151045D01*
X107631893Y-117151045D01*
X107624228Y-116943301D01*
X107595012Y-116682573D01*
X107547104Y-116444623D01*
X107480572Y-116229624D01*
X107395485Y-116037750D01*
X107291913Y-115869174D01*
X107169925Y-115724068D01*
X107029589Y-115602605D01*
X106969459Y-115561398D01*
X106835059Y-115486645D01*
X106697543Y-115433909D01*
X106550976Y-115401743D01*
X106389427Y-115388703D01*
X106266269Y-115390095D01*
X106093652Y-115404695D01*
X105943749Y-115433739D01*
X105812222Y-115478563D01*
X105694735Y-115540500D01*
X105629677Y-115586049D01*
X105590580Y-115615225D01*
X105561702Y-115635156D01*
X105550772Y-115641015D01*
X105548622Y-115626597D01*
X105546904Y-115585787D01*
X105545600Y-115522247D01*
X105544695Y-115439640D01*
X105544172Y-115341630D01*
X105544013Y-115231879D01*
X105544202Y-115114051D01*
X105544722Y-114991807D01*
X105545556Y-114868813D01*
X105546688Y-114748730D01*
X105548101Y-114635221D01*
X105549777Y-114531950D01*
X105551700Y-114442580D01*
X105553854Y-114370773D01*
X105556220Y-114320193D01*
X105556875Y-114310896D01*
X105566963Y-114217147D01*
X105582355Y-114143724D01*
X105605972Y-114080989D01*
X105640733Y-114019302D01*
X105649077Y-114006547D01*
X105681605Y-113957701D01*
X104476287Y-113957701D01*
X104476026Y-116200867D01*
G36*
X115738740Y-112944793D02*
X115610563Y-112977062D01*
X115495289Y-113034087D01*
X115395689Y-113113672D01*
X115314535Y-113213625D01*
X115254598Y-113331751D01*
X115219634Y-113459975D01*
X115211844Y-113589469D01*
X115231620Y-113714429D01*
X115276488Y-113831399D01*
X115343972Y-113936922D01*
X115431598Y-114027542D01*
X115536893Y-114099803D01*
X115657382Y-114150248D01*
X115725635Y-114166788D01*
X115784878Y-114176802D01*
X115830546Y-114180759D01*
X115874428Y-114178330D01*
X115928314Y-114169184D01*
X115972377Y-114159898D01*
X116096748Y-114117947D01*
X116208147Y-114049883D01*
X116304065Y-113957769D01*
X116381996Y-113843670D01*
X116400567Y-113807405D01*
X116422451Y-113758987D01*
X116436175Y-113718328D01*
X116443585Y-113675549D01*
X116446527Y-113620772D01*
X116446897Y-113559417D01*
X116441457Y-113447106D01*
X116423596Y-113354871D01*
X116390059Y-113274158D01*
X116337590Y-113196414D01*
X116286269Y-113137482D01*
X116190554Y-113049855D01*
X116090578Y-112989368D01*
X115980407Y-112953153D01*
X115877049Y-112939473D01*
X115738740Y-112944793D01*
X115738740Y-112944793D01*
G37*
X115738740Y-112944793D02*
X115610563Y-112977062D01*
X115495289Y-113034087D01*
X115395689Y-113113672D01*
X115314535Y-113213625D01*
X115254598Y-113331751D01*
X115219634Y-113459975D01*
X115211844Y-113589469D01*
X115231620Y-113714429D01*
X115276488Y-113831399D01*
X115343972Y-113936922D01*
X115431598Y-114027542D01*
X115536893Y-114099803D01*
X115657382Y-114150248D01*
X115725635Y-114166788D01*
X115784878Y-114176802D01*
X115830546Y-114180759D01*
X115874428Y-114178330D01*
X115928314Y-114169184D01*
X115972377Y-114159898D01*
X116096748Y-114117947D01*
X116208147Y-114049883D01*
X116304065Y-113957769D01*
X116381996Y-113843670D01*
X116400567Y-113807405D01*
X116422451Y-113758987D01*
X116436175Y-113718328D01*
X116443585Y-113675549D01*
X116446527Y-113620772D01*
X116446897Y-113559417D01*
X116441457Y-113447106D01*
X116423596Y-113354871D01*
X116390059Y-113274158D01*
X116337590Y-113196414D01*
X116286269Y-113137482D01*
X116190554Y-113049855D01*
X116090578Y-112989368D01*
X115980407Y-112953153D01*
X115877049Y-112939473D01*
X115738740Y-112944793D01*
G36*
X110931140Y-110029468D02*
X110895908Y-110046874D01*
X110852460Y-110077206D01*
X110820794Y-110110283D01*
X110799106Y-110151817D01*
X110785597Y-110207522D01*
X110778462Y-110283111D01*
X110775900Y-110384296D01*
X110775750Y-110427797D01*
X110776188Y-110523135D01*
X110778004Y-110591271D01*
X110781955Y-110638418D01*
X110788798Y-110670790D01*
X110799289Y-110694600D01*
X110810204Y-110710843D01*
X110879881Y-110779952D01*
X110961934Y-110821521D01*
X111050450Y-110834023D01*
X111139519Y-110815934D01*
X111167737Y-110803142D01*
X111235290Y-110767931D01*
X111235290Y-111319700D01*
X111185988Y-111294205D01*
X111121027Y-111274480D01*
X111041180Y-111269427D01*
X110961448Y-111278756D01*
X110901235Y-111299714D01*
X110851292Y-111339627D01*
X110808619Y-111396741D01*
X110805410Y-111402605D01*
X110791878Y-111430227D01*
X110781995Y-111458068D01*
X110775191Y-111491794D01*
X110770899Y-111537071D01*
X110768549Y-111599562D01*
X110767572Y-111684935D01*
X110767395Y-111781010D01*
X110767395Y-112087526D01*
X110951211Y-112087526D01*
X110951211Y-111522339D01*
X111002625Y-111479077D01*
X111056034Y-111444472D01*
X111106612Y-111438180D01*
X111157470Y-111454372D01*
X111184575Y-111470227D01*
X111204749Y-111492810D01*
X111219097Y-111526940D01*
X111228724Y-111577434D01*
X111234737Y-111649111D01*
X111238240Y-111746788D01*
X111239474Y-111811802D01*
X111243645Y-112079171D01*
X111331375Y-112084222D01*
X111419106Y-112089273D01*
X111419106Y-110430101D01*
X111235290Y-110430101D01*
X111230604Y-110522600D01*
X111214812Y-110586809D01*
X111185317Y-110626759D01*
X111139520Y-110646480D01*
X111093250Y-110650421D01*
X111040872Y-110645892D01*
X111006110Y-110628069D01*
X110984372Y-110604519D01*
X110967260Y-110579189D01*
X110957073Y-110550969D01*
X110952540Y-110511431D01*
X110952391Y-110452142D01*
X110953916Y-110402498D01*
X110957419Y-110327710D01*
X110962633Y-110278611D01*
X110971413Y-110247467D01*
X110985614Y-110226545D01*
X110999016Y-110214452D01*
X111055013Y-110188081D01*
X111121289Y-110183822D01*
X111159344Y-110192906D01*
X111197023Y-110225196D01*
X111221981Y-110288006D01*
X111234078Y-110380894D01*
X111235290Y-110430101D01*
X111419106Y-110430101D01*
X111419106Y-110015421D01*
X111327198Y-110015421D01*
X111272017Y-110017603D01*
X111243548Y-110025351D01*
X111235294Y-110040468D01*
X111235290Y-110040916D01*
X111231460Y-110055720D01*
X111214567Y-110054039D01*
X111180981Y-110037772D01*
X111102722Y-110012887D01*
X111014673Y-110010271D01*
X110931140Y-110029468D01*
X110931140Y-110029468D01*
G37*
X110931140Y-110029468D02*
X110895908Y-110046874D01*
X110852460Y-110077206D01*
X110820794Y-110110283D01*
X110799106Y-110151817D01*
X110785597Y-110207522D01*
X110778462Y-110283111D01*
X110775900Y-110384296D01*
X110775750Y-110427797D01*
X110776188Y-110523135D01*
X110778004Y-110591271D01*
X110781955Y-110638418D01*
X110788798Y-110670790D01*
X110799289Y-110694600D01*
X110810204Y-110710843D01*
X110879881Y-110779952D01*
X110961934Y-110821521D01*
X111050450Y-110834023D01*
X111139519Y-110815934D01*
X111167737Y-110803142D01*
X111235290Y-110767931D01*
X111235290Y-111319700D01*
X111185988Y-111294205D01*
X111121027Y-111274480D01*
X111041180Y-111269427D01*
X110961448Y-111278756D01*
X110901235Y-111299714D01*
X110851292Y-111339627D01*
X110808619Y-111396741D01*
X110805410Y-111402605D01*
X110791878Y-111430227D01*
X110781995Y-111458068D01*
X110775191Y-111491794D01*
X110770899Y-111537071D01*
X110768549Y-111599562D01*
X110767572Y-111684935D01*
X110767395Y-111781010D01*
X110767395Y-112087526D01*
X110951211Y-112087526D01*
X110951211Y-111522339D01*
X111002625Y-111479077D01*
X111056034Y-111444472D01*
X111106612Y-111438180D01*
X111157470Y-111454372D01*
X111184575Y-111470227D01*
X111204749Y-111492810D01*
X111219097Y-111526940D01*
X111228724Y-111577434D01*
X111234737Y-111649111D01*
X111238240Y-111746788D01*
X111239474Y-111811802D01*
X111243645Y-112079171D01*
X111331375Y-112084222D01*
X111419106Y-112089273D01*
X111419106Y-110430101D01*
X111235290Y-110430101D01*
X111230604Y-110522600D01*
X111214812Y-110586809D01*
X111185317Y-110626759D01*
X111139520Y-110646480D01*
X111093250Y-110650421D01*
X111040872Y-110645892D01*
X111006110Y-110628069D01*
X110984372Y-110604519D01*
X110967260Y-110579189D01*
X110957073Y-110550969D01*
X110952540Y-110511431D01*
X110952391Y-110452142D01*
X110953916Y-110402498D01*
X110957419Y-110327710D01*
X110962633Y-110278611D01*
X110971413Y-110247467D01*
X110985614Y-110226545D01*
X110999016Y-110214452D01*
X111055013Y-110188081D01*
X111121289Y-110183822D01*
X111159344Y-110192906D01*
X111197023Y-110225196D01*
X111221981Y-110288006D01*
X111234078Y-110380894D01*
X111235290Y-110430101D01*
X111419106Y-110430101D01*
X111419106Y-110015421D01*
X111327198Y-110015421D01*
X111272017Y-110017603D01*
X111243548Y-110025351D01*
X111235294Y-110040468D01*
X111235290Y-110040916D01*
X111231460Y-110055720D01*
X111214567Y-110054039D01*
X111180981Y-110037772D01*
X111102722Y-110012887D01*
X111014673Y-110010271D01*
X110931140Y-110029468D01*
G36*
X110234043Y-111275184D02*
X110155430Y-111296160D01*
X110095584Y-111334180D01*
X110053353Y-111383978D01*
X110040225Y-111405230D01*
X110030532Y-111427492D01*
X110023756Y-111455970D01*
X110019377Y-111495871D01*
X110016876Y-111552401D01*
X110015732Y-111630767D01*
X110015428Y-111736176D01*
X110015422Y-111764142D01*
X110015422Y-112087526D01*
X110095632Y-112087526D01*
X110146794Y-112083943D01*
X110184623Y-112074866D01*
X110194101Y-112069268D01*
X110220012Y-112059606D01*
X110246476Y-112069268D01*
X110290048Y-112081330D01*
X110353340Y-112086185D01*
X110423490Y-112084078D01*
X110487640Y-112075256D01*
X110525093Y-112063937D01*
X110597567Y-112017412D01*
X110642860Y-111952846D01*
X110663222Y-111867000D01*
X110663412Y-111864796D01*
X110661625Y-111826713D01*
X110500027Y-111826713D01*
X110485899Y-111870030D01*
X110462888Y-111894408D01*
X110416696Y-111912845D01*
X110355725Y-111920205D01*
X110293551Y-111916583D01*
X110243749Y-111902074D01*
X110229797Y-111892765D01*
X110205415Y-111849753D01*
X110199237Y-111800857D01*
X110199237Y-111736605D01*
X110291682Y-111736605D01*
X110379505Y-111743366D01*
X110446082Y-111762520D01*
X110487498Y-111792376D01*
X110500027Y-111826713D01*
X110661625Y-111826713D01*
X110659010Y-111771004D01*
X110628076Y-111696847D01*
X110569919Y-111640767D01*
X110561880Y-111635665D01*
X110527337Y-111619055D01*
X110484582Y-111608996D01*
X110424814Y-111604107D01*
X110353810Y-111602983D01*
X110199237Y-111602921D01*
X110199237Y-111538125D01*
X110205794Y-111487850D01*
X110222525Y-111454169D01*
X110224484Y-111452376D01*
X110261717Y-111437642D01*
X110317920Y-111431931D01*
X110380033Y-111434737D01*
X110434990Y-111445556D01*
X110467601Y-111461782D01*
X110485272Y-111474780D01*
X110503931Y-111477262D01*
X110529681Y-111466613D01*
X110568627Y-111440218D01*
X110626870Y-111395465D01*
X110632216Y-111391273D01*
X110629477Y-111375760D01*
X110606624Y-111349960D01*
X110571891Y-111321289D01*
X110533510Y-111297166D01*
X110521452Y-111291470D01*
X110477466Y-111280103D01*
X110413013Y-111271995D01*
X110341003Y-111268743D01*
X110337636Y-111268736D01*
X110234043Y-111275184D01*
X110234043Y-111275184D01*
G37*
X110234043Y-111275184D02*
X110155430Y-111296160D01*
X110095584Y-111334180D01*
X110053353Y-111383978D01*
X110040225Y-111405230D01*
X110030532Y-111427492D01*
X110023756Y-111455970D01*
X110019377Y-111495871D01*
X110016876Y-111552401D01*
X110015732Y-111630767D01*
X110015428Y-111736176D01*
X110015422Y-111764142D01*
X110015422Y-112087526D01*
X110095632Y-112087526D01*
X110146794Y-112083943D01*
X110184623Y-112074866D01*
X110194101Y-112069268D01*
X110220012Y-112059606D01*
X110246476Y-112069268D01*
X110290048Y-112081330D01*
X110353340Y-112086185D01*
X110423490Y-112084078D01*
X110487640Y-112075256D01*
X110525093Y-112063937D01*
X110597567Y-112017412D01*
X110642860Y-111952846D01*
X110663222Y-111867000D01*
X110663412Y-111864796D01*
X110661625Y-111826713D01*
X110500027Y-111826713D01*
X110485899Y-111870030D01*
X110462888Y-111894408D01*
X110416696Y-111912845D01*
X110355725Y-111920205D01*
X110293551Y-111916583D01*
X110243749Y-111902074D01*
X110229797Y-111892765D01*
X110205415Y-111849753D01*
X110199237Y-111800857D01*
X110199237Y-111736605D01*
X110291682Y-111736605D01*
X110379505Y-111743366D01*
X110446082Y-111762520D01*
X110487498Y-111792376D01*
X110500027Y-111826713D01*
X110661625Y-111826713D01*
X110659010Y-111771004D01*
X110628076Y-111696847D01*
X110569919Y-111640767D01*
X110561880Y-111635665D01*
X110527337Y-111619055D01*
X110484582Y-111608996D01*
X110424814Y-111604107D01*
X110353810Y-111602983D01*
X110199237Y-111602921D01*
X110199237Y-111538125D01*
X110205794Y-111487850D01*
X110222525Y-111454169D01*
X110224484Y-111452376D01*
X110261717Y-111437642D01*
X110317920Y-111431931D01*
X110380033Y-111434737D01*
X110434990Y-111445556D01*
X110467601Y-111461782D01*
X110485272Y-111474780D01*
X110503931Y-111477262D01*
X110529681Y-111466613D01*
X110568627Y-111440218D01*
X110626870Y-111395465D01*
X110632216Y-111391273D01*
X110629477Y-111375760D01*
X110606624Y-111349960D01*
X110571891Y-111321289D01*
X110533510Y-111297166D01*
X110521452Y-111291470D01*
X110477466Y-111280103D01*
X110413013Y-111271995D01*
X110341003Y-111268743D01*
X110337636Y-111268736D01*
X110234043Y-111275184D01*
G36*
X109714619Y-111270486D02*
X109689612Y-111277982D01*
X109681550Y-111294451D01*
X109681211Y-111301886D01*
X109679764Y-111322594D01*
X109669802Y-111325845D01*
X109642888Y-111311648D01*
X109626902Y-111301948D01*
X109576467Y-111281175D01*
X109516228Y-111270904D01*
X109453066Y-111270114D01*
X109393863Y-111277786D01*
X109345498Y-111292898D01*
X109314854Y-111314432D01*
X109308811Y-111341366D01*
X109311861Y-111348660D01*
X109334094Y-111378937D01*
X109368570Y-111416175D01*
X109374806Y-111422195D01*
X109407667Y-111449875D01*
X109436020Y-111458818D01*
X109475673Y-111452576D01*
X109491558Y-111448429D01*
X109540991Y-111438467D01*
X109575748Y-111442947D01*
X109605100Y-111458746D01*
X109631987Y-111479949D01*
X109651790Y-111506614D01*
X109665552Y-111543827D01*
X109674316Y-111596673D01*
X109679126Y-111670237D01*
X109681026Y-111769605D01*
X109681211Y-111829601D01*
X109681211Y-112087526D01*
X109848316Y-112087526D01*
X109848316Y-111268710D01*
X109764764Y-111268710D01*
X109714619Y-111270486D01*
X109714619Y-111270486D01*
G37*
X109714619Y-111270486D02*
X109689612Y-111277982D01*
X109681550Y-111294451D01*
X109681211Y-111301886D01*
X109679764Y-111322594D01*
X109669802Y-111325845D01*
X109642888Y-111311648D01*
X109626902Y-111301948D01*
X109576467Y-111281175D01*
X109516228Y-111270904D01*
X109453066Y-111270114D01*
X109393863Y-111277786D01*
X109345498Y-111292898D01*
X109314854Y-111314432D01*
X109308811Y-111341366D01*
X109311861Y-111348660D01*
X109334094Y-111378937D01*
X109368570Y-111416175D01*
X109374806Y-111422195D01*
X109407667Y-111449875D01*
X109436020Y-111458818D01*
X109475673Y-111452576D01*
X109491558Y-111448429D01*
X109540991Y-111438467D01*
X109575748Y-111442947D01*
X109605100Y-111458746D01*
X109631987Y-111479949D01*
X109651790Y-111506614D01*
X109665552Y-111543827D01*
X109674316Y-111596673D01*
X109679126Y-111670237D01*
X109681026Y-111769605D01*
X109681211Y-111829601D01*
X109681211Y-112087526D01*
X109848316Y-112087526D01*
X109848316Y-111268710D01*
X109764764Y-111268710D01*
X109714619Y-111270486D01*
G36*
X108661869Y-112087526D02*
X108753777Y-112087526D01*
X108807123Y-112085962D01*
X108834907Y-112079485D01*
X108844910Y-112065418D01*
X108845685Y-112055906D01*
X108847372Y-112036832D01*
X108858010Y-112033174D01*
X108885965Y-112044932D01*
X108907705Y-112055906D01*
X108991168Y-112081911D01*
X109081896Y-112083416D01*
X109155658Y-112064021D01*
X109224346Y-112017165D01*
X109276706Y-111948004D01*
X109305378Y-111866427D01*
X109306108Y-111861866D01*
X109310368Y-111812101D01*
X109312486Y-111740659D01*
X109312316Y-111686626D01*
X109129780Y-111686626D01*
X109125551Y-111758441D01*
X109115932Y-111817634D01*
X109102910Y-111851060D01*
X109053644Y-111896740D01*
X108995150Y-111913115D01*
X108934829Y-111899873D01*
X108883283Y-111860373D01*
X108863762Y-111833807D01*
X108852348Y-111802106D01*
X108847002Y-111755832D01*
X108845685Y-111686328D01*
X108848042Y-111617499D01*
X108854267Y-111557026D01*
X108863092Y-111516556D01*
X108864563Y-111512929D01*
X108900153Y-111469802D01*
X108952100Y-111446124D01*
X109010222Y-111442301D01*
X109064340Y-111458738D01*
X109104274Y-111495840D01*
X109108417Y-111503222D01*
X109121384Y-111548239D01*
X109128448Y-111612967D01*
X109129780Y-111686626D01*
X109312316Y-111686626D01*
X109312229Y-111659230D01*
X109311028Y-111615405D01*
X109302855Y-111506988D01*
X109285870Y-111425588D01*
X109257613Y-111365412D01*
X109215628Y-111320666D01*
X109174868Y-111294400D01*
X109117919Y-111275935D01*
X109047089Y-111269602D01*
X108974559Y-111274760D01*
X108912514Y-111290769D01*
X108879732Y-111309920D01*
X108845685Y-111340732D01*
X108845685Y-110951210D01*
X108661869Y-110951210D01*
X108661869Y-112087526D01*
X108661869Y-112087526D01*
G37*
X108661869Y-112087526D02*
X108753777Y-112087526D01*
X108807123Y-112085962D01*
X108834907Y-112079485D01*
X108844910Y-112065418D01*
X108845685Y-112055906D01*
X108847372Y-112036832D01*
X108858010Y-112033174D01*
X108885965Y-112044932D01*
X108907705Y-112055906D01*
X108991168Y-112081911D01*
X109081896Y-112083416D01*
X109155658Y-112064021D01*
X109224346Y-112017165D01*
X109276706Y-111948004D01*
X109305378Y-111866427D01*
X109306108Y-111861866D01*
X109310368Y-111812101D01*
X109312486Y-111740659D01*
X109312316Y-111686626D01*
X109129780Y-111686626D01*
X109125551Y-111758441D01*
X109115932Y-111817634D01*
X109102910Y-111851060D01*
X109053644Y-111896740D01*
X108995150Y-111913115D01*
X108934829Y-111899873D01*
X108883283Y-111860373D01*
X108863762Y-111833807D01*
X108852348Y-111802106D01*
X108847002Y-111755832D01*
X108845685Y-111686328D01*
X108848042Y-111617499D01*
X108854267Y-111557026D01*
X108863092Y-111516556D01*
X108864563Y-111512929D01*
X108900153Y-111469802D01*
X108952100Y-111446124D01*
X109010222Y-111442301D01*
X109064340Y-111458738D01*
X109104274Y-111495840D01*
X109108417Y-111503222D01*
X109121384Y-111548239D01*
X109128448Y-111612967D01*
X109129780Y-111686626D01*
X109312316Y-111686626D01*
X109312229Y-111659230D01*
X109311028Y-111615405D01*
X109302855Y-111506988D01*
X109285870Y-111425588D01*
X109257613Y-111365412D01*
X109215628Y-111320666D01*
X109174868Y-111294400D01*
X109117919Y-111275935D01*
X109047089Y-111269602D01*
X108974559Y-111274760D01*
X108912514Y-111290769D01*
X108879732Y-111309920D01*
X108845685Y-111340732D01*
X108845685Y-110951210D01*
X108661869Y-110951210D01*
X108661869Y-112087526D01*
G36*
X108020370Y-111272104D02*
X107954280Y-111277066D01*
X107867874Y-111536079D01*
X107781469Y-111795092D01*
X107754376Y-111703184D01*
X107738072Y-111646384D01*
X107716625Y-111569625D01*
X107693465Y-111485251D01*
X107681220Y-111439993D01*
X107635156Y-111268710D01*
X107445113Y-111268710D01*
X107501918Y-111448349D01*
X107529893Y-111536704D01*
X107563687Y-111643281D01*
X107598980Y-111754454D01*
X107630487Y-111853579D01*
X107702250Y-112079171D01*
X107857214Y-112089253D01*
X107899230Y-111950528D01*
X107925141Y-111864351D01*
X107953417Y-111769347D01*
X107978131Y-111685441D01*
X107979106Y-111682102D01*
X107997565Y-111625248D01*
X108013851Y-111586456D01*
X108025258Y-111571787D01*
X108027602Y-111573483D01*
X108035829Y-111596225D01*
X108051462Y-111644940D01*
X108072596Y-111713502D01*
X108097330Y-111795785D01*
X108110713Y-111841046D01*
X108183189Y-112087526D01*
X108337005Y-112087526D01*
X108459969Y-111699006D01*
X108494512Y-111590022D01*
X108525979Y-111491048D01*
X108552884Y-111406736D01*
X108573741Y-111341734D01*
X108587062Y-111300692D01*
X108591112Y-111288701D01*
X108587906Y-111276423D01*
X108562735Y-111271046D01*
X108510354Y-111271584D01*
X108502155Y-111271990D01*
X108405018Y-111277066D01*
X108341400Y-111511013D01*
X108318016Y-111596333D01*
X108297119Y-111671335D01*
X108280549Y-111729507D01*
X108270146Y-111764337D01*
X108268224Y-111770016D01*
X108260259Y-111763486D01*
X108244196Y-111729654D01*
X108221879Y-111673127D01*
X108195155Y-111598510D01*
X108172563Y-111531107D01*
X108086459Y-111267143D01*
X108020370Y-111272104D01*
X108020370Y-111272104D01*
G37*
X108020370Y-111272104D02*
X107954280Y-111277066D01*
X107867874Y-111536079D01*
X107781469Y-111795092D01*
X107754376Y-111703184D01*
X107738072Y-111646384D01*
X107716625Y-111569625D01*
X107693465Y-111485251D01*
X107681220Y-111439993D01*
X107635156Y-111268710D01*
X107445113Y-111268710D01*
X107501918Y-111448349D01*
X107529893Y-111536704D01*
X107563687Y-111643281D01*
X107598980Y-111754454D01*
X107630487Y-111853579D01*
X107702250Y-112079171D01*
X107857214Y-112089253D01*
X107899230Y-111950528D01*
X107925141Y-111864351D01*
X107953417Y-111769347D01*
X107978131Y-111685441D01*
X107979106Y-111682102D01*
X107997565Y-111625248D01*
X108013851Y-111586456D01*
X108025258Y-111571787D01*
X108027602Y-111573483D01*
X108035829Y-111596225D01*
X108051462Y-111644940D01*
X108072596Y-111713502D01*
X108097330Y-111795785D01*
X108110713Y-111841046D01*
X108183189Y-112087526D01*
X108337005Y-112087526D01*
X108459969Y-111699006D01*
X108494512Y-111590022D01*
X108525979Y-111491048D01*
X108552884Y-111406736D01*
X108573741Y-111341734D01*
X108587062Y-111300692D01*
X108591112Y-111288701D01*
X108587906Y-111276423D01*
X108562735Y-111271046D01*
X108510354Y-111271584D01*
X108502155Y-111271990D01*
X108405018Y-111277066D01*
X108341400Y-111511013D01*
X108318016Y-111596333D01*
X108297119Y-111671335D01*
X108280549Y-111729507D01*
X108270146Y-111764337D01*
X108268224Y-111770016D01*
X108260259Y-111763486D01*
X108244196Y-111729654D01*
X108221879Y-111673127D01*
X108195155Y-111598510D01*
X108172563Y-111531107D01*
X108086459Y-111267143D01*
X108020370Y-111272104D01*
G36*
X107014508Y-111273673D02*
X106944073Y-111290780D01*
X106923713Y-111299844D01*
X106884247Y-111323583D01*
X106853959Y-111350321D01*
X106831548Y-111384699D01*
X106815714Y-111431360D01*
X106805157Y-111494946D01*
X106798576Y-111580099D01*
X106794672Y-111691462D01*
X106793190Y-111765849D01*
X106787735Y-112087526D01*
X106880920Y-112087526D01*
X106937453Y-112085156D01*
X106966578Y-112077055D01*
X106974106Y-112063451D01*
X106978080Y-112048741D01*
X106995848Y-112051554D01*
X107020060Y-112063348D01*
X107080672Y-112081427D01*
X107158571Y-112086299D01*
X107240505Y-112078330D01*
X107313219Y-112057889D01*
X107319741Y-112055051D01*
X107386198Y-112008365D01*
X107430009Y-111943464D01*
X107450168Y-111867600D01*
X107448628Y-111840344D01*
X107284155Y-111840344D01*
X107269663Y-111877024D01*
X107226695Y-111903309D01*
X107157371Y-111917417D01*
X107120323Y-111919290D01*
X107058581Y-111914494D01*
X107017540Y-111895858D01*
X107007527Y-111887000D01*
X106980400Y-111838806D01*
X106974106Y-111795092D01*
X106974106Y-111736605D01*
X107055570Y-111736605D01*
X107150266Y-111741432D01*
X107216687Y-111756613D01*
X107258654Y-111783200D01*
X107268051Y-111795052D01*
X107284155Y-111840344D01*
X107448628Y-111840344D01*
X107445671Y-111788026D01*
X107415515Y-111711995D01*
X107374369Y-111660612D01*
X107349448Y-111638397D01*
X107325052Y-111623798D01*
X107293309Y-111614897D01*
X107246348Y-111609775D01*
X107176296Y-111606515D01*
X107148510Y-111605577D01*
X106974106Y-111599879D01*
X106974362Y-111547091D01*
X106981116Y-111491603D01*
X107005536Y-111458052D01*
X107054870Y-111436618D01*
X107056194Y-111436236D01*
X107126140Y-111427808D01*
X107194586Y-111438816D01*
X107245453Y-111465585D01*
X107265863Y-111478803D01*
X107287846Y-111476974D01*
X107321674Y-111457824D01*
X107341539Y-111444308D01*
X107380394Y-111415432D01*
X107404462Y-111393786D01*
X107408324Y-111387589D01*
X107392421Y-111355519D01*
X107345435Y-111317219D01*
X107325027Y-111304297D01*
X107266357Y-111282041D01*
X107187288Y-111269432D01*
X107099459Y-111266600D01*
X107014508Y-111273673D01*
X107014508Y-111273673D01*
G37*
X107014508Y-111273673D02*
X106944073Y-111290780D01*
X106923713Y-111299844D01*
X106884247Y-111323583D01*
X106853959Y-111350321D01*
X106831548Y-111384699D01*
X106815714Y-111431360D01*
X106805157Y-111494946D01*
X106798576Y-111580099D01*
X106794672Y-111691462D01*
X106793190Y-111765849D01*
X106787735Y-112087526D01*
X106880920Y-112087526D01*
X106937453Y-112085156D01*
X106966578Y-112077055D01*
X106974106Y-112063451D01*
X106978080Y-112048741D01*
X106995848Y-112051554D01*
X107020060Y-112063348D01*
X107080672Y-112081427D01*
X107158571Y-112086299D01*
X107240505Y-112078330D01*
X107313219Y-112057889D01*
X107319741Y-112055051D01*
X107386198Y-112008365D01*
X107430009Y-111943464D01*
X107450168Y-111867600D01*
X107448628Y-111840344D01*
X107284155Y-111840344D01*
X107269663Y-111877024D01*
X107226695Y-111903309D01*
X107157371Y-111917417D01*
X107120323Y-111919290D01*
X107058581Y-111914494D01*
X107017540Y-111895858D01*
X107007527Y-111887000D01*
X106980400Y-111838806D01*
X106974106Y-111795092D01*
X106974106Y-111736605D01*
X107055570Y-111736605D01*
X107150266Y-111741432D01*
X107216687Y-111756613D01*
X107258654Y-111783200D01*
X107268051Y-111795052D01*
X107284155Y-111840344D01*
X107448628Y-111840344D01*
X107445671Y-111788026D01*
X107415515Y-111711995D01*
X107374369Y-111660612D01*
X107349448Y-111638397D01*
X107325052Y-111623798D01*
X107293309Y-111614897D01*
X107246348Y-111609775D01*
X107176296Y-111606515D01*
X107148510Y-111605577D01*
X106974106Y-111599879D01*
X106974362Y-111547091D01*
X106981116Y-111491603D01*
X107005536Y-111458052D01*
X107054870Y-111436618D01*
X107056194Y-111436236D01*
X107126140Y-111427808D01*
X107194586Y-111438816D01*
X107245453Y-111465585D01*
X107265863Y-111478803D01*
X107287846Y-111476974D01*
X107321674Y-111457824D01*
X107341539Y-111444308D01*
X107380394Y-111415432D01*
X107404462Y-111393786D01*
X107408324Y-111387589D01*
X107392421Y-111355519D01*
X107345435Y-111317219D01*
X107325027Y-111304297D01*
X107266357Y-111282041D01*
X107187288Y-111269432D01*
X107099459Y-111266600D01*
X107014508Y-111273673D01*
G36*
X106221333Y-111268447D02*
X106157092Y-111281112D01*
X106120520Y-111299864D01*
X106082047Y-111331017D01*
X106136783Y-111400127D01*
X106170531Y-111441979D01*
X106193447Y-111462398D01*
X106216221Y-111465517D01*
X106249544Y-111455472D01*
X106265186Y-111449789D01*
X106328958Y-111441404D01*
X106387360Y-111459378D01*
X106430236Y-111499982D01*
X106437201Y-111512929D01*
X106444787Y-111547224D01*
X106450641Y-111610427D01*
X106454489Y-111698060D01*
X106456057Y-111805640D01*
X106456079Y-111820944D01*
X106456079Y-112087526D01*
X106639895Y-112087526D01*
X106639895Y-111268710D01*
X106547987Y-111268710D01*
X106494993Y-111270094D01*
X106467385Y-111276252D01*
X106457176Y-111290194D01*
X106456079Y-111303344D01*
X106456079Y-111337978D01*
X106412050Y-111303344D01*
X106361563Y-111279716D01*
X106293740Y-111268033D01*
X106221333Y-111268447D01*
X106221333Y-111268447D01*
G37*
X106221333Y-111268447D02*
X106157092Y-111281112D01*
X106120520Y-111299864D01*
X106082047Y-111331017D01*
X106136783Y-111400127D01*
X106170531Y-111441979D01*
X106193447Y-111462398D01*
X106216221Y-111465517D01*
X106249544Y-111455472D01*
X106265186Y-111449789D01*
X106328958Y-111441404D01*
X106387360Y-111459378D01*
X106430236Y-111499982D01*
X106437201Y-111512929D01*
X106444787Y-111547224D01*
X106450641Y-111610427D01*
X106454489Y-111698060D01*
X106456057Y-111805640D01*
X106456079Y-111820944D01*
X106456079Y-112087526D01*
X106639895Y-112087526D01*
X106639895Y-111268710D01*
X106547987Y-111268710D01*
X106494993Y-111270094D01*
X106467385Y-111276252D01*
X106457176Y-111290194D01*
X106456079Y-111303344D01*
X106456079Y-111337978D01*
X106412050Y-111303344D01*
X106361563Y-111279716D01*
X106293740Y-111268033D01*
X106221333Y-111268447D01*
G36*
X105693307Y-111273078D02*
X105613432Y-111293845D01*
X105546538Y-111336705D01*
X105514149Y-111368723D01*
X105461055Y-111444413D01*
X105430627Y-111532216D01*
X105420173Y-111640150D01*
X105420120Y-111648875D01*
X105420027Y-111736605D01*
X105924966Y-111736605D01*
X105914202Y-111782559D01*
X105894768Y-111824178D01*
X105860755Y-111867544D01*
X105853640Y-111874467D01*
X105792497Y-111911935D01*
X105722771Y-111918289D01*
X105642513Y-111893638D01*
X105628908Y-111887000D01*
X105587181Y-111866819D01*
X105559232Y-111855321D01*
X105554355Y-111854258D01*
X105537332Y-111864583D01*
X105504867Y-111889845D01*
X105488386Y-111903650D01*
X105454236Y-111935361D01*
X105443022Y-111956299D01*
X105450805Y-111975560D01*
X105454965Y-111980827D01*
X105483143Y-112003878D01*
X105529638Y-112031892D01*
X105562066Y-112048246D01*
X105654115Y-112077059D01*
X105756024Y-112086395D01*
X105852537Y-112075332D01*
X105879566Y-112067412D01*
X105963224Y-112022581D01*
X106025234Y-111953598D01*
X106065955Y-111859794D01*
X106085745Y-111740498D01*
X106087918Y-111678118D01*
X106081574Y-111587298D01*
X105921343Y-111587298D01*
X105905845Y-111594012D01*
X105864188Y-111599280D01*
X105803624Y-111602389D01*
X105762593Y-111602921D01*
X105688789Y-111602408D01*
X105642207Y-111600006D01*
X105616652Y-111594422D01*
X105605931Y-111584361D01*
X105603843Y-111569763D01*
X105618169Y-111524796D01*
X105654238Y-111480353D01*
X105701685Y-111446242D01*
X105749151Y-111432288D01*
X105813621Y-111444666D01*
X105869430Y-111480452D01*
X105908126Y-111532033D01*
X105921343Y-111587298D01*
X106081574Y-111587298D01*
X106078679Y-111545866D01*
X106050164Y-111440498D01*
X106001771Y-111361178D01*
X105932896Y-111307071D01*
X105842935Y-111277343D01*
X105794200Y-111271618D01*
X105693307Y-111273078D01*
X105693307Y-111273078D01*
G37*
X105693307Y-111273078D02*
X105613432Y-111293845D01*
X105546538Y-111336705D01*
X105514149Y-111368723D01*
X105461055Y-111444413D01*
X105430627Y-111532216D01*
X105420173Y-111640150D01*
X105420120Y-111648875D01*
X105420027Y-111736605D01*
X105924966Y-111736605D01*
X105914202Y-111782559D01*
X105894768Y-111824178D01*
X105860755Y-111867544D01*
X105853640Y-111874467D01*
X105792497Y-111911935D01*
X105722771Y-111918289D01*
X105642513Y-111893638D01*
X105628908Y-111887000D01*
X105587181Y-111866819D01*
X105559232Y-111855321D01*
X105554355Y-111854258D01*
X105537332Y-111864583D01*
X105504867Y-111889845D01*
X105488386Y-111903650D01*
X105454236Y-111935361D01*
X105443022Y-111956299D01*
X105450805Y-111975560D01*
X105454965Y-111980827D01*
X105483143Y-112003878D01*
X105529638Y-112031892D01*
X105562066Y-112048246D01*
X105654115Y-112077059D01*
X105756024Y-112086395D01*
X105852537Y-112075332D01*
X105879566Y-112067412D01*
X105963224Y-112022581D01*
X106025234Y-111953598D01*
X106065955Y-111859794D01*
X106085745Y-111740498D01*
X106087918Y-111678118D01*
X106081574Y-111587298D01*
X105921343Y-111587298D01*
X105905845Y-111594012D01*
X105864188Y-111599280D01*
X105803624Y-111602389D01*
X105762593Y-111602921D01*
X105688789Y-111602408D01*
X105642207Y-111600006D01*
X105616652Y-111594422D01*
X105605931Y-111584361D01*
X105603843Y-111569763D01*
X105618169Y-111524796D01*
X105654238Y-111480353D01*
X105701685Y-111446242D01*
X105749151Y-111432288D01*
X105813621Y-111444666D01*
X105869430Y-111480452D01*
X105908126Y-111532033D01*
X105921343Y-111587298D01*
X106081574Y-111587298D01*
X106078679Y-111545866D01*
X106050164Y-111440498D01*
X106001771Y-111361178D01*
X105932896Y-111307071D01*
X105842935Y-111277343D01*
X105794200Y-111271618D01*
X105693307Y-111273078D01*
G36*
X111767716Y-110024104D02*
X111680295Y-110062754D01*
X111613930Y-110127290D01*
X111568524Y-110217812D01*
X111543982Y-110334418D01*
X111542223Y-110352624D01*
X111540844Y-110480984D01*
X111558716Y-110593496D01*
X111594750Y-110684688D01*
X111614045Y-110714022D01*
X111681255Y-110776106D01*
X111766850Y-110816316D01*
X111862610Y-110833003D01*
X111960313Y-110824517D01*
X112034583Y-110798380D01*
X112098453Y-110754335D01*
X112150654Y-110696587D01*
X112151557Y-110695236D01*
X112172756Y-110659593D01*
X112186533Y-110623752D01*
X112194876Y-110578519D01*
X112199773Y-110514701D01*
X112201931Y-110462368D01*
X112202829Y-110414910D01*
X112035757Y-110414910D01*
X112034124Y-110462154D01*
X112028196Y-110525046D01*
X112017739Y-110565407D01*
X111998881Y-110594122D01*
X111981219Y-110610896D01*
X111918606Y-110646016D01*
X111853092Y-110650710D01*
X111792079Y-110625440D01*
X111761572Y-110597124D01*
X111739589Y-110568589D01*
X111726731Y-110541284D01*
X111721088Y-110505750D01*
X111720749Y-110452524D01*
X111722488Y-110403506D01*
X111726229Y-110333482D01*
X111732159Y-110288064D01*
X111742847Y-110258440D01*
X111760861Y-110235797D01*
X111775137Y-110222855D01*
X111834849Y-110188860D01*
X111899266Y-110187165D01*
X111953281Y-110207301D01*
X111999360Y-110249352D01*
X112026811Y-110318428D01*
X112035757Y-110414910D01*
X112202829Y-110414910D01*
X112203901Y-110358299D01*
X112200536Y-110280468D01*
X112190455Y-110221930D01*
X112172274Y-110175737D01*
X112144610Y-110134942D01*
X112134354Y-110122828D01*
X112070222Y-110062474D01*
X112001434Y-110027220D01*
X111917311Y-110012450D01*
X111876291Y-110011243D01*
X111767716Y-110024104D01*
X111767716Y-110024104D01*
G37*
X111767716Y-110024104D02*
X111680295Y-110062754D01*
X111613930Y-110127290D01*
X111568524Y-110217812D01*
X111543982Y-110334418D01*
X111542223Y-110352624D01*
X111540844Y-110480984D01*
X111558716Y-110593496D01*
X111594750Y-110684688D01*
X111614045Y-110714022D01*
X111681255Y-110776106D01*
X111766850Y-110816316D01*
X111862610Y-110833003D01*
X111960313Y-110824517D01*
X112034583Y-110798380D01*
X112098453Y-110754335D01*
X112150654Y-110696587D01*
X112151557Y-110695236D01*
X112172756Y-110659593D01*
X112186533Y-110623752D01*
X112194876Y-110578519D01*
X112199773Y-110514701D01*
X112201931Y-110462368D01*
X112202829Y-110414910D01*
X112035757Y-110414910D01*
X112034124Y-110462154D01*
X112028196Y-110525046D01*
X112017739Y-110565407D01*
X111998881Y-110594122D01*
X111981219Y-110610896D01*
X111918606Y-110646016D01*
X111853092Y-110650710D01*
X111792079Y-110625440D01*
X111761572Y-110597124D01*
X111739589Y-110568589D01*
X111726731Y-110541284D01*
X111721088Y-110505750D01*
X111720749Y-110452524D01*
X111722488Y-110403506D01*
X111726229Y-110333482D01*
X111732159Y-110288064D01*
X111742847Y-110258440D01*
X111760861Y-110235797D01*
X111775137Y-110222855D01*
X111834849Y-110188860D01*
X111899266Y-110187165D01*
X111953281Y-110207301D01*
X111999360Y-110249352D01*
X112026811Y-110318428D01*
X112035757Y-110414910D01*
X112202829Y-110414910D01*
X112203901Y-110358299D01*
X112200536Y-110280468D01*
X112190455Y-110221930D01*
X112172274Y-110175737D01*
X112144610Y-110134942D01*
X112134354Y-110122828D01*
X112070222Y-110062474D01*
X112001434Y-110027220D01*
X111917311Y-110012450D01*
X111876291Y-110011243D01*
X111767716Y-110024104D01*
G36*
X110197482Y-110034027D02*
X110180830Y-110041866D01*
X110123195Y-110084086D01*
X110068695Y-110145700D01*
X110028001Y-110213543D01*
X110016426Y-110244734D01*
X110005866Y-110300449D01*
X109999569Y-110367781D01*
X109998804Y-110395585D01*
X109998711Y-110483316D01*
X110503650Y-110483316D01*
X110492887Y-110529270D01*
X110466467Y-110583620D01*
X110420278Y-110630591D01*
X110365328Y-110660848D01*
X110330311Y-110667131D01*
X110282823Y-110659506D01*
X110226165Y-110640383D01*
X110206918Y-110631584D01*
X110135741Y-110596036D01*
X110074998Y-110642367D01*
X110039948Y-110673703D01*
X110021298Y-110699567D01*
X110020353Y-110707158D01*
X110037015Y-110725556D01*
X110073530Y-110753515D01*
X110106672Y-110775327D01*
X110196107Y-110814537D01*
X110296371Y-110832285D01*
X110395746Y-110827670D01*
X110474961Y-110803551D01*
X110556620Y-110751884D01*
X110614651Y-110683856D01*
X110650954Y-110595843D01*
X110667428Y-110484216D01*
X110668889Y-110433138D01*
X110663043Y-110316091D01*
X110662325Y-110312686D01*
X110495011Y-110312686D01*
X110490403Y-110323662D01*
X110471464Y-110329715D01*
X110432402Y-110332310D01*
X110367423Y-110332910D01*
X110342403Y-110332921D01*
X110266279Y-110332014D01*
X110218004Y-110328720D01*
X110192040Y-110322181D01*
X110182852Y-110311537D01*
X110182527Y-110308119D01*
X110193013Y-110280956D01*
X110219258Y-110242903D01*
X110230541Y-110229579D01*
X110272428Y-110191896D01*
X110316091Y-110177080D01*
X110339615Y-110175842D01*
X110403257Y-110191329D01*
X110456627Y-110232930D01*
X110490481Y-110293353D01*
X110491081Y-110295322D01*
X110495011Y-110312686D01*
X110662325Y-110312686D01*
X110643601Y-110223928D01*
X110608578Y-110150190D01*
X110565744Y-110097848D01*
X110486552Y-110041092D01*
X110393460Y-110010762D01*
X110294445Y-110008021D01*
X110197482Y-110034027D01*
X110197482Y-110034027D01*
G37*
X110197482Y-110034027D02*
X110180830Y-110041866D01*
X110123195Y-110084086D01*
X110068695Y-110145700D01*
X110028001Y-110213543D01*
X110016426Y-110244734D01*
X110005866Y-110300449D01*
X109999569Y-110367781D01*
X109998804Y-110395585D01*
X109998711Y-110483316D01*
X110503650Y-110483316D01*
X110492887Y-110529270D01*
X110466467Y-110583620D01*
X110420278Y-110630591D01*
X110365328Y-110660848D01*
X110330311Y-110667131D01*
X110282823Y-110659506D01*
X110226165Y-110640383D01*
X110206918Y-110631584D01*
X110135741Y-110596036D01*
X110074998Y-110642367D01*
X110039948Y-110673703D01*
X110021298Y-110699567D01*
X110020353Y-110707158D01*
X110037015Y-110725556D01*
X110073530Y-110753515D01*
X110106672Y-110775327D01*
X110196107Y-110814537D01*
X110296371Y-110832285D01*
X110395746Y-110827670D01*
X110474961Y-110803551D01*
X110556620Y-110751884D01*
X110614651Y-110683856D01*
X110650954Y-110595843D01*
X110667428Y-110484216D01*
X110668889Y-110433138D01*
X110663043Y-110316091D01*
X110662325Y-110312686D01*
X110495011Y-110312686D01*
X110490403Y-110323662D01*
X110471464Y-110329715D01*
X110432402Y-110332310D01*
X110367423Y-110332910D01*
X110342403Y-110332921D01*
X110266279Y-110332014D01*
X110218004Y-110328720D01*
X110192040Y-110322181D01*
X110182852Y-110311537D01*
X110182527Y-110308119D01*
X110193013Y-110280956D01*
X110219258Y-110242903D01*
X110230541Y-110229579D01*
X110272428Y-110191896D01*
X110316091Y-110177080D01*
X110339615Y-110175842D01*
X110403257Y-110191329D01*
X110456627Y-110232930D01*
X110490481Y-110293353D01*
X110491081Y-110295322D01*
X110495011Y-110312686D01*
X110662325Y-110312686D01*
X110643601Y-110223928D01*
X110608578Y-110150190D01*
X110565744Y-110097848D01*
X110486552Y-110041092D01*
X110393460Y-110010762D01*
X110294445Y-110008021D01*
X110197482Y-110034027D01*
G36*
X108375872Y-110012547D02*
X108312592Y-110024548D01*
X108246943Y-110049648D01*
X108239928Y-110052848D01*
X108190144Y-110079026D01*
X108155666Y-110103353D01*
X108144522Y-110118937D01*
X108155134Y-110144353D01*
X108180912Y-110181853D01*
X108192354Y-110195852D01*
X108239508Y-110250954D01*
X108300299Y-110215086D01*
X108358153Y-110191192D01*
X108425000Y-110178420D01*
X108489106Y-110177613D01*
X108538736Y-110189615D01*
X108550646Y-110197105D01*
X108573328Y-110231450D01*
X108576084Y-110271013D01*
X108559112Y-110301920D01*
X108549073Y-110307913D01*
X108518990Y-110315357D01*
X108466111Y-110324106D01*
X108400925Y-110332467D01*
X108388900Y-110333778D01*
X108284203Y-110351888D01*
X108208268Y-110382651D01*
X108157908Y-110428907D01*
X108129936Y-110493497D01*
X108121222Y-110572387D01*
X108133260Y-110662065D01*
X108172349Y-110732486D01*
X108238645Y-110783777D01*
X108332306Y-110816067D01*
X108436277Y-110828807D01*
X108521062Y-110828654D01*
X108589835Y-110817083D01*
X108636803Y-110801109D01*
X108696150Y-110773275D01*
X108750994Y-110740973D01*
X108770487Y-110726755D01*
X108820619Y-110685835D01*
X108699697Y-110563477D01*
X108630957Y-110608967D01*
X108562012Y-110643133D01*
X108488389Y-110661004D01*
X108417617Y-110662889D01*
X108357226Y-110649101D01*
X108314743Y-110619949D01*
X108301026Y-110595352D01*
X108303083Y-110555904D01*
X108337170Y-110525737D01*
X108403192Y-110504906D01*
X108475526Y-110495279D01*
X108586848Y-110476910D01*
X108669548Y-110442254D01*
X108724735Y-110390297D01*
X108753512Y-110320023D01*
X108757499Y-110236707D01*
X108737807Y-110149681D01*
X108692911Y-110083902D01*
X108622409Y-110039068D01*
X108525899Y-110014879D01*
X108454400Y-110010137D01*
X108375872Y-110012547D01*
X108375872Y-110012547D01*
G37*
X108375872Y-110012547D02*
X108312592Y-110024548D01*
X108246943Y-110049648D01*
X108239928Y-110052848D01*
X108190144Y-110079026D01*
X108155666Y-110103353D01*
X108144522Y-110118937D01*
X108155134Y-110144353D01*
X108180912Y-110181853D01*
X108192354Y-110195852D01*
X108239508Y-110250954D01*
X108300299Y-110215086D01*
X108358153Y-110191192D01*
X108425000Y-110178420D01*
X108489106Y-110177613D01*
X108538736Y-110189615D01*
X108550646Y-110197105D01*
X108573328Y-110231450D01*
X108576084Y-110271013D01*
X108559112Y-110301920D01*
X108549073Y-110307913D01*
X108518990Y-110315357D01*
X108466111Y-110324106D01*
X108400925Y-110332467D01*
X108388900Y-110333778D01*
X108284203Y-110351888D01*
X108208268Y-110382651D01*
X108157908Y-110428907D01*
X108129936Y-110493497D01*
X108121222Y-110572387D01*
X108133260Y-110662065D01*
X108172349Y-110732486D01*
X108238645Y-110783777D01*
X108332306Y-110816067D01*
X108436277Y-110828807D01*
X108521062Y-110828654D01*
X108589835Y-110817083D01*
X108636803Y-110801109D01*
X108696150Y-110773275D01*
X108750994Y-110740973D01*
X108770487Y-110726755D01*
X108820619Y-110685835D01*
X108699697Y-110563477D01*
X108630957Y-110608967D01*
X108562012Y-110643133D01*
X108488389Y-110661004D01*
X108417617Y-110662889D01*
X108357226Y-110649101D01*
X108314743Y-110619949D01*
X108301026Y-110595352D01*
X108303083Y-110555904D01*
X108337170Y-110525737D01*
X108403192Y-110504906D01*
X108475526Y-110495279D01*
X108586848Y-110476910D01*
X108669548Y-110442254D01*
X108724735Y-110390297D01*
X108753512Y-110320023D01*
X108757499Y-110236707D01*
X108737807Y-110149681D01*
X108692911Y-110083902D01*
X108622409Y-110039068D01*
X108525899Y-110014879D01*
X108454400Y-110010137D01*
X108375872Y-110012547D01*
G36*
X107582831Y-110025310D02*
X107498308Y-110071340D01*
X107432179Y-110144006D01*
X107401022Y-110203106D01*
X107387645Y-110255305D01*
X107378978Y-110329719D01*
X107375263Y-110415442D01*
X107376746Y-110501569D01*
X107383669Y-110577193D01*
X107391755Y-110617584D01*
X107419035Y-110672840D01*
X107466280Y-110731530D01*
X107523218Y-110782852D01*
X107579576Y-110816005D01*
X107580950Y-110816531D01*
X107650884Y-110831018D01*
X107733763Y-110831377D01*
X107812523Y-110818188D01*
X107842934Y-110807617D01*
X107921261Y-110763201D01*
X107977357Y-110705007D01*
X108014214Y-110627965D01*
X108034820Y-110527001D01*
X108039482Y-110474116D01*
X108038887Y-110407663D01*
X107859764Y-110407663D01*
X107853730Y-110504630D01*
X107836362Y-110578523D01*
X107808760Y-110625736D01*
X107789096Y-110639237D01*
X107738713Y-110648651D01*
X107678827Y-110645864D01*
X107627051Y-110632316D01*
X107613473Y-110624862D01*
X107577651Y-110581451D01*
X107554007Y-110515014D01*
X107543942Y-110434161D01*
X107548858Y-110347502D01*
X107559845Y-110295349D01*
X107591391Y-110234951D01*
X107641189Y-110197197D01*
X107701163Y-110184143D01*
X107763236Y-110197849D01*
X107810918Y-110231372D01*
X107835975Y-110259031D01*
X107850600Y-110286294D01*
X107857571Y-110323190D01*
X107859667Y-110379750D01*
X107859764Y-110407663D01*
X108038887Y-110407663D01*
X108038218Y-110332994D01*
X108015235Y-110217271D01*
X107970528Y-110126941D01*
X107904095Y-110062000D01*
X107815935Y-110022445D01*
X107797005Y-110017858D01*
X107683234Y-110007090D01*
X107582831Y-110025310D01*
X107582831Y-110025310D01*
G37*
X107582831Y-110025310D02*
X107498308Y-110071340D01*
X107432179Y-110144006D01*
X107401022Y-110203106D01*
X107387645Y-110255305D01*
X107378978Y-110329719D01*
X107375263Y-110415442D01*
X107376746Y-110501569D01*
X107383669Y-110577193D01*
X107391755Y-110617584D01*
X107419035Y-110672840D01*
X107466280Y-110731530D01*
X107523218Y-110782852D01*
X107579576Y-110816005D01*
X107580950Y-110816531D01*
X107650884Y-110831018D01*
X107733763Y-110831377D01*
X107812523Y-110818188D01*
X107842934Y-110807617D01*
X107921261Y-110763201D01*
X107977357Y-110705007D01*
X108014214Y-110627965D01*
X108034820Y-110527001D01*
X108039482Y-110474116D01*
X108038887Y-110407663D01*
X107859764Y-110407663D01*
X107853730Y-110504630D01*
X107836362Y-110578523D01*
X107808760Y-110625736D01*
X107789096Y-110639237D01*
X107738713Y-110648651D01*
X107678827Y-110645864D01*
X107627051Y-110632316D01*
X107613473Y-110624862D01*
X107577651Y-110581451D01*
X107554007Y-110515014D01*
X107543942Y-110434161D01*
X107548858Y-110347502D01*
X107559845Y-110295349D01*
X107591391Y-110234951D01*
X107641189Y-110197197D01*
X107701163Y-110184143D01*
X107763236Y-110197849D01*
X107810918Y-110231372D01*
X107835975Y-110259031D01*
X107850600Y-110286294D01*
X107857571Y-110323190D01*
X107859667Y-110379750D01*
X107859764Y-110407663D01*
X108038887Y-110407663D01*
X108038218Y-110332994D01*
X108015235Y-110217271D01*
X107970528Y-110126941D01*
X107904095Y-110062000D01*
X107815935Y-110022445D01*
X107797005Y-110017858D01*
X107683234Y-110007090D01*
X107582831Y-110025310D01*
G36*
X107074369Y-110275533D02*
X107072790Y-110398089D01*
X107067019Y-110491179D01*
X107055509Y-110558651D01*
X107036710Y-110604355D01*
X107009074Y-110632139D01*
X106971052Y-110645854D01*
X106923974Y-110649358D01*
X106874668Y-110645432D01*
X106837217Y-110631089D01*
X106810072Y-110602478D01*
X106791685Y-110555751D01*
X106780507Y-110487058D01*
X106774989Y-110392550D01*
X106773579Y-110275533D01*
X106773579Y-110015421D01*
X106589764Y-110015421D01*
X106589764Y-110817526D01*
X106681672Y-110817526D01*
X106737078Y-110815281D01*
X106765609Y-110807396D01*
X106773579Y-110792428D01*
X106778380Y-110779097D01*
X106797486Y-110781917D01*
X106835996Y-110800783D01*
X106924261Y-110829887D01*
X107017877Y-110827825D01*
X107107579Y-110796221D01*
X107150296Y-110771257D01*
X107182879Y-110744226D01*
X107206683Y-110710405D01*
X107223061Y-110665068D01*
X107233369Y-110603489D01*
X107238959Y-110520943D01*
X107241188Y-110412705D01*
X107241474Y-110329004D01*
X107241474Y-110015421D01*
X107074369Y-110015421D01*
X107074369Y-110275533D01*
X107074369Y-110275533D01*
G37*
X107074369Y-110275533D02*
X107072790Y-110398089D01*
X107067019Y-110491179D01*
X107055509Y-110558651D01*
X107036710Y-110604355D01*
X107009074Y-110632139D01*
X106971052Y-110645854D01*
X106923974Y-110649358D01*
X106874668Y-110645432D01*
X106837217Y-110631089D01*
X106810072Y-110602478D01*
X106791685Y-110555751D01*
X106780507Y-110487058D01*
X106774989Y-110392550D01*
X106773579Y-110275533D01*
X106773579Y-110015421D01*
X106589764Y-110015421D01*
X106589764Y-110817526D01*
X106681672Y-110817526D01*
X106737078Y-110815281D01*
X106765609Y-110807396D01*
X106773579Y-110792428D01*
X106778380Y-110779097D01*
X106797486Y-110781917D01*
X106835996Y-110800783D01*
X106924261Y-110829887D01*
X107017877Y-110827825D01*
X107107579Y-110796221D01*
X107150296Y-110771257D01*
X107182879Y-110744226D01*
X107206683Y-110710405D01*
X107223061Y-110665068D01*
X107233369Y-110603489D01*
X107238959Y-110520943D01*
X107241188Y-110412705D01*
X107241474Y-110329004D01*
X107241474Y-110015421D01*
X107074369Y-110015421D01*
X107074369Y-110275533D01*
G36*
X105447924Y-110022419D02*
X105351105Y-110063549D01*
X105320610Y-110083571D01*
X105281635Y-110114340D01*
X105257169Y-110138533D01*
X105252922Y-110146413D01*
X105264916Y-110163899D01*
X105295613Y-110193570D01*
X105320188Y-110214279D01*
X105387454Y-110268336D01*
X105440570Y-110223642D01*
X105481616Y-110194789D01*
X105521637Y-110184829D01*
X105567441Y-110187261D01*
X105640176Y-110205345D01*
X105690244Y-110242881D01*
X105720671Y-110303562D01*
X105734483Y-110391081D01*
X105734487Y-110391136D01*
X105733292Y-110488958D01*
X105714728Y-110560730D01*
X105677696Y-110609595D01*
X105652450Y-110626143D01*
X105585403Y-110646749D01*
X105513791Y-110646762D01*
X105451485Y-110626768D01*
X105436737Y-110617000D01*
X105399750Y-110592047D01*
X105370832Y-110587958D01*
X105339644Y-110606530D01*
X105305164Y-110639887D01*
X105250588Y-110696196D01*
X105311182Y-110746142D01*
X105404802Y-110802513D01*
X105510375Y-110830293D01*
X105620702Y-110828282D01*
X105693157Y-110809862D01*
X105777844Y-110764310D01*
X105845573Y-110692650D01*
X105876343Y-110642066D01*
X105901264Y-110569488D01*
X105913734Y-110477569D01*
X105913830Y-110377948D01*
X105901630Y-110282267D01*
X105877210Y-110202169D01*
X105873364Y-110193956D01*
X105816407Y-110113413D01*
X105739291Y-110054771D01*
X105648110Y-110019247D01*
X105548957Y-110008057D01*
X105447924Y-110022419D01*
X105447924Y-110022419D01*
G37*
X105447924Y-110022419D02*
X105351105Y-110063549D01*
X105320610Y-110083571D01*
X105281635Y-110114340D01*
X105257169Y-110138533D01*
X105252922Y-110146413D01*
X105264916Y-110163899D01*
X105295613Y-110193570D01*
X105320188Y-110214279D01*
X105387454Y-110268336D01*
X105440570Y-110223642D01*
X105481616Y-110194789D01*
X105521637Y-110184829D01*
X105567441Y-110187261D01*
X105640176Y-110205345D01*
X105690244Y-110242881D01*
X105720671Y-110303562D01*
X105734483Y-110391081D01*
X105734487Y-110391136D01*
X105733292Y-110488958D01*
X105714728Y-110560730D01*
X105677696Y-110609595D01*
X105652450Y-110626143D01*
X105585403Y-110646749D01*
X105513791Y-110646762D01*
X105451485Y-110626768D01*
X105436737Y-110617000D01*
X105399750Y-110592047D01*
X105370832Y-110587958D01*
X105339644Y-110606530D01*
X105305164Y-110639887D01*
X105250588Y-110696196D01*
X105311182Y-110746142D01*
X105404802Y-110802513D01*
X105510375Y-110830293D01*
X105620702Y-110828282D01*
X105693157Y-110809862D01*
X105777844Y-110764310D01*
X105845573Y-110692650D01*
X105876343Y-110642066D01*
X105901264Y-110569488D01*
X105913734Y-110477569D01*
X105913830Y-110377948D01*
X105901630Y-110282267D01*
X105877210Y-110202169D01*
X105873364Y-110193956D01*
X105816407Y-110113413D01*
X105739291Y-110054771D01*
X105648110Y-110019247D01*
X105548957Y-110008057D01*
X105447924Y-110022419D01*
G36*
X104835716Y-110012554D02*
X104792926Y-110022949D01*
X104710891Y-110061013D01*
X104640743Y-110119149D01*
X104592195Y-110188852D01*
X104585525Y-110204502D01*
X104576376Y-110245496D01*
X104569971Y-110306138D01*
X104567790Y-110367430D01*
X104567790Y-110483316D01*
X104810093Y-110483316D01*
X104910029Y-110483693D01*
X104980431Y-110485987D01*
X105025187Y-110491938D01*
X105048185Y-110503285D01*
X105053311Y-110521771D01*
X105044452Y-110549136D01*
X105028583Y-110581155D01*
X104984316Y-110634592D01*
X104922801Y-110661215D01*
X104847615Y-110660347D01*
X104762447Y-110631371D01*
X104688841Y-110595611D01*
X104627766Y-110643904D01*
X104566690Y-110692197D01*
X104624149Y-110745285D01*
X104700859Y-110795445D01*
X104795198Y-110825688D01*
X104896673Y-110834151D01*
X104994789Y-110818974D01*
X105010619Y-110813824D01*
X105096853Y-110768791D01*
X105160999Y-110701652D01*
X105204409Y-110610405D01*
X105228436Y-110493044D01*
X105228716Y-110490529D01*
X105230867Y-110362627D01*
X105222171Y-110316997D01*
X105052395Y-110316997D01*
X105036803Y-110324013D01*
X104994471Y-110329388D01*
X104932066Y-110332457D01*
X104892519Y-110332921D01*
X104818772Y-110332630D01*
X104772660Y-110330783D01*
X104748400Y-110325912D01*
X104740206Y-110316555D01*
X104742294Y-110301245D01*
X104744045Y-110295322D01*
X104773940Y-110239668D01*
X104820958Y-110194815D01*
X104862451Y-110175105D01*
X104917574Y-110176295D01*
X104973432Y-110200875D01*
X105020288Y-110241570D01*
X105048406Y-110291108D01*
X105052395Y-110316997D01*
X105222171Y-110316997D01*
X105209426Y-110250133D01*
X105166889Y-110155727D01*
X105105753Y-110082088D01*
X105028515Y-110031893D01*
X104937670Y-110007822D01*
X104835716Y-110012554D01*
X104835716Y-110012554D01*
G37*
X104835716Y-110012554D02*
X104792926Y-110022949D01*
X104710891Y-110061013D01*
X104640743Y-110119149D01*
X104592195Y-110188852D01*
X104585525Y-110204502D01*
X104576376Y-110245496D01*
X104569971Y-110306138D01*
X104567790Y-110367430D01*
X104567790Y-110483316D01*
X104810093Y-110483316D01*
X104910029Y-110483693D01*
X104980431Y-110485987D01*
X105025187Y-110491938D01*
X105048185Y-110503285D01*
X105053311Y-110521771D01*
X105044452Y-110549136D01*
X105028583Y-110581155D01*
X104984316Y-110634592D01*
X104922801Y-110661215D01*
X104847615Y-110660347D01*
X104762447Y-110631371D01*
X104688841Y-110595611D01*
X104627766Y-110643904D01*
X104566690Y-110692197D01*
X104624149Y-110745285D01*
X104700859Y-110795445D01*
X104795198Y-110825688D01*
X104896673Y-110834151D01*
X104994789Y-110818974D01*
X105010619Y-110813824D01*
X105096853Y-110768791D01*
X105160999Y-110701652D01*
X105204409Y-110610405D01*
X105228436Y-110493044D01*
X105228716Y-110490529D01*
X105230867Y-110362627D01*
X105222171Y-110316997D01*
X105052395Y-110316997D01*
X105036803Y-110324013D01*
X104994471Y-110329388D01*
X104932066Y-110332457D01*
X104892519Y-110332921D01*
X104818772Y-110332630D01*
X104772660Y-110330783D01*
X104748400Y-110325912D01*
X104740206Y-110316555D01*
X104742294Y-110301245D01*
X104744045Y-110295322D01*
X104773940Y-110239668D01*
X104820958Y-110194815D01*
X104862451Y-110175105D01*
X104917574Y-110176295D01*
X104973432Y-110200875D01*
X105020288Y-110241570D01*
X105048406Y-110291108D01*
X105052395Y-110316997D01*
X105222171Y-110316997D01*
X105209426Y-110250133D01*
X105166889Y-110155727D01*
X105105753Y-110082088D01*
X105028515Y-110031893D01*
X104937670Y-110007822D01*
X104835716Y-110012554D01*
G36*
X109396543Y-110029226D02*
X109354954Y-110049090D01*
X109314675Y-110077784D01*
X109283990Y-110110809D01*
X109261639Y-110152931D01*
X109246364Y-110208915D01*
X109236908Y-110283528D01*
X109232013Y-110381535D01*
X109230419Y-110507702D01*
X109230394Y-110520914D01*
X109230027Y-110817526D01*
X109413843Y-110817526D01*
X109413843Y-110544081D01*
X109413973Y-110442777D01*
X109414879Y-110369353D01*
X109417327Y-110318271D01*
X109422086Y-110283990D01*
X109429926Y-110260971D01*
X109441615Y-110243673D01*
X109457898Y-110226581D01*
X109514866Y-110189857D01*
X109577055Y-110183042D01*
X109636301Y-110206261D01*
X109656905Y-110223543D01*
X109672030Y-110239791D01*
X109682890Y-110257191D01*
X109690190Y-110281212D01*
X109694637Y-110317322D01*
X109696936Y-110370988D01*
X109697796Y-110447680D01*
X109697922Y-110541043D01*
X109697922Y-110817526D01*
X109881737Y-110817526D01*
X109881737Y-110015421D01*
X109789829Y-110015421D01*
X109734649Y-110017603D01*
X109706180Y-110025351D01*
X109697925Y-110040468D01*
X109697922Y-110040916D01*
X109694092Y-110055720D01*
X109677199Y-110054040D01*
X109643612Y-110037773D01*
X109567437Y-110013840D01*
X109480300Y-110011178D01*
X109396543Y-110029226D01*
X109396543Y-110029226D01*
G37*
X109396543Y-110029226D02*
X109354954Y-110049090D01*
X109314675Y-110077784D01*
X109283990Y-110110809D01*
X109261639Y-110152931D01*
X109246364Y-110208915D01*
X109236908Y-110283528D01*
X109232013Y-110381535D01*
X109230419Y-110507702D01*
X109230394Y-110520914D01*
X109230027Y-110817526D01*
X109413843Y-110817526D01*
X109413843Y-110544081D01*
X109413973Y-110442777D01*
X109414879Y-110369353D01*
X109417327Y-110318271D01*
X109422086Y-110283990D01*
X109429926Y-110260971D01*
X109441615Y-110243673D01*
X109457898Y-110226581D01*
X109514866Y-110189857D01*
X109577055Y-110183042D01*
X109636301Y-110206261D01*
X109656905Y-110223543D01*
X109672030Y-110239791D01*
X109682890Y-110257191D01*
X109690190Y-110281212D01*
X109694637Y-110317322D01*
X109696936Y-110370988D01*
X109697796Y-110447680D01*
X109697922Y-110541043D01*
X109697922Y-110817526D01*
X109881737Y-110817526D01*
X109881737Y-110015421D01*
X109789829Y-110015421D01*
X109734649Y-110017603D01*
X109706180Y-110025351D01*
X109697925Y-110040468D01*
X109697922Y-110040916D01*
X109694092Y-110055720D01*
X109677199Y-110054040D01*
X109643612Y-110037773D01*
X109567437Y-110013840D01*
X109480300Y-110011178D01*
X109396543Y-110029226D01*
G36*
X106003112Y-110014645D02*
X105945635Y-110032206D01*
X105908628Y-110054395D01*
X105896573Y-110071942D01*
X105899891Y-110092742D01*
X105921421Y-110125419D01*
X105939626Y-110148562D01*
X105977156Y-110190402D01*
X106005352Y-110208005D01*
X106029389Y-110206856D01*
X106100692Y-110188710D01*
X106153058Y-110189534D01*
X106195582Y-110210098D01*
X106209858Y-110222134D01*
X106255553Y-110264483D01*
X106255553Y-110817526D01*
X106439369Y-110817526D01*
X106439369Y-110015421D01*
X106347461Y-110015421D01*
X106292281Y-110017603D01*
X106263812Y-110025351D01*
X106255557Y-110040468D01*
X106255553Y-110040916D01*
X106251655Y-110056749D01*
X106234026Y-110054684D01*
X106209599Y-110043261D01*
X106159150Y-110022005D01*
X106118184Y-110009216D01*
X106065472Y-110005938D01*
X106003112Y-110014645D01*
X106003112Y-110014645D01*
G37*
X106003112Y-110014645D02*
X105945635Y-110032206D01*
X105908628Y-110054395D01*
X105896573Y-110071942D01*
X105899891Y-110092742D01*
X105921421Y-110125419D01*
X105939626Y-110148562D01*
X105977156Y-110190402D01*
X106005352Y-110208005D01*
X106029389Y-110206856D01*
X106100692Y-110188710D01*
X106153058Y-110189534D01*
X106195582Y-110210098D01*
X106209858Y-110222134D01*
X106255553Y-110264483D01*
X106255553Y-110817526D01*
X106439369Y-110817526D01*
X106439369Y-110015421D01*
X106347461Y-110015421D01*
X106292281Y-110017603D01*
X106263812Y-110025351D01*
X106255557Y-110040468D01*
X106255553Y-110040916D01*
X106251655Y-110056749D01*
X106234026Y-110054684D01*
X106209599Y-110043261D01*
X106159150Y-110022005D01*
X106118184Y-110009216D01*
X106065472Y-110005938D01*
X106003112Y-110014645D01*
G36*
X107893536Y-104475576D02*
X107817987Y-104876322D01*
X107260459Y-105106154D01*
X106926035Y-104878748D01*
X106832378Y-104815431D01*
X106747718Y-104758896D01*
X106676005Y-104711727D01*
X106621189Y-104676502D01*
X106587220Y-104655805D01*
X106577970Y-104651342D01*
X106561305Y-104662820D01*
X106525694Y-104694551D01*
X106475129Y-104742483D01*
X106413600Y-104802562D01*
X106345101Y-104870733D01*
X106273621Y-104942945D01*
X106203153Y-105015142D01*
X106137689Y-105083273D01*
X106081220Y-105143283D01*
X106037737Y-105191119D01*
X106011232Y-105222727D01*
X106004895Y-105233305D01*
X106014014Y-105252806D01*
X106039580Y-105295531D01*
X106078903Y-105357298D01*
X106129297Y-105433931D01*
X106188073Y-105521248D01*
X106222132Y-105571052D01*
X106284211Y-105661993D01*
X106339374Y-105744059D01*
X106384946Y-105813163D01*
X106418250Y-105865222D01*
X106436610Y-105896150D01*
X106439369Y-105902650D01*
X106433115Y-105921121D01*
X106416066Y-105964172D01*
X106390797Y-106025749D01*
X106359878Y-106099799D01*
X106325882Y-106180270D01*
X106291382Y-106261107D01*
X106258949Y-106336258D01*
X106231157Y-106399671D01*
X106210577Y-106445293D01*
X106199781Y-106467069D01*
X106199144Y-106467926D01*
X106182193Y-106472084D01*
X106137049Y-106481361D01*
X106068390Y-106494844D01*
X105980898Y-106511621D01*
X105879250Y-106530781D01*
X105819944Y-106541830D01*
X105711328Y-106562510D01*
X105613223Y-106582189D01*
X105530591Y-106599789D01*
X105468396Y-106614233D01*
X105431601Y-106624446D01*
X105424204Y-106627686D01*
X105416960Y-106649617D01*
X105411115Y-106699147D01*
X105406665Y-106770485D01*
X105403607Y-106857839D01*
X105401935Y-106955417D01*
X105401647Y-107057426D01*
X105402739Y-107158075D01*
X105405206Y-107251572D01*
X105409044Y-107332125D01*
X105414250Y-107393942D01*
X105420819Y-107431230D01*
X105424759Y-107438993D01*
X105448312Y-107448298D01*
X105498218Y-107461600D01*
X105567877Y-107477337D01*
X105650687Y-107493946D01*
X105679595Y-107499319D01*
X105818969Y-107524848D01*
X105929064Y-107545408D01*
X106013518Y-107561815D01*
X106075970Y-107574887D01*
X106120056Y-107585441D01*
X106149415Y-107594294D01*
X106167685Y-107602263D01*
X106178502Y-107610165D01*
X106180015Y-107611727D01*
X106195123Y-107636886D01*
X106218171Y-107685850D01*
X106246856Y-107752621D01*
X106278878Y-107831205D01*
X106311935Y-107915607D01*
X106343727Y-107999830D01*
X106371951Y-108077879D01*
X106394307Y-108143759D01*
X106408493Y-108191473D01*
X106412207Y-108215027D01*
X106411898Y-108215852D01*
X106399311Y-108235104D01*
X106370756Y-108277463D01*
X106329233Y-108338521D01*
X106277744Y-108413868D01*
X106219289Y-108499096D01*
X106202642Y-108523315D01*
X106143285Y-108611123D01*
X106091053Y-108691238D01*
X106048792Y-108759062D01*
X106019347Y-108809993D01*
X106005563Y-108839431D01*
X106004895Y-108843048D01*
X106016476Y-108862057D01*
X106048476Y-108899714D01*
X106096782Y-108951973D01*
X106157280Y-109014786D01*
X106225856Y-109084106D01*
X106298396Y-109155885D01*
X106370788Y-109226077D01*
X106438916Y-109290635D01*
X106498668Y-109345510D01*
X106545929Y-109386656D01*
X106576587Y-109410026D01*
X106585068Y-109413842D01*
X106604809Y-109404855D01*
X106645226Y-109380616D01*
X106699737Y-109345209D01*
X106741677Y-109316711D01*
X106817671Y-109264418D01*
X106907666Y-109202845D01*
X106997936Y-109141370D01*
X107046468Y-109108469D01*
X107210738Y-108997359D01*
X107348631Y-109071916D01*
X107411451Y-109104578D01*
X107464871Y-109129966D01*
X107501016Y-109144446D01*
X107510216Y-109146460D01*
X107521279Y-109131584D01*
X107543106Y-109089547D01*
X107574066Y-109024227D01*
X107612530Y-108939500D01*
X107656868Y-108839245D01*
X107705453Y-108727339D01*
X107756654Y-108607659D01*
X107808841Y-108484084D01*
X107860387Y-108360491D01*
X107909660Y-108240757D01*
X107955033Y-108128759D01*
X107994875Y-108028377D01*
X108027558Y-107943486D01*
X108051451Y-107877965D01*
X108064926Y-107835690D01*
X108067094Y-107821172D01*
X108049917Y-107802653D01*
X108012310Y-107772590D01*
X107962134Y-107737232D01*
X107957922Y-107734434D01*
X107828236Y-107630625D01*
X107723666Y-107509515D01*
X107645119Y-107374976D01*
X107593501Y-107230882D01*
X107569718Y-107081105D01*
X107574677Y-106929517D01*
X107609283Y-106779992D01*
X107674443Y-106636400D01*
X107693614Y-106604984D01*
X107793326Y-106478125D01*
X107911123Y-106376255D01*
X108042929Y-106299904D01*
X108184667Y-106249602D01*
X108332258Y-106225879D01*
X108481627Y-106229265D01*
X108628697Y-106260288D01*
X108769389Y-106319480D01*
X108899627Y-106407369D01*
X108939914Y-106443042D01*
X109042445Y-106554706D01*
X109117159Y-106672257D01*
X109168410Y-106804020D01*
X109196954Y-106934507D01*
X109204000Y-107081216D01*
X109180504Y-107228653D01*
X109128851Y-107371834D01*
X109051429Y-107505777D01*
X108950625Y-107625498D01*
X108828824Y-107726014D01*
X108812816Y-107736609D01*
X108762102Y-107771306D01*
X108723550Y-107801370D01*
X108705119Y-107820565D01*
X108704851Y-107821172D01*
X108708808Y-107841936D01*
X108724493Y-107889062D01*
X108750278Y-107958673D01*
X108784531Y-108046893D01*
X108825623Y-108149844D01*
X108871924Y-108263650D01*
X108921804Y-108384435D01*
X108973633Y-108508321D01*
X109025781Y-108631432D01*
X109076618Y-108749891D01*
X109124513Y-108859823D01*
X109167838Y-108957349D01*
X109204962Y-109038593D01*
X109234256Y-109099679D01*
X109254088Y-109136730D01*
X109262074Y-109146460D01*
X109286479Y-109138883D01*
X109332142Y-109118560D01*
X109391190Y-109089125D01*
X109423660Y-109071916D01*
X109561553Y-108997359D01*
X109725823Y-109108469D01*
X109809679Y-109165390D01*
X109901487Y-109228030D01*
X109987520Y-109287011D01*
X110030613Y-109316711D01*
X110091223Y-109357410D01*
X110142545Y-109389663D01*
X110177885Y-109409384D01*
X110189363Y-109413554D01*
X110206070Y-109402307D01*
X110243046Y-109370911D01*
X110296705Y-109322624D01*
X110363462Y-109260708D01*
X110439734Y-109188421D01*
X110487973Y-109142008D01*
X110572367Y-109059087D01*
X110645303Y-108984920D01*
X110703831Y-108922680D01*
X110745003Y-108875541D01*
X110765872Y-108846673D01*
X110767874Y-108840815D01*
X110758583Y-108818532D01*
X110732909Y-108773477D01*
X110693700Y-108710211D01*
X110643803Y-108633295D01*
X110586067Y-108547292D01*
X110569649Y-108523315D01*
X110509823Y-108436170D01*
X110456150Y-108357710D01*
X110411630Y-108292345D01*
X110379265Y-108244484D01*
X110362055Y-108218535D01*
X110360393Y-108215852D01*
X110362879Y-108195172D01*
X110376077Y-108149704D01*
X110397686Y-108085444D01*
X110425404Y-108008387D01*
X110456930Y-107924529D01*
X110489963Y-107839866D01*
X110522201Y-107760392D01*
X110551343Y-107692104D01*
X110575088Y-107640997D01*
X110591135Y-107613067D01*
X110592275Y-107611727D01*
X110602088Y-107603745D01*
X110618661Y-107595851D01*
X110645632Y-107587229D01*
X110686639Y-107577062D01*
X110745320Y-107564531D01*
X110825313Y-107548821D01*
X110930255Y-107529113D01*
X111063785Y-107504592D01*
X111092696Y-107499319D01*
X111178382Y-107482764D01*
X111253082Y-107466569D01*
X111310194Y-107452296D01*
X111343117Y-107441508D01*
X111347531Y-107438993D01*
X111354806Y-107416696D01*
X111360719Y-107366869D01*
X111365266Y-107295304D01*
X111368445Y-107207793D01*
X111370249Y-107110128D01*
X111370677Y-107008101D01*
X111369723Y-106907503D01*
X111367384Y-106814127D01*
X111363656Y-106733765D01*
X111358534Y-106672209D01*
X111352016Y-106635250D01*
X111348086Y-106627686D01*
X111326208Y-106620056D01*
X111276391Y-106607642D01*
X111203597Y-106591522D01*
X111112789Y-106572773D01*
X111008931Y-106552471D01*
X110952346Y-106541830D01*
X110844986Y-106521760D01*
X110749246Y-106503580D01*
X110669806Y-106488199D01*
X110611346Y-106476531D01*
X110578545Y-106469488D01*
X110573146Y-106467926D01*
X110564022Y-106450322D01*
X110544735Y-106407918D01*
X110517855Y-106346772D01*
X110485954Y-106272943D01*
X110451602Y-106192489D01*
X110417371Y-106111468D01*
X110385831Y-106035937D01*
X110359554Y-105971955D01*
X110341111Y-105925580D01*
X110333071Y-105902869D01*
X110332922Y-105901876D01*
X110342035Y-105883961D01*
X110367586Y-105842733D01*
X110406888Y-105782291D01*
X110457257Y-105706731D01*
X110516006Y-105620152D01*
X110550158Y-105570421D01*
X110612390Y-105479236D01*
X110667664Y-105396449D01*
X110713282Y-105326249D01*
X110746548Y-105272824D01*
X110764764Y-105240361D01*
X110767395Y-105233083D01*
X110756086Y-105216145D01*
X110724819Y-105179978D01*
X110677590Y-105128635D01*
X110618392Y-105066167D01*
X110551219Y-104996626D01*
X110480066Y-104924065D01*
X110408926Y-104852535D01*
X110341793Y-104786087D01*
X110282661Y-104728774D01*
X110235525Y-104684647D01*
X110204377Y-104657759D01*
X110193957Y-104651342D01*
X110176991Y-104660365D01*
X110136411Y-104685715D01*
X110076163Y-104724810D01*
X110000193Y-104775071D01*
X109912446Y-104833917D01*
X109846256Y-104878748D01*
X109511832Y-105106154D01*
X109233067Y-104991238D01*
X108954303Y-104876322D01*
X108878754Y-104475576D01*
X108803206Y-104074829D01*
X107969085Y-104074829D01*
X107893536Y-104475576D01*
X107893536Y-104475576D01*
G37*
X107893536Y-104475576D02*
X107817987Y-104876322D01*
X107260459Y-105106154D01*
X106926035Y-104878748D01*
X106832378Y-104815431D01*
X106747718Y-104758896D01*
X106676005Y-104711727D01*
X106621189Y-104676502D01*
X106587220Y-104655805D01*
X106577970Y-104651342D01*
X106561305Y-104662820D01*
X106525694Y-104694551D01*
X106475129Y-104742483D01*
X106413600Y-104802562D01*
X106345101Y-104870733D01*
X106273621Y-104942945D01*
X106203153Y-105015142D01*
X106137689Y-105083273D01*
X106081220Y-105143283D01*
X106037737Y-105191119D01*
X106011232Y-105222727D01*
X106004895Y-105233305D01*
X106014014Y-105252806D01*
X106039580Y-105295531D01*
X106078903Y-105357298D01*
X106129297Y-105433931D01*
X106188073Y-105521248D01*
X106222132Y-105571052D01*
X106284211Y-105661993D01*
X106339374Y-105744059D01*
X106384946Y-105813163D01*
X106418250Y-105865222D01*
X106436610Y-105896150D01*
X106439369Y-105902650D01*
X106433115Y-105921121D01*
X106416066Y-105964172D01*
X106390797Y-106025749D01*
X106359878Y-106099799D01*
X106325882Y-106180270D01*
X106291382Y-106261107D01*
X106258949Y-106336258D01*
X106231157Y-106399671D01*
X106210577Y-106445293D01*
X106199781Y-106467069D01*
X106199144Y-106467926D01*
X106182193Y-106472084D01*
X106137049Y-106481361D01*
X106068390Y-106494844D01*
X105980898Y-106511621D01*
X105879250Y-106530781D01*
X105819944Y-106541830D01*
X105711328Y-106562510D01*
X105613223Y-106582189D01*
X105530591Y-106599789D01*
X105468396Y-106614233D01*
X105431601Y-106624446D01*
X105424204Y-106627686D01*
X105416960Y-106649617D01*
X105411115Y-106699147D01*
X105406665Y-106770485D01*
X105403607Y-106857839D01*
X105401935Y-106955417D01*
X105401647Y-107057426D01*
X105402739Y-107158075D01*
X105405206Y-107251572D01*
X105409044Y-107332125D01*
X105414250Y-107393942D01*
X105420819Y-107431230D01*
X105424759Y-107438993D01*
X105448312Y-107448298D01*
X105498218Y-107461600D01*
X105567877Y-107477337D01*
X105650687Y-107493946D01*
X105679595Y-107499319D01*
X105818969Y-107524848D01*
X105929064Y-107545408D01*
X106013518Y-107561815D01*
X106075970Y-107574887D01*
X106120056Y-107585441D01*
X106149415Y-107594294D01*
X106167685Y-107602263D01*
X106178502Y-107610165D01*
X106180015Y-107611727D01*
X106195123Y-107636886D01*
X106218171Y-107685850D01*
X106246856Y-107752621D01*
X106278878Y-107831205D01*
X106311935Y-107915607D01*
X106343727Y-107999830D01*
X106371951Y-108077879D01*
X106394307Y-108143759D01*
X106408493Y-108191473D01*
X106412207Y-108215027D01*
X106411898Y-108215852D01*
X106399311Y-108235104D01*
X106370756Y-108277463D01*
X106329233Y-108338521D01*
X106277744Y-108413868D01*
X106219289Y-108499096D01*
X106202642Y-108523315D01*
X106143285Y-108611123D01*
X106091053Y-108691238D01*
X106048792Y-108759062D01*
X106019347Y-108809993D01*
X106005563Y-108839431D01*
X106004895Y-108843048D01*
X106016476Y-108862057D01*
X106048476Y-108899714D01*
X106096782Y-108951973D01*
X106157280Y-109014786D01*
X106225856Y-109084106D01*
X106298396Y-109155885D01*
X106370788Y-109226077D01*
X106438916Y-109290635D01*
X106498668Y-109345510D01*
X106545929Y-109386656D01*
X106576587Y-109410026D01*
X106585068Y-109413842D01*
X106604809Y-109404855D01*
X106645226Y-109380616D01*
X106699737Y-109345209D01*
X106741677Y-109316711D01*
X106817671Y-109264418D01*
X106907666Y-109202845D01*
X106997936Y-109141370D01*
X107046468Y-109108469D01*
X107210738Y-108997359D01*
X107348631Y-109071916D01*
X107411451Y-109104578D01*
X107464871Y-109129966D01*
X107501016Y-109144446D01*
X107510216Y-109146460D01*
X107521279Y-109131584D01*
X107543106Y-109089547D01*
X107574066Y-109024227D01*
X107612530Y-108939500D01*
X107656868Y-108839245D01*
X107705453Y-108727339D01*
X107756654Y-108607659D01*
X107808841Y-108484084D01*
X107860387Y-108360491D01*
X107909660Y-108240757D01*
X107955033Y-108128759D01*
X107994875Y-108028377D01*
X108027558Y-107943486D01*
X108051451Y-107877965D01*
X108064926Y-107835690D01*
X108067094Y-107821172D01*
X108049917Y-107802653D01*
X108012310Y-107772590D01*
X107962134Y-107737232D01*
X107957922Y-107734434D01*
X107828236Y-107630625D01*
X107723666Y-107509515D01*
X107645119Y-107374976D01*
X107593501Y-107230882D01*
X107569718Y-107081105D01*
X107574677Y-106929517D01*
X107609283Y-106779992D01*
X107674443Y-106636400D01*
X107693614Y-106604984D01*
X107793326Y-106478125D01*
X107911123Y-106376255D01*
X108042929Y-106299904D01*
X108184667Y-106249602D01*
X108332258Y-106225879D01*
X108481627Y-106229265D01*
X108628697Y-106260288D01*
X108769389Y-106319480D01*
X108899627Y-106407369D01*
X108939914Y-106443042D01*
X109042445Y-106554706D01*
X109117159Y-106672257D01*
X109168410Y-106804020D01*
X109196954Y-106934507D01*
X109204000Y-107081216D01*
X109180504Y-107228653D01*
X109128851Y-107371834D01*
X109051429Y-107505777D01*
X108950625Y-107625498D01*
X108828824Y-107726014D01*
X108812816Y-107736609D01*
X108762102Y-107771306D01*
X108723550Y-107801370D01*
X108705119Y-107820565D01*
X108704851Y-107821172D01*
X108708808Y-107841936D01*
X108724493Y-107889062D01*
X108750278Y-107958673D01*
X108784531Y-108046893D01*
X108825623Y-108149844D01*
X108871924Y-108263650D01*
X108921804Y-108384435D01*
X108973633Y-108508321D01*
X109025781Y-108631432D01*
X109076618Y-108749891D01*
X109124513Y-108859823D01*
X109167838Y-108957349D01*
X109204962Y-109038593D01*
X109234256Y-109099679D01*
X109254088Y-109136730D01*
X109262074Y-109146460D01*
X109286479Y-109138883D01*
X109332142Y-109118560D01*
X109391190Y-109089125D01*
X109423660Y-109071916D01*
X109561553Y-108997359D01*
X109725823Y-109108469D01*
X109809679Y-109165390D01*
X109901487Y-109228030D01*
X109987520Y-109287011D01*
X110030613Y-109316711D01*
X110091223Y-109357410D01*
X110142545Y-109389663D01*
X110177885Y-109409384D01*
X110189363Y-109413554D01*
X110206070Y-109402307D01*
X110243046Y-109370911D01*
X110296705Y-109322624D01*
X110363462Y-109260708D01*
X110439734Y-109188421D01*
X110487973Y-109142008D01*
X110572367Y-109059087D01*
X110645303Y-108984920D01*
X110703831Y-108922680D01*
X110745003Y-108875541D01*
X110765872Y-108846673D01*
X110767874Y-108840815D01*
X110758583Y-108818532D01*
X110732909Y-108773477D01*
X110693700Y-108710211D01*
X110643803Y-108633295D01*
X110586067Y-108547292D01*
X110569649Y-108523315D01*
X110509823Y-108436170D01*
X110456150Y-108357710D01*
X110411630Y-108292345D01*
X110379265Y-108244484D01*
X110362055Y-108218535D01*
X110360393Y-108215852D01*
X110362879Y-108195172D01*
X110376077Y-108149704D01*
X110397686Y-108085444D01*
X110425404Y-108008387D01*
X110456930Y-107924529D01*
X110489963Y-107839866D01*
X110522201Y-107760392D01*
X110551343Y-107692104D01*
X110575088Y-107640997D01*
X110591135Y-107613067D01*
X110592275Y-107611727D01*
X110602088Y-107603745D01*
X110618661Y-107595851D01*
X110645632Y-107587229D01*
X110686639Y-107577062D01*
X110745320Y-107564531D01*
X110825313Y-107548821D01*
X110930255Y-107529113D01*
X111063785Y-107504592D01*
X111092696Y-107499319D01*
X111178382Y-107482764D01*
X111253082Y-107466569D01*
X111310194Y-107452296D01*
X111343117Y-107441508D01*
X111347531Y-107438993D01*
X111354806Y-107416696D01*
X111360719Y-107366869D01*
X111365266Y-107295304D01*
X111368445Y-107207793D01*
X111370249Y-107110128D01*
X111370677Y-107008101D01*
X111369723Y-106907503D01*
X111367384Y-106814127D01*
X111363656Y-106733765D01*
X111358534Y-106672209D01*
X111352016Y-106635250D01*
X111348086Y-106627686D01*
X111326208Y-106620056D01*
X111276391Y-106607642D01*
X111203597Y-106591522D01*
X111112789Y-106572773D01*
X111008931Y-106552471D01*
X110952346Y-106541830D01*
X110844986Y-106521760D01*
X110749246Y-106503580D01*
X110669806Y-106488199D01*
X110611346Y-106476531D01*
X110578545Y-106469488D01*
X110573146Y-106467926D01*
X110564022Y-106450322D01*
X110544735Y-106407918D01*
X110517855Y-106346772D01*
X110485954Y-106272943D01*
X110451602Y-106192489D01*
X110417371Y-106111468D01*
X110385831Y-106035937D01*
X110359554Y-105971955D01*
X110341111Y-105925580D01*
X110333071Y-105902869D01*
X110332922Y-105901876D01*
X110342035Y-105883961D01*
X110367586Y-105842733D01*
X110406888Y-105782291D01*
X110457257Y-105706731D01*
X110516006Y-105620152D01*
X110550158Y-105570421D01*
X110612390Y-105479236D01*
X110667664Y-105396449D01*
X110713282Y-105326249D01*
X110746548Y-105272824D01*
X110764764Y-105240361D01*
X110767395Y-105233083D01*
X110756086Y-105216145D01*
X110724819Y-105179978D01*
X110677590Y-105128635D01*
X110618392Y-105066167D01*
X110551219Y-104996626D01*
X110480066Y-104924065D01*
X110408926Y-104852535D01*
X110341793Y-104786087D01*
X110282661Y-104728774D01*
X110235525Y-104684647D01*
X110204377Y-104657759D01*
X110193957Y-104651342D01*
X110176991Y-104660365D01*
X110136411Y-104685715D01*
X110076163Y-104724810D01*
X110000193Y-104775071D01*
X109912446Y-104833917D01*
X109846256Y-104878748D01*
X109511832Y-105106154D01*
X109233067Y-104991238D01*
X108954303Y-104876322D01*
X108878754Y-104475576D01*
X108803206Y-104074829D01*
X107969085Y-104074829D01*
X107893536Y-104475576D01*
D10*
X117515333Y-95135667D02*
X117515333Y-95702333D01*
X117482000Y-95769000D01*
X117448667Y-95802333D01*
X117382000Y-95835667D01*
X117248667Y-95835667D01*
X117182000Y-95802333D01*
X117148667Y-95769000D01*
X117115333Y-95702333D01*
X117115333Y-95135667D01*
X116415334Y-95835667D02*
X116815334Y-95835667D01*
X116615334Y-95835667D02*
X116615334Y-95135667D01*
X116682000Y-95235667D01*
X116748667Y-95302333D01*
X116815334Y-95335667D01*
M02*
