%FSLAX45Y45*%
G04 Gerber Fmt 4.5, Leading zero omitted, Abs format (unit mm)*
G04 Created by KiCad (PCBNEW 4.0.2+dfsg1-stable) date Wed 06 Sep 2017 09:14:42 PM CST*
%MOMM*%
G01*
G04 APERTURE LIST*
%ADD10C,0.127000*%
%ADD11C,0.150000*%
%ADD12C,0.200000*%
%ADD13C,0.300000*%
G04 APERTURE END LIST*
D10*
D11*
X10000000Y-12800000D02*
X10000000Y-7800000D01*
X12500000Y-12800000D02*
X10000000Y-12800000D01*
X12500000Y-7800000D02*
X12500000Y-12800000D01*
X10000000Y-7800000D02*
X12500000Y-7800000D01*
D12*
X10381300Y-11506520D02*
X10421300Y-11546520D01*
X10421300Y-11506520D02*
X10381300Y-11546520D01*
X10521998Y-10347929D02*
X10561998Y-10387929D01*
X10561998Y-10347929D02*
X10521998Y-10387929D01*
X10525431Y-10557841D02*
X10565431Y-10597841D01*
X10565431Y-10557841D02*
X10525431Y-10597841D01*
X10552934Y-10482716D02*
X10592934Y-10522716D01*
X10592934Y-10482716D02*
X10552934Y-10522716D01*
X10584500Y-10203500D02*
X10624500Y-10243500D01*
X10624500Y-10203500D02*
X10584500Y-10243500D01*
X10585000Y-11358700D02*
X10625000Y-11398700D01*
X10625000Y-11358700D02*
X10585000Y-11398700D01*
X10686100Y-11158540D02*
X10726100Y-11198540D01*
X10726100Y-11158540D02*
X10686100Y-11198540D01*
X10749600Y-11105200D02*
X10789600Y-11145200D01*
X10789600Y-11105200D02*
X10749600Y-11145200D01*
X10810210Y-10129840D02*
X10850210Y-10169840D01*
X10850210Y-10129840D02*
X10810210Y-10169840D01*
X10823260Y-11356200D02*
X10863260Y-11396200D01*
X10863260Y-11356200D02*
X10823260Y-11396200D01*
X10940100Y-9479600D02*
X10980100Y-9519600D01*
X10980100Y-9479600D02*
X10940100Y-9519600D01*
X11003600Y-9422450D02*
X11043600Y-9462450D01*
X11043600Y-9422450D02*
X11003600Y-9462450D01*
X11005000Y-9205000D02*
X11045000Y-9245000D01*
X11045000Y-9205000D02*
X11005000Y-9245000D01*
X11139306Y-10491064D02*
X11179306Y-10531064D01*
X11179306Y-10491064D02*
X11139306Y-10531064D01*
X11176320Y-11100120D02*
X11216320Y-11140120D01*
X11216320Y-11100120D02*
X11176320Y-11140120D01*
X11215981Y-10428562D02*
X11255981Y-10468562D01*
X11255981Y-10428562D02*
X11215981Y-10468562D01*
X11283000Y-11105200D02*
X11323000Y-11145200D01*
X11323000Y-11105200D02*
X11283000Y-11145200D01*
X11378250Y-9327200D02*
X11418250Y-9367200D01*
X11418250Y-9327200D02*
X11378250Y-9367200D01*
X11402380Y-10244140D02*
X11442380Y-10284140D01*
X11442380Y-10244140D02*
X11402380Y-10284140D01*
X11406609Y-10788551D02*
X11446609Y-10828551D01*
X11446609Y-10788551D02*
X11406609Y-10828551D01*
X11441750Y-9397050D02*
X11481750Y-9437050D01*
X11481750Y-9397050D02*
X11441750Y-9437050D01*
X11460800Y-8870000D02*
X11500800Y-8910000D01*
X11500800Y-8870000D02*
X11460800Y-8910000D01*
X11470960Y-10366060D02*
X11510960Y-10406060D01*
X11510960Y-10366060D02*
X11470960Y-10406060D01*
X11479850Y-11149650D02*
X11519850Y-11189650D01*
X11519850Y-11149650D02*
X11479850Y-11189650D01*
X11482662Y-10533591D02*
X11522662Y-10573591D01*
X11522662Y-10533591D02*
X11482662Y-10573591D01*
X11483660Y-10684710D02*
X11523660Y-10724710D01*
X11523660Y-10684710D02*
X11483660Y-10724710D01*
X11487063Y-10249815D02*
X11527063Y-10289815D01*
X11527063Y-10249815D02*
X11487063Y-10289815D01*
X11505250Y-9466900D02*
X11545250Y-9506900D01*
X11545250Y-9466900D02*
X11505250Y-9506900D01*
X11559860Y-8567740D02*
X11599860Y-8607740D01*
X11599860Y-8567740D02*
X11559860Y-8607740D01*
X11568750Y-9543100D02*
X11608750Y-9583100D01*
X11608750Y-9543100D02*
X11568750Y-9583100D01*
X11582720Y-9174800D02*
X11622720Y-9214800D01*
X11622720Y-9174800D02*
X11582720Y-9214800D01*
X11676500Y-8349300D02*
X11716500Y-8389300D01*
X11716500Y-8349300D02*
X11676500Y-8389300D01*
X11727500Y-10133650D02*
X11767500Y-10173650D01*
X11767500Y-10133650D02*
X11727500Y-10173650D01*
X11770680Y-10264460D02*
X11810680Y-10304460D01*
X11810680Y-10264460D02*
X11770680Y-10304460D01*
X11930700Y-9576120D02*
X11970700Y-9616120D01*
X11970700Y-9576120D02*
X11930700Y-9616120D01*
X12052620Y-11219500D02*
X12092620Y-11259500D01*
X12092620Y-11219500D02*
X12052620Y-11259500D01*
X12055000Y-10730000D02*
X12095000Y-10770000D01*
X12095000Y-10730000D02*
X12055000Y-10770000D01*
X12062780Y-9753920D02*
X12102780Y-9793920D01*
X12102780Y-9753920D02*
X12062780Y-9793920D01*
X12254550Y-11181400D02*
X12294550Y-11221400D01*
X12294550Y-11181400D02*
X12254550Y-11221400D01*
X12268520Y-10975660D02*
X12308520Y-11015660D01*
X12308520Y-10975660D02*
X12268520Y-11015660D01*
X10278740Y-10894060D02*
G75*
G03X10278740Y-10894060I-40000J0D01*
G01*
X10278740Y-11094060D02*
G75*
G03X10278740Y-11094060I-40000J0D01*
G01*
X10213360Y-12535720D02*
X10213360Y-12635720D01*
X10163360Y-12585720D02*
X10263360Y-12585720D01*
X10223500Y-7951000D02*
X10223500Y-8051000D01*
X10173500Y-8001000D02*
X10273500Y-8001000D01*
X10236200Y-9722650D02*
X10236200Y-9822650D01*
X10186200Y-9772650D02*
X10286200Y-9772650D01*
X10236200Y-9976650D02*
X10236200Y-10076650D01*
X10186200Y-10026650D02*
X10286200Y-10026650D01*
X10236200Y-10230650D02*
X10236200Y-10330650D01*
X10186200Y-10280650D02*
X10286200Y-10280650D01*
X10236200Y-10484650D02*
X10236200Y-10584650D01*
X10186200Y-10534650D02*
X10286200Y-10534650D01*
X10467360Y-12535720D02*
X10467360Y-12635720D01*
X10417360Y-12585720D02*
X10517360Y-12585720D01*
X10477500Y-7951000D02*
X10477500Y-8051000D01*
X10427500Y-8001000D02*
X10527500Y-8001000D01*
X10731500Y-7951000D02*
X10731500Y-8051000D01*
X10681500Y-8001000D02*
X10781500Y-8001000D01*
X10985500Y-7951000D02*
X10985500Y-8051000D01*
X10935500Y-8001000D02*
X11035500Y-8001000D01*
X11239500Y-7951000D02*
X11239500Y-8051000D01*
X11189500Y-8001000D02*
X11289500Y-8001000D01*
X11473200Y-12561120D02*
X11473200Y-12661120D01*
X11423200Y-12611120D02*
X11523200Y-12611120D01*
X11493500Y-7951000D02*
X11493500Y-8051000D01*
X11443500Y-8001000D02*
X11543500Y-8001000D01*
X11727200Y-12561120D02*
X11727200Y-12661120D01*
X11677200Y-12611120D02*
X11777200Y-12611120D01*
X11747500Y-7951000D02*
X11747500Y-8051000D01*
X11697500Y-8001000D02*
X11797500Y-8001000D01*
X11981200Y-12561120D02*
X11981200Y-12661120D01*
X11931200Y-12611120D02*
X12031200Y-12611120D01*
X12001500Y-7951000D02*
X12001500Y-8051000D01*
X11951500Y-8001000D02*
X12051500Y-8001000D01*
X12255500Y-7951000D02*
X12255500Y-8051000D01*
X12205500Y-8001000D02*
X12305500Y-8001000D01*
X12293600Y-8414550D02*
X12293600Y-8514550D01*
X12243600Y-8464550D02*
X12343600Y-8464550D01*
X12293600Y-8668550D02*
X12293600Y-8768550D01*
X12243600Y-8718550D02*
X12343600Y-8718550D01*
X12293600Y-8922550D02*
X12293600Y-9022550D01*
X12243600Y-8972550D02*
X12343600Y-8972550D01*
X12293600Y-9176550D02*
X12293600Y-9276550D01*
X12243600Y-9226550D02*
X12343600Y-9226550D01*
X12293600Y-9563900D02*
X12293600Y-9663900D01*
X12243600Y-9613900D02*
X12343600Y-9613900D01*
X12293600Y-9817900D02*
X12293600Y-9917900D01*
X12243600Y-9867900D02*
X12343600Y-9867900D01*
X12293600Y-10071900D02*
X12293600Y-10171900D01*
X12243600Y-10121900D02*
X12343600Y-10121900D01*
D13*
X10263929Y-13273214D02*
X10263929Y-12973214D01*
X10335357Y-12973214D01*
X10378214Y-12987500D01*
X10406786Y-13016071D01*
X10421071Y-13044643D01*
X10435357Y-13101786D01*
X10435357Y-13144643D01*
X10421071Y-13201786D01*
X10406786Y-13230357D01*
X10378214Y-13258929D01*
X10335357Y-13273214D01*
X10263929Y-13273214D01*
X10563929Y-13273214D02*
X10563929Y-13073214D01*
X10563929Y-13130357D02*
X10578214Y-13101786D01*
X10592500Y-13087500D01*
X10621071Y-13073214D01*
X10649643Y-13073214D01*
X10749643Y-13273214D02*
X10749643Y-13073214D01*
X10749643Y-12973214D02*
X10735357Y-12987500D01*
X10749643Y-13001786D01*
X10763929Y-12987500D01*
X10749643Y-12973214D01*
X10749643Y-13001786D01*
X10935357Y-13273214D02*
X10906786Y-13258929D01*
X10892500Y-13230357D01*
X10892500Y-12973214D01*
X11092500Y-13273214D02*
X11063929Y-13258929D01*
X11049643Y-13230357D01*
X11049643Y-12973214D01*
X11435357Y-13273214D02*
X11435357Y-12973214D01*
X11535357Y-13187500D01*
X11635357Y-12973214D01*
X11635357Y-13273214D01*
X11906786Y-13273214D02*
X11906786Y-13116071D01*
X11892500Y-13087500D01*
X11863928Y-13073214D01*
X11806786Y-13073214D01*
X11778214Y-13087500D01*
X11906786Y-13258929D02*
X11878214Y-13273214D01*
X11806786Y-13273214D01*
X11778214Y-13258929D01*
X11763928Y-13230357D01*
X11763928Y-13201786D01*
X11778214Y-13173214D01*
X11806786Y-13158929D01*
X11878214Y-13158929D01*
X11906786Y-13144643D01*
X12049643Y-13073214D02*
X12049643Y-13373214D01*
X12049643Y-13087500D02*
X12078214Y-13073214D01*
X12135357Y-13073214D01*
X12163928Y-13087500D01*
X12178214Y-13101786D01*
X12192500Y-13130357D01*
X12192500Y-13216071D01*
X12178214Y-13244643D01*
X12163928Y-13258929D01*
X12135357Y-13273214D01*
X12078214Y-13273214D01*
X12049643Y-13258929D01*
X12321071Y-13244643D02*
X12335357Y-13258929D01*
X12321071Y-13273214D01*
X12306786Y-13258929D01*
X12321071Y-13244643D01*
X12321071Y-13273214D01*
X12321071Y-13087500D02*
X12335357Y-13101786D01*
X12321071Y-13116071D01*
X12306786Y-13101786D01*
X12321071Y-13087500D01*
X12321071Y-13116071D01*
X9952500Y-13747500D02*
X9992500Y-13787500D01*
X9992500Y-13747500D02*
X9952500Y-13787500D01*
X10321071Y-13603214D02*
X10349643Y-13603214D01*
X10378214Y-13617500D01*
X10392500Y-13631786D01*
X10406786Y-13660357D01*
X10421071Y-13717500D01*
X10421071Y-13788929D01*
X10406786Y-13846071D01*
X10392500Y-13874643D01*
X10378214Y-13888929D01*
X10349643Y-13903214D01*
X10321071Y-13903214D01*
X10292500Y-13888929D01*
X10278214Y-13874643D01*
X10263929Y-13846071D01*
X10249643Y-13788929D01*
X10249643Y-13717500D01*
X10263929Y-13660357D01*
X10278214Y-13631786D01*
X10292500Y-13617500D01*
X10321071Y-13603214D01*
X10549643Y-13874643D02*
X10563929Y-13888929D01*
X10549643Y-13903214D01*
X10535357Y-13888929D01*
X10549643Y-13874643D01*
X10549643Y-13903214D01*
X10821071Y-13703214D02*
X10821071Y-13903214D01*
X10749643Y-13588929D02*
X10678214Y-13803214D01*
X10863928Y-13803214D01*
X11035357Y-13603214D02*
X11063929Y-13603214D01*
X11092500Y-13617500D01*
X11106786Y-13631786D01*
X11121071Y-13660357D01*
X11135357Y-13717500D01*
X11135357Y-13788929D01*
X11121071Y-13846071D01*
X11106786Y-13874643D01*
X11092500Y-13888929D01*
X11063929Y-13903214D01*
X11035357Y-13903214D01*
X11006786Y-13888929D01*
X10992500Y-13874643D01*
X10978214Y-13846071D01*
X10963929Y-13788929D01*
X10963929Y-13717500D01*
X10978214Y-13660357D01*
X10992500Y-13631786D01*
X11006786Y-13617500D01*
X11035357Y-13603214D01*
X11263928Y-13903214D02*
X11263928Y-13703214D01*
X11263928Y-13731786D02*
X11278214Y-13717500D01*
X11306786Y-13703214D01*
X11349643Y-13703214D01*
X11378214Y-13717500D01*
X11392500Y-13746071D01*
X11392500Y-13903214D01*
X11392500Y-13746071D02*
X11406786Y-13717500D01*
X11435357Y-13703214D01*
X11478214Y-13703214D01*
X11506786Y-13717500D01*
X11521071Y-13746071D01*
X11521071Y-13903214D01*
X11663928Y-13903214D02*
X11663928Y-13703214D01*
X11663928Y-13731786D02*
X11678214Y-13717500D01*
X11706786Y-13703214D01*
X11749643Y-13703214D01*
X11778214Y-13717500D01*
X11792500Y-13746071D01*
X11792500Y-13903214D01*
X11792500Y-13746071D02*
X11806786Y-13717500D01*
X11835357Y-13703214D01*
X11878214Y-13703214D01*
X11906786Y-13717500D01*
X11921071Y-13746071D01*
X11921071Y-13903214D01*
X12506786Y-13588929D02*
X12249643Y-13974643D01*
X12892500Y-13603214D02*
X12921071Y-13603214D01*
X12949643Y-13617500D01*
X12963928Y-13631786D01*
X12978214Y-13660357D01*
X12992500Y-13717500D01*
X12992500Y-13788929D01*
X12978214Y-13846071D01*
X12963928Y-13874643D01*
X12949643Y-13888929D01*
X12921071Y-13903214D01*
X12892500Y-13903214D01*
X12863928Y-13888929D01*
X12849643Y-13874643D01*
X12835357Y-13846071D01*
X12821071Y-13788929D01*
X12821071Y-13717500D01*
X12835357Y-13660357D01*
X12849643Y-13631786D01*
X12863928Y-13617500D01*
X12892500Y-13603214D01*
X13121071Y-13874643D02*
X13135357Y-13888929D01*
X13121071Y-13903214D01*
X13106786Y-13888929D01*
X13121071Y-13874643D01*
X13121071Y-13903214D01*
X13321071Y-13603214D02*
X13349643Y-13603214D01*
X13378214Y-13617500D01*
X13392500Y-13631786D01*
X13406785Y-13660357D01*
X13421071Y-13717500D01*
X13421071Y-13788929D01*
X13406785Y-13846071D01*
X13392500Y-13874643D01*
X13378214Y-13888929D01*
X13349643Y-13903214D01*
X13321071Y-13903214D01*
X13292500Y-13888929D01*
X13278214Y-13874643D01*
X13263928Y-13846071D01*
X13249643Y-13788929D01*
X13249643Y-13717500D01*
X13263928Y-13660357D01*
X13278214Y-13631786D01*
X13292500Y-13617500D01*
X13321071Y-13603214D01*
X13706785Y-13903214D02*
X13535357Y-13903214D01*
X13621071Y-13903214D02*
X13621071Y-13603214D01*
X13592500Y-13646071D01*
X13563928Y-13674643D01*
X13535357Y-13688929D01*
X13963928Y-13603214D02*
X13906785Y-13603214D01*
X13878214Y-13617500D01*
X13863928Y-13631786D01*
X13835357Y-13674643D01*
X13821071Y-13731786D01*
X13821071Y-13846071D01*
X13835357Y-13874643D01*
X13849643Y-13888929D01*
X13878214Y-13903214D01*
X13935357Y-13903214D01*
X13963928Y-13888929D01*
X13978214Y-13874643D01*
X13992500Y-13846071D01*
X13992500Y-13774643D01*
X13978214Y-13746071D01*
X13963928Y-13731786D01*
X13935357Y-13717500D01*
X13878214Y-13717500D01*
X13849643Y-13731786D01*
X13835357Y-13746071D01*
X13821071Y-13774643D01*
X14106786Y-13603214D02*
X14106786Y-13660357D01*
X14221071Y-13603214D02*
X14221071Y-13660357D01*
X14663928Y-14017500D02*
X14649643Y-14003214D01*
X14621071Y-13960357D01*
X14606785Y-13931786D01*
X14592500Y-13888929D01*
X14578214Y-13817500D01*
X14578214Y-13760357D01*
X14592500Y-13688929D01*
X14606785Y-13646071D01*
X14621071Y-13617500D01*
X14649643Y-13574643D01*
X14663928Y-13560357D01*
X14906785Y-13703214D02*
X14906785Y-13903214D01*
X14835357Y-13588929D02*
X14763928Y-13803214D01*
X14949643Y-13803214D01*
X15121071Y-13603214D02*
X15149643Y-13603214D01*
X15178214Y-13617500D01*
X15192500Y-13631786D01*
X15206785Y-13660357D01*
X15221071Y-13717500D01*
X15221071Y-13788929D01*
X15206785Y-13846071D01*
X15192500Y-13874643D01*
X15178214Y-13888929D01*
X15149643Y-13903214D01*
X15121071Y-13903214D01*
X15092500Y-13888929D01*
X15078214Y-13874643D01*
X15063928Y-13846071D01*
X15049643Y-13788929D01*
X15049643Y-13717500D01*
X15063928Y-13660357D01*
X15078214Y-13631786D01*
X15092500Y-13617500D01*
X15121071Y-13603214D01*
X15578214Y-13903214D02*
X15578214Y-13603214D01*
X15706785Y-13903214D02*
X15706785Y-13746071D01*
X15692500Y-13717500D01*
X15663928Y-13703214D01*
X15621071Y-13703214D01*
X15592500Y-13717500D01*
X15578214Y-13731786D01*
X15892500Y-13903214D02*
X15863928Y-13888929D01*
X15849643Y-13874643D01*
X15835357Y-13846071D01*
X15835357Y-13760357D01*
X15849643Y-13731786D01*
X15863928Y-13717500D01*
X15892500Y-13703214D01*
X15935357Y-13703214D01*
X15963928Y-13717500D01*
X15978214Y-13731786D01*
X15992500Y-13760357D01*
X15992500Y-13846071D01*
X15978214Y-13874643D01*
X15963928Y-13888929D01*
X15935357Y-13903214D01*
X15892500Y-13903214D01*
X16163928Y-13903214D02*
X16135357Y-13888929D01*
X16121071Y-13860357D01*
X16121071Y-13603214D01*
X16392500Y-13888929D02*
X16363928Y-13903214D01*
X16306786Y-13903214D01*
X16278214Y-13888929D01*
X16263928Y-13860357D01*
X16263928Y-13746071D01*
X16278214Y-13717500D01*
X16306786Y-13703214D01*
X16363928Y-13703214D01*
X16392500Y-13717500D01*
X16406786Y-13746071D01*
X16406786Y-13774643D01*
X16263928Y-13803214D01*
X16521071Y-13888929D02*
X16549643Y-13903214D01*
X16606786Y-13903214D01*
X16635357Y-13888929D01*
X16649643Y-13860357D01*
X16649643Y-13846071D01*
X16635357Y-13817500D01*
X16606786Y-13803214D01*
X16563928Y-13803214D01*
X16535357Y-13788929D01*
X16521071Y-13760357D01*
X16521071Y-13746071D01*
X16535357Y-13717500D01*
X16563928Y-13703214D01*
X16606786Y-13703214D01*
X16635357Y-13717500D01*
X16749643Y-14017500D02*
X16763928Y-14003214D01*
X16792500Y-13960357D01*
X16806786Y-13931786D01*
X16821071Y-13888929D01*
X16835357Y-13817500D01*
X16835357Y-13760357D01*
X16821071Y-13688929D01*
X16806786Y-13646071D01*
X16792500Y-13617500D01*
X16763928Y-13574643D01*
X16749643Y-13560357D01*
X9992500Y-14163500D02*
G75*
G03X9992500Y-14163500I-40000J0D01*
G01*
X10321071Y-13999214D02*
X10349643Y-13999214D01*
X10378214Y-14013500D01*
X10392500Y-14027786D01*
X10406786Y-14056357D01*
X10421071Y-14113500D01*
X10421071Y-14184929D01*
X10406786Y-14242071D01*
X10392500Y-14270643D01*
X10378214Y-14284929D01*
X10349643Y-14299214D01*
X10321071Y-14299214D01*
X10292500Y-14284929D01*
X10278214Y-14270643D01*
X10263929Y-14242071D01*
X10249643Y-14184929D01*
X10249643Y-14113500D01*
X10263929Y-14056357D01*
X10278214Y-14027786D01*
X10292500Y-14013500D01*
X10321071Y-13999214D01*
X10549643Y-14270643D02*
X10563929Y-14284929D01*
X10549643Y-14299214D01*
X10535357Y-14284929D01*
X10549643Y-14270643D01*
X10549643Y-14299214D01*
X10735357Y-14127786D02*
X10706786Y-14113500D01*
X10692500Y-14099214D01*
X10678214Y-14070643D01*
X10678214Y-14056357D01*
X10692500Y-14027786D01*
X10706786Y-14013500D01*
X10735357Y-13999214D01*
X10792500Y-13999214D01*
X10821071Y-14013500D01*
X10835357Y-14027786D01*
X10849643Y-14056357D01*
X10849643Y-14070643D01*
X10835357Y-14099214D01*
X10821071Y-14113500D01*
X10792500Y-14127786D01*
X10735357Y-14127786D01*
X10706786Y-14142071D01*
X10692500Y-14156357D01*
X10678214Y-14184929D01*
X10678214Y-14242071D01*
X10692500Y-14270643D01*
X10706786Y-14284929D01*
X10735357Y-14299214D01*
X10792500Y-14299214D01*
X10821071Y-14284929D01*
X10835357Y-14270643D01*
X10849643Y-14242071D01*
X10849643Y-14184929D01*
X10835357Y-14156357D01*
X10821071Y-14142071D01*
X10792500Y-14127786D01*
X11035357Y-13999214D02*
X11063929Y-13999214D01*
X11092500Y-14013500D01*
X11106786Y-14027786D01*
X11121071Y-14056357D01*
X11135357Y-14113500D01*
X11135357Y-14184929D01*
X11121071Y-14242071D01*
X11106786Y-14270643D01*
X11092500Y-14284929D01*
X11063929Y-14299214D01*
X11035357Y-14299214D01*
X11006786Y-14284929D01*
X10992500Y-14270643D01*
X10978214Y-14242071D01*
X10963929Y-14184929D01*
X10963929Y-14113500D01*
X10978214Y-14056357D01*
X10992500Y-14027786D01*
X11006786Y-14013500D01*
X11035357Y-13999214D01*
X11263928Y-14299214D02*
X11263928Y-14099214D01*
X11263928Y-14127786D02*
X11278214Y-14113500D01*
X11306786Y-14099214D01*
X11349643Y-14099214D01*
X11378214Y-14113500D01*
X11392500Y-14142071D01*
X11392500Y-14299214D01*
X11392500Y-14142071D02*
X11406786Y-14113500D01*
X11435357Y-14099214D01*
X11478214Y-14099214D01*
X11506786Y-14113500D01*
X11521071Y-14142071D01*
X11521071Y-14299214D01*
X11663928Y-14299214D02*
X11663928Y-14099214D01*
X11663928Y-14127786D02*
X11678214Y-14113500D01*
X11706786Y-14099214D01*
X11749643Y-14099214D01*
X11778214Y-14113500D01*
X11792500Y-14142071D01*
X11792500Y-14299214D01*
X11792500Y-14142071D02*
X11806786Y-14113500D01*
X11835357Y-14099214D01*
X11878214Y-14099214D01*
X11906786Y-14113500D01*
X11921071Y-14142071D01*
X11921071Y-14299214D01*
X12506786Y-13984929D02*
X12249643Y-14370643D01*
X12892500Y-13999214D02*
X12921071Y-13999214D01*
X12949643Y-14013500D01*
X12963928Y-14027786D01*
X12978214Y-14056357D01*
X12992500Y-14113500D01*
X12992500Y-14184929D01*
X12978214Y-14242071D01*
X12963928Y-14270643D01*
X12949643Y-14284929D01*
X12921071Y-14299214D01*
X12892500Y-14299214D01*
X12863928Y-14284929D01*
X12849643Y-14270643D01*
X12835357Y-14242071D01*
X12821071Y-14184929D01*
X12821071Y-14113500D01*
X12835357Y-14056357D01*
X12849643Y-14027786D01*
X12863928Y-14013500D01*
X12892500Y-13999214D01*
X13121071Y-14270643D02*
X13135357Y-14284929D01*
X13121071Y-14299214D01*
X13106786Y-14284929D01*
X13121071Y-14270643D01*
X13121071Y-14299214D01*
X13321071Y-13999214D02*
X13349643Y-13999214D01*
X13378214Y-14013500D01*
X13392500Y-14027786D01*
X13406785Y-14056357D01*
X13421071Y-14113500D01*
X13421071Y-14184929D01*
X13406785Y-14242071D01*
X13392500Y-14270643D01*
X13378214Y-14284929D01*
X13349643Y-14299214D01*
X13321071Y-14299214D01*
X13292500Y-14284929D01*
X13278214Y-14270643D01*
X13263928Y-14242071D01*
X13249643Y-14184929D01*
X13249643Y-14113500D01*
X13263928Y-14056357D01*
X13278214Y-14027786D01*
X13292500Y-14013500D01*
X13321071Y-13999214D01*
X13521071Y-13999214D02*
X13706785Y-13999214D01*
X13606785Y-14113500D01*
X13649643Y-14113500D01*
X13678214Y-14127786D01*
X13692500Y-14142071D01*
X13706785Y-14170643D01*
X13706785Y-14242071D01*
X13692500Y-14270643D01*
X13678214Y-14284929D01*
X13649643Y-14299214D01*
X13563928Y-14299214D01*
X13535357Y-14284929D01*
X13521071Y-14270643D01*
X13992500Y-14299214D02*
X13821071Y-14299214D01*
X13906785Y-14299214D02*
X13906785Y-13999214D01*
X13878214Y-14042071D01*
X13849643Y-14070643D01*
X13821071Y-14084929D01*
X14106786Y-13999214D02*
X14106786Y-14056357D01*
X14221071Y-13999214D02*
X14221071Y-14056357D01*
X14663928Y-14413500D02*
X14649643Y-14399214D01*
X14621071Y-14356357D01*
X14606785Y-14327786D01*
X14592500Y-14284929D01*
X14578214Y-14213500D01*
X14578214Y-14156357D01*
X14592500Y-14084929D01*
X14606785Y-14042071D01*
X14621071Y-14013500D01*
X14649643Y-13970643D01*
X14663928Y-13956357D01*
X14763928Y-14027786D02*
X14778214Y-14013500D01*
X14806785Y-13999214D01*
X14878214Y-13999214D01*
X14906785Y-14013500D01*
X14921071Y-14027786D01*
X14935357Y-14056357D01*
X14935357Y-14084929D01*
X14921071Y-14127786D01*
X14749643Y-14299214D01*
X14935357Y-14299214D01*
X15292500Y-14299214D02*
X15292500Y-13999214D01*
X15421071Y-14299214D02*
X15421071Y-14142071D01*
X15406785Y-14113500D01*
X15378214Y-14099214D01*
X15335357Y-14099214D01*
X15306785Y-14113500D01*
X15292500Y-14127786D01*
X15606785Y-14299214D02*
X15578214Y-14284929D01*
X15563928Y-14270643D01*
X15549643Y-14242071D01*
X15549643Y-14156357D01*
X15563928Y-14127786D01*
X15578214Y-14113500D01*
X15606785Y-14099214D01*
X15649643Y-14099214D01*
X15678214Y-14113500D01*
X15692500Y-14127786D01*
X15706785Y-14156357D01*
X15706785Y-14242071D01*
X15692500Y-14270643D01*
X15678214Y-14284929D01*
X15649643Y-14299214D01*
X15606785Y-14299214D01*
X15878214Y-14299214D02*
X15849643Y-14284929D01*
X15835357Y-14256357D01*
X15835357Y-13999214D01*
X16106786Y-14284929D02*
X16078214Y-14299214D01*
X16021071Y-14299214D01*
X15992500Y-14284929D01*
X15978214Y-14256357D01*
X15978214Y-14142071D01*
X15992500Y-14113500D01*
X16021071Y-14099214D01*
X16078214Y-14099214D01*
X16106786Y-14113500D01*
X16121071Y-14142071D01*
X16121071Y-14170643D01*
X15978214Y-14199214D01*
X16235357Y-14284929D02*
X16263928Y-14299214D01*
X16321071Y-14299214D01*
X16349643Y-14284929D01*
X16363928Y-14256357D01*
X16363928Y-14242071D01*
X16349643Y-14213500D01*
X16321071Y-14199214D01*
X16278214Y-14199214D01*
X16249643Y-14184929D01*
X16235357Y-14156357D01*
X16235357Y-14142071D01*
X16249643Y-14113500D01*
X16278214Y-14099214D01*
X16321071Y-14099214D01*
X16349643Y-14113500D01*
X16463928Y-14413500D02*
X16478214Y-14399214D01*
X16506786Y-14356357D01*
X16521071Y-14327786D01*
X16535357Y-14284929D01*
X16549643Y-14213500D01*
X16549643Y-14156357D01*
X16535357Y-14084929D01*
X16521071Y-14042071D01*
X16506786Y-14013500D01*
X16478214Y-13970643D01*
X16463928Y-13956357D01*
X9942500Y-14509500D02*
X9942500Y-14609500D01*
X9892500Y-14559500D02*
X9992500Y-14559500D01*
X10421071Y-14695214D02*
X10249643Y-14695214D01*
X10335357Y-14695214D02*
X10335357Y-14395214D01*
X10306786Y-14438071D01*
X10278214Y-14466643D01*
X10249643Y-14480929D01*
X10549643Y-14666643D02*
X10563929Y-14680929D01*
X10549643Y-14695214D01*
X10535357Y-14680929D01*
X10549643Y-14666643D01*
X10549643Y-14695214D01*
X10749643Y-14395214D02*
X10778214Y-14395214D01*
X10806786Y-14409500D01*
X10821071Y-14423786D01*
X10835357Y-14452357D01*
X10849643Y-14509500D01*
X10849643Y-14580929D01*
X10835357Y-14638071D01*
X10821071Y-14666643D01*
X10806786Y-14680929D01*
X10778214Y-14695214D01*
X10749643Y-14695214D01*
X10721071Y-14680929D01*
X10706786Y-14666643D01*
X10692500Y-14638071D01*
X10678214Y-14580929D01*
X10678214Y-14509500D01*
X10692500Y-14452357D01*
X10706786Y-14423786D01*
X10721071Y-14409500D01*
X10749643Y-14395214D01*
X11035357Y-14395214D02*
X11063929Y-14395214D01*
X11092500Y-14409500D01*
X11106786Y-14423786D01*
X11121071Y-14452357D01*
X11135357Y-14509500D01*
X11135357Y-14580929D01*
X11121071Y-14638071D01*
X11106786Y-14666643D01*
X11092500Y-14680929D01*
X11063929Y-14695214D01*
X11035357Y-14695214D01*
X11006786Y-14680929D01*
X10992500Y-14666643D01*
X10978214Y-14638071D01*
X10963929Y-14580929D01*
X10963929Y-14509500D01*
X10978214Y-14452357D01*
X10992500Y-14423786D01*
X11006786Y-14409500D01*
X11035357Y-14395214D01*
X11263928Y-14695214D02*
X11263928Y-14495214D01*
X11263928Y-14523786D02*
X11278214Y-14509500D01*
X11306786Y-14495214D01*
X11349643Y-14495214D01*
X11378214Y-14509500D01*
X11392500Y-14538071D01*
X11392500Y-14695214D01*
X11392500Y-14538071D02*
X11406786Y-14509500D01*
X11435357Y-14495214D01*
X11478214Y-14495214D01*
X11506786Y-14509500D01*
X11521071Y-14538071D01*
X11521071Y-14695214D01*
X11663928Y-14695214D02*
X11663928Y-14495214D01*
X11663928Y-14523786D02*
X11678214Y-14509500D01*
X11706786Y-14495214D01*
X11749643Y-14495214D01*
X11778214Y-14509500D01*
X11792500Y-14538071D01*
X11792500Y-14695214D01*
X11792500Y-14538071D02*
X11806786Y-14509500D01*
X11835357Y-14495214D01*
X11878214Y-14495214D01*
X11906786Y-14509500D01*
X11921071Y-14538071D01*
X11921071Y-14695214D01*
X12506786Y-14380929D02*
X12249643Y-14766643D01*
X12892500Y-14395214D02*
X12921071Y-14395214D01*
X12949643Y-14409500D01*
X12963928Y-14423786D01*
X12978214Y-14452357D01*
X12992500Y-14509500D01*
X12992500Y-14580929D01*
X12978214Y-14638071D01*
X12963928Y-14666643D01*
X12949643Y-14680929D01*
X12921071Y-14695214D01*
X12892500Y-14695214D01*
X12863928Y-14680929D01*
X12849643Y-14666643D01*
X12835357Y-14638071D01*
X12821071Y-14580929D01*
X12821071Y-14509500D01*
X12835357Y-14452357D01*
X12849643Y-14423786D01*
X12863928Y-14409500D01*
X12892500Y-14395214D01*
X13121071Y-14666643D02*
X13135357Y-14680929D01*
X13121071Y-14695214D01*
X13106786Y-14680929D01*
X13121071Y-14666643D01*
X13121071Y-14695214D01*
X13321071Y-14395214D02*
X13349643Y-14395214D01*
X13378214Y-14409500D01*
X13392500Y-14423786D01*
X13406785Y-14452357D01*
X13421071Y-14509500D01*
X13421071Y-14580929D01*
X13406785Y-14638071D01*
X13392500Y-14666643D01*
X13378214Y-14680929D01*
X13349643Y-14695214D01*
X13321071Y-14695214D01*
X13292500Y-14680929D01*
X13278214Y-14666643D01*
X13263928Y-14638071D01*
X13249643Y-14580929D01*
X13249643Y-14509500D01*
X13263928Y-14452357D01*
X13278214Y-14423786D01*
X13292500Y-14409500D01*
X13321071Y-14395214D01*
X13521071Y-14395214D02*
X13706785Y-14395214D01*
X13606785Y-14509500D01*
X13649643Y-14509500D01*
X13678214Y-14523786D01*
X13692500Y-14538071D01*
X13706785Y-14566643D01*
X13706785Y-14638071D01*
X13692500Y-14666643D01*
X13678214Y-14680929D01*
X13649643Y-14695214D01*
X13563928Y-14695214D01*
X13535357Y-14680929D01*
X13521071Y-14666643D01*
X13849643Y-14695214D02*
X13906785Y-14695214D01*
X13935357Y-14680929D01*
X13949643Y-14666643D01*
X13978214Y-14623786D01*
X13992500Y-14566643D01*
X13992500Y-14452357D01*
X13978214Y-14423786D01*
X13963928Y-14409500D01*
X13935357Y-14395214D01*
X13878214Y-14395214D01*
X13849643Y-14409500D01*
X13835357Y-14423786D01*
X13821071Y-14452357D01*
X13821071Y-14523786D01*
X13835357Y-14552357D01*
X13849643Y-14566643D01*
X13878214Y-14580929D01*
X13935357Y-14580929D01*
X13963928Y-14566643D01*
X13978214Y-14552357D01*
X13992500Y-14523786D01*
X14106786Y-14395214D02*
X14106786Y-14452357D01*
X14221071Y-14395214D02*
X14221071Y-14452357D01*
X14663928Y-14809500D02*
X14649643Y-14795214D01*
X14621071Y-14752357D01*
X14606785Y-14723786D01*
X14592500Y-14680929D01*
X14578214Y-14609500D01*
X14578214Y-14552357D01*
X14592500Y-14480929D01*
X14606785Y-14438071D01*
X14621071Y-14409500D01*
X14649643Y-14366643D01*
X14663928Y-14352357D01*
X14763928Y-14423786D02*
X14778214Y-14409500D01*
X14806785Y-14395214D01*
X14878214Y-14395214D01*
X14906785Y-14409500D01*
X14921071Y-14423786D01*
X14935357Y-14452357D01*
X14935357Y-14480929D01*
X14921071Y-14523786D01*
X14749643Y-14695214D01*
X14935357Y-14695214D01*
X15206785Y-14395214D02*
X15063928Y-14395214D01*
X15049643Y-14538071D01*
X15063928Y-14523786D01*
X15092500Y-14509500D01*
X15163928Y-14509500D01*
X15192500Y-14523786D01*
X15206785Y-14538071D01*
X15221071Y-14566643D01*
X15221071Y-14638071D01*
X15206785Y-14666643D01*
X15192500Y-14680929D01*
X15163928Y-14695214D01*
X15092500Y-14695214D01*
X15063928Y-14680929D01*
X15049643Y-14666643D01*
X15578214Y-14695214D02*
X15578214Y-14395214D01*
X15706785Y-14695214D02*
X15706785Y-14538071D01*
X15692500Y-14509500D01*
X15663928Y-14495214D01*
X15621071Y-14495214D01*
X15592500Y-14509500D01*
X15578214Y-14523786D01*
X15892500Y-14695214D02*
X15863928Y-14680929D01*
X15849643Y-14666643D01*
X15835357Y-14638071D01*
X15835357Y-14552357D01*
X15849643Y-14523786D01*
X15863928Y-14509500D01*
X15892500Y-14495214D01*
X15935357Y-14495214D01*
X15963928Y-14509500D01*
X15978214Y-14523786D01*
X15992500Y-14552357D01*
X15992500Y-14638071D01*
X15978214Y-14666643D01*
X15963928Y-14680929D01*
X15935357Y-14695214D01*
X15892500Y-14695214D01*
X16163928Y-14695214D02*
X16135357Y-14680929D01*
X16121071Y-14652357D01*
X16121071Y-14395214D01*
X16392500Y-14680929D02*
X16363928Y-14695214D01*
X16306786Y-14695214D01*
X16278214Y-14680929D01*
X16263928Y-14652357D01*
X16263928Y-14538071D01*
X16278214Y-14509500D01*
X16306786Y-14495214D01*
X16363928Y-14495214D01*
X16392500Y-14509500D01*
X16406786Y-14538071D01*
X16406786Y-14566643D01*
X16263928Y-14595214D01*
X16521071Y-14680929D02*
X16549643Y-14695214D01*
X16606786Y-14695214D01*
X16635357Y-14680929D01*
X16649643Y-14652357D01*
X16649643Y-14638071D01*
X16635357Y-14609500D01*
X16606786Y-14595214D01*
X16563928Y-14595214D01*
X16535357Y-14580929D01*
X16521071Y-14552357D01*
X16521071Y-14538071D01*
X16535357Y-14509500D01*
X16563928Y-14495214D01*
X16606786Y-14495214D01*
X16635357Y-14509500D01*
X16749643Y-14809500D02*
X16763928Y-14795214D01*
X16792500Y-14752357D01*
X16806786Y-14723786D01*
X16821071Y-14680929D01*
X16835357Y-14609500D01*
X16835357Y-14552357D01*
X16821071Y-14480929D01*
X16806786Y-14438071D01*
X16792500Y-14409500D01*
X16763928Y-14366643D01*
X16749643Y-14352357D01*
M02*
