G04 #@! TF.FileFunction,Paste,Top*
%FSLAX46Y46*%
G04 Gerber Fmt 4.6, Leading zero omitted, Abs format (unit mm)*
G04 Created by KiCad (PCBNEW 4.0.2+dfsg1-stable) date Wed 06 Sep 2017 09:14:37 PM CST*
%MOMM*%
G01*
G04 APERTURE LIST*
%ADD10C,0.100000*%
%ADD11R,1.200000X0.600000*%
%ADD12R,0.600000X1.200000*%
%ADD13R,1.000000X1.250000*%
%ADD14R,1.250000X1.000000*%
%ADD15R,1.000000X1.600000*%
%ADD16R,0.900000X0.500000*%
%ADD17R,0.700000X1.300000*%
%ADD18R,1.300000X0.700000*%
%ADD19R,2.200000X1.200000*%
%ADD20R,3.050000X2.750000*%
%ADD21R,3.800000X2.000000*%
%ADD22R,1.500000X2.000000*%
%ADD23R,1.550000X0.600000*%
%ADD24R,1.800000X2.500000*%
%ADD25R,1.200000X1.200000*%
%ADD26R,0.500000X0.900000*%
G04 APERTURE END LIST*
D10*
D11*
X116245000Y-108205500D03*
X116245000Y-107405500D03*
X116245000Y-106605500D03*
X116245000Y-105805500D03*
X116245000Y-105005500D03*
X116245000Y-104205500D03*
X116245000Y-103405500D03*
X116245000Y-102605500D03*
D12*
X114795000Y-101155500D03*
X113995000Y-101155500D03*
X113195000Y-101155500D03*
X112395000Y-101155500D03*
X111595000Y-101155500D03*
X110795000Y-101155500D03*
X109995000Y-101155500D03*
X109195000Y-101155500D03*
D11*
X107745000Y-102605500D03*
X107745000Y-103405500D03*
X107745000Y-104205500D03*
X107745000Y-105005500D03*
X107745000Y-105805500D03*
X107745000Y-106605500D03*
X107745000Y-107405500D03*
X107745000Y-108205500D03*
D12*
X109195000Y-109655500D03*
X109995000Y-109655500D03*
X110795000Y-109655500D03*
X111595000Y-109655500D03*
X112395000Y-109655500D03*
X113195000Y-109655500D03*
X113995000Y-109655500D03*
X114795000Y-109655500D03*
D13*
X114824000Y-84709000D03*
X116824000Y-84709000D03*
D14*
X119697500Y-110077000D03*
X119697500Y-108077000D03*
D15*
X105815000Y-115062000D03*
X108815000Y-115062000D03*
D14*
X110236000Y-124603000D03*
X110236000Y-126603000D03*
X108331000Y-124603000D03*
X108331000Y-126603000D03*
D13*
X120682000Y-113482500D03*
X122682000Y-113482500D03*
X118983000Y-113482500D03*
X116983000Y-113482500D03*
D16*
X121602500Y-108228000D03*
X121602500Y-109728000D03*
D17*
X110304500Y-115316000D03*
X112204500Y-115316000D03*
D18*
X121602500Y-106680000D03*
X121602500Y-104780000D03*
X119697500Y-104775000D03*
X119697500Y-106675000D03*
D16*
X119507000Y-91694000D03*
X119507000Y-90194000D03*
X109855000Y-86447500D03*
X109855000Y-87947500D03*
X119507000Y-89090500D03*
X119507000Y-87590500D03*
X109855000Y-89027000D03*
X109855000Y-90527000D03*
X119507000Y-86463000D03*
X119507000Y-84963000D03*
D19*
X106353500Y-117671500D03*
X106353500Y-122231500D03*
D20*
X114328500Y-121476500D03*
X110978500Y-118426500D03*
X114328500Y-118426500D03*
X110978500Y-121476500D03*
D21*
X119840500Y-115730000D03*
D22*
X119840500Y-122030000D03*
X122140500Y-122030000D03*
X117540500Y-122030000D03*
D23*
X111917500Y-86423500D03*
X111917500Y-87693500D03*
X111917500Y-88963500D03*
X111917500Y-90233500D03*
X117317500Y-90233500D03*
X117317500Y-88963500D03*
X117317500Y-87693500D03*
X117317500Y-86423500D03*
D24*
X102552500Y-117888000D03*
X102552500Y-121888000D03*
D18*
X119634000Y-99364800D03*
X119634000Y-97464800D03*
D25*
X119634000Y-103182600D03*
X119634000Y-100982600D03*
D13*
X107140500Y-99568000D03*
X109140500Y-99568000D03*
D26*
X114121500Y-115633500D03*
X115621500Y-115633500D03*
X115621500Y-114173000D03*
X114121500Y-114173000D03*
X101383400Y-113487200D03*
X102883400Y-113487200D03*
D13*
X111268000Y-84709000D03*
X113268000Y-84709000D03*
M02*
