G04 #@! TF.FileFunction,Soldermask,Bot*
%FSLAX46Y46*%
G04 Gerber Fmt 4.6, Leading zero omitted, Abs format (unit mm)*
G04 Created by KiCad (PCBNEW 4.0.2-stable) date 9/8/2017 10:59:45 PM*
%MOMM*%
G01*
G04 APERTURE LIST*
%ADD10C,0.100000*%
%ADD11O,1.600000X0.900000*%
%ADD12R,1.700000X1.700000*%
%ADD13O,1.700000X1.700000*%
%ADD14R,1.350000X1.350000*%
%ADD15O,1.350000X1.350000*%
G04 APERTURE END LIST*
D10*
D11*
X193682000Y-134119000D03*
X193682000Y-135389000D03*
X193682000Y-136659000D03*
X193682000Y-137929000D03*
X193682000Y-139199000D03*
X193682000Y-140469000D03*
X193682000Y-141739000D03*
X193682000Y-143009000D03*
X168682000Y-134119000D03*
X168682000Y-135389000D03*
X168682000Y-136659000D03*
X168682000Y-137929000D03*
X168682000Y-139199000D03*
X168682000Y-140469000D03*
X168682000Y-141739000D03*
X168682000Y-143009000D03*
X143682000Y-134119000D03*
X143682000Y-135389000D03*
X143682000Y-136659000D03*
X143682000Y-137929000D03*
X143682000Y-139199000D03*
X143682000Y-140469000D03*
X143682000Y-141739000D03*
X143682000Y-143009000D03*
X118682000Y-134119000D03*
X118682000Y-135389000D03*
X118682000Y-136659000D03*
X118682000Y-137929000D03*
X118682000Y-139199000D03*
X118682000Y-140469000D03*
X118682000Y-141739000D03*
X118682000Y-143009000D03*
X193682000Y-84119000D03*
X193682000Y-85389000D03*
X193682000Y-86659000D03*
X193682000Y-87929000D03*
X193682000Y-89199000D03*
X193682000Y-90469000D03*
X193682000Y-91739000D03*
X193682000Y-93009000D03*
X168682000Y-84119000D03*
X168682000Y-85389000D03*
X168682000Y-86659000D03*
X168682000Y-87929000D03*
X168682000Y-89199000D03*
X168682000Y-90469000D03*
X168682000Y-91739000D03*
X168682000Y-93009000D03*
X143682000Y-84119000D03*
X143682000Y-85389000D03*
X143682000Y-86659000D03*
X143682000Y-87929000D03*
X143682000Y-89199000D03*
X143682000Y-90469000D03*
X143682000Y-91739000D03*
X143682000Y-93009000D03*
D12*
X179673600Y-175857200D03*
D13*
X177133600Y-175857200D03*
D12*
X154673600Y-175857200D03*
D13*
X152133600Y-175857200D03*
D12*
X129673600Y-175857200D03*
D13*
X127133600Y-175857200D03*
D12*
X104673600Y-175857200D03*
D13*
X102133600Y-175857200D03*
D12*
X179673600Y-125857200D03*
D13*
X177133600Y-125857200D03*
D12*
X154673600Y-125857200D03*
D13*
X152133600Y-125857200D03*
D12*
X129673600Y-125857200D03*
D13*
X127133600Y-125857200D03*
D12*
X177235000Y-130010000D03*
D13*
X179775000Y-130010000D03*
X182315000Y-130010000D03*
X184855000Y-130010000D03*
X187395000Y-130010000D03*
X189935000Y-130010000D03*
X192475000Y-130010000D03*
X195015000Y-130010000D03*
X197555000Y-130010000D03*
D12*
X152235000Y-130010000D03*
D13*
X154775000Y-130010000D03*
X157315000Y-130010000D03*
X159855000Y-130010000D03*
X162395000Y-130010000D03*
X164935000Y-130010000D03*
X167475000Y-130010000D03*
X170015000Y-130010000D03*
X172555000Y-130010000D03*
D12*
X127235000Y-130010000D03*
D13*
X129775000Y-130010000D03*
X132315000Y-130010000D03*
X134855000Y-130010000D03*
X137395000Y-130010000D03*
X139935000Y-130010000D03*
X142475000Y-130010000D03*
X145015000Y-130010000D03*
X147555000Y-130010000D03*
D12*
X102235000Y-130010000D03*
D13*
X104775000Y-130010000D03*
X107315000Y-130010000D03*
X109855000Y-130010000D03*
X112395000Y-130010000D03*
X114935000Y-130010000D03*
X117475000Y-130010000D03*
X120015000Y-130010000D03*
X122555000Y-130010000D03*
D12*
X177235000Y-80010000D03*
D13*
X179775000Y-80010000D03*
X182315000Y-80010000D03*
X184855000Y-80010000D03*
X187395000Y-80010000D03*
X189935000Y-80010000D03*
X192475000Y-80010000D03*
X195015000Y-80010000D03*
X197555000Y-80010000D03*
D12*
X152235000Y-80010000D03*
D13*
X154775000Y-80010000D03*
X157315000Y-80010000D03*
X159855000Y-80010000D03*
X162395000Y-80010000D03*
X164935000Y-80010000D03*
X167475000Y-80010000D03*
X170015000Y-80010000D03*
X172555000Y-80010000D03*
D12*
X127235000Y-80010000D03*
D13*
X129775000Y-80010000D03*
X132315000Y-80010000D03*
X134855000Y-80010000D03*
X137395000Y-80010000D03*
X139935000Y-80010000D03*
X142475000Y-80010000D03*
X145015000Y-80010000D03*
X147555000Y-80010000D03*
D12*
X197936000Y-134645500D03*
D13*
X197936000Y-137185500D03*
X197936000Y-139725500D03*
X197936000Y-142265500D03*
D12*
X172936000Y-134645500D03*
D13*
X172936000Y-137185500D03*
X172936000Y-139725500D03*
X172936000Y-142265500D03*
D12*
X147936000Y-134645500D03*
D13*
X147936000Y-137185500D03*
X147936000Y-139725500D03*
X147936000Y-142265500D03*
D12*
X122936000Y-134645500D03*
D13*
X122936000Y-137185500D03*
X122936000Y-139725500D03*
X122936000Y-142265500D03*
D12*
X197936000Y-84645500D03*
D13*
X197936000Y-87185500D03*
X197936000Y-89725500D03*
X197936000Y-92265500D03*
D12*
X172936000Y-84645500D03*
D13*
X172936000Y-87185500D03*
X172936000Y-89725500D03*
X172936000Y-92265500D03*
D12*
X147936000Y-84645500D03*
D13*
X147936000Y-87185500D03*
X147936000Y-89725500D03*
X147936000Y-92265500D03*
D12*
X194812000Y-176111200D03*
D13*
X192272000Y-176111200D03*
X189732000Y-176111200D03*
D12*
X169812000Y-176111200D03*
D13*
X167272000Y-176111200D03*
X164732000Y-176111200D03*
D12*
X144812000Y-176111200D03*
D13*
X142272000Y-176111200D03*
X139732000Y-176111200D03*
D12*
X119812000Y-176111200D03*
D13*
X117272000Y-176111200D03*
X114732000Y-176111200D03*
D12*
X194812000Y-126111200D03*
D13*
X192272000Y-126111200D03*
X189732000Y-126111200D03*
D12*
X169812000Y-126111200D03*
D13*
X167272000Y-126111200D03*
X164732000Y-126111200D03*
D12*
X144812000Y-126111200D03*
D13*
X142272000Y-126111200D03*
X139732000Y-126111200D03*
D12*
X197936000Y-146139000D03*
D13*
X197936000Y-148679000D03*
X197936000Y-151219000D03*
D12*
X172936000Y-146139000D03*
D13*
X172936000Y-148679000D03*
X172936000Y-151219000D03*
D12*
X147936000Y-146139000D03*
D13*
X147936000Y-148679000D03*
X147936000Y-151219000D03*
D12*
X122936000Y-146139000D03*
D13*
X122936000Y-148679000D03*
X122936000Y-151219000D03*
D12*
X197936000Y-96139000D03*
D13*
X197936000Y-98679000D03*
X197936000Y-101219000D03*
D12*
X172936000Y-96139000D03*
D13*
X172936000Y-98679000D03*
X172936000Y-101219000D03*
D12*
X147936000Y-96139000D03*
D13*
X147936000Y-98679000D03*
X147936000Y-101219000D03*
D12*
X177362000Y-147726500D03*
D13*
X177362000Y-150266500D03*
X177362000Y-152806500D03*
X177362000Y-155346500D03*
D12*
X152362000Y-147726500D03*
D13*
X152362000Y-150266500D03*
X152362000Y-152806500D03*
X152362000Y-155346500D03*
D12*
X127362000Y-147726500D03*
D13*
X127362000Y-150266500D03*
X127362000Y-152806500D03*
X127362000Y-155346500D03*
D12*
X102362000Y-147726500D03*
D13*
X102362000Y-150266500D03*
X102362000Y-152806500D03*
X102362000Y-155346500D03*
D12*
X177362000Y-97726500D03*
D13*
X177362000Y-100266500D03*
X177362000Y-102806500D03*
X177362000Y-105346500D03*
D12*
X152362000Y-97726500D03*
D13*
X152362000Y-100266500D03*
X152362000Y-102806500D03*
X152362000Y-105346500D03*
D12*
X127362000Y-97726500D03*
D13*
X127362000Y-100266500D03*
X127362000Y-102806500D03*
X127362000Y-105346500D03*
D14*
X177387400Y-158940600D03*
D15*
X177387400Y-160940600D03*
D14*
X152387400Y-158940600D03*
D15*
X152387400Y-160940600D03*
D14*
X127387400Y-158940600D03*
D15*
X127387400Y-160940600D03*
D14*
X102387400Y-158940600D03*
D15*
X102387400Y-160940600D03*
D14*
X177387400Y-108940600D03*
D15*
X177387400Y-110940600D03*
D14*
X152387400Y-108940600D03*
D15*
X152387400Y-110940600D03*
D14*
X127387400Y-108940600D03*
D15*
X127387400Y-110940600D03*
D12*
X102362000Y-97726500D03*
D13*
X102362000Y-100266500D03*
X102362000Y-102806500D03*
X102362000Y-105346500D03*
D12*
X104673600Y-125857200D03*
D13*
X102133600Y-125857200D03*
D12*
X119812000Y-126111200D03*
D13*
X117272000Y-126111200D03*
X114732000Y-126111200D03*
D12*
X122936000Y-96139000D03*
D13*
X122936000Y-98679000D03*
X122936000Y-101219000D03*
D11*
X118682000Y-84119000D03*
X118682000Y-85389000D03*
X118682000Y-86659000D03*
X118682000Y-87929000D03*
X118682000Y-89199000D03*
X118682000Y-90469000D03*
X118682000Y-91739000D03*
X118682000Y-93009000D03*
D12*
X102235000Y-80010000D03*
D13*
X104775000Y-80010000D03*
X107315000Y-80010000D03*
X109855000Y-80010000D03*
X112395000Y-80010000D03*
X114935000Y-80010000D03*
X117475000Y-80010000D03*
X120015000Y-80010000D03*
X122555000Y-80010000D03*
D12*
X122936000Y-84645500D03*
D13*
X122936000Y-87185500D03*
X122936000Y-89725500D03*
X122936000Y-92265500D03*
D14*
X102387400Y-108940600D03*
D15*
X102387400Y-110940600D03*
M02*
