M48
;DRILL file {KiCad 4.0.2-stable} date 9/8/2017 10:59:48 PM
;FORMAT={3:3/ absolute / metric / suppress leading zeros}
FMAT,2
METRIC,TZ
T1C0.400
T2C0.800
T3C1.000
%
G90
G05
M71
T1
X103226Y-115113
X103226Y-165113
X105105Y-112548
X105105Y-162548
X105420Y-103679
X105420Y-153679
X105454Y-105778
X105454Y-155778
X105729Y-105027
X105729Y-155027
X106045Y-102235
X106045Y-152235
X106941Y-111785
X106941Y-161785
X107696Y-111252
X107696Y-161252
X108302Y-101498
X108302Y-151498
X109118Y-111608
X109118Y-161608
X109601Y-94996
X109601Y-144996
X110236Y-94424
X110236Y-144425
X110250Y-92250
X110250Y-142250
X110490Y-114097
X110490Y-164097
X110642Y-110795
X110642Y-160795
X111593Y-105111
X111593Y-155111
X112360Y-104486
X112360Y-154486
X113983Y-93472
X113983Y-143472
X114224Y-102641
X114224Y-152641
X114266Y-108086
X114266Y-158086
X114618Y-94171
X114618Y-144171
X114808Y-88900
X114808Y-138900
X114910Y-103861
X114910Y-153861
X115027Y-105536
X115027Y-155536
X115037Y-107047
X115037Y-157047
X115071Y-102698
X115071Y-152698
X115253Y-94869
X115253Y-144869
X115799Y-85877
X115799Y-135877
X115888Y-95631
X115888Y-145631
X115926Y-112319
X115926Y-162319
X116027Y-91948
X116027Y-141948
X116965Y-83693
X116965Y-133693
X117475Y-101537
X117475Y-151536
X117907Y-102845
X117907Y-152845
X119507Y-95961
X119507Y-145961
X120726Y-112395
X120726Y-162395
X120750Y-107500
X120750Y-157500
X120828Y-97739
X120828Y-147739
X122746Y-112014
X122746Y-162014
X122885Y-109957
X122885Y-159957
X128226Y-115113
X128226Y-165113
X130105Y-112548
X130105Y-162548
X130420Y-103679
X130420Y-153679
X130454Y-105778
X130454Y-155778
X130729Y-105027
X130729Y-155027
X131045Y-102235
X131045Y-152235
X131941Y-111785
X131941Y-161785
X132696Y-111252
X132696Y-161252
X133302Y-101498
X133302Y-151498
X134118Y-111608
X134118Y-161608
X134601Y-94996
X134601Y-144996
X135236Y-94424
X135236Y-144425
X135250Y-92250
X135250Y-142250
X135490Y-114097
X135490Y-164097
X135642Y-110795
X135642Y-160795
X136593Y-105111
X136593Y-155111
X137360Y-104486
X137360Y-154486
X138982Y-93472
X138982Y-143472
X139224Y-102641
X139224Y-152641
X139266Y-108086
X139266Y-158086
X139618Y-94171
X139618Y-144171
X139808Y-88900
X139808Y-138900
X139910Y-103861
X139910Y-153861
X140027Y-105536
X140027Y-155536
X140037Y-107047
X140037Y-157047
X140071Y-102698
X140071Y-152698
X140253Y-94869
X140253Y-144869
X140799Y-85877
X140799Y-135877
X140888Y-95631
X140888Y-145631
X140926Y-112319
X140926Y-162319
X141027Y-91948
X141027Y-141948
X141965Y-83693
X141965Y-133693
X142475Y-101537
X142475Y-151536
X142907Y-102845
X142907Y-152845
X144507Y-95961
X144507Y-145961
X145726Y-112395
X145726Y-162395
X145750Y-107500
X145750Y-157500
X145828Y-97739
X145828Y-147739
X147746Y-112014
X147746Y-162014
X147885Y-109957
X147885Y-159957
X153226Y-115113
X153226Y-165113
X155105Y-112548
X155105Y-162548
X155420Y-103679
X155420Y-153679
X155454Y-105778
X155454Y-155778
X155729Y-105027
X155729Y-155027
X156045Y-102235
X156045Y-152235
X156941Y-111785
X156941Y-161785
X157696Y-111252
X157696Y-161252
X158302Y-101498
X158302Y-151498
X159118Y-111608
X159118Y-161608
X159601Y-94996
X159601Y-144996
X160236Y-94424
X160236Y-144425
X160250Y-92250
X160250Y-142250
X160490Y-114097
X160490Y-164097
X160642Y-110795
X160642Y-160795
X161593Y-105111
X161593Y-155111
X162360Y-104486
X162360Y-154486
X163983Y-93472
X163983Y-143472
X164224Y-102641
X164224Y-152641
X164266Y-108086
X164266Y-158086
X164617Y-94171
X164617Y-144171
X164808Y-88900
X164808Y-138900
X164910Y-103861
X164910Y-153861
X165027Y-105536
X165027Y-155536
X165037Y-107047
X165037Y-157047
X165071Y-102698
X165071Y-152698
X165253Y-94869
X165253Y-144869
X165799Y-85877
X165799Y-135877
X165888Y-95631
X165888Y-145631
X165926Y-112319
X165926Y-162319
X166027Y-91948
X166027Y-141948
X166965Y-83693
X166965Y-133693
X167475Y-101537
X167475Y-151536
X167907Y-102845
X167907Y-152845
X169507Y-95961
X169507Y-145961
X170726Y-112395
X170726Y-162395
X170750Y-107500
X170750Y-157500
X170828Y-97739
X170828Y-147739
X172746Y-112014
X172746Y-162014
X172885Y-109957
X172885Y-159957
X178226Y-115113
X178226Y-165113
X180105Y-112548
X180105Y-162548
X180420Y-103679
X180420Y-153679
X180454Y-105778
X180454Y-155778
X180729Y-105027
X180729Y-155027
X181045Y-102235
X181045Y-152235
X181941Y-111785
X181941Y-161785
X182696Y-111252
X182696Y-161252
X183302Y-101498
X183302Y-151498
X184118Y-111608
X184118Y-161608
X184601Y-94996
X184601Y-144996
X185236Y-94424
X185236Y-144425
X185250Y-92250
X185250Y-142250
X185490Y-114097
X185490Y-164097
X185642Y-110795
X185642Y-160795
X186593Y-105111
X186593Y-155111
X187360Y-104486
X187360Y-154486
X188983Y-93472
X188983Y-143472
X189224Y-102641
X189224Y-152641
X189266Y-108086
X189266Y-158086
X189617Y-94171
X189617Y-144171
X189808Y-88900
X189808Y-138900
X189910Y-103861
X189910Y-153861
X190027Y-105536
X190027Y-155536
X190037Y-107047
X190037Y-157047
X190071Y-102698
X190071Y-152698
X190253Y-94869
X190253Y-144869
X190799Y-85877
X190799Y-135877
X190888Y-95631
X190888Y-145631
X190926Y-112319
X190926Y-162319
X191027Y-91948
X191027Y-141948
X191965Y-83693
X191965Y-133693
X192475Y-101537
X192475Y-151536
X192907Y-102845
X192907Y-152845
X194507Y-95961
X194507Y-145961
X195726Y-112395
X195726Y-162395
X195750Y-107500
X195750Y-157500
X195828Y-97739
X195828Y-147739
X197746Y-112014
X197746Y-162014
X197885Y-109957
X197885Y-159957
T2
X102387Y-108941
X102387Y-110941
X102387Y-158941
X102387Y-160941
X127387Y-108941
X127387Y-110941
X127387Y-158941
X127387Y-160941
X152387Y-108941
X152387Y-110941
X152387Y-158941
X152387Y-160941
X177387Y-108941
X177387Y-110941
X177387Y-158941
X177387Y-160941
T3
X102134Y-125857
X102134Y-175857
X102235Y-80010
X102235Y-130010
X102362Y-97727
X102362Y-100267
X102362Y-102807
X102362Y-105347
X102362Y-147726
X102362Y-150266
X102362Y-152807
X102362Y-155347
X104674Y-125857
X104674Y-175857
X104775Y-80010
X104775Y-130010
X107315Y-80010
X107315Y-130010
X109855Y-80010
X109855Y-130010
X112395Y-80010
X112395Y-130010
X114732Y-126111
X114732Y-176111
X114935Y-80010
X114935Y-130010
X117272Y-126111
X117272Y-176111
X117475Y-80010
X117475Y-130010
X119812Y-126111
X119812Y-176111
X120015Y-80010
X120015Y-130010
X122555Y-80010
X122555Y-130010
X122936Y-84646
X122936Y-87186
X122936Y-89726
X122936Y-92266
X122936Y-96139
X122936Y-98679
X122936Y-101219
X122936Y-134646
X122936Y-137186
X122936Y-139726
X122936Y-142266
X122936Y-146139
X122936Y-148679
X122936Y-151219
X127134Y-125857
X127134Y-175857
X127235Y-80010
X127235Y-130010
X127362Y-97727
X127362Y-100267
X127362Y-102807
X127362Y-105347
X127362Y-147726
X127362Y-150266
X127362Y-152807
X127362Y-155347
X129674Y-125857
X129674Y-175857
X129775Y-80010
X129775Y-130010
X132315Y-80010
X132315Y-130010
X134855Y-80010
X134855Y-130010
X137395Y-80010
X137395Y-130010
X139732Y-126111
X139732Y-176111
X139935Y-80010
X139935Y-130010
X142272Y-126111
X142272Y-176111
X142475Y-80010
X142475Y-130010
X144812Y-126111
X144812Y-176111
X145015Y-80010
X145015Y-130010
X147555Y-80010
X147555Y-130010
X147936Y-84646
X147936Y-87186
X147936Y-89726
X147936Y-92266
X147936Y-96139
X147936Y-98679
X147936Y-101219
X147936Y-134646
X147936Y-137186
X147936Y-139726
X147936Y-142266
X147936Y-146139
X147936Y-148679
X147936Y-151219
X152134Y-125857
X152134Y-175857
X152235Y-80010
X152235Y-130010
X152362Y-97727
X152362Y-100267
X152362Y-102807
X152362Y-105347
X152362Y-147726
X152362Y-150266
X152362Y-152807
X152362Y-155347
X154674Y-125857
X154674Y-175857
X154775Y-80010
X154775Y-130010
X157315Y-80010
X157315Y-130010
X159855Y-80010
X159855Y-130010
X162395Y-80010
X162395Y-130010
X164732Y-126111
X164732Y-176111
X164935Y-80010
X164935Y-130010
X167272Y-126111
X167272Y-176111
X167475Y-80010
X167475Y-130010
X169812Y-126111
X169812Y-176111
X170015Y-80010
X170015Y-130010
X172555Y-80010
X172555Y-130010
X172936Y-84646
X172936Y-87186
X172936Y-89726
X172936Y-92266
X172936Y-96139
X172936Y-98679
X172936Y-101219
X172936Y-134646
X172936Y-137186
X172936Y-139726
X172936Y-142266
X172936Y-146139
X172936Y-148679
X172936Y-151219
X177134Y-125857
X177134Y-175857
X177235Y-80010
X177235Y-130010
X177362Y-97727
X177362Y-100267
X177362Y-102807
X177362Y-105347
X177362Y-147726
X177362Y-150266
X177362Y-152807
X177362Y-155347
X179674Y-125857
X179674Y-175857
X179775Y-80010
X179775Y-130010
X182315Y-80010
X182315Y-130010
X184855Y-80010
X184855Y-130010
X187395Y-80010
X187395Y-130010
X189732Y-126111
X189732Y-176111
X189935Y-80010
X189935Y-130010
X192272Y-126111
X192272Y-176111
X192475Y-80010
X192475Y-130010
X194812Y-126111
X194812Y-176111
X195015Y-80010
X195015Y-130010
X197555Y-80010
X197555Y-130010
X197936Y-84646
X197936Y-87186
X197936Y-89726
X197936Y-92266
X197936Y-96139
X197936Y-98679
X197936Y-101219
X197936Y-134646
X197936Y-137186
X197936Y-139726
X197936Y-142266
X197936Y-146139
X197936Y-148679
X197936Y-151219
T0
M30
