G04 #@! TF.FileFunction,Soldermask,Top*
%FSLAX46Y46*%
G04 Gerber Fmt 4.6, Leading zero omitted, Abs format (unit mm)*
G04 Created by KiCad (PCBNEW 4.0.2-stable) date 9/8/2017 10:59:45 PM*
%MOMM*%
G01*
G04 APERTURE LIST*
%ADD10C,0.100000*%
%ADD11R,1.700000X1.700000*%
%ADD12O,1.700000X1.700000*%
%ADD13R,0.500000X0.900000*%
%ADD14R,1.800000X2.500000*%
%ADD15R,1.000000X1.600000*%
%ADD16R,1.000000X1.250000*%
%ADD17R,1.550000X0.600000*%
%ADD18R,0.900000X0.500000*%
%ADD19R,2.200000X1.200000*%
%ADD20R,6.400000X5.800000*%
%ADD21R,1.250000X1.000000*%
%ADD22R,3.800000X2.000000*%
%ADD23R,1.500000X2.000000*%
%ADD24R,1.060000X0.650000*%
%ADD25R,0.700000X1.300000*%
%ADD26R,1.200000X1.200000*%
%ADD27R,1.300000X0.700000*%
%ADD28R,1.200000X0.600000*%
%ADD29R,0.600000X1.200000*%
%ADD30R,1.350000X1.350000*%
%ADD31O,1.350000X1.350000*%
G04 APERTURE END LIST*
D10*
D11*
X179673600Y-175857200D03*
D12*
X177133600Y-175857200D03*
D11*
X154673600Y-175857200D03*
D12*
X152133600Y-175857200D03*
D11*
X129673600Y-175857200D03*
D12*
X127133600Y-175857200D03*
D11*
X104673600Y-175857200D03*
D12*
X102133600Y-175857200D03*
D11*
X179673600Y-125857200D03*
D12*
X177133600Y-125857200D03*
D11*
X154673600Y-125857200D03*
D12*
X152133600Y-125857200D03*
D11*
X129673600Y-125857200D03*
D12*
X127133600Y-125857200D03*
D13*
X176662800Y-163233200D03*
X178162800Y-163233200D03*
X151662800Y-163233200D03*
X153162800Y-163233200D03*
X126662800Y-163233200D03*
X128162800Y-163233200D03*
X101662800Y-163233200D03*
X103162800Y-163233200D03*
X176662800Y-113233200D03*
X178162800Y-113233200D03*
X151662800Y-113233200D03*
X153162800Y-113233200D03*
X126662800Y-113233200D03*
X128162800Y-113233200D03*
D14*
X177552500Y-167888000D03*
X177552500Y-171888000D03*
X152552500Y-167888000D03*
X152552500Y-171888000D03*
X127552500Y-167888000D03*
X127552500Y-171888000D03*
X102552500Y-167888000D03*
X102552500Y-171888000D03*
X177552500Y-117888000D03*
X177552500Y-121888000D03*
X152552500Y-117888000D03*
X152552500Y-121888000D03*
X127552500Y-117888000D03*
X127552500Y-121888000D03*
D15*
X176624000Y-165112800D03*
X179624000Y-165112800D03*
X151624000Y-165112800D03*
X154624000Y-165112800D03*
X126624000Y-165112800D03*
X129624000Y-165112800D03*
X101624000Y-165112800D03*
X104624000Y-165112800D03*
X176624000Y-115112800D03*
X179624000Y-115112800D03*
X151624000Y-115112800D03*
X154624000Y-115112800D03*
X126624000Y-115112800D03*
X129624000Y-115112800D03*
D11*
X177235000Y-130010000D03*
D12*
X179775000Y-130010000D03*
X182315000Y-130010000D03*
X184855000Y-130010000D03*
X187395000Y-130010000D03*
X189935000Y-130010000D03*
X192475000Y-130010000D03*
X195015000Y-130010000D03*
X197555000Y-130010000D03*
D11*
X152235000Y-130010000D03*
D12*
X154775000Y-130010000D03*
X157315000Y-130010000D03*
X159855000Y-130010000D03*
X162395000Y-130010000D03*
X164935000Y-130010000D03*
X167475000Y-130010000D03*
X170015000Y-130010000D03*
X172555000Y-130010000D03*
D11*
X127235000Y-130010000D03*
D12*
X129775000Y-130010000D03*
X132315000Y-130010000D03*
X134855000Y-130010000D03*
X137395000Y-130010000D03*
X139935000Y-130010000D03*
X142475000Y-130010000D03*
X145015000Y-130010000D03*
X147555000Y-130010000D03*
D11*
X102235000Y-130010000D03*
D12*
X104775000Y-130010000D03*
X107315000Y-130010000D03*
X109855000Y-130010000D03*
X112395000Y-130010000D03*
X114935000Y-130010000D03*
X117475000Y-130010000D03*
X120015000Y-130010000D03*
X122555000Y-130010000D03*
D11*
X177235000Y-80010000D03*
D12*
X179775000Y-80010000D03*
X182315000Y-80010000D03*
X184855000Y-80010000D03*
X187395000Y-80010000D03*
X189935000Y-80010000D03*
X192475000Y-80010000D03*
X195015000Y-80010000D03*
X197555000Y-80010000D03*
D11*
X152235000Y-80010000D03*
D12*
X154775000Y-80010000D03*
X157315000Y-80010000D03*
X159855000Y-80010000D03*
X162395000Y-80010000D03*
X164935000Y-80010000D03*
X167475000Y-80010000D03*
X170015000Y-80010000D03*
X172555000Y-80010000D03*
D11*
X127235000Y-80010000D03*
D12*
X129775000Y-80010000D03*
X132315000Y-80010000D03*
X134855000Y-80010000D03*
X137395000Y-80010000D03*
X139935000Y-80010000D03*
X142475000Y-80010000D03*
X145015000Y-80010000D03*
X147555000Y-80010000D03*
D16*
X186268000Y-134709000D03*
X188268000Y-134709000D03*
X161268000Y-134709000D03*
X163268000Y-134709000D03*
X136268000Y-134709000D03*
X138268000Y-134709000D03*
X111268000Y-134709000D03*
X113268000Y-134709000D03*
X186268000Y-84709000D03*
X188268000Y-84709000D03*
X161268000Y-84709000D03*
X163268000Y-84709000D03*
X136268000Y-84709000D03*
X138268000Y-84709000D03*
D11*
X197936000Y-134645500D03*
D12*
X197936000Y-137185500D03*
X197936000Y-139725500D03*
X197936000Y-142265500D03*
D11*
X172936000Y-134645500D03*
D12*
X172936000Y-137185500D03*
X172936000Y-139725500D03*
X172936000Y-142265500D03*
D11*
X147936000Y-134645500D03*
D12*
X147936000Y-137185500D03*
X147936000Y-139725500D03*
X147936000Y-142265500D03*
D11*
X122936000Y-134645500D03*
D12*
X122936000Y-137185500D03*
X122936000Y-139725500D03*
X122936000Y-142265500D03*
D11*
X197936000Y-84645500D03*
D12*
X197936000Y-87185500D03*
X197936000Y-89725500D03*
X197936000Y-92265500D03*
D11*
X172936000Y-84645500D03*
D12*
X172936000Y-87185500D03*
X172936000Y-89725500D03*
X172936000Y-92265500D03*
D11*
X147936000Y-84645500D03*
D12*
X147936000Y-87185500D03*
X147936000Y-89725500D03*
X147936000Y-92265500D03*
D17*
X186917500Y-136423500D03*
X186917500Y-137693500D03*
X186917500Y-138963500D03*
X186917500Y-140233500D03*
X192317500Y-140233500D03*
X192317500Y-138963500D03*
X192317500Y-137693500D03*
X192317500Y-136423500D03*
X161917500Y-136423500D03*
X161917500Y-137693500D03*
X161917500Y-138963500D03*
X161917500Y-140233500D03*
X167317500Y-140233500D03*
X167317500Y-138963500D03*
X167317500Y-137693500D03*
X167317500Y-136423500D03*
X136917500Y-136423500D03*
X136917500Y-137693500D03*
X136917500Y-138963500D03*
X136917500Y-140233500D03*
X142317500Y-140233500D03*
X142317500Y-138963500D03*
X142317500Y-137693500D03*
X142317500Y-136423500D03*
X111917500Y-136423500D03*
X111917500Y-137693500D03*
X111917500Y-138963500D03*
X111917500Y-140233500D03*
X117317500Y-140233500D03*
X117317500Y-138963500D03*
X117317500Y-137693500D03*
X117317500Y-136423500D03*
X186917500Y-86423500D03*
X186917500Y-87693500D03*
X186917500Y-88963500D03*
X186917500Y-90233500D03*
X192317500Y-90233500D03*
X192317500Y-88963500D03*
X192317500Y-87693500D03*
X192317500Y-86423500D03*
X161917500Y-86423500D03*
X161917500Y-87693500D03*
X161917500Y-88963500D03*
X161917500Y-90233500D03*
X167317500Y-90233500D03*
X167317500Y-88963500D03*
X167317500Y-87693500D03*
X167317500Y-86423500D03*
X136917500Y-86423500D03*
X136917500Y-87693500D03*
X136917500Y-88963500D03*
X136917500Y-90233500D03*
X142317500Y-90233500D03*
X142317500Y-88963500D03*
X142317500Y-87693500D03*
X142317500Y-86423500D03*
D18*
X184855000Y-136447500D03*
X184855000Y-137947500D03*
X159855000Y-136447500D03*
X159855000Y-137947500D03*
X134855000Y-136447500D03*
X134855000Y-137947500D03*
X109855000Y-136447500D03*
X109855000Y-137947500D03*
X184855000Y-86447500D03*
X184855000Y-87947500D03*
X159855000Y-86447500D03*
X159855000Y-87947500D03*
X134855000Y-86447500D03*
X134855000Y-87947500D03*
X184855000Y-139027000D03*
X184855000Y-140527000D03*
X159855000Y-139027000D03*
X159855000Y-140527000D03*
X134855000Y-139027000D03*
X134855000Y-140527000D03*
X109855000Y-139027000D03*
X109855000Y-140527000D03*
X184855000Y-89027000D03*
X184855000Y-90527000D03*
X159855000Y-89027000D03*
X159855000Y-90527000D03*
X134855000Y-89027000D03*
X134855000Y-90527000D03*
D19*
X181353500Y-167671500D03*
X181353500Y-172231500D03*
D20*
X187653500Y-169951500D03*
D19*
X156353500Y-167671500D03*
X156353500Y-172231500D03*
D20*
X162653500Y-169951500D03*
D19*
X131353500Y-167671500D03*
X131353500Y-172231500D03*
D20*
X137653500Y-169951500D03*
D19*
X106353500Y-167671500D03*
X106353500Y-172231500D03*
D20*
X112653500Y-169951500D03*
D19*
X181353500Y-117671500D03*
X181353500Y-122231500D03*
D20*
X187653500Y-119951500D03*
D19*
X156353500Y-117671500D03*
X156353500Y-122231500D03*
D20*
X162653500Y-119951500D03*
D19*
X131353500Y-117671500D03*
X131353500Y-122231500D03*
D20*
X137653500Y-119951500D03*
D21*
X183331000Y-174603000D03*
X183331000Y-176603000D03*
X158331000Y-174603000D03*
X158331000Y-176603000D03*
X133331000Y-174603000D03*
X133331000Y-176603000D03*
X108331000Y-174603000D03*
X108331000Y-176603000D03*
X183331000Y-124603000D03*
X183331000Y-126603000D03*
X158331000Y-124603000D03*
X158331000Y-126603000D03*
X133331000Y-124603000D03*
X133331000Y-126603000D03*
X185236000Y-174603000D03*
X185236000Y-176603000D03*
X160236000Y-174603000D03*
X160236000Y-176603000D03*
X135236000Y-174603000D03*
X135236000Y-176603000D03*
X110236000Y-174603000D03*
X110236000Y-176603000D03*
X185236000Y-124603000D03*
X185236000Y-126603000D03*
X160236000Y-124603000D03*
X160236000Y-126603000D03*
X135236000Y-124603000D03*
X135236000Y-126603000D03*
D13*
X193238400Y-161760000D03*
X191738400Y-161760000D03*
X168238400Y-161760000D03*
X166738400Y-161760000D03*
X143238400Y-161760000D03*
X141738400Y-161760000D03*
X118238400Y-161760000D03*
X116738400Y-161760000D03*
X193238400Y-111760000D03*
X191738400Y-111760000D03*
X168238400Y-111760000D03*
X166738400Y-111760000D03*
X143238400Y-111760000D03*
X141738400Y-111760000D03*
D16*
X195682000Y-163482500D03*
X197682000Y-163482500D03*
X170682000Y-163482500D03*
X172682000Y-163482500D03*
X145682000Y-163482500D03*
X147682000Y-163482500D03*
X120682000Y-163482500D03*
X122682000Y-163482500D03*
X195682000Y-113482500D03*
X197682000Y-113482500D03*
X170682000Y-113482500D03*
X172682000Y-113482500D03*
X145682000Y-113482500D03*
X147682000Y-113482500D03*
X193983000Y-163482500D03*
X191983000Y-163482500D03*
X168983000Y-163482500D03*
X166983000Y-163482500D03*
X143983000Y-163482500D03*
X141983000Y-163482500D03*
X118983000Y-163482500D03*
X116983000Y-163482500D03*
X193983000Y-113482500D03*
X191983000Y-113482500D03*
X168983000Y-113482500D03*
X166983000Y-113482500D03*
X143983000Y-113482500D03*
X141983000Y-113482500D03*
D11*
X194812000Y-176111200D03*
D12*
X192272000Y-176111200D03*
X189732000Y-176111200D03*
D11*
X169812000Y-176111200D03*
D12*
X167272000Y-176111200D03*
X164732000Y-176111200D03*
D11*
X144812000Y-176111200D03*
D12*
X142272000Y-176111200D03*
X139732000Y-176111200D03*
D11*
X119812000Y-176111200D03*
D12*
X117272000Y-176111200D03*
X114732000Y-176111200D03*
D11*
X194812000Y-126111200D03*
D12*
X192272000Y-126111200D03*
X189732000Y-126111200D03*
D11*
X169812000Y-126111200D03*
D12*
X167272000Y-126111200D03*
X164732000Y-126111200D03*
D11*
X144812000Y-126111200D03*
D12*
X142272000Y-126111200D03*
X139732000Y-126111200D03*
D22*
X194840500Y-165730000D03*
D23*
X194840500Y-172030000D03*
X197140500Y-172030000D03*
X192540500Y-172030000D03*
D22*
X169840500Y-165730000D03*
D23*
X169840500Y-172030000D03*
X172140500Y-172030000D03*
X167540500Y-172030000D03*
D22*
X144840500Y-165730000D03*
D23*
X144840500Y-172030000D03*
X147140500Y-172030000D03*
X142540500Y-172030000D03*
D22*
X119840500Y-165730000D03*
D23*
X119840500Y-172030000D03*
X122140500Y-172030000D03*
X117540500Y-172030000D03*
D22*
X194840500Y-115730000D03*
D23*
X194840500Y-122030000D03*
X197140500Y-122030000D03*
X192540500Y-122030000D03*
D22*
X169840500Y-115730000D03*
D23*
X169840500Y-122030000D03*
X172140500Y-122030000D03*
X167540500Y-122030000D03*
D22*
X144840500Y-115730000D03*
D23*
X144840500Y-122030000D03*
X147140500Y-122030000D03*
X142540500Y-122030000D03*
D13*
X184536800Y-165011200D03*
X186036800Y-165011200D03*
X159536800Y-165011200D03*
X161036800Y-165011200D03*
X134536800Y-165011200D03*
X136036800Y-165011200D03*
X109536800Y-165011200D03*
X111036800Y-165011200D03*
X184536800Y-115011200D03*
X186036800Y-115011200D03*
X159536800Y-115011200D03*
X161036800Y-115011200D03*
X134536800Y-115011200D03*
X136036800Y-115011200D03*
D24*
X187438000Y-162892800D03*
X187438000Y-163842800D03*
X187438000Y-164792800D03*
X189638000Y-164792800D03*
X189638000Y-162892800D03*
X162438000Y-162892800D03*
X162438000Y-163842800D03*
X162438000Y-164792800D03*
X164638000Y-164792800D03*
X164638000Y-162892800D03*
X137438000Y-162892800D03*
X137438000Y-163842800D03*
X137438000Y-164792800D03*
X139638000Y-164792800D03*
X139638000Y-162892800D03*
X112438000Y-162892800D03*
X112438000Y-163842800D03*
X112438000Y-164792800D03*
X114638000Y-164792800D03*
X114638000Y-162892800D03*
X187438000Y-112892800D03*
X187438000Y-113842800D03*
X187438000Y-114792800D03*
X189638000Y-114792800D03*
X189638000Y-112892800D03*
X162438000Y-112892800D03*
X162438000Y-113842800D03*
X162438000Y-114792800D03*
X164638000Y-114792800D03*
X164638000Y-112892800D03*
X137438000Y-112892800D03*
X137438000Y-113842800D03*
X137438000Y-114792800D03*
X139638000Y-114792800D03*
X139638000Y-112892800D03*
D25*
X183341200Y-163284000D03*
X181441200Y-163284000D03*
X158341200Y-163284000D03*
X156441200Y-163284000D03*
X133341200Y-163284000D03*
X131441200Y-163284000D03*
X108341200Y-163284000D03*
X106441200Y-163284000D03*
X183341200Y-113284000D03*
X181441200Y-113284000D03*
X158341200Y-113284000D03*
X156441200Y-113284000D03*
X133341200Y-113284000D03*
X131441200Y-113284000D03*
D13*
X184536800Y-163080800D03*
X186036800Y-163080800D03*
X159536800Y-163080800D03*
X161036800Y-163080800D03*
X134536800Y-163080800D03*
X136036800Y-163080800D03*
X109536800Y-163080800D03*
X111036800Y-163080800D03*
X184536800Y-113080800D03*
X186036800Y-113080800D03*
X159536800Y-113080800D03*
X161036800Y-113080800D03*
X134536800Y-113080800D03*
X136036800Y-113080800D03*
D25*
X181441200Y-165163600D03*
X183341200Y-165163600D03*
X156441200Y-165163600D03*
X158341200Y-165163600D03*
X131441200Y-165163600D03*
X133341200Y-165163600D03*
X106441200Y-165163600D03*
X108341200Y-165163600D03*
X181441200Y-115163600D03*
X183341200Y-115163600D03*
X156441200Y-115163600D03*
X158341200Y-115163600D03*
X131441200Y-115163600D03*
X133341200Y-115163600D03*
D26*
X194634000Y-153182600D03*
X194634000Y-150982600D03*
X169634000Y-153182600D03*
X169634000Y-150982600D03*
X144634000Y-153182600D03*
X144634000Y-150982600D03*
X119634000Y-153182600D03*
X119634000Y-150982600D03*
X194634000Y-103182600D03*
X194634000Y-100982600D03*
X169634000Y-103182600D03*
X169634000Y-100982600D03*
X144634000Y-103182600D03*
X144634000Y-100982600D03*
D21*
X194697500Y-160077000D03*
X194697500Y-158077000D03*
X169697500Y-160077000D03*
X169697500Y-158077000D03*
X144697500Y-160077000D03*
X144697500Y-158077000D03*
X119697500Y-160077000D03*
X119697500Y-158077000D03*
X194697500Y-110077000D03*
X194697500Y-108077000D03*
X169697500Y-110077000D03*
X169697500Y-108077000D03*
X144697500Y-110077000D03*
X144697500Y-108077000D03*
D18*
X196602500Y-158228000D03*
X196602500Y-159728000D03*
X171602500Y-158228000D03*
X171602500Y-159728000D03*
X146602500Y-158228000D03*
X146602500Y-159728000D03*
X121602500Y-158228000D03*
X121602500Y-159728000D03*
X196602500Y-108228000D03*
X196602500Y-109728000D03*
X171602500Y-108228000D03*
X171602500Y-109728000D03*
X146602500Y-108228000D03*
X146602500Y-109728000D03*
D27*
X196602500Y-156680000D03*
X196602500Y-154780000D03*
X171602500Y-156680000D03*
X171602500Y-154780000D03*
X146602500Y-156680000D03*
X146602500Y-154780000D03*
X121602500Y-156680000D03*
X121602500Y-154780000D03*
X196602500Y-106680000D03*
X196602500Y-104780000D03*
X171602500Y-106680000D03*
X171602500Y-104780000D03*
X146602500Y-106680000D03*
X146602500Y-104780000D03*
D11*
X197936000Y-146139000D03*
D12*
X197936000Y-148679000D03*
X197936000Y-151219000D03*
D11*
X172936000Y-146139000D03*
D12*
X172936000Y-148679000D03*
X172936000Y-151219000D03*
D11*
X147936000Y-146139000D03*
D12*
X147936000Y-148679000D03*
X147936000Y-151219000D03*
D11*
X122936000Y-146139000D03*
D12*
X122936000Y-148679000D03*
X122936000Y-151219000D03*
D11*
X197936000Y-96139000D03*
D12*
X197936000Y-98679000D03*
X197936000Y-101219000D03*
D11*
X172936000Y-96139000D03*
D12*
X172936000Y-98679000D03*
X172936000Y-101219000D03*
D11*
X147936000Y-96139000D03*
D12*
X147936000Y-98679000D03*
X147936000Y-101219000D03*
D27*
X194634000Y-149364800D03*
X194634000Y-147464800D03*
X169634000Y-149364800D03*
X169634000Y-147464800D03*
X144634000Y-149364800D03*
X144634000Y-147464800D03*
X119634000Y-149364800D03*
X119634000Y-147464800D03*
X194634000Y-99364800D03*
X194634000Y-97464800D03*
X169634000Y-99364800D03*
X169634000Y-97464800D03*
X144634000Y-99364800D03*
X144634000Y-97464800D03*
X194697500Y-154775000D03*
X194697500Y-156675000D03*
X169697500Y-154775000D03*
X169697500Y-156675000D03*
X144697500Y-154775000D03*
X144697500Y-156675000D03*
X119697500Y-154775000D03*
X119697500Y-156675000D03*
X194697500Y-104775000D03*
X194697500Y-106675000D03*
X169697500Y-104775000D03*
X169697500Y-106675000D03*
X144697500Y-104775000D03*
X144697500Y-106675000D03*
D18*
X194507000Y-141694000D03*
X194507000Y-140194000D03*
X169507000Y-141694000D03*
X169507000Y-140194000D03*
X144507000Y-141694000D03*
X144507000Y-140194000D03*
X119507000Y-141694000D03*
X119507000Y-140194000D03*
X194507000Y-91694000D03*
X194507000Y-90194000D03*
X169507000Y-91694000D03*
X169507000Y-90194000D03*
X144507000Y-91694000D03*
X144507000Y-90194000D03*
X194507000Y-139090500D03*
X194507000Y-137590500D03*
X169507000Y-139090500D03*
X169507000Y-137590500D03*
X144507000Y-139090500D03*
X144507000Y-137590500D03*
X119507000Y-139090500D03*
X119507000Y-137590500D03*
X194507000Y-89090500D03*
X194507000Y-87590500D03*
X169507000Y-89090500D03*
X169507000Y-87590500D03*
X144507000Y-89090500D03*
X144507000Y-87590500D03*
X194507000Y-136463000D03*
X194507000Y-134963000D03*
X169507000Y-136463000D03*
X169507000Y-134963000D03*
X144507000Y-136463000D03*
X144507000Y-134963000D03*
X119507000Y-136463000D03*
X119507000Y-134963000D03*
X194507000Y-86463000D03*
X194507000Y-84963000D03*
X169507000Y-86463000D03*
X169507000Y-84963000D03*
X144507000Y-86463000D03*
X144507000Y-84963000D03*
D16*
X189824000Y-134709000D03*
X191824000Y-134709000D03*
X164824000Y-134709000D03*
X166824000Y-134709000D03*
X139824000Y-134709000D03*
X141824000Y-134709000D03*
X114824000Y-134709000D03*
X116824000Y-134709000D03*
X189824000Y-84709000D03*
X191824000Y-84709000D03*
X164824000Y-84709000D03*
X166824000Y-84709000D03*
X139824000Y-84709000D03*
X141824000Y-84709000D03*
D11*
X177362000Y-147726500D03*
D12*
X177362000Y-150266500D03*
X177362000Y-152806500D03*
X177362000Y-155346500D03*
D11*
X152362000Y-147726500D03*
D12*
X152362000Y-150266500D03*
X152362000Y-152806500D03*
X152362000Y-155346500D03*
D11*
X127362000Y-147726500D03*
D12*
X127362000Y-150266500D03*
X127362000Y-152806500D03*
X127362000Y-155346500D03*
D11*
X102362000Y-147726500D03*
D12*
X102362000Y-150266500D03*
X102362000Y-152806500D03*
X102362000Y-155346500D03*
D11*
X177362000Y-97726500D03*
D12*
X177362000Y-100266500D03*
X177362000Y-102806500D03*
X177362000Y-105346500D03*
D11*
X152362000Y-97726500D03*
D12*
X152362000Y-100266500D03*
X152362000Y-102806500D03*
X152362000Y-105346500D03*
D11*
X127362000Y-97726500D03*
D12*
X127362000Y-100266500D03*
X127362000Y-102806500D03*
X127362000Y-105346500D03*
D28*
X191245000Y-158205500D03*
X191245000Y-157405500D03*
X191245000Y-156605500D03*
X191245000Y-155805500D03*
X191245000Y-155005500D03*
X191245000Y-154205500D03*
X191245000Y-153405500D03*
X191245000Y-152605500D03*
D29*
X189795000Y-151155500D03*
X188995000Y-151155500D03*
X188195000Y-151155500D03*
X187395000Y-151155500D03*
X186595000Y-151155500D03*
X185795000Y-151155500D03*
X184995000Y-151155500D03*
X184195000Y-151155500D03*
D28*
X182745000Y-152605500D03*
X182745000Y-153405500D03*
X182745000Y-154205500D03*
X182745000Y-155005500D03*
X182745000Y-155805500D03*
X182745000Y-156605500D03*
X182745000Y-157405500D03*
X182745000Y-158205500D03*
D29*
X184195000Y-159655500D03*
X184995000Y-159655500D03*
X185795000Y-159655500D03*
X186595000Y-159655500D03*
X187395000Y-159655500D03*
X188195000Y-159655500D03*
X188995000Y-159655500D03*
X189795000Y-159655500D03*
D28*
X166245000Y-158205500D03*
X166245000Y-157405500D03*
X166245000Y-156605500D03*
X166245000Y-155805500D03*
X166245000Y-155005500D03*
X166245000Y-154205500D03*
X166245000Y-153405500D03*
X166245000Y-152605500D03*
D29*
X164795000Y-151155500D03*
X163995000Y-151155500D03*
X163195000Y-151155500D03*
X162395000Y-151155500D03*
X161595000Y-151155500D03*
X160795000Y-151155500D03*
X159995000Y-151155500D03*
X159195000Y-151155500D03*
D28*
X157745000Y-152605500D03*
X157745000Y-153405500D03*
X157745000Y-154205500D03*
X157745000Y-155005500D03*
X157745000Y-155805500D03*
X157745000Y-156605500D03*
X157745000Y-157405500D03*
X157745000Y-158205500D03*
D29*
X159195000Y-159655500D03*
X159995000Y-159655500D03*
X160795000Y-159655500D03*
X161595000Y-159655500D03*
X162395000Y-159655500D03*
X163195000Y-159655500D03*
X163995000Y-159655500D03*
X164795000Y-159655500D03*
D28*
X141245000Y-158205500D03*
X141245000Y-157405500D03*
X141245000Y-156605500D03*
X141245000Y-155805500D03*
X141245000Y-155005500D03*
X141245000Y-154205500D03*
X141245000Y-153405500D03*
X141245000Y-152605500D03*
D29*
X139795000Y-151155500D03*
X138995000Y-151155500D03*
X138195000Y-151155500D03*
X137395000Y-151155500D03*
X136595000Y-151155500D03*
X135795000Y-151155500D03*
X134995000Y-151155500D03*
X134195000Y-151155500D03*
D28*
X132745000Y-152605500D03*
X132745000Y-153405500D03*
X132745000Y-154205500D03*
X132745000Y-155005500D03*
X132745000Y-155805500D03*
X132745000Y-156605500D03*
X132745000Y-157405500D03*
X132745000Y-158205500D03*
D29*
X134195000Y-159655500D03*
X134995000Y-159655500D03*
X135795000Y-159655500D03*
X136595000Y-159655500D03*
X137395000Y-159655500D03*
X138195000Y-159655500D03*
X138995000Y-159655500D03*
X139795000Y-159655500D03*
D28*
X116245000Y-158205500D03*
X116245000Y-157405500D03*
X116245000Y-156605500D03*
X116245000Y-155805500D03*
X116245000Y-155005500D03*
X116245000Y-154205500D03*
X116245000Y-153405500D03*
X116245000Y-152605500D03*
D29*
X114795000Y-151155500D03*
X113995000Y-151155500D03*
X113195000Y-151155500D03*
X112395000Y-151155500D03*
X111595000Y-151155500D03*
X110795000Y-151155500D03*
X109995000Y-151155500D03*
X109195000Y-151155500D03*
D28*
X107745000Y-152605500D03*
X107745000Y-153405500D03*
X107745000Y-154205500D03*
X107745000Y-155005500D03*
X107745000Y-155805500D03*
X107745000Y-156605500D03*
X107745000Y-157405500D03*
X107745000Y-158205500D03*
D29*
X109195000Y-159655500D03*
X109995000Y-159655500D03*
X110795000Y-159655500D03*
X111595000Y-159655500D03*
X112395000Y-159655500D03*
X113195000Y-159655500D03*
X113995000Y-159655500D03*
X114795000Y-159655500D03*
D28*
X191245000Y-108205500D03*
X191245000Y-107405500D03*
X191245000Y-106605500D03*
X191245000Y-105805500D03*
X191245000Y-105005500D03*
X191245000Y-104205500D03*
X191245000Y-103405500D03*
X191245000Y-102605500D03*
D29*
X189795000Y-101155500D03*
X188995000Y-101155500D03*
X188195000Y-101155500D03*
X187395000Y-101155500D03*
X186595000Y-101155500D03*
X185795000Y-101155500D03*
X184995000Y-101155500D03*
X184195000Y-101155500D03*
D28*
X182745000Y-102605500D03*
X182745000Y-103405500D03*
X182745000Y-104205500D03*
X182745000Y-105005500D03*
X182745000Y-105805500D03*
X182745000Y-106605500D03*
X182745000Y-107405500D03*
X182745000Y-108205500D03*
D29*
X184195000Y-109655500D03*
X184995000Y-109655500D03*
X185795000Y-109655500D03*
X186595000Y-109655500D03*
X187395000Y-109655500D03*
X188195000Y-109655500D03*
X188995000Y-109655500D03*
X189795000Y-109655500D03*
D28*
X166245000Y-108205500D03*
X166245000Y-107405500D03*
X166245000Y-106605500D03*
X166245000Y-105805500D03*
X166245000Y-105005500D03*
X166245000Y-104205500D03*
X166245000Y-103405500D03*
X166245000Y-102605500D03*
D29*
X164795000Y-101155500D03*
X163995000Y-101155500D03*
X163195000Y-101155500D03*
X162395000Y-101155500D03*
X161595000Y-101155500D03*
X160795000Y-101155500D03*
X159995000Y-101155500D03*
X159195000Y-101155500D03*
D28*
X157745000Y-102605500D03*
X157745000Y-103405500D03*
X157745000Y-104205500D03*
X157745000Y-105005500D03*
X157745000Y-105805500D03*
X157745000Y-106605500D03*
X157745000Y-107405500D03*
X157745000Y-108205500D03*
D29*
X159195000Y-109655500D03*
X159995000Y-109655500D03*
X160795000Y-109655500D03*
X161595000Y-109655500D03*
X162395000Y-109655500D03*
X163195000Y-109655500D03*
X163995000Y-109655500D03*
X164795000Y-109655500D03*
D28*
X141245000Y-108205500D03*
X141245000Y-107405500D03*
X141245000Y-106605500D03*
X141245000Y-105805500D03*
X141245000Y-105005500D03*
X141245000Y-104205500D03*
X141245000Y-103405500D03*
X141245000Y-102605500D03*
D29*
X139795000Y-101155500D03*
X138995000Y-101155500D03*
X138195000Y-101155500D03*
X137395000Y-101155500D03*
X136595000Y-101155500D03*
X135795000Y-101155500D03*
X134995000Y-101155500D03*
X134195000Y-101155500D03*
D28*
X132745000Y-102605500D03*
X132745000Y-103405500D03*
X132745000Y-104205500D03*
X132745000Y-105005500D03*
X132745000Y-105805500D03*
X132745000Y-106605500D03*
X132745000Y-107405500D03*
X132745000Y-108205500D03*
D29*
X134195000Y-109655500D03*
X134995000Y-109655500D03*
X135795000Y-109655500D03*
X136595000Y-109655500D03*
X137395000Y-109655500D03*
X138195000Y-109655500D03*
X138995000Y-109655500D03*
X139795000Y-109655500D03*
D30*
X177387400Y-158940600D03*
D31*
X177387400Y-160940600D03*
D30*
X152387400Y-158940600D03*
D31*
X152387400Y-160940600D03*
D30*
X127387400Y-158940600D03*
D31*
X127387400Y-160940600D03*
D30*
X102387400Y-158940600D03*
D31*
X102387400Y-160940600D03*
D30*
X177387400Y-108940600D03*
D31*
X177387400Y-110940600D03*
D30*
X152387400Y-108940600D03*
D31*
X152387400Y-110940600D03*
D30*
X127387400Y-108940600D03*
D31*
X127387400Y-110940600D03*
D16*
X182140500Y-149568000D03*
X184140500Y-149568000D03*
X157140500Y-149568000D03*
X159140500Y-149568000D03*
X132140500Y-149568000D03*
X134140500Y-149568000D03*
X107140500Y-149568000D03*
X109140500Y-149568000D03*
X182140500Y-99568000D03*
X184140500Y-99568000D03*
X157140500Y-99568000D03*
X159140500Y-99568000D03*
X132140500Y-99568000D03*
X134140500Y-99568000D03*
D28*
X116245000Y-108205500D03*
X116245000Y-107405500D03*
X116245000Y-106605500D03*
X116245000Y-105805500D03*
X116245000Y-105005500D03*
X116245000Y-104205500D03*
X116245000Y-103405500D03*
X116245000Y-102605500D03*
D29*
X114795000Y-101155500D03*
X113995000Y-101155500D03*
X113195000Y-101155500D03*
X112395000Y-101155500D03*
X111595000Y-101155500D03*
X110795000Y-101155500D03*
X109995000Y-101155500D03*
X109195000Y-101155500D03*
D28*
X107745000Y-102605500D03*
X107745000Y-103405500D03*
X107745000Y-104205500D03*
X107745000Y-105005500D03*
X107745000Y-105805500D03*
X107745000Y-106605500D03*
X107745000Y-107405500D03*
X107745000Y-108205500D03*
D29*
X109195000Y-109655500D03*
X109995000Y-109655500D03*
X110795000Y-109655500D03*
X111595000Y-109655500D03*
X112395000Y-109655500D03*
X113195000Y-109655500D03*
X113995000Y-109655500D03*
X114795000Y-109655500D03*
D16*
X114824000Y-84709000D03*
X116824000Y-84709000D03*
D21*
X119697500Y-110077000D03*
X119697500Y-108077000D03*
D15*
X101624000Y-115112800D03*
X104624000Y-115112800D03*
D21*
X110236000Y-124603000D03*
X110236000Y-126603000D03*
X108331000Y-124603000D03*
X108331000Y-126603000D03*
D16*
X120682000Y-113482500D03*
X122682000Y-113482500D03*
X118983000Y-113482500D03*
X116983000Y-113482500D03*
D11*
X102362000Y-97726500D03*
D12*
X102362000Y-100266500D03*
X102362000Y-102806500D03*
X102362000Y-105346500D03*
D11*
X104673600Y-125857200D03*
D12*
X102133600Y-125857200D03*
D11*
X119812000Y-126111200D03*
D12*
X117272000Y-126111200D03*
X114732000Y-126111200D03*
D11*
X122936000Y-96139000D03*
D12*
X122936000Y-98679000D03*
X122936000Y-101219000D03*
D18*
X121602500Y-108228000D03*
X121602500Y-109728000D03*
D25*
X106441200Y-115163600D03*
X108341200Y-115163600D03*
D27*
X121602500Y-106680000D03*
X121602500Y-104780000D03*
X119697500Y-104775000D03*
X119697500Y-106675000D03*
D18*
X119507000Y-91694000D03*
X119507000Y-90194000D03*
X109855000Y-86447500D03*
X109855000Y-87947500D03*
X119507000Y-89090500D03*
X119507000Y-87590500D03*
X109855000Y-89027000D03*
X109855000Y-90527000D03*
X119507000Y-86463000D03*
X119507000Y-84963000D03*
D19*
X106353500Y-117671500D03*
X106353500Y-122231500D03*
D20*
X112653500Y-119951500D03*
D22*
X119840500Y-115730000D03*
D23*
X119840500Y-122030000D03*
X122140500Y-122030000D03*
X117540500Y-122030000D03*
D17*
X111917500Y-86423500D03*
X111917500Y-87693500D03*
X111917500Y-88963500D03*
X111917500Y-90233500D03*
X117317500Y-90233500D03*
X117317500Y-88963500D03*
X117317500Y-87693500D03*
X117317500Y-86423500D03*
D14*
X102552500Y-117888000D03*
X102552500Y-121888000D03*
D11*
X102235000Y-80010000D03*
D12*
X104775000Y-80010000D03*
X107315000Y-80010000D03*
X109855000Y-80010000D03*
X112395000Y-80010000D03*
X114935000Y-80010000D03*
X117475000Y-80010000D03*
X120015000Y-80010000D03*
X122555000Y-80010000D03*
D11*
X122936000Y-84645500D03*
D12*
X122936000Y-87185500D03*
X122936000Y-89725500D03*
X122936000Y-92265500D03*
D27*
X119634000Y-99364800D03*
X119634000Y-97464800D03*
D30*
X102387400Y-108940600D03*
D31*
X102387400Y-110940600D03*
D26*
X119634000Y-103182600D03*
X119634000Y-100982600D03*
D16*
X107140500Y-99568000D03*
X109140500Y-99568000D03*
D13*
X118238400Y-111760000D03*
X116738400Y-111760000D03*
X101662800Y-113233200D03*
X103162800Y-113233200D03*
D16*
X111268000Y-84709000D03*
X113268000Y-84709000D03*
D25*
X108341200Y-113284000D03*
X106441200Y-113284000D03*
D24*
X112438000Y-112892800D03*
X112438000Y-113842800D03*
X112438000Y-114792800D03*
X114638000Y-114792800D03*
X114638000Y-112892800D03*
D13*
X109536800Y-113080800D03*
X111036800Y-113080800D03*
X109536800Y-115011200D03*
X111036800Y-115011200D03*
M02*
