M48
;DRILL file {KiCad 4.0.2+dfsg1-stable} date Wed 06 Sep 2017 09:14:41 PM CST
;FORMAT={-:-/ absolute / metric / decimal}
FMAT,2
METRIC,TZ
T1C0.400
T2C0.800
T3C1.000
%
G90
G05
M71
T1
X104.013Y-115.265
X105.42Y-103.679
X105.454Y-105.778
X105.729Y-105.027
X106.045Y-102.235
X106.05Y-113.787
X107.061Y-111.785
X107.696Y-111.252
X108.302Y-101.498
X108.433Y-113.762
X109.601Y-94.996
X110.236Y-94.424
X110.25Y-92.25
X111.593Y-105.111
X111.963Y-111.201
X112.36Y-104.486
X113.03Y-111.252
X113.983Y-93.472
X114.224Y-102.641
X114.266Y-108.086
X114.617Y-94.17
X114.808Y-88.9
X114.91Y-103.861
X114.998Y-111.697
X115.027Y-105.536
X115.037Y-107.047
X115.071Y-102.698
X115.252Y-94.869
X115.799Y-85.877
X115.887Y-95.631
X116.027Y-91.948
X116.965Y-83.693
X117.475Y-101.536
X117.907Y-102.845
X119.507Y-95.961
X120.726Y-112.395
X120.75Y-107.5
X120.828Y-97.739
X122.745Y-112.014
X122.885Y-109.957
T2
X102.387Y-108.941
X102.387Y-110.941
T3
X102.134Y-125.857
X102.235Y-80.01
X102.362Y-97.727
X102.362Y-100.266
X102.362Y-102.806
X102.362Y-105.346
X104.674Y-125.857
X104.775Y-80.01
X107.315Y-80.01
X109.855Y-80.01
X112.395Y-80.01
X114.732Y-126.111
X114.935Y-80.01
X117.272Y-126.111
X117.475Y-80.01
X119.812Y-126.111
X120.015Y-80.01
X122.555Y-80.01
X122.936Y-84.645
X122.936Y-87.185
X122.936Y-89.725
X122.936Y-92.265
X122.936Y-96.139
X122.936Y-98.679
X122.936Y-101.219
T0
M30
