M48
;DRILL file {KiCad 4.0.2-stable} date 9/8/2017 10:58:35 PM
;FORMAT={3:3/ absolute / metric / suppress leading zeros}
FMAT,2
METRIC,TZ
T1C0.400
T2C0.800
T3C1.000
%
G90
G05
M71
T1
X103226Y-115113
X105105Y-112548
X105420Y-103679
X105454Y-105778
X105729Y-105027
X106045Y-102235
X106941Y-111785
X107696Y-111252
X108302Y-101498
X109118Y-111608
X109601Y-94996
X110236Y-94424
X110250Y-92250
X110490Y-114097
X110642Y-110795
X111593Y-105111
X112360Y-104486
X113983Y-93472
X114224Y-102641
X114266Y-108086
X114618Y-94171
X114808Y-88900
X114910Y-103861
X115027Y-105536
X115037Y-107047
X115071Y-102698
X115253Y-94869
X115799Y-85877
X115888Y-95631
X115926Y-112319
X116027Y-91948
X116965Y-83693
X117475Y-101537
X117907Y-102845
X119507Y-95961
X120726Y-112395
X120750Y-107500
X120828Y-97739
X122746Y-112014
X122885Y-109957
T2
X102387Y-108941
X102387Y-110941
T3
X102134Y-125857
X102235Y-80010
X102362Y-97727
X102362Y-100267
X102362Y-102807
X102362Y-105347
X104674Y-125857
X104775Y-80010
X107315Y-80010
X109855Y-80010
X112395Y-80010
X114732Y-126111
X114935Y-80010
X117272Y-126111
X117475Y-80010
X119812Y-126111
X120015Y-80010
X122555Y-80010
X122936Y-84646
X122936Y-87186
X122936Y-89726
X122936Y-92266
X122936Y-96139
X122936Y-98679
X122936Y-101219
T0
M30
