G04 #@! TF.FileFunction,Copper,L2,Bot,Signal*
%FSLAX46Y46*%
G04 Gerber Fmt 4.6, Leading zero omitted, Abs format (unit mm)*
G04 Created by KiCad (PCBNEW 4.0.2-stable) date 9/8/2017 10:58:26 PM*
%MOMM*%
G01*
G04 APERTURE LIST*
%ADD10C,0.100000*%
%ADD11R,1.700000X1.700000*%
%ADD12O,1.700000X1.700000*%
%ADD13O,1.600000X0.900000*%
%ADD14R,1.350000X1.350000*%
%ADD15O,1.350000X1.350000*%
%ADD16C,0.600000*%
%ADD17C,0.250000*%
%ADD18C,0.254000*%
G04 APERTURE END LIST*
D10*
D11*
X102362000Y-97726500D03*
D12*
X102362000Y-100266500D03*
X102362000Y-102806500D03*
X102362000Y-105346500D03*
D11*
X104673600Y-125857200D03*
D12*
X102133600Y-125857200D03*
D11*
X119812000Y-126111200D03*
D12*
X117272000Y-126111200D03*
X114732000Y-126111200D03*
D11*
X122936000Y-96139000D03*
D12*
X122936000Y-98679000D03*
X122936000Y-101219000D03*
D13*
X118682000Y-84119000D03*
X118682000Y-85389000D03*
X118682000Y-86659000D03*
X118682000Y-87929000D03*
X118682000Y-89199000D03*
X118682000Y-90469000D03*
X118682000Y-91739000D03*
X118682000Y-93009000D03*
D11*
X102235000Y-80010000D03*
D12*
X104775000Y-80010000D03*
X107315000Y-80010000D03*
X109855000Y-80010000D03*
X112395000Y-80010000D03*
X114935000Y-80010000D03*
X117475000Y-80010000D03*
X120015000Y-80010000D03*
X122555000Y-80010000D03*
D11*
X122936000Y-84645500D03*
D12*
X122936000Y-87185500D03*
X122936000Y-89725500D03*
X122936000Y-92265500D03*
D14*
X102387400Y-108940600D03*
D15*
X102387400Y-110940600D03*
D16*
X115925600Y-112318800D03*
X110490000Y-114096800D03*
X105105200Y-112548000D03*
X103225600Y-115112800D03*
X119507000Y-95961200D03*
X108302100Y-101498400D03*
X115798600Y-85877400D03*
X122745500Y-112014000D03*
X114808000Y-88900000D03*
X110250000Y-92250000D03*
X120750000Y-107500000D03*
X116965000Y-83693000D03*
X120726200Y-112395000D03*
X122885200Y-109956600D03*
X120827800Y-97739200D03*
X115026620Y-105535914D03*
X114223800Y-102641400D03*
X107696000Y-111252000D03*
X106045000Y-102235000D03*
X106941192Y-111785400D03*
X105419980Y-103679292D03*
X111593063Y-105110640D03*
X109601000Y-94996000D03*
X112359813Y-104485620D03*
X110236000Y-94424500D03*
X105454309Y-105778411D03*
X105729339Y-105027161D03*
X109118400Y-111607600D03*
X114266093Y-108085507D03*
X115070632Y-102698152D03*
X116027200Y-91948000D03*
X117475000Y-101536500D03*
X115887500Y-95631000D03*
X115252500Y-94869000D03*
X113982500Y-93472000D03*
X114617500Y-94170500D03*
X117906800Y-102844600D03*
X114909600Y-103860600D03*
X110642400Y-110794800D03*
X115036600Y-107047100D03*
D17*
X120827800Y-97739200D02*
X121031000Y-97536000D01*
X121031000Y-97536000D02*
X121031000Y-89090500D01*
X121031000Y-89090500D02*
X119824500Y-87884000D01*
X119824500Y-87884000D02*
X119824500Y-84211500D01*
X119824500Y-84211500D02*
X119732000Y-84119000D01*
X119732000Y-84119000D02*
X118682000Y-84119000D01*
X118682000Y-84119000D02*
X117391000Y-84119000D01*
X117391000Y-84119000D02*
X116965000Y-83693000D01*
X120726200Y-112115600D02*
X120726200Y-112395000D01*
X122585201Y-110256599D02*
X120726200Y-112115600D01*
X122885200Y-109956600D02*
X122585201Y-110256599D01*
X114726621Y-105235915D02*
X115026620Y-105535914D01*
X114223800Y-104733094D02*
X114726621Y-105235915D01*
X114223800Y-102641400D02*
X114223800Y-104733094D01*
X108975998Y-94695998D02*
X108975998Y-98107500D01*
X106045000Y-101038498D02*
X108975998Y-98107500D01*
X106045000Y-102235000D02*
X106045000Y-101038498D01*
X107696000Y-110299500D02*
X107696000Y-111252000D01*
X107696000Y-105473500D02*
X107696000Y-110299500D01*
X106045000Y-103822500D02*
X107696000Y-105473500D01*
X106045000Y-102235000D02*
X106045000Y-103822500D01*
X109029500Y-94642496D02*
X108975998Y-94695998D01*
X109029500Y-83820000D02*
X109029500Y-94642496D01*
X119634000Y-82931000D02*
X109918500Y-82931000D01*
X109918500Y-82931000D02*
X109029500Y-83820000D01*
X122555000Y-80010000D02*
X119634000Y-82931000D01*
X106941192Y-105355102D02*
X106941192Y-111361136D01*
X105419980Y-103679292D02*
X105419980Y-103833890D01*
X105419980Y-103833890D02*
X106941192Y-105355102D01*
X106941192Y-111361136D02*
X106941192Y-111785400D01*
X120015000Y-80010000D02*
X117544011Y-82480989D01*
X105419980Y-103255028D02*
X105419980Y-103679292D01*
X105419980Y-101017110D02*
X105419980Y-103255028D01*
X108521500Y-97915590D02*
X105419980Y-101017110D01*
X108521500Y-83564589D02*
X108521500Y-97915590D01*
X109605100Y-82480989D02*
X108521500Y-83564589D01*
X117544011Y-82480989D02*
X109605100Y-82480989D01*
X111823500Y-103949500D02*
X111593063Y-104179937D01*
X111593063Y-104179937D02*
X111593063Y-105110640D01*
X111823500Y-101346000D02*
X111823500Y-103949500D01*
X110236000Y-99758500D02*
X111823500Y-101346000D01*
X110236000Y-98806000D02*
X110236000Y-99758500D01*
X109601000Y-98171000D02*
X110236000Y-98806000D01*
X109601000Y-95420264D02*
X109601000Y-98171000D01*
X109601000Y-94996000D02*
X109601000Y-95420264D01*
X109601000Y-95420264D02*
X109595491Y-95425773D01*
X112359813Y-104061356D02*
X112359813Y-104485620D01*
X112359813Y-103139613D02*
X112359813Y-104061356D01*
X112318800Y-103098600D02*
X112359813Y-103139613D01*
X112318800Y-103352600D02*
X112318800Y-103098600D01*
X112318800Y-103098600D02*
X112318800Y-101117400D01*
X112318800Y-101117400D02*
X110744000Y-99542600D01*
X110744000Y-99542600D02*
X110744000Y-98552000D01*
X110236000Y-98044000D02*
X110236000Y-94424500D01*
X110744000Y-98552000D02*
X110236000Y-98044000D01*
X107442000Y-83248500D02*
X107442000Y-97722270D01*
X105154310Y-105478412D02*
X105454309Y-105778411D01*
X104344967Y-104669069D02*
X105154310Y-105478412D01*
X104344967Y-100819303D02*
X104344967Y-104669069D01*
X107442000Y-97722270D02*
X104344967Y-100819303D01*
X109109533Y-81580967D02*
X107442000Y-83248500D01*
X113364033Y-81580967D02*
X109109533Y-81580967D01*
X114935000Y-80010000D02*
X113364033Y-81580967D01*
X117475000Y-80010000D02*
X115454022Y-82030978D01*
X105429340Y-104727162D02*
X105729339Y-105027161D01*
X104794978Y-101005702D02*
X104794978Y-104092800D01*
X108013500Y-97787180D02*
X104794978Y-101005702D01*
X109418700Y-82030978D02*
X108013500Y-83436178D01*
X108013500Y-83436178D02*
X108013500Y-97787180D01*
X115454022Y-82030978D02*
X109418700Y-82030978D01*
X104794978Y-104092800D02*
X105429340Y-104727162D01*
X110744000Y-111607600D02*
X109118400Y-111607600D01*
X110845600Y-111506000D02*
X110744000Y-111607600D01*
X113030000Y-109321600D02*
X110845600Y-111506000D01*
X113030000Y-109321600D02*
X113966094Y-108385506D01*
X113966094Y-108385506D02*
X114266093Y-108085507D01*
X115494896Y-102698152D02*
X115070632Y-102698152D01*
X116313348Y-102698152D02*
X115494896Y-102698152D01*
X117475000Y-101536500D02*
X116313348Y-102698152D01*
X116027200Y-91948000D02*
X117551200Y-90424000D01*
X117551200Y-90424000D02*
X117551200Y-86739800D01*
X117551200Y-86739800D02*
X117632000Y-86659000D01*
X117632000Y-86659000D02*
X118682000Y-86659000D01*
X118682000Y-86659000D02*
X118332000Y-86659000D01*
X118129940Y-95643500D02*
X118117440Y-95631000D01*
X118117440Y-95631000D02*
X115887500Y-95631000D01*
X120523000Y-93250440D02*
X120523000Y-89420000D01*
X120523000Y-89420000D02*
X119032000Y-87929000D01*
X119032000Y-87929000D02*
X118682000Y-87929000D01*
X118129940Y-95643500D02*
X120523000Y-93250440D01*
X118682000Y-89199000D02*
X119032000Y-89199000D01*
X119032000Y-89199000D02*
X119951500Y-90118500D01*
X119951500Y-90118500D02*
X119951500Y-93185529D01*
X119951500Y-93185529D02*
X118268029Y-94869000D01*
X118268029Y-94869000D02*
X115252500Y-94869000D01*
X113982500Y-93472000D02*
X115760500Y-93472000D01*
X115760500Y-93472000D02*
X117475000Y-91757500D01*
X117475000Y-91757500D02*
X117475000Y-91326000D01*
X117475000Y-91326000D02*
X118332000Y-90469000D01*
X118332000Y-90469000D02*
X118682000Y-90469000D01*
X114617500Y-94170500D02*
X115900500Y-94170500D01*
X115900500Y-94170500D02*
X118332000Y-91739000D01*
X118332000Y-91739000D02*
X118682000Y-91739000D01*
X114909600Y-103860600D02*
X115209599Y-103560601D01*
X115209599Y-103560601D02*
X117190799Y-103560601D01*
X117190799Y-103560601D02*
X117606801Y-103144599D01*
X117606801Y-103144599D02*
X117906800Y-102844600D01*
X111937800Y-109499400D02*
X110642400Y-110794800D01*
X111963200Y-109499400D02*
X111937800Y-109499400D01*
X114612336Y-107047100D02*
X114415500Y-107047100D01*
X114415500Y-107047100D02*
X111963200Y-109499400D01*
X115036600Y-107047100D02*
X114612336Y-107047100D01*
X114612336Y-107047100D02*
X114598436Y-107061000D01*
D18*
G36*
X124544000Y-127544000D02*
X100456000Y-127544000D01*
X100456000Y-125833083D01*
X100902600Y-125833083D01*
X100902600Y-125881317D01*
X100996304Y-126352400D01*
X101263152Y-126751765D01*
X101662517Y-127018613D01*
X102133600Y-127112317D01*
X102604683Y-127018613D01*
X103004048Y-126751765D01*
X103270896Y-126352400D01*
X103350351Y-125952950D01*
X103442600Y-125952950D01*
X103442600Y-126782986D01*
X103500604Y-126923020D01*
X103607781Y-127030196D01*
X103747815Y-127088200D01*
X104577850Y-127088200D01*
X104673100Y-126992950D01*
X104673100Y-125857700D01*
X104674100Y-125857700D01*
X104674100Y-126992950D01*
X104769350Y-127088200D01*
X105599385Y-127088200D01*
X105739419Y-127030196D01*
X105846596Y-126923020D01*
X105904600Y-126782986D01*
X105904600Y-126087083D01*
X113501000Y-126087083D01*
X113501000Y-126135317D01*
X113594704Y-126606400D01*
X113861552Y-127005765D01*
X114260917Y-127272613D01*
X114732000Y-127366317D01*
X115203083Y-127272613D01*
X115602448Y-127005765D01*
X115869296Y-126606400D01*
X115963000Y-126135317D01*
X115963000Y-126087083D01*
X116041000Y-126087083D01*
X116041000Y-126135317D01*
X116134704Y-126606400D01*
X116401552Y-127005765D01*
X116800917Y-127272613D01*
X117272000Y-127366317D01*
X117743083Y-127272613D01*
X118142448Y-127005765D01*
X118409296Y-126606400D01*
X118488751Y-126206950D01*
X118581000Y-126206950D01*
X118581000Y-127036986D01*
X118639004Y-127177020D01*
X118746181Y-127284196D01*
X118886215Y-127342200D01*
X119716250Y-127342200D01*
X119811500Y-127246950D01*
X119811500Y-126111700D01*
X119812500Y-126111700D01*
X119812500Y-127246950D01*
X119907750Y-127342200D01*
X120737785Y-127342200D01*
X120877819Y-127284196D01*
X120984996Y-127177020D01*
X121043000Y-127036986D01*
X121043000Y-126206950D01*
X120947750Y-126111700D01*
X119812500Y-126111700D01*
X119811500Y-126111700D01*
X118676250Y-126111700D01*
X118581000Y-126206950D01*
X118488751Y-126206950D01*
X118503000Y-126135317D01*
X118503000Y-126087083D01*
X118409296Y-125616000D01*
X118142448Y-125216635D01*
X118095723Y-125185414D01*
X118581000Y-125185414D01*
X118581000Y-126015450D01*
X118676250Y-126110700D01*
X119811500Y-126110700D01*
X119811500Y-124975450D01*
X119812500Y-124975450D01*
X119812500Y-126110700D01*
X120947750Y-126110700D01*
X121043000Y-126015450D01*
X121043000Y-125185414D01*
X120984996Y-125045380D01*
X120877819Y-124938204D01*
X120737785Y-124880200D01*
X119907750Y-124880200D01*
X119812500Y-124975450D01*
X119811500Y-124975450D01*
X119716250Y-124880200D01*
X118886215Y-124880200D01*
X118746181Y-124938204D01*
X118639004Y-125045380D01*
X118581000Y-125185414D01*
X118095723Y-125185414D01*
X117743083Y-124949787D01*
X117272000Y-124856083D01*
X116800917Y-124949787D01*
X116401552Y-125216635D01*
X116134704Y-125616000D01*
X116041000Y-126087083D01*
X115963000Y-126087083D01*
X115869296Y-125616000D01*
X115602448Y-125216635D01*
X115203083Y-124949787D01*
X114732000Y-124856083D01*
X114260917Y-124949787D01*
X113861552Y-125216635D01*
X113594704Y-125616000D01*
X113501000Y-126087083D01*
X105904600Y-126087083D01*
X105904600Y-125952950D01*
X105809350Y-125857700D01*
X104674100Y-125857700D01*
X104673100Y-125857700D01*
X103537850Y-125857700D01*
X103442600Y-125952950D01*
X103350351Y-125952950D01*
X103364600Y-125881317D01*
X103364600Y-125833083D01*
X103270896Y-125362000D01*
X103004048Y-124962635D01*
X102957323Y-124931414D01*
X103442600Y-124931414D01*
X103442600Y-125761450D01*
X103537850Y-125856700D01*
X104673100Y-125856700D01*
X104673100Y-124721450D01*
X104674100Y-124721450D01*
X104674100Y-125856700D01*
X105809350Y-125856700D01*
X105904600Y-125761450D01*
X105904600Y-124931414D01*
X105846596Y-124791380D01*
X105739419Y-124684204D01*
X105599385Y-124626200D01*
X104769350Y-124626200D01*
X104674100Y-124721450D01*
X104673100Y-124721450D01*
X104577850Y-124626200D01*
X103747815Y-124626200D01*
X103607781Y-124684204D01*
X103500604Y-124791380D01*
X103442600Y-124931414D01*
X102957323Y-124931414D01*
X102604683Y-124695787D01*
X102133600Y-124602083D01*
X101662517Y-124695787D01*
X101263152Y-124962635D01*
X100996304Y-125362000D01*
X100902600Y-125833083D01*
X100456000Y-125833083D01*
X100456000Y-112529865D01*
X120045082Y-112529865D01*
X120148539Y-112780252D01*
X120339941Y-112971987D01*
X120590146Y-113075882D01*
X120861065Y-113076118D01*
X121111452Y-112972661D01*
X121303187Y-112781259D01*
X121407082Y-112531054D01*
X121407318Y-112260135D01*
X121375138Y-112182254D01*
X122919761Y-110637631D01*
X123020065Y-110637718D01*
X123270452Y-110534261D01*
X123462187Y-110342859D01*
X123566082Y-110092654D01*
X123566318Y-109821735D01*
X123462861Y-109571348D01*
X123271459Y-109379613D01*
X123021254Y-109275718D01*
X122750335Y-109275482D01*
X122499948Y-109378939D01*
X122308213Y-109570341D01*
X122204318Y-109820546D01*
X122204230Y-109921978D01*
X120368404Y-111757804D01*
X120303937Y-111854286D01*
X120149213Y-112008741D01*
X120045318Y-112258946D01*
X120045082Y-112529865D01*
X100456000Y-112529865D01*
X100456000Y-110940600D01*
X101310712Y-110940600D01*
X101391095Y-111344714D01*
X101620007Y-111687305D01*
X101962598Y-111916217D01*
X102366712Y-111996600D01*
X102408088Y-111996600D01*
X102812202Y-111916217D01*
X103154793Y-111687305D01*
X103383705Y-111344714D01*
X103464088Y-110940600D01*
X103383705Y-110536486D01*
X103154793Y-110193895D01*
X102870691Y-110004064D01*
X103062400Y-110004064D01*
X103203590Y-109977497D01*
X103333265Y-109894054D01*
X103420259Y-109766734D01*
X103450864Y-109615600D01*
X103450864Y-108265600D01*
X103424297Y-108124410D01*
X103340854Y-107994735D01*
X103213534Y-107907741D01*
X103062400Y-107877136D01*
X101712400Y-107877136D01*
X101571210Y-107903703D01*
X101441535Y-107987146D01*
X101354541Y-108114466D01*
X101323936Y-108265600D01*
X101323936Y-109615600D01*
X101350503Y-109756790D01*
X101433946Y-109886465D01*
X101561266Y-109973459D01*
X101712400Y-110004064D01*
X101904109Y-110004064D01*
X101620007Y-110193895D01*
X101391095Y-110536486D01*
X101310712Y-110940600D01*
X100456000Y-110940600D01*
X100456000Y-105539565D01*
X101146234Y-105539565D01*
X101164896Y-105633385D01*
X101365806Y-106069659D01*
X101718378Y-106395839D01*
X102168935Y-106562266D01*
X102361500Y-106482250D01*
X102361500Y-105347000D01*
X102362500Y-105347000D01*
X102362500Y-106482250D01*
X102555065Y-106562266D01*
X103005622Y-106395839D01*
X103358194Y-106069659D01*
X103559104Y-105633385D01*
X103577766Y-105539565D01*
X103497750Y-105347000D01*
X102362500Y-105347000D01*
X102361500Y-105347000D01*
X101226250Y-105347000D01*
X101146234Y-105539565D01*
X100456000Y-105539565D01*
X100456000Y-105153435D01*
X101146234Y-105153435D01*
X101226250Y-105346000D01*
X102361500Y-105346000D01*
X102361500Y-104210750D01*
X102362500Y-104210750D01*
X102362500Y-105346000D01*
X103497750Y-105346000D01*
X103577766Y-105153435D01*
X103559104Y-105059615D01*
X103358194Y-104623341D01*
X103005622Y-104297161D01*
X102555065Y-104130734D01*
X102362500Y-104210750D01*
X102361500Y-104210750D01*
X102168935Y-104130734D01*
X101718378Y-104297161D01*
X101365806Y-104623341D01*
X101164896Y-105059615D01*
X101146234Y-105153435D01*
X100456000Y-105153435D01*
X100456000Y-102806500D01*
X101106883Y-102806500D01*
X101200587Y-103277583D01*
X101467435Y-103676948D01*
X101866800Y-103943796D01*
X102337883Y-104037500D01*
X102386117Y-104037500D01*
X102857200Y-103943796D01*
X103256565Y-103676948D01*
X103523413Y-103277583D01*
X103617117Y-102806500D01*
X103523413Y-102335417D01*
X103256565Y-101936052D01*
X102857200Y-101669204D01*
X102386117Y-101575500D01*
X102337883Y-101575500D01*
X101866800Y-101669204D01*
X101467435Y-101936052D01*
X101200587Y-102335417D01*
X101106883Y-102806500D01*
X100456000Y-102806500D01*
X100456000Y-100266500D01*
X101106883Y-100266500D01*
X101200587Y-100737583D01*
X101467435Y-101136948D01*
X101866800Y-101403796D01*
X102337883Y-101497500D01*
X102386117Y-101497500D01*
X102857200Y-101403796D01*
X103256565Y-101136948D01*
X103523413Y-100737583D01*
X103617117Y-100266500D01*
X103523413Y-99795417D01*
X103256565Y-99396052D01*
X102857200Y-99129204D01*
X102386117Y-99035500D01*
X102337883Y-99035500D01*
X101866800Y-99129204D01*
X101467435Y-99396052D01*
X101200587Y-99795417D01*
X101106883Y-100266500D01*
X100456000Y-100266500D01*
X100456000Y-96876500D01*
X101123536Y-96876500D01*
X101123536Y-98576500D01*
X101150103Y-98717690D01*
X101233546Y-98847365D01*
X101360866Y-98934359D01*
X101512000Y-98964964D01*
X103212000Y-98964964D01*
X103353190Y-98938397D01*
X103482865Y-98854954D01*
X103569859Y-98727634D01*
X103600464Y-98576500D01*
X103600464Y-96876500D01*
X103573897Y-96735310D01*
X103490454Y-96605635D01*
X103363134Y-96518641D01*
X103212000Y-96488036D01*
X101512000Y-96488036D01*
X101370810Y-96514603D01*
X101241135Y-96598046D01*
X101154141Y-96725366D01*
X101123536Y-96876500D01*
X100456000Y-96876500D01*
X100456000Y-94742000D01*
X106936000Y-94742000D01*
X106936000Y-97512678D01*
X103987171Y-100461507D01*
X103877484Y-100625665D01*
X103838967Y-100819303D01*
X103838967Y-104669069D01*
X103877484Y-104862707D01*
X103987171Y-105026865D01*
X104773278Y-105812972D01*
X104773191Y-105913276D01*
X104876648Y-106163663D01*
X105068050Y-106355398D01*
X105318255Y-106459293D01*
X105589174Y-106459529D01*
X105839561Y-106356072D01*
X106031296Y-106164670D01*
X106135191Y-105914465D01*
X106135427Y-105643546D01*
X106118015Y-105601404D01*
X106295112Y-105424614D01*
X106435192Y-105564694D01*
X106435192Y-111328277D01*
X106364205Y-111399141D01*
X106260310Y-111649346D01*
X106260074Y-111920265D01*
X106363531Y-112170652D01*
X106554933Y-112362387D01*
X106805138Y-112466282D01*
X107076057Y-112466518D01*
X107326444Y-112363061D01*
X107518179Y-112171659D01*
X107617308Y-111932932D01*
X107830865Y-111933118D01*
X108081252Y-111829661D01*
X108168599Y-111742465D01*
X108437282Y-111742465D01*
X108540739Y-111992852D01*
X108732141Y-112184587D01*
X108982346Y-112288482D01*
X109253265Y-112288718D01*
X109503652Y-112185261D01*
X109575438Y-112113600D01*
X110744000Y-112113600D01*
X110937638Y-112075083D01*
X111101796Y-111965396D01*
X114300654Y-108766538D01*
X114400958Y-108766625D01*
X114651345Y-108663168D01*
X114843080Y-108471766D01*
X114946975Y-108221561D01*
X114947211Y-107950642D01*
X114845821Y-107705258D01*
X114900546Y-107727982D01*
X115171465Y-107728218D01*
X115421852Y-107624761D01*
X115613587Y-107433359D01*
X115717482Y-107183154D01*
X115717718Y-106912235D01*
X115614261Y-106661848D01*
X115422859Y-106470113D01*
X115172654Y-106366218D01*
X114901735Y-106365982D01*
X114651348Y-106469439D01*
X114579562Y-106541100D01*
X114415500Y-106541100D01*
X114221862Y-106579617D01*
X114057704Y-106689304D01*
X111656551Y-109090457D01*
X111580004Y-109141604D01*
X110607839Y-110113769D01*
X110507535Y-110113682D01*
X110257148Y-110217139D01*
X110065413Y-110408541D01*
X109961518Y-110658746D01*
X109961282Y-110929665D01*
X110032324Y-111101600D01*
X109575523Y-111101600D01*
X109504659Y-111030613D01*
X109254454Y-110926718D01*
X108983535Y-110926482D01*
X108733148Y-111029939D01*
X108541413Y-111221341D01*
X108437518Y-111471546D01*
X108437282Y-111742465D01*
X108168599Y-111742465D01*
X108272987Y-111638259D01*
X108376882Y-111388054D01*
X108377118Y-111117135D01*
X108273661Y-110866748D01*
X108202000Y-110794962D01*
X108202000Y-105473500D01*
X108163483Y-105279862D01*
X108053796Y-105115704D01*
X106551000Y-103612908D01*
X106551000Y-102692123D01*
X106621987Y-102621259D01*
X106725882Y-102371054D01*
X106726118Y-102100135D01*
X106622661Y-101849748D01*
X106551000Y-101777962D01*
X106551000Y-101248090D01*
X109256749Y-98542341D01*
X109730000Y-99015592D01*
X109730000Y-99758500D01*
X109768517Y-99952138D01*
X109878204Y-100116296D01*
X111317500Y-101555592D01*
X111317500Y-103739908D01*
X111235267Y-103822141D01*
X111125580Y-103986299D01*
X111087063Y-104179937D01*
X111087063Y-104653517D01*
X111016076Y-104724381D01*
X110912181Y-104974586D01*
X110911945Y-105245505D01*
X111015402Y-105495892D01*
X111206804Y-105687627D01*
X111457009Y-105791522D01*
X111727928Y-105791758D01*
X111978315Y-105688301D01*
X112170050Y-105496899D01*
X112273945Y-105246694D01*
X112274015Y-105166546D01*
X112494678Y-105166738D01*
X112745065Y-105063281D01*
X112936800Y-104871879D01*
X113040695Y-104621674D01*
X113040931Y-104350755D01*
X112937474Y-104100368D01*
X112865813Y-104028582D01*
X112865813Y-103139613D01*
X112827296Y-102945975D01*
X112824800Y-102942239D01*
X112824800Y-102776265D01*
X113542682Y-102776265D01*
X113646139Y-103026652D01*
X113717800Y-103098438D01*
X113717800Y-104733094D01*
X113756317Y-104926732D01*
X113866004Y-105090890D01*
X114345589Y-105570475D01*
X114345502Y-105670779D01*
X114448959Y-105921166D01*
X114640361Y-106112901D01*
X114890566Y-106216796D01*
X115161485Y-106217032D01*
X115411872Y-106113575D01*
X115603607Y-105922173D01*
X115707502Y-105671968D01*
X115707738Y-105401049D01*
X115604281Y-105150662D01*
X115412879Y-104958927D01*
X115162674Y-104855032D01*
X115061242Y-104854944D01*
X114729800Y-104523502D01*
X114729800Y-104523317D01*
X114773546Y-104541482D01*
X115044465Y-104541718D01*
X115294852Y-104438261D01*
X115486587Y-104246859D01*
X115561437Y-104066601D01*
X117190799Y-104066601D01*
X117384437Y-104028084D01*
X117548595Y-103918397D01*
X117941361Y-103525631D01*
X118041665Y-103525718D01*
X118292052Y-103422261D01*
X118483787Y-103230859D01*
X118587682Y-102980654D01*
X118587918Y-102709735D01*
X118484461Y-102459348D01*
X118293059Y-102267613D01*
X118042854Y-102163718D01*
X117771935Y-102163482D01*
X117521548Y-102266939D01*
X117329813Y-102458341D01*
X117225918Y-102708546D01*
X117225830Y-102809978D01*
X116981207Y-103054601D01*
X116672491Y-103054601D01*
X117509561Y-102217531D01*
X117609865Y-102217618D01*
X117860252Y-102114161D01*
X118051987Y-101922759D01*
X118155882Y-101672554D01*
X118156118Y-101401635D01*
X118080656Y-101219000D01*
X121680883Y-101219000D01*
X121774587Y-101690083D01*
X122041435Y-102089448D01*
X122440800Y-102356296D01*
X122911883Y-102450000D01*
X122960117Y-102450000D01*
X123431200Y-102356296D01*
X123830565Y-102089448D01*
X124097413Y-101690083D01*
X124191117Y-101219000D01*
X124097413Y-100747917D01*
X123830565Y-100348552D01*
X123431200Y-100081704D01*
X122960117Y-99988000D01*
X122911883Y-99988000D01*
X122440800Y-100081704D01*
X122041435Y-100348552D01*
X121774587Y-100747917D01*
X121680883Y-101219000D01*
X118080656Y-101219000D01*
X118052661Y-101151248D01*
X117861259Y-100959513D01*
X117611054Y-100855618D01*
X117340135Y-100855382D01*
X117089748Y-100958839D01*
X116898013Y-101150241D01*
X116794118Y-101400446D01*
X116794030Y-101501878D01*
X116103756Y-102192152D01*
X115527755Y-102192152D01*
X115456891Y-102121165D01*
X115206686Y-102017270D01*
X114935767Y-102017034D01*
X114685380Y-102120491D01*
X114675693Y-102130161D01*
X114610059Y-102064413D01*
X114359854Y-101960518D01*
X114088935Y-101960282D01*
X113838548Y-102063739D01*
X113646813Y-102255141D01*
X113542918Y-102505346D01*
X113542682Y-102776265D01*
X112824800Y-102776265D01*
X112824800Y-101117400D01*
X112786283Y-100923762D01*
X112676596Y-100759604D01*
X111250000Y-99333008D01*
X111250000Y-98679000D01*
X121680883Y-98679000D01*
X121774587Y-99150083D01*
X122041435Y-99549448D01*
X122440800Y-99816296D01*
X122911883Y-99910000D01*
X122960117Y-99910000D01*
X123431200Y-99816296D01*
X123830565Y-99549448D01*
X124097413Y-99150083D01*
X124191117Y-98679000D01*
X124097413Y-98207917D01*
X123830565Y-97808552D01*
X123431200Y-97541704D01*
X122960117Y-97448000D01*
X122911883Y-97448000D01*
X122440800Y-97541704D01*
X122041435Y-97808552D01*
X121774587Y-98207917D01*
X121680883Y-98679000D01*
X111250000Y-98679000D01*
X111250000Y-98552000D01*
X111211483Y-98358362D01*
X111101796Y-98194204D01*
X110742000Y-97834408D01*
X110742000Y-94881623D01*
X110812987Y-94810759D01*
X110916882Y-94560554D01*
X110917118Y-94289635D01*
X110813661Y-94039248D01*
X110622259Y-93847513D01*
X110372054Y-93743618D01*
X110101135Y-93743382D01*
X109850748Y-93846839D01*
X109659013Y-94038241D01*
X109555118Y-94288446D01*
X109555095Y-94314959D01*
X109535500Y-94314942D01*
X109535500Y-84029592D01*
X110128092Y-83437000D01*
X116333924Y-83437000D01*
X116284118Y-83556946D01*
X116283882Y-83827865D01*
X116387339Y-84078252D01*
X116578741Y-84269987D01*
X116828946Y-84373882D01*
X116930378Y-84373970D01*
X117033204Y-84476796D01*
X117197362Y-84586483D01*
X117391000Y-84625000D01*
X117666730Y-84625000D01*
X117721257Y-84706606D01*
X117803804Y-84761762D01*
X117744040Y-84801747D01*
X117564064Y-85071452D01*
X117511309Y-85258509D01*
X117596250Y-85388500D01*
X118681500Y-85388500D01*
X118681500Y-85368500D01*
X118682500Y-85368500D01*
X118682500Y-85388500D01*
X118702500Y-85388500D01*
X118702500Y-85389500D01*
X118682500Y-85389500D01*
X118682500Y-85409500D01*
X118681500Y-85409500D01*
X118681500Y-85389500D01*
X117596250Y-85389500D01*
X117511309Y-85519491D01*
X117564064Y-85706548D01*
X117744040Y-85976253D01*
X117803804Y-86016238D01*
X117721257Y-86071394D01*
X117666730Y-86153000D01*
X117632000Y-86153000D01*
X117438362Y-86191517D01*
X117274204Y-86301204D01*
X117193404Y-86382004D01*
X117083717Y-86546162D01*
X117045200Y-86739800D01*
X117045200Y-90214408D01*
X115992639Y-91266969D01*
X115892335Y-91266882D01*
X115641948Y-91370339D01*
X115450213Y-91561741D01*
X115346318Y-91811946D01*
X115346082Y-92082865D01*
X115449539Y-92333252D01*
X115640941Y-92524987D01*
X115888941Y-92627967D01*
X115550908Y-92966000D01*
X114439623Y-92966000D01*
X114368759Y-92895013D01*
X114118554Y-92791118D01*
X113847635Y-92790882D01*
X113597248Y-92894339D01*
X113405513Y-93085741D01*
X113301618Y-93335946D01*
X113301382Y-93606865D01*
X113404839Y-93857252D01*
X113596241Y-94048987D01*
X113846446Y-94152882D01*
X113936515Y-94152960D01*
X113936382Y-94305365D01*
X114039839Y-94555752D01*
X114231241Y-94747487D01*
X114481446Y-94851382D01*
X114571515Y-94851460D01*
X114571382Y-95003865D01*
X114674839Y-95254252D01*
X114866241Y-95445987D01*
X115116446Y-95549882D01*
X115206570Y-95549961D01*
X115206382Y-95765865D01*
X115309839Y-96016252D01*
X115501241Y-96207987D01*
X115751446Y-96311882D01*
X116022365Y-96312118D01*
X116272752Y-96208661D01*
X116344538Y-96137000D01*
X118067098Y-96137000D01*
X118129940Y-96149500D01*
X118323578Y-96110983D01*
X118487736Y-96001296D01*
X120525000Y-93964032D01*
X120525000Y-97127471D01*
X120442548Y-97161539D01*
X120250813Y-97352941D01*
X120146918Y-97603146D01*
X120146682Y-97874065D01*
X120250139Y-98124452D01*
X120441541Y-98316187D01*
X120691746Y-98420082D01*
X120962665Y-98420318D01*
X121213052Y-98316861D01*
X121404787Y-98125459D01*
X121508682Y-97875254D01*
X121508854Y-97677498D01*
X121537000Y-97536000D01*
X121537000Y-95289000D01*
X121697536Y-95289000D01*
X121697536Y-96989000D01*
X121724103Y-97130190D01*
X121807546Y-97259865D01*
X121934866Y-97346859D01*
X122086000Y-97377464D01*
X123786000Y-97377464D01*
X123927190Y-97350897D01*
X124056865Y-97267454D01*
X124143859Y-97140134D01*
X124174464Y-96989000D01*
X124174464Y-95289000D01*
X124147897Y-95147810D01*
X124064454Y-95018135D01*
X123937134Y-94931141D01*
X123786000Y-94900536D01*
X122086000Y-94900536D01*
X121944810Y-94927103D01*
X121815135Y-95010546D01*
X121728141Y-95137866D01*
X121697536Y-95289000D01*
X121537000Y-95289000D01*
X121537000Y-92265500D01*
X121680883Y-92265500D01*
X121774587Y-92736583D01*
X122041435Y-93135948D01*
X122440800Y-93402796D01*
X122911883Y-93496500D01*
X122960117Y-93496500D01*
X123431200Y-93402796D01*
X123830565Y-93135948D01*
X124097413Y-92736583D01*
X124191117Y-92265500D01*
X124097413Y-91794417D01*
X123830565Y-91395052D01*
X123431200Y-91128204D01*
X122960117Y-91034500D01*
X122911883Y-91034500D01*
X122440800Y-91128204D01*
X122041435Y-91395052D01*
X121774587Y-91794417D01*
X121680883Y-92265500D01*
X121537000Y-92265500D01*
X121537000Y-89725500D01*
X121680883Y-89725500D01*
X121774587Y-90196583D01*
X122041435Y-90595948D01*
X122440800Y-90862796D01*
X122911883Y-90956500D01*
X122960117Y-90956500D01*
X123431200Y-90862796D01*
X123830565Y-90595948D01*
X124097413Y-90196583D01*
X124191117Y-89725500D01*
X124097413Y-89254417D01*
X123830565Y-88855052D01*
X123431200Y-88588204D01*
X122960117Y-88494500D01*
X122911883Y-88494500D01*
X122440800Y-88588204D01*
X122041435Y-88855052D01*
X121774587Y-89254417D01*
X121680883Y-89725500D01*
X121537000Y-89725500D01*
X121537000Y-89090500D01*
X121498483Y-88896862D01*
X121388796Y-88732704D01*
X120330500Y-87674408D01*
X120330500Y-87185500D01*
X121680883Y-87185500D01*
X121774587Y-87656583D01*
X122041435Y-88055948D01*
X122440800Y-88322796D01*
X122911883Y-88416500D01*
X122960117Y-88416500D01*
X123431200Y-88322796D01*
X123830565Y-88055948D01*
X124097413Y-87656583D01*
X124191117Y-87185500D01*
X124097413Y-86714417D01*
X123830565Y-86315052D01*
X123431200Y-86048204D01*
X122960117Y-85954500D01*
X122911883Y-85954500D01*
X122440800Y-86048204D01*
X122041435Y-86315052D01*
X121774587Y-86714417D01*
X121680883Y-87185500D01*
X120330500Y-87185500D01*
X120330500Y-84741250D01*
X121705000Y-84741250D01*
X121705000Y-85571285D01*
X121763004Y-85711319D01*
X121870180Y-85818496D01*
X122010214Y-85876500D01*
X122840250Y-85876500D01*
X122935500Y-85781250D01*
X122935500Y-84646000D01*
X122936500Y-84646000D01*
X122936500Y-85781250D01*
X123031750Y-85876500D01*
X123861786Y-85876500D01*
X124001820Y-85818496D01*
X124108996Y-85711319D01*
X124167000Y-85571285D01*
X124167000Y-84741250D01*
X124071750Y-84646000D01*
X122936500Y-84646000D01*
X122935500Y-84646000D01*
X121800250Y-84646000D01*
X121705000Y-84741250D01*
X120330500Y-84741250D01*
X120330500Y-84211500D01*
X120291983Y-84017862D01*
X120182296Y-83853704D01*
X120089796Y-83761204D01*
X120027704Y-83719715D01*
X121705000Y-83719715D01*
X121705000Y-84549750D01*
X121800250Y-84645000D01*
X122935500Y-84645000D01*
X122935500Y-83509750D01*
X122936500Y-83509750D01*
X122936500Y-84645000D01*
X124071750Y-84645000D01*
X124167000Y-84549750D01*
X124167000Y-83719715D01*
X124108996Y-83579681D01*
X124001820Y-83472504D01*
X123861786Y-83414500D01*
X123031750Y-83414500D01*
X122936500Y-83509750D01*
X122935500Y-83509750D01*
X122840250Y-83414500D01*
X122010214Y-83414500D01*
X121870180Y-83472504D01*
X121763004Y-83579681D01*
X121705000Y-83719715D01*
X120027704Y-83719715D01*
X119925638Y-83651517D01*
X119732000Y-83613000D01*
X119697270Y-83613000D01*
X119642743Y-83531394D01*
X119501472Y-83437000D01*
X119634000Y-83437000D01*
X119827638Y-83398483D01*
X119991796Y-83288796D01*
X122104988Y-81175604D01*
X122555000Y-81265117D01*
X123026083Y-81171413D01*
X123425448Y-80904565D01*
X123692296Y-80505200D01*
X123786000Y-80034117D01*
X123786000Y-79985883D01*
X123692296Y-79514800D01*
X123425448Y-79115435D01*
X123026083Y-78848587D01*
X122555000Y-78754883D01*
X122083917Y-78848587D01*
X121684552Y-79115435D01*
X121417704Y-79514800D01*
X121324000Y-79985883D01*
X121324000Y-80034117D01*
X121405510Y-80443898D01*
X119424408Y-82425000D01*
X118315592Y-82425000D01*
X119564988Y-81175604D01*
X120015000Y-81265117D01*
X120486083Y-81171413D01*
X120885448Y-80904565D01*
X121152296Y-80505200D01*
X121246000Y-80034117D01*
X121246000Y-79985883D01*
X121152296Y-79514800D01*
X120885448Y-79115435D01*
X120486083Y-78848587D01*
X120015000Y-78754883D01*
X119543917Y-78848587D01*
X119144552Y-79115435D01*
X118877704Y-79514800D01*
X118784000Y-79985883D01*
X118784000Y-80034117D01*
X118865510Y-80443898D01*
X117334419Y-81974989D01*
X116225603Y-81974989D01*
X117024988Y-81175604D01*
X117475000Y-81265117D01*
X117946083Y-81171413D01*
X118345448Y-80904565D01*
X118612296Y-80505200D01*
X118706000Y-80034117D01*
X118706000Y-79985883D01*
X118612296Y-79514800D01*
X118345448Y-79115435D01*
X117946083Y-78848587D01*
X117475000Y-78754883D01*
X117003917Y-78848587D01*
X116604552Y-79115435D01*
X116337704Y-79514800D01*
X116244000Y-79985883D01*
X116244000Y-80034117D01*
X116325510Y-80443898D01*
X115244430Y-81524978D01*
X114135614Y-81524978D01*
X114484988Y-81175604D01*
X114935000Y-81265117D01*
X115406083Y-81171413D01*
X115805448Y-80904565D01*
X116072296Y-80505200D01*
X116166000Y-80034117D01*
X116166000Y-79985883D01*
X116072296Y-79514800D01*
X115805448Y-79115435D01*
X115406083Y-78848587D01*
X114935000Y-78754883D01*
X114463917Y-78848587D01*
X114064552Y-79115435D01*
X113797704Y-79514800D01*
X113704000Y-79985883D01*
X113704000Y-80034117D01*
X113785510Y-80443898D01*
X113154441Y-81074967D01*
X113010424Y-81074967D01*
X113265448Y-80904565D01*
X113532296Y-80505200D01*
X113626000Y-80034117D01*
X113626000Y-79985883D01*
X113532296Y-79514800D01*
X113265448Y-79115435D01*
X112866083Y-78848587D01*
X112395000Y-78754883D01*
X111923917Y-78848587D01*
X111524552Y-79115435D01*
X111257704Y-79514800D01*
X111164000Y-79985883D01*
X111164000Y-80034117D01*
X111257704Y-80505200D01*
X111524552Y-80904565D01*
X111779576Y-81074967D01*
X110470424Y-81074967D01*
X110725448Y-80904565D01*
X110992296Y-80505200D01*
X111086000Y-80034117D01*
X111086000Y-79985883D01*
X110992296Y-79514800D01*
X110725448Y-79115435D01*
X110326083Y-78848587D01*
X109855000Y-78754883D01*
X109383917Y-78848587D01*
X108984552Y-79115435D01*
X108717704Y-79514800D01*
X108624000Y-79985883D01*
X108624000Y-80034117D01*
X108717704Y-80505200D01*
X108984552Y-80904565D01*
X109239576Y-81074967D01*
X109109533Y-81074967D01*
X108915895Y-81113484D01*
X108751737Y-81223171D01*
X107439293Y-82535615D01*
X107433315Y-82503841D01*
X107406035Y-82461447D01*
X107364410Y-82433006D01*
X107315000Y-82423000D01*
X100456000Y-82423000D01*
X100456000Y-80105750D01*
X101004000Y-80105750D01*
X101004000Y-80935786D01*
X101062004Y-81075820D01*
X101169181Y-81182996D01*
X101309215Y-81241000D01*
X102139250Y-81241000D01*
X102234500Y-81145750D01*
X102234500Y-80010500D01*
X102235500Y-80010500D01*
X102235500Y-81145750D01*
X102330750Y-81241000D01*
X103160785Y-81241000D01*
X103300819Y-81182996D01*
X103407996Y-81075820D01*
X103466000Y-80935786D01*
X103466000Y-80105750D01*
X103370750Y-80010500D01*
X102235500Y-80010500D01*
X102234500Y-80010500D01*
X101099250Y-80010500D01*
X101004000Y-80105750D01*
X100456000Y-80105750D01*
X100456000Y-79084214D01*
X101004000Y-79084214D01*
X101004000Y-79914250D01*
X101099250Y-80009500D01*
X102234500Y-80009500D01*
X102234500Y-78874250D01*
X102235500Y-78874250D01*
X102235500Y-80009500D01*
X103370750Y-80009500D01*
X103394367Y-79985883D01*
X103544000Y-79985883D01*
X103544000Y-80034117D01*
X103637704Y-80505200D01*
X103904552Y-80904565D01*
X104303917Y-81171413D01*
X104775000Y-81265117D01*
X105246083Y-81171413D01*
X105645448Y-80904565D01*
X105912296Y-80505200D01*
X106006000Y-80034117D01*
X106006000Y-79985883D01*
X106084000Y-79985883D01*
X106084000Y-80034117D01*
X106177704Y-80505200D01*
X106444552Y-80904565D01*
X106843917Y-81171413D01*
X107315000Y-81265117D01*
X107786083Y-81171413D01*
X108185448Y-80904565D01*
X108452296Y-80505200D01*
X108546000Y-80034117D01*
X108546000Y-79985883D01*
X108452296Y-79514800D01*
X108185448Y-79115435D01*
X107786083Y-78848587D01*
X107315000Y-78754883D01*
X106843917Y-78848587D01*
X106444552Y-79115435D01*
X106177704Y-79514800D01*
X106084000Y-79985883D01*
X106006000Y-79985883D01*
X105912296Y-79514800D01*
X105645448Y-79115435D01*
X105246083Y-78848587D01*
X104775000Y-78754883D01*
X104303917Y-78848587D01*
X103904552Y-79115435D01*
X103637704Y-79514800D01*
X103544000Y-79985883D01*
X103394367Y-79985883D01*
X103466000Y-79914250D01*
X103466000Y-79084214D01*
X103407996Y-78944180D01*
X103300819Y-78837004D01*
X103160785Y-78779000D01*
X102330750Y-78779000D01*
X102235500Y-78874250D01*
X102234500Y-78874250D01*
X102139250Y-78779000D01*
X101309215Y-78779000D01*
X101169181Y-78837004D01*
X101062004Y-78944180D01*
X101004000Y-79084214D01*
X100456000Y-79084214D01*
X100456000Y-78456000D01*
X124544000Y-78456000D01*
X124544000Y-127544000D01*
X124544000Y-127544000D01*
G37*
X124544000Y-127544000D02*
X100456000Y-127544000D01*
X100456000Y-125833083D01*
X100902600Y-125833083D01*
X100902600Y-125881317D01*
X100996304Y-126352400D01*
X101263152Y-126751765D01*
X101662517Y-127018613D01*
X102133600Y-127112317D01*
X102604683Y-127018613D01*
X103004048Y-126751765D01*
X103270896Y-126352400D01*
X103350351Y-125952950D01*
X103442600Y-125952950D01*
X103442600Y-126782986D01*
X103500604Y-126923020D01*
X103607781Y-127030196D01*
X103747815Y-127088200D01*
X104577850Y-127088200D01*
X104673100Y-126992950D01*
X104673100Y-125857700D01*
X104674100Y-125857700D01*
X104674100Y-126992950D01*
X104769350Y-127088200D01*
X105599385Y-127088200D01*
X105739419Y-127030196D01*
X105846596Y-126923020D01*
X105904600Y-126782986D01*
X105904600Y-126087083D01*
X113501000Y-126087083D01*
X113501000Y-126135317D01*
X113594704Y-126606400D01*
X113861552Y-127005765D01*
X114260917Y-127272613D01*
X114732000Y-127366317D01*
X115203083Y-127272613D01*
X115602448Y-127005765D01*
X115869296Y-126606400D01*
X115963000Y-126135317D01*
X115963000Y-126087083D01*
X116041000Y-126087083D01*
X116041000Y-126135317D01*
X116134704Y-126606400D01*
X116401552Y-127005765D01*
X116800917Y-127272613D01*
X117272000Y-127366317D01*
X117743083Y-127272613D01*
X118142448Y-127005765D01*
X118409296Y-126606400D01*
X118488751Y-126206950D01*
X118581000Y-126206950D01*
X118581000Y-127036986D01*
X118639004Y-127177020D01*
X118746181Y-127284196D01*
X118886215Y-127342200D01*
X119716250Y-127342200D01*
X119811500Y-127246950D01*
X119811500Y-126111700D01*
X119812500Y-126111700D01*
X119812500Y-127246950D01*
X119907750Y-127342200D01*
X120737785Y-127342200D01*
X120877819Y-127284196D01*
X120984996Y-127177020D01*
X121043000Y-127036986D01*
X121043000Y-126206950D01*
X120947750Y-126111700D01*
X119812500Y-126111700D01*
X119811500Y-126111700D01*
X118676250Y-126111700D01*
X118581000Y-126206950D01*
X118488751Y-126206950D01*
X118503000Y-126135317D01*
X118503000Y-126087083D01*
X118409296Y-125616000D01*
X118142448Y-125216635D01*
X118095723Y-125185414D01*
X118581000Y-125185414D01*
X118581000Y-126015450D01*
X118676250Y-126110700D01*
X119811500Y-126110700D01*
X119811500Y-124975450D01*
X119812500Y-124975450D01*
X119812500Y-126110700D01*
X120947750Y-126110700D01*
X121043000Y-126015450D01*
X121043000Y-125185414D01*
X120984996Y-125045380D01*
X120877819Y-124938204D01*
X120737785Y-124880200D01*
X119907750Y-124880200D01*
X119812500Y-124975450D01*
X119811500Y-124975450D01*
X119716250Y-124880200D01*
X118886215Y-124880200D01*
X118746181Y-124938204D01*
X118639004Y-125045380D01*
X118581000Y-125185414D01*
X118095723Y-125185414D01*
X117743083Y-124949787D01*
X117272000Y-124856083D01*
X116800917Y-124949787D01*
X116401552Y-125216635D01*
X116134704Y-125616000D01*
X116041000Y-126087083D01*
X115963000Y-126087083D01*
X115869296Y-125616000D01*
X115602448Y-125216635D01*
X115203083Y-124949787D01*
X114732000Y-124856083D01*
X114260917Y-124949787D01*
X113861552Y-125216635D01*
X113594704Y-125616000D01*
X113501000Y-126087083D01*
X105904600Y-126087083D01*
X105904600Y-125952950D01*
X105809350Y-125857700D01*
X104674100Y-125857700D01*
X104673100Y-125857700D01*
X103537850Y-125857700D01*
X103442600Y-125952950D01*
X103350351Y-125952950D01*
X103364600Y-125881317D01*
X103364600Y-125833083D01*
X103270896Y-125362000D01*
X103004048Y-124962635D01*
X102957323Y-124931414D01*
X103442600Y-124931414D01*
X103442600Y-125761450D01*
X103537850Y-125856700D01*
X104673100Y-125856700D01*
X104673100Y-124721450D01*
X104674100Y-124721450D01*
X104674100Y-125856700D01*
X105809350Y-125856700D01*
X105904600Y-125761450D01*
X105904600Y-124931414D01*
X105846596Y-124791380D01*
X105739419Y-124684204D01*
X105599385Y-124626200D01*
X104769350Y-124626200D01*
X104674100Y-124721450D01*
X104673100Y-124721450D01*
X104577850Y-124626200D01*
X103747815Y-124626200D01*
X103607781Y-124684204D01*
X103500604Y-124791380D01*
X103442600Y-124931414D01*
X102957323Y-124931414D01*
X102604683Y-124695787D01*
X102133600Y-124602083D01*
X101662517Y-124695787D01*
X101263152Y-124962635D01*
X100996304Y-125362000D01*
X100902600Y-125833083D01*
X100456000Y-125833083D01*
X100456000Y-112529865D01*
X120045082Y-112529865D01*
X120148539Y-112780252D01*
X120339941Y-112971987D01*
X120590146Y-113075882D01*
X120861065Y-113076118D01*
X121111452Y-112972661D01*
X121303187Y-112781259D01*
X121407082Y-112531054D01*
X121407318Y-112260135D01*
X121375138Y-112182254D01*
X122919761Y-110637631D01*
X123020065Y-110637718D01*
X123270452Y-110534261D01*
X123462187Y-110342859D01*
X123566082Y-110092654D01*
X123566318Y-109821735D01*
X123462861Y-109571348D01*
X123271459Y-109379613D01*
X123021254Y-109275718D01*
X122750335Y-109275482D01*
X122499948Y-109378939D01*
X122308213Y-109570341D01*
X122204318Y-109820546D01*
X122204230Y-109921978D01*
X120368404Y-111757804D01*
X120303937Y-111854286D01*
X120149213Y-112008741D01*
X120045318Y-112258946D01*
X120045082Y-112529865D01*
X100456000Y-112529865D01*
X100456000Y-110940600D01*
X101310712Y-110940600D01*
X101391095Y-111344714D01*
X101620007Y-111687305D01*
X101962598Y-111916217D01*
X102366712Y-111996600D01*
X102408088Y-111996600D01*
X102812202Y-111916217D01*
X103154793Y-111687305D01*
X103383705Y-111344714D01*
X103464088Y-110940600D01*
X103383705Y-110536486D01*
X103154793Y-110193895D01*
X102870691Y-110004064D01*
X103062400Y-110004064D01*
X103203590Y-109977497D01*
X103333265Y-109894054D01*
X103420259Y-109766734D01*
X103450864Y-109615600D01*
X103450864Y-108265600D01*
X103424297Y-108124410D01*
X103340854Y-107994735D01*
X103213534Y-107907741D01*
X103062400Y-107877136D01*
X101712400Y-107877136D01*
X101571210Y-107903703D01*
X101441535Y-107987146D01*
X101354541Y-108114466D01*
X101323936Y-108265600D01*
X101323936Y-109615600D01*
X101350503Y-109756790D01*
X101433946Y-109886465D01*
X101561266Y-109973459D01*
X101712400Y-110004064D01*
X101904109Y-110004064D01*
X101620007Y-110193895D01*
X101391095Y-110536486D01*
X101310712Y-110940600D01*
X100456000Y-110940600D01*
X100456000Y-105539565D01*
X101146234Y-105539565D01*
X101164896Y-105633385D01*
X101365806Y-106069659D01*
X101718378Y-106395839D01*
X102168935Y-106562266D01*
X102361500Y-106482250D01*
X102361500Y-105347000D01*
X102362500Y-105347000D01*
X102362500Y-106482250D01*
X102555065Y-106562266D01*
X103005622Y-106395839D01*
X103358194Y-106069659D01*
X103559104Y-105633385D01*
X103577766Y-105539565D01*
X103497750Y-105347000D01*
X102362500Y-105347000D01*
X102361500Y-105347000D01*
X101226250Y-105347000D01*
X101146234Y-105539565D01*
X100456000Y-105539565D01*
X100456000Y-105153435D01*
X101146234Y-105153435D01*
X101226250Y-105346000D01*
X102361500Y-105346000D01*
X102361500Y-104210750D01*
X102362500Y-104210750D01*
X102362500Y-105346000D01*
X103497750Y-105346000D01*
X103577766Y-105153435D01*
X103559104Y-105059615D01*
X103358194Y-104623341D01*
X103005622Y-104297161D01*
X102555065Y-104130734D01*
X102362500Y-104210750D01*
X102361500Y-104210750D01*
X102168935Y-104130734D01*
X101718378Y-104297161D01*
X101365806Y-104623341D01*
X101164896Y-105059615D01*
X101146234Y-105153435D01*
X100456000Y-105153435D01*
X100456000Y-102806500D01*
X101106883Y-102806500D01*
X101200587Y-103277583D01*
X101467435Y-103676948D01*
X101866800Y-103943796D01*
X102337883Y-104037500D01*
X102386117Y-104037500D01*
X102857200Y-103943796D01*
X103256565Y-103676948D01*
X103523413Y-103277583D01*
X103617117Y-102806500D01*
X103523413Y-102335417D01*
X103256565Y-101936052D01*
X102857200Y-101669204D01*
X102386117Y-101575500D01*
X102337883Y-101575500D01*
X101866800Y-101669204D01*
X101467435Y-101936052D01*
X101200587Y-102335417D01*
X101106883Y-102806500D01*
X100456000Y-102806500D01*
X100456000Y-100266500D01*
X101106883Y-100266500D01*
X101200587Y-100737583D01*
X101467435Y-101136948D01*
X101866800Y-101403796D01*
X102337883Y-101497500D01*
X102386117Y-101497500D01*
X102857200Y-101403796D01*
X103256565Y-101136948D01*
X103523413Y-100737583D01*
X103617117Y-100266500D01*
X103523413Y-99795417D01*
X103256565Y-99396052D01*
X102857200Y-99129204D01*
X102386117Y-99035500D01*
X102337883Y-99035500D01*
X101866800Y-99129204D01*
X101467435Y-99396052D01*
X101200587Y-99795417D01*
X101106883Y-100266500D01*
X100456000Y-100266500D01*
X100456000Y-96876500D01*
X101123536Y-96876500D01*
X101123536Y-98576500D01*
X101150103Y-98717690D01*
X101233546Y-98847365D01*
X101360866Y-98934359D01*
X101512000Y-98964964D01*
X103212000Y-98964964D01*
X103353190Y-98938397D01*
X103482865Y-98854954D01*
X103569859Y-98727634D01*
X103600464Y-98576500D01*
X103600464Y-96876500D01*
X103573897Y-96735310D01*
X103490454Y-96605635D01*
X103363134Y-96518641D01*
X103212000Y-96488036D01*
X101512000Y-96488036D01*
X101370810Y-96514603D01*
X101241135Y-96598046D01*
X101154141Y-96725366D01*
X101123536Y-96876500D01*
X100456000Y-96876500D01*
X100456000Y-94742000D01*
X106936000Y-94742000D01*
X106936000Y-97512678D01*
X103987171Y-100461507D01*
X103877484Y-100625665D01*
X103838967Y-100819303D01*
X103838967Y-104669069D01*
X103877484Y-104862707D01*
X103987171Y-105026865D01*
X104773278Y-105812972D01*
X104773191Y-105913276D01*
X104876648Y-106163663D01*
X105068050Y-106355398D01*
X105318255Y-106459293D01*
X105589174Y-106459529D01*
X105839561Y-106356072D01*
X106031296Y-106164670D01*
X106135191Y-105914465D01*
X106135427Y-105643546D01*
X106118015Y-105601404D01*
X106295112Y-105424614D01*
X106435192Y-105564694D01*
X106435192Y-111328277D01*
X106364205Y-111399141D01*
X106260310Y-111649346D01*
X106260074Y-111920265D01*
X106363531Y-112170652D01*
X106554933Y-112362387D01*
X106805138Y-112466282D01*
X107076057Y-112466518D01*
X107326444Y-112363061D01*
X107518179Y-112171659D01*
X107617308Y-111932932D01*
X107830865Y-111933118D01*
X108081252Y-111829661D01*
X108168599Y-111742465D01*
X108437282Y-111742465D01*
X108540739Y-111992852D01*
X108732141Y-112184587D01*
X108982346Y-112288482D01*
X109253265Y-112288718D01*
X109503652Y-112185261D01*
X109575438Y-112113600D01*
X110744000Y-112113600D01*
X110937638Y-112075083D01*
X111101796Y-111965396D01*
X114300654Y-108766538D01*
X114400958Y-108766625D01*
X114651345Y-108663168D01*
X114843080Y-108471766D01*
X114946975Y-108221561D01*
X114947211Y-107950642D01*
X114845821Y-107705258D01*
X114900546Y-107727982D01*
X115171465Y-107728218D01*
X115421852Y-107624761D01*
X115613587Y-107433359D01*
X115717482Y-107183154D01*
X115717718Y-106912235D01*
X115614261Y-106661848D01*
X115422859Y-106470113D01*
X115172654Y-106366218D01*
X114901735Y-106365982D01*
X114651348Y-106469439D01*
X114579562Y-106541100D01*
X114415500Y-106541100D01*
X114221862Y-106579617D01*
X114057704Y-106689304D01*
X111656551Y-109090457D01*
X111580004Y-109141604D01*
X110607839Y-110113769D01*
X110507535Y-110113682D01*
X110257148Y-110217139D01*
X110065413Y-110408541D01*
X109961518Y-110658746D01*
X109961282Y-110929665D01*
X110032324Y-111101600D01*
X109575523Y-111101600D01*
X109504659Y-111030613D01*
X109254454Y-110926718D01*
X108983535Y-110926482D01*
X108733148Y-111029939D01*
X108541413Y-111221341D01*
X108437518Y-111471546D01*
X108437282Y-111742465D01*
X108168599Y-111742465D01*
X108272987Y-111638259D01*
X108376882Y-111388054D01*
X108377118Y-111117135D01*
X108273661Y-110866748D01*
X108202000Y-110794962D01*
X108202000Y-105473500D01*
X108163483Y-105279862D01*
X108053796Y-105115704D01*
X106551000Y-103612908D01*
X106551000Y-102692123D01*
X106621987Y-102621259D01*
X106725882Y-102371054D01*
X106726118Y-102100135D01*
X106622661Y-101849748D01*
X106551000Y-101777962D01*
X106551000Y-101248090D01*
X109256749Y-98542341D01*
X109730000Y-99015592D01*
X109730000Y-99758500D01*
X109768517Y-99952138D01*
X109878204Y-100116296D01*
X111317500Y-101555592D01*
X111317500Y-103739908D01*
X111235267Y-103822141D01*
X111125580Y-103986299D01*
X111087063Y-104179937D01*
X111087063Y-104653517D01*
X111016076Y-104724381D01*
X110912181Y-104974586D01*
X110911945Y-105245505D01*
X111015402Y-105495892D01*
X111206804Y-105687627D01*
X111457009Y-105791522D01*
X111727928Y-105791758D01*
X111978315Y-105688301D01*
X112170050Y-105496899D01*
X112273945Y-105246694D01*
X112274015Y-105166546D01*
X112494678Y-105166738D01*
X112745065Y-105063281D01*
X112936800Y-104871879D01*
X113040695Y-104621674D01*
X113040931Y-104350755D01*
X112937474Y-104100368D01*
X112865813Y-104028582D01*
X112865813Y-103139613D01*
X112827296Y-102945975D01*
X112824800Y-102942239D01*
X112824800Y-102776265D01*
X113542682Y-102776265D01*
X113646139Y-103026652D01*
X113717800Y-103098438D01*
X113717800Y-104733094D01*
X113756317Y-104926732D01*
X113866004Y-105090890D01*
X114345589Y-105570475D01*
X114345502Y-105670779D01*
X114448959Y-105921166D01*
X114640361Y-106112901D01*
X114890566Y-106216796D01*
X115161485Y-106217032D01*
X115411872Y-106113575D01*
X115603607Y-105922173D01*
X115707502Y-105671968D01*
X115707738Y-105401049D01*
X115604281Y-105150662D01*
X115412879Y-104958927D01*
X115162674Y-104855032D01*
X115061242Y-104854944D01*
X114729800Y-104523502D01*
X114729800Y-104523317D01*
X114773546Y-104541482D01*
X115044465Y-104541718D01*
X115294852Y-104438261D01*
X115486587Y-104246859D01*
X115561437Y-104066601D01*
X117190799Y-104066601D01*
X117384437Y-104028084D01*
X117548595Y-103918397D01*
X117941361Y-103525631D01*
X118041665Y-103525718D01*
X118292052Y-103422261D01*
X118483787Y-103230859D01*
X118587682Y-102980654D01*
X118587918Y-102709735D01*
X118484461Y-102459348D01*
X118293059Y-102267613D01*
X118042854Y-102163718D01*
X117771935Y-102163482D01*
X117521548Y-102266939D01*
X117329813Y-102458341D01*
X117225918Y-102708546D01*
X117225830Y-102809978D01*
X116981207Y-103054601D01*
X116672491Y-103054601D01*
X117509561Y-102217531D01*
X117609865Y-102217618D01*
X117860252Y-102114161D01*
X118051987Y-101922759D01*
X118155882Y-101672554D01*
X118156118Y-101401635D01*
X118080656Y-101219000D01*
X121680883Y-101219000D01*
X121774587Y-101690083D01*
X122041435Y-102089448D01*
X122440800Y-102356296D01*
X122911883Y-102450000D01*
X122960117Y-102450000D01*
X123431200Y-102356296D01*
X123830565Y-102089448D01*
X124097413Y-101690083D01*
X124191117Y-101219000D01*
X124097413Y-100747917D01*
X123830565Y-100348552D01*
X123431200Y-100081704D01*
X122960117Y-99988000D01*
X122911883Y-99988000D01*
X122440800Y-100081704D01*
X122041435Y-100348552D01*
X121774587Y-100747917D01*
X121680883Y-101219000D01*
X118080656Y-101219000D01*
X118052661Y-101151248D01*
X117861259Y-100959513D01*
X117611054Y-100855618D01*
X117340135Y-100855382D01*
X117089748Y-100958839D01*
X116898013Y-101150241D01*
X116794118Y-101400446D01*
X116794030Y-101501878D01*
X116103756Y-102192152D01*
X115527755Y-102192152D01*
X115456891Y-102121165D01*
X115206686Y-102017270D01*
X114935767Y-102017034D01*
X114685380Y-102120491D01*
X114675693Y-102130161D01*
X114610059Y-102064413D01*
X114359854Y-101960518D01*
X114088935Y-101960282D01*
X113838548Y-102063739D01*
X113646813Y-102255141D01*
X113542918Y-102505346D01*
X113542682Y-102776265D01*
X112824800Y-102776265D01*
X112824800Y-101117400D01*
X112786283Y-100923762D01*
X112676596Y-100759604D01*
X111250000Y-99333008D01*
X111250000Y-98679000D01*
X121680883Y-98679000D01*
X121774587Y-99150083D01*
X122041435Y-99549448D01*
X122440800Y-99816296D01*
X122911883Y-99910000D01*
X122960117Y-99910000D01*
X123431200Y-99816296D01*
X123830565Y-99549448D01*
X124097413Y-99150083D01*
X124191117Y-98679000D01*
X124097413Y-98207917D01*
X123830565Y-97808552D01*
X123431200Y-97541704D01*
X122960117Y-97448000D01*
X122911883Y-97448000D01*
X122440800Y-97541704D01*
X122041435Y-97808552D01*
X121774587Y-98207917D01*
X121680883Y-98679000D01*
X111250000Y-98679000D01*
X111250000Y-98552000D01*
X111211483Y-98358362D01*
X111101796Y-98194204D01*
X110742000Y-97834408D01*
X110742000Y-94881623D01*
X110812987Y-94810759D01*
X110916882Y-94560554D01*
X110917118Y-94289635D01*
X110813661Y-94039248D01*
X110622259Y-93847513D01*
X110372054Y-93743618D01*
X110101135Y-93743382D01*
X109850748Y-93846839D01*
X109659013Y-94038241D01*
X109555118Y-94288446D01*
X109555095Y-94314959D01*
X109535500Y-94314942D01*
X109535500Y-84029592D01*
X110128092Y-83437000D01*
X116333924Y-83437000D01*
X116284118Y-83556946D01*
X116283882Y-83827865D01*
X116387339Y-84078252D01*
X116578741Y-84269987D01*
X116828946Y-84373882D01*
X116930378Y-84373970D01*
X117033204Y-84476796D01*
X117197362Y-84586483D01*
X117391000Y-84625000D01*
X117666730Y-84625000D01*
X117721257Y-84706606D01*
X117803804Y-84761762D01*
X117744040Y-84801747D01*
X117564064Y-85071452D01*
X117511309Y-85258509D01*
X117596250Y-85388500D01*
X118681500Y-85388500D01*
X118681500Y-85368500D01*
X118682500Y-85368500D01*
X118682500Y-85388500D01*
X118702500Y-85388500D01*
X118702500Y-85389500D01*
X118682500Y-85389500D01*
X118682500Y-85409500D01*
X118681500Y-85409500D01*
X118681500Y-85389500D01*
X117596250Y-85389500D01*
X117511309Y-85519491D01*
X117564064Y-85706548D01*
X117744040Y-85976253D01*
X117803804Y-86016238D01*
X117721257Y-86071394D01*
X117666730Y-86153000D01*
X117632000Y-86153000D01*
X117438362Y-86191517D01*
X117274204Y-86301204D01*
X117193404Y-86382004D01*
X117083717Y-86546162D01*
X117045200Y-86739800D01*
X117045200Y-90214408D01*
X115992639Y-91266969D01*
X115892335Y-91266882D01*
X115641948Y-91370339D01*
X115450213Y-91561741D01*
X115346318Y-91811946D01*
X115346082Y-92082865D01*
X115449539Y-92333252D01*
X115640941Y-92524987D01*
X115888941Y-92627967D01*
X115550908Y-92966000D01*
X114439623Y-92966000D01*
X114368759Y-92895013D01*
X114118554Y-92791118D01*
X113847635Y-92790882D01*
X113597248Y-92894339D01*
X113405513Y-93085741D01*
X113301618Y-93335946D01*
X113301382Y-93606865D01*
X113404839Y-93857252D01*
X113596241Y-94048987D01*
X113846446Y-94152882D01*
X113936515Y-94152960D01*
X113936382Y-94305365D01*
X114039839Y-94555752D01*
X114231241Y-94747487D01*
X114481446Y-94851382D01*
X114571515Y-94851460D01*
X114571382Y-95003865D01*
X114674839Y-95254252D01*
X114866241Y-95445987D01*
X115116446Y-95549882D01*
X115206570Y-95549961D01*
X115206382Y-95765865D01*
X115309839Y-96016252D01*
X115501241Y-96207987D01*
X115751446Y-96311882D01*
X116022365Y-96312118D01*
X116272752Y-96208661D01*
X116344538Y-96137000D01*
X118067098Y-96137000D01*
X118129940Y-96149500D01*
X118323578Y-96110983D01*
X118487736Y-96001296D01*
X120525000Y-93964032D01*
X120525000Y-97127471D01*
X120442548Y-97161539D01*
X120250813Y-97352941D01*
X120146918Y-97603146D01*
X120146682Y-97874065D01*
X120250139Y-98124452D01*
X120441541Y-98316187D01*
X120691746Y-98420082D01*
X120962665Y-98420318D01*
X121213052Y-98316861D01*
X121404787Y-98125459D01*
X121508682Y-97875254D01*
X121508854Y-97677498D01*
X121537000Y-97536000D01*
X121537000Y-95289000D01*
X121697536Y-95289000D01*
X121697536Y-96989000D01*
X121724103Y-97130190D01*
X121807546Y-97259865D01*
X121934866Y-97346859D01*
X122086000Y-97377464D01*
X123786000Y-97377464D01*
X123927190Y-97350897D01*
X124056865Y-97267454D01*
X124143859Y-97140134D01*
X124174464Y-96989000D01*
X124174464Y-95289000D01*
X124147897Y-95147810D01*
X124064454Y-95018135D01*
X123937134Y-94931141D01*
X123786000Y-94900536D01*
X122086000Y-94900536D01*
X121944810Y-94927103D01*
X121815135Y-95010546D01*
X121728141Y-95137866D01*
X121697536Y-95289000D01*
X121537000Y-95289000D01*
X121537000Y-92265500D01*
X121680883Y-92265500D01*
X121774587Y-92736583D01*
X122041435Y-93135948D01*
X122440800Y-93402796D01*
X122911883Y-93496500D01*
X122960117Y-93496500D01*
X123431200Y-93402796D01*
X123830565Y-93135948D01*
X124097413Y-92736583D01*
X124191117Y-92265500D01*
X124097413Y-91794417D01*
X123830565Y-91395052D01*
X123431200Y-91128204D01*
X122960117Y-91034500D01*
X122911883Y-91034500D01*
X122440800Y-91128204D01*
X122041435Y-91395052D01*
X121774587Y-91794417D01*
X121680883Y-92265500D01*
X121537000Y-92265500D01*
X121537000Y-89725500D01*
X121680883Y-89725500D01*
X121774587Y-90196583D01*
X122041435Y-90595948D01*
X122440800Y-90862796D01*
X122911883Y-90956500D01*
X122960117Y-90956500D01*
X123431200Y-90862796D01*
X123830565Y-90595948D01*
X124097413Y-90196583D01*
X124191117Y-89725500D01*
X124097413Y-89254417D01*
X123830565Y-88855052D01*
X123431200Y-88588204D01*
X122960117Y-88494500D01*
X122911883Y-88494500D01*
X122440800Y-88588204D01*
X122041435Y-88855052D01*
X121774587Y-89254417D01*
X121680883Y-89725500D01*
X121537000Y-89725500D01*
X121537000Y-89090500D01*
X121498483Y-88896862D01*
X121388796Y-88732704D01*
X120330500Y-87674408D01*
X120330500Y-87185500D01*
X121680883Y-87185500D01*
X121774587Y-87656583D01*
X122041435Y-88055948D01*
X122440800Y-88322796D01*
X122911883Y-88416500D01*
X122960117Y-88416500D01*
X123431200Y-88322796D01*
X123830565Y-88055948D01*
X124097413Y-87656583D01*
X124191117Y-87185500D01*
X124097413Y-86714417D01*
X123830565Y-86315052D01*
X123431200Y-86048204D01*
X122960117Y-85954500D01*
X122911883Y-85954500D01*
X122440800Y-86048204D01*
X122041435Y-86315052D01*
X121774587Y-86714417D01*
X121680883Y-87185500D01*
X120330500Y-87185500D01*
X120330500Y-84741250D01*
X121705000Y-84741250D01*
X121705000Y-85571285D01*
X121763004Y-85711319D01*
X121870180Y-85818496D01*
X122010214Y-85876500D01*
X122840250Y-85876500D01*
X122935500Y-85781250D01*
X122935500Y-84646000D01*
X122936500Y-84646000D01*
X122936500Y-85781250D01*
X123031750Y-85876500D01*
X123861786Y-85876500D01*
X124001820Y-85818496D01*
X124108996Y-85711319D01*
X124167000Y-85571285D01*
X124167000Y-84741250D01*
X124071750Y-84646000D01*
X122936500Y-84646000D01*
X122935500Y-84646000D01*
X121800250Y-84646000D01*
X121705000Y-84741250D01*
X120330500Y-84741250D01*
X120330500Y-84211500D01*
X120291983Y-84017862D01*
X120182296Y-83853704D01*
X120089796Y-83761204D01*
X120027704Y-83719715D01*
X121705000Y-83719715D01*
X121705000Y-84549750D01*
X121800250Y-84645000D01*
X122935500Y-84645000D01*
X122935500Y-83509750D01*
X122936500Y-83509750D01*
X122936500Y-84645000D01*
X124071750Y-84645000D01*
X124167000Y-84549750D01*
X124167000Y-83719715D01*
X124108996Y-83579681D01*
X124001820Y-83472504D01*
X123861786Y-83414500D01*
X123031750Y-83414500D01*
X122936500Y-83509750D01*
X122935500Y-83509750D01*
X122840250Y-83414500D01*
X122010214Y-83414500D01*
X121870180Y-83472504D01*
X121763004Y-83579681D01*
X121705000Y-83719715D01*
X120027704Y-83719715D01*
X119925638Y-83651517D01*
X119732000Y-83613000D01*
X119697270Y-83613000D01*
X119642743Y-83531394D01*
X119501472Y-83437000D01*
X119634000Y-83437000D01*
X119827638Y-83398483D01*
X119991796Y-83288796D01*
X122104988Y-81175604D01*
X122555000Y-81265117D01*
X123026083Y-81171413D01*
X123425448Y-80904565D01*
X123692296Y-80505200D01*
X123786000Y-80034117D01*
X123786000Y-79985883D01*
X123692296Y-79514800D01*
X123425448Y-79115435D01*
X123026083Y-78848587D01*
X122555000Y-78754883D01*
X122083917Y-78848587D01*
X121684552Y-79115435D01*
X121417704Y-79514800D01*
X121324000Y-79985883D01*
X121324000Y-80034117D01*
X121405510Y-80443898D01*
X119424408Y-82425000D01*
X118315592Y-82425000D01*
X119564988Y-81175604D01*
X120015000Y-81265117D01*
X120486083Y-81171413D01*
X120885448Y-80904565D01*
X121152296Y-80505200D01*
X121246000Y-80034117D01*
X121246000Y-79985883D01*
X121152296Y-79514800D01*
X120885448Y-79115435D01*
X120486083Y-78848587D01*
X120015000Y-78754883D01*
X119543917Y-78848587D01*
X119144552Y-79115435D01*
X118877704Y-79514800D01*
X118784000Y-79985883D01*
X118784000Y-80034117D01*
X118865510Y-80443898D01*
X117334419Y-81974989D01*
X116225603Y-81974989D01*
X117024988Y-81175604D01*
X117475000Y-81265117D01*
X117946083Y-81171413D01*
X118345448Y-80904565D01*
X118612296Y-80505200D01*
X118706000Y-80034117D01*
X118706000Y-79985883D01*
X118612296Y-79514800D01*
X118345448Y-79115435D01*
X117946083Y-78848587D01*
X117475000Y-78754883D01*
X117003917Y-78848587D01*
X116604552Y-79115435D01*
X116337704Y-79514800D01*
X116244000Y-79985883D01*
X116244000Y-80034117D01*
X116325510Y-80443898D01*
X115244430Y-81524978D01*
X114135614Y-81524978D01*
X114484988Y-81175604D01*
X114935000Y-81265117D01*
X115406083Y-81171413D01*
X115805448Y-80904565D01*
X116072296Y-80505200D01*
X116166000Y-80034117D01*
X116166000Y-79985883D01*
X116072296Y-79514800D01*
X115805448Y-79115435D01*
X115406083Y-78848587D01*
X114935000Y-78754883D01*
X114463917Y-78848587D01*
X114064552Y-79115435D01*
X113797704Y-79514800D01*
X113704000Y-79985883D01*
X113704000Y-80034117D01*
X113785510Y-80443898D01*
X113154441Y-81074967D01*
X113010424Y-81074967D01*
X113265448Y-80904565D01*
X113532296Y-80505200D01*
X113626000Y-80034117D01*
X113626000Y-79985883D01*
X113532296Y-79514800D01*
X113265448Y-79115435D01*
X112866083Y-78848587D01*
X112395000Y-78754883D01*
X111923917Y-78848587D01*
X111524552Y-79115435D01*
X111257704Y-79514800D01*
X111164000Y-79985883D01*
X111164000Y-80034117D01*
X111257704Y-80505200D01*
X111524552Y-80904565D01*
X111779576Y-81074967D01*
X110470424Y-81074967D01*
X110725448Y-80904565D01*
X110992296Y-80505200D01*
X111086000Y-80034117D01*
X111086000Y-79985883D01*
X110992296Y-79514800D01*
X110725448Y-79115435D01*
X110326083Y-78848587D01*
X109855000Y-78754883D01*
X109383917Y-78848587D01*
X108984552Y-79115435D01*
X108717704Y-79514800D01*
X108624000Y-79985883D01*
X108624000Y-80034117D01*
X108717704Y-80505200D01*
X108984552Y-80904565D01*
X109239576Y-81074967D01*
X109109533Y-81074967D01*
X108915895Y-81113484D01*
X108751737Y-81223171D01*
X107439293Y-82535615D01*
X107433315Y-82503841D01*
X107406035Y-82461447D01*
X107364410Y-82433006D01*
X107315000Y-82423000D01*
X100456000Y-82423000D01*
X100456000Y-80105750D01*
X101004000Y-80105750D01*
X101004000Y-80935786D01*
X101062004Y-81075820D01*
X101169181Y-81182996D01*
X101309215Y-81241000D01*
X102139250Y-81241000D01*
X102234500Y-81145750D01*
X102234500Y-80010500D01*
X102235500Y-80010500D01*
X102235500Y-81145750D01*
X102330750Y-81241000D01*
X103160785Y-81241000D01*
X103300819Y-81182996D01*
X103407996Y-81075820D01*
X103466000Y-80935786D01*
X103466000Y-80105750D01*
X103370750Y-80010500D01*
X102235500Y-80010500D01*
X102234500Y-80010500D01*
X101099250Y-80010500D01*
X101004000Y-80105750D01*
X100456000Y-80105750D01*
X100456000Y-79084214D01*
X101004000Y-79084214D01*
X101004000Y-79914250D01*
X101099250Y-80009500D01*
X102234500Y-80009500D01*
X102234500Y-78874250D01*
X102235500Y-78874250D01*
X102235500Y-80009500D01*
X103370750Y-80009500D01*
X103394367Y-79985883D01*
X103544000Y-79985883D01*
X103544000Y-80034117D01*
X103637704Y-80505200D01*
X103904552Y-80904565D01*
X104303917Y-81171413D01*
X104775000Y-81265117D01*
X105246083Y-81171413D01*
X105645448Y-80904565D01*
X105912296Y-80505200D01*
X106006000Y-80034117D01*
X106006000Y-79985883D01*
X106084000Y-79985883D01*
X106084000Y-80034117D01*
X106177704Y-80505200D01*
X106444552Y-80904565D01*
X106843917Y-81171413D01*
X107315000Y-81265117D01*
X107786083Y-81171413D01*
X108185448Y-80904565D01*
X108452296Y-80505200D01*
X108546000Y-80034117D01*
X108546000Y-79985883D01*
X108452296Y-79514800D01*
X108185448Y-79115435D01*
X107786083Y-78848587D01*
X107315000Y-78754883D01*
X106843917Y-78848587D01*
X106444552Y-79115435D01*
X106177704Y-79514800D01*
X106084000Y-79985883D01*
X106006000Y-79985883D01*
X105912296Y-79514800D01*
X105645448Y-79115435D01*
X105246083Y-78848587D01*
X104775000Y-78754883D01*
X104303917Y-78848587D01*
X103904552Y-79115435D01*
X103637704Y-79514800D01*
X103544000Y-79985883D01*
X103394367Y-79985883D01*
X103466000Y-79914250D01*
X103466000Y-79084214D01*
X103407996Y-78944180D01*
X103300819Y-78837004D01*
X103160785Y-78779000D01*
X102330750Y-78779000D01*
X102235500Y-78874250D01*
X102234500Y-78874250D01*
X102139250Y-78779000D01*
X101309215Y-78779000D01*
X101169181Y-78837004D01*
X101062004Y-78944180D01*
X101004000Y-79084214D01*
X100456000Y-79084214D01*
X100456000Y-78456000D01*
X124544000Y-78456000D01*
X124544000Y-127544000D01*
M02*
