G04 #@! TF.FileFunction,Soldermask,Top*
%FSLAX46Y46*%
G04 Gerber Fmt 4.6, Leading zero omitted, Abs format (unit mm)*
G04 Created by KiCad (PCBNEW 4.0.2-stable) date 9/8/2017 10:58:27 PM*
%MOMM*%
G01*
G04 APERTURE LIST*
%ADD10C,0.100000*%
%ADD11R,1.200000X0.600000*%
%ADD12R,0.600000X1.200000*%
%ADD13R,1.000000X1.250000*%
%ADD14R,1.250000X1.000000*%
%ADD15R,1.000000X1.600000*%
%ADD16R,1.700000X1.700000*%
%ADD17O,1.700000X1.700000*%
%ADD18R,0.900000X0.500000*%
%ADD19R,0.700000X1.300000*%
%ADD20R,1.300000X0.700000*%
%ADD21R,2.200000X1.200000*%
%ADD22R,6.400000X5.800000*%
%ADD23R,3.800000X2.000000*%
%ADD24R,1.500000X2.000000*%
%ADD25R,1.550000X0.600000*%
%ADD26R,1.800000X2.500000*%
%ADD27R,1.350000X1.350000*%
%ADD28O,1.350000X1.350000*%
%ADD29R,1.200000X1.200000*%
%ADD30R,0.500000X0.900000*%
%ADD31R,1.060000X0.650000*%
G04 APERTURE END LIST*
D10*
D11*
X116245000Y-108205500D03*
X116245000Y-107405500D03*
X116245000Y-106605500D03*
X116245000Y-105805500D03*
X116245000Y-105005500D03*
X116245000Y-104205500D03*
X116245000Y-103405500D03*
X116245000Y-102605500D03*
D12*
X114795000Y-101155500D03*
X113995000Y-101155500D03*
X113195000Y-101155500D03*
X112395000Y-101155500D03*
X111595000Y-101155500D03*
X110795000Y-101155500D03*
X109995000Y-101155500D03*
X109195000Y-101155500D03*
D11*
X107745000Y-102605500D03*
X107745000Y-103405500D03*
X107745000Y-104205500D03*
X107745000Y-105005500D03*
X107745000Y-105805500D03*
X107745000Y-106605500D03*
X107745000Y-107405500D03*
X107745000Y-108205500D03*
D12*
X109195000Y-109655500D03*
X109995000Y-109655500D03*
X110795000Y-109655500D03*
X111595000Y-109655500D03*
X112395000Y-109655500D03*
X113195000Y-109655500D03*
X113995000Y-109655500D03*
X114795000Y-109655500D03*
D13*
X114824000Y-84709000D03*
X116824000Y-84709000D03*
D14*
X119697500Y-110077000D03*
X119697500Y-108077000D03*
D15*
X101624000Y-115112800D03*
X104624000Y-115112800D03*
D14*
X110236000Y-124603000D03*
X110236000Y-126603000D03*
X108331000Y-124603000D03*
X108331000Y-126603000D03*
D13*
X120682000Y-113482500D03*
X122682000Y-113482500D03*
X118983000Y-113482500D03*
X116983000Y-113482500D03*
D16*
X102362000Y-97726500D03*
D17*
X102362000Y-100266500D03*
X102362000Y-102806500D03*
X102362000Y-105346500D03*
D16*
X104673600Y-125857200D03*
D17*
X102133600Y-125857200D03*
D16*
X119812000Y-126111200D03*
D17*
X117272000Y-126111200D03*
X114732000Y-126111200D03*
D16*
X122936000Y-96139000D03*
D17*
X122936000Y-98679000D03*
X122936000Y-101219000D03*
D18*
X121602500Y-108228000D03*
X121602500Y-109728000D03*
D19*
X106441200Y-115163600D03*
X108341200Y-115163600D03*
D20*
X121602500Y-106680000D03*
X121602500Y-104780000D03*
X119697500Y-104775000D03*
X119697500Y-106675000D03*
D18*
X119507000Y-91694000D03*
X119507000Y-90194000D03*
X109855000Y-86447500D03*
X109855000Y-87947500D03*
X119507000Y-89090500D03*
X119507000Y-87590500D03*
X109855000Y-89027000D03*
X109855000Y-90527000D03*
X119507000Y-86463000D03*
X119507000Y-84963000D03*
D21*
X106353500Y-117671500D03*
X106353500Y-122231500D03*
D22*
X112653500Y-119951500D03*
D23*
X119840500Y-115730000D03*
D24*
X119840500Y-122030000D03*
X122140500Y-122030000D03*
X117540500Y-122030000D03*
D25*
X111917500Y-86423500D03*
X111917500Y-87693500D03*
X111917500Y-88963500D03*
X111917500Y-90233500D03*
X117317500Y-90233500D03*
X117317500Y-88963500D03*
X117317500Y-87693500D03*
X117317500Y-86423500D03*
D26*
X102552500Y-117888000D03*
X102552500Y-121888000D03*
D16*
X102235000Y-80010000D03*
D17*
X104775000Y-80010000D03*
X107315000Y-80010000D03*
X109855000Y-80010000D03*
X112395000Y-80010000D03*
X114935000Y-80010000D03*
X117475000Y-80010000D03*
X120015000Y-80010000D03*
X122555000Y-80010000D03*
D16*
X122936000Y-84645500D03*
D17*
X122936000Y-87185500D03*
X122936000Y-89725500D03*
X122936000Y-92265500D03*
D20*
X119634000Y-99364800D03*
X119634000Y-97464800D03*
D27*
X102387400Y-108940600D03*
D28*
X102387400Y-110940600D03*
D29*
X119634000Y-103182600D03*
X119634000Y-100982600D03*
D13*
X107140500Y-99568000D03*
X109140500Y-99568000D03*
D30*
X118238400Y-111760000D03*
X116738400Y-111760000D03*
X101662800Y-113233200D03*
X103162800Y-113233200D03*
D13*
X111268000Y-84709000D03*
X113268000Y-84709000D03*
D19*
X108341200Y-113284000D03*
X106441200Y-113284000D03*
D31*
X112438000Y-112892800D03*
X112438000Y-113842800D03*
X112438000Y-114792800D03*
X114638000Y-114792800D03*
X114638000Y-112892800D03*
D30*
X109536800Y-113080800D03*
X111036800Y-113080800D03*
X109536800Y-115011200D03*
X111036800Y-115011200D03*
M02*
