G04 #@! TF.FileFunction,Copper,L1,Top,Signal*
%FSLAX46Y46*%
G04 Gerber Fmt 4.6, Leading zero omitted, Abs format (unit mm)*
G04 Created by KiCad (PCBNEW 4.0.2-stable) date 9/8/2017 10:58:26 PM*
%MOMM*%
G01*
G04 APERTURE LIST*
%ADD10C,0.100000*%
%ADD11R,1.200000X0.600000*%
%ADD12R,0.600000X1.200000*%
%ADD13R,1.000000X1.250000*%
%ADD14R,1.250000X1.000000*%
%ADD15R,1.000000X1.600000*%
%ADD16R,1.700000X1.700000*%
%ADD17O,1.700000X1.700000*%
%ADD18R,0.900000X0.500000*%
%ADD19R,0.700000X1.300000*%
%ADD20R,1.300000X0.700000*%
%ADD21R,2.200000X1.200000*%
%ADD22R,6.400000X5.800000*%
%ADD23R,3.050000X2.750000*%
%ADD24R,3.800000X2.000000*%
%ADD25R,1.500000X2.000000*%
%ADD26R,1.550000X0.600000*%
%ADD27R,1.800000X2.500000*%
%ADD28R,1.350000X1.350000*%
%ADD29O,1.350000X1.350000*%
%ADD30R,1.200000X1.200000*%
%ADD31R,0.500000X0.900000*%
%ADD32R,1.060000X0.650000*%
%ADD33C,0.600000*%
%ADD34C,0.250000*%
%ADD35C,0.500000*%
G04 APERTURE END LIST*
D10*
D11*
X116245000Y-108205500D03*
X116245000Y-107405500D03*
X116245000Y-106605500D03*
X116245000Y-105805500D03*
X116245000Y-105005500D03*
X116245000Y-104205500D03*
X116245000Y-103405500D03*
X116245000Y-102605500D03*
D12*
X114795000Y-101155500D03*
X113995000Y-101155500D03*
X113195000Y-101155500D03*
X112395000Y-101155500D03*
X111595000Y-101155500D03*
X110795000Y-101155500D03*
X109995000Y-101155500D03*
X109195000Y-101155500D03*
D11*
X107745000Y-102605500D03*
X107745000Y-103405500D03*
X107745000Y-104205500D03*
X107745000Y-105005500D03*
X107745000Y-105805500D03*
X107745000Y-106605500D03*
X107745000Y-107405500D03*
X107745000Y-108205500D03*
D12*
X109195000Y-109655500D03*
X109995000Y-109655500D03*
X110795000Y-109655500D03*
X111595000Y-109655500D03*
X112395000Y-109655500D03*
X113195000Y-109655500D03*
X113995000Y-109655500D03*
X114795000Y-109655500D03*
D13*
X114824000Y-84709000D03*
X116824000Y-84709000D03*
D14*
X119697500Y-110077000D03*
X119697500Y-108077000D03*
D15*
X101624000Y-115112800D03*
X104624000Y-115112800D03*
D14*
X110236000Y-124603000D03*
X110236000Y-126603000D03*
X108331000Y-124603000D03*
X108331000Y-126603000D03*
D13*
X120682000Y-113482500D03*
X122682000Y-113482500D03*
X118983000Y-113482500D03*
X116983000Y-113482500D03*
D16*
X102362000Y-97726500D03*
D17*
X102362000Y-100266500D03*
X102362000Y-102806500D03*
X102362000Y-105346500D03*
D16*
X104673600Y-125857200D03*
D17*
X102133600Y-125857200D03*
D16*
X119812000Y-126111200D03*
D17*
X117272000Y-126111200D03*
X114732000Y-126111200D03*
D16*
X122936000Y-96139000D03*
D17*
X122936000Y-98679000D03*
X122936000Y-101219000D03*
D18*
X121602500Y-108228000D03*
X121602500Y-109728000D03*
D19*
X106441200Y-115163600D03*
X108341200Y-115163600D03*
D20*
X121602500Y-106680000D03*
X121602500Y-104780000D03*
X119697500Y-104775000D03*
X119697500Y-106675000D03*
D18*
X119507000Y-91694000D03*
X119507000Y-90194000D03*
X109855000Y-86447500D03*
X109855000Y-87947500D03*
X119507000Y-89090500D03*
X119507000Y-87590500D03*
X109855000Y-89027000D03*
X109855000Y-90527000D03*
X119507000Y-86463000D03*
X119507000Y-84963000D03*
D21*
X106353500Y-117671500D03*
X106353500Y-122231500D03*
D22*
X112653500Y-119951500D03*
D23*
X114328500Y-121476500D03*
X110978500Y-118426500D03*
X114328500Y-118426500D03*
X110978500Y-121476500D03*
D24*
X119840500Y-115730000D03*
D25*
X119840500Y-122030000D03*
X122140500Y-122030000D03*
X117540500Y-122030000D03*
D26*
X111917500Y-86423500D03*
X111917500Y-87693500D03*
X111917500Y-88963500D03*
X111917500Y-90233500D03*
X117317500Y-90233500D03*
X117317500Y-88963500D03*
X117317500Y-87693500D03*
X117317500Y-86423500D03*
D27*
X102552500Y-117888000D03*
X102552500Y-121888000D03*
D16*
X102235000Y-80010000D03*
D17*
X104775000Y-80010000D03*
X107315000Y-80010000D03*
X109855000Y-80010000D03*
X112395000Y-80010000D03*
X114935000Y-80010000D03*
X117475000Y-80010000D03*
X120015000Y-80010000D03*
X122555000Y-80010000D03*
D16*
X122936000Y-84645500D03*
D17*
X122936000Y-87185500D03*
X122936000Y-89725500D03*
X122936000Y-92265500D03*
D20*
X119634000Y-99364800D03*
X119634000Y-97464800D03*
D28*
X102387400Y-108940600D03*
D29*
X102387400Y-110940600D03*
D30*
X119634000Y-103182600D03*
X119634000Y-100982600D03*
D13*
X107140500Y-99568000D03*
X109140500Y-99568000D03*
D31*
X118238400Y-111760000D03*
X116738400Y-111760000D03*
X101662800Y-113233200D03*
X103162800Y-113233200D03*
D13*
X111268000Y-84709000D03*
X113268000Y-84709000D03*
D19*
X108341200Y-113284000D03*
X106441200Y-113284000D03*
D32*
X112438000Y-112892800D03*
X112438000Y-113842800D03*
X112438000Y-114792800D03*
X114638000Y-114792800D03*
X114638000Y-112892800D03*
D31*
X109536800Y-113080800D03*
X111036800Y-113080800D03*
X109536800Y-115011200D03*
X111036800Y-115011200D03*
D33*
X115925600Y-112318800D03*
X110490000Y-114096800D03*
X105105200Y-112548000D03*
X103225600Y-115112800D03*
X119507000Y-95961200D03*
X108302100Y-101498400D03*
X115798600Y-85877400D03*
X122745500Y-112014000D03*
X114808000Y-88900000D03*
X110250000Y-92250000D03*
X120750000Y-107500000D03*
X116965000Y-83693000D03*
X120726200Y-112395000D03*
X122885200Y-109956600D03*
X120827800Y-97739200D03*
X115026620Y-105535914D03*
X114223800Y-102641400D03*
X107696000Y-111252000D03*
X106045000Y-102235000D03*
X106941192Y-111785400D03*
X105419980Y-103679292D03*
X111593063Y-105110640D03*
X109601000Y-94996000D03*
X112359813Y-104485620D03*
X110236000Y-94424500D03*
X105454309Y-105778411D03*
X105729339Y-105027161D03*
X109118400Y-111607600D03*
X114266093Y-108085507D03*
X115070632Y-102698152D03*
X116027200Y-91948000D03*
X117475000Y-101536500D03*
X115887500Y-95631000D03*
X115252500Y-94869000D03*
X113982500Y-93472000D03*
X114617500Y-94170500D03*
X117906800Y-102844600D03*
X114909600Y-103860600D03*
X110642400Y-110794800D03*
X115036600Y-107047100D03*
D34*
X116128800Y-112503300D02*
X116110100Y-112503300D01*
X116110100Y-112503300D02*
X115925600Y-112318800D01*
X116983000Y-113357500D02*
X116128800Y-112503300D01*
X114795000Y-111265000D02*
X114638000Y-111422000D01*
X114638000Y-111422000D02*
X114638000Y-112892800D01*
X114795000Y-109655500D02*
X114795000Y-111265000D01*
X115628100Y-112877600D02*
X115612900Y-112892800D01*
X115612900Y-112892800D02*
X114638000Y-112892800D01*
X116983000Y-113482500D02*
X116233000Y-113482500D01*
X116233000Y-113482500D02*
X115628100Y-112877600D01*
X111404000Y-114096800D02*
X110490000Y-114096800D01*
X112438000Y-113842800D02*
X111658000Y-113842800D01*
X111658000Y-113842800D02*
X111404000Y-114096800D01*
X106441200Y-113284000D02*
X105841200Y-113284000D01*
X105841200Y-113284000D02*
X105105200Y-112548000D01*
X116983000Y-113482500D02*
X116983000Y-113357500D01*
X104624000Y-115112800D02*
X103225600Y-115112800D01*
X103162800Y-113233200D02*
X104089200Y-113233200D01*
X104089200Y-113233200D02*
X104624000Y-113768000D01*
X104624000Y-113768000D02*
X104624000Y-115112800D01*
X104624000Y-115112800D02*
X104624000Y-114812800D01*
X115544600Y-84747100D02*
X115506500Y-84709000D01*
X115506500Y-84709000D02*
X114824000Y-84709000D01*
X115544600Y-85623400D02*
X115544600Y-84747100D01*
X111268000Y-84709000D02*
X111268000Y-84834000D01*
X111268000Y-84834000D02*
X112232499Y-85798499D01*
X112232499Y-85798499D02*
X115295435Y-85798499D01*
X115295435Y-85798499D02*
X115374336Y-85877400D01*
X115374336Y-85877400D02*
X115798600Y-85877400D01*
X119710200Y-96864800D02*
X119710200Y-97464800D01*
X114478500Y-118426500D02*
X114328500Y-118426500D01*
X119507000Y-96661600D02*
X119507000Y-95961200D01*
X119710200Y-96864800D02*
X119507000Y-96661600D01*
X109195000Y-101155500D02*
X108645000Y-101155500D01*
X108645000Y-101155500D02*
X108302100Y-101498400D01*
X115544600Y-85623400D02*
X115798600Y-85877400D01*
D35*
X119812000Y-126111200D02*
X119812000Y-124761200D01*
X119812000Y-124761200D02*
X118939300Y-123888500D01*
X118939300Y-123888500D02*
X116141500Y-123888500D01*
X116141500Y-123888500D02*
X114328500Y-122075500D01*
X114328500Y-122075500D02*
X114328500Y-121476500D01*
D34*
X122745500Y-112544000D02*
X122745500Y-112014000D01*
X122682000Y-113482500D02*
X122682000Y-112607500D01*
X122682000Y-112607500D02*
X122745500Y-112544000D01*
X115509000Y-88900000D02*
X114808000Y-88900000D01*
X117317500Y-90233500D02*
X116842500Y-90233500D01*
X116842500Y-90233500D02*
X115509000Y-88900000D01*
D35*
X117540500Y-122030000D02*
X114882000Y-122030000D01*
X114882000Y-122030000D02*
X114328500Y-121476500D01*
D34*
X109855000Y-91855000D02*
X110250000Y-92250000D01*
X109855000Y-90527000D02*
X109855000Y-91855000D01*
X120750000Y-107899500D02*
X120750000Y-107500000D01*
X119697500Y-108077000D02*
X120572500Y-108077000D01*
X120572500Y-108077000D02*
X120750000Y-107899500D01*
X114795000Y-109655500D02*
X114795000Y-109955500D01*
X109195000Y-101155500D02*
X109195000Y-99694000D01*
X109195000Y-99694000D02*
X109069000Y-99568000D01*
X119697500Y-106675000D02*
X119697500Y-108077000D01*
X119507000Y-84963000D02*
X122618500Y-84963000D01*
X122618500Y-84963000D02*
X122936000Y-84645500D01*
X116983000Y-113607500D02*
X116983000Y-113482500D01*
X108331000Y-126603000D02*
X105419400Y-126603000D01*
X105419400Y-126603000D02*
X104673600Y-125857200D01*
X110236000Y-126603000D02*
X108331000Y-126603000D01*
X109536800Y-113080800D02*
X109536800Y-115011200D01*
X114300000Y-116078000D02*
X114638000Y-115740000D01*
X114638000Y-115740000D02*
X114638000Y-114792800D01*
X109903600Y-116078000D02*
X114300000Y-116078000D01*
X109536800Y-115011200D02*
X109536800Y-115711200D01*
X109536800Y-115711200D02*
X109903600Y-116078000D01*
X119840500Y-115730000D02*
X117406400Y-115730000D01*
X116398000Y-114792800D02*
X114638000Y-114792800D01*
X117406400Y-115730000D02*
X116433600Y-114757200D01*
X116433600Y-114757200D02*
X116398000Y-114792800D01*
X117043200Y-109778800D02*
X118238400Y-110974000D01*
X118238400Y-110974000D02*
X118238400Y-111760000D01*
X117043200Y-109553700D02*
X117043200Y-109778800D01*
X116245000Y-108205500D02*
X116245000Y-108755500D01*
X116245000Y-108755500D02*
X117043200Y-109553700D01*
X118983000Y-113482500D02*
X118983000Y-112504600D01*
X118983000Y-112504600D02*
X118238400Y-111760000D01*
X113268000Y-84709000D02*
X113268000Y-83834000D01*
X113268000Y-83834000D02*
X113409000Y-83693000D01*
X113409000Y-83693000D02*
X116540736Y-83693000D01*
X116540736Y-83693000D02*
X116965000Y-83693000D01*
X116824000Y-84709000D02*
X116824000Y-83834000D01*
X116824000Y-83834000D02*
X116965000Y-83693000D01*
X107140500Y-99568000D02*
X107140500Y-102001000D01*
X107140500Y-102001000D02*
X107745000Y-102605500D01*
X107140500Y-99568000D02*
X106553000Y-99568000D01*
X102387400Y-108940600D02*
X101462400Y-108940600D01*
X101262000Y-97726500D02*
X102362000Y-97726500D01*
X101462400Y-108940600D02*
X100863400Y-108341600D01*
X100863400Y-108341600D02*
X100863400Y-98125100D01*
X100863400Y-98125100D02*
X101262000Y-97726500D01*
X115269998Y-108205500D02*
X115395000Y-108205500D01*
X115395000Y-108205500D02*
X116245000Y-108205500D01*
X114935000Y-105465500D02*
X114411599Y-105988901D01*
X114411599Y-107347101D02*
X115269998Y-108205500D01*
X114411599Y-105988901D02*
X114411599Y-107347101D01*
X108630900Y-102641400D02*
X114223800Y-102641400D01*
X107745000Y-102605500D02*
X108595000Y-102605500D01*
X108595000Y-102605500D02*
X108630900Y-102641400D01*
X120726200Y-112395000D02*
X120726200Y-113438300D01*
X120726200Y-113438300D02*
X120682000Y-113482500D01*
X122885200Y-103962200D02*
X122885200Y-109956600D01*
X122577501Y-103654501D02*
X122885200Y-103962200D01*
X122326400Y-103378000D02*
X122577501Y-103629101D01*
X122577501Y-103629101D02*
X122577501Y-103654501D01*
X121716800Y-103378000D02*
X122326400Y-103378000D01*
X120827800Y-102489000D02*
X121716800Y-103378000D01*
X120827800Y-97739200D02*
X120827800Y-102489000D01*
D35*
X119840500Y-122030000D02*
X119840500Y-120530000D01*
X119840500Y-120530000D02*
X119840500Y-115730000D01*
D34*
X121313500Y-105791000D02*
X117880500Y-105791000D01*
X117880500Y-105791000D02*
X117095000Y-105005500D01*
X121602500Y-106680000D02*
X121602500Y-106080000D01*
X121602500Y-106080000D02*
X121313500Y-105791000D01*
X117095000Y-105005500D02*
X116245000Y-105005500D01*
X114935000Y-105465500D02*
X114935000Y-105664000D01*
X116245000Y-105005500D02*
X115395000Y-105005500D01*
X115395000Y-105005500D02*
X114935000Y-105465500D01*
X106553000Y-99568000D02*
X104711500Y-97726500D01*
X104711500Y-97726500D02*
X102362000Y-97726500D01*
X107569000Y-102429500D02*
X107745000Y-102605500D01*
X121602500Y-106680000D02*
X121602500Y-108228000D01*
D35*
X119139500Y-113326000D02*
X118983000Y-113482500D01*
X119840500Y-115387500D02*
X119902000Y-115387500D01*
X119902000Y-115387500D02*
X120682000Y-114607500D01*
X120682000Y-114607500D02*
X120682000Y-113482500D01*
X119840500Y-115730000D02*
X119840500Y-115387500D01*
X118983000Y-113482500D02*
X120682000Y-113482500D01*
D34*
X117095000Y-105805500D02*
X116245000Y-105805500D01*
X118110000Y-106820500D02*
X117095000Y-105805500D01*
X118110000Y-108614500D02*
X118110000Y-106820500D01*
X119572500Y-110077000D02*
X118110000Y-108614500D01*
X119697500Y-110077000D02*
X119572500Y-110077000D01*
X121602500Y-109728000D02*
X120046500Y-109728000D01*
X120046500Y-109728000D02*
X119697500Y-110077000D01*
X106441200Y-115163600D02*
X106441200Y-117583800D01*
X106441200Y-117583800D02*
X106353500Y-117671500D01*
D35*
X102492400Y-116281200D02*
X102492400Y-117827900D01*
X102492400Y-117827900D02*
X102552500Y-117888000D01*
X101624000Y-115112800D02*
X101624000Y-115412800D01*
X101624000Y-115412800D02*
X102492400Y-116281200D01*
X102133600Y-125857200D02*
X100838000Y-124561600D01*
X100838000Y-124561600D02*
X100838000Y-118202500D01*
X100838000Y-118202500D02*
X101152500Y-117888000D01*
X101152500Y-117888000D02*
X102552500Y-117888000D01*
X106353500Y-117671500D02*
X106353500Y-117148500D01*
X106353500Y-117671500D02*
X102769000Y-117671500D01*
X102769000Y-117671500D02*
X102552500Y-117888000D01*
D34*
X106137000Y-117888000D02*
X106353500Y-117671500D01*
X117317500Y-86423500D02*
X117317500Y-85873500D01*
X117317500Y-85873500D02*
X117491400Y-85699600D01*
X117491400Y-85699600D02*
X120980200Y-85699600D01*
X120980200Y-85699600D02*
X121208800Y-85928200D01*
X121208800Y-85928200D02*
X123723400Y-85928200D01*
X123723400Y-85928200D02*
X124206000Y-86410800D01*
X124206000Y-86410800D02*
X124206000Y-92197581D01*
X124206000Y-92197581D02*
X124138081Y-92265500D01*
X124138081Y-92265500D02*
X122936000Y-92265500D01*
X106362500Y-123952000D02*
X107013500Y-124603000D01*
X107013500Y-124603000D02*
X108331000Y-124603000D01*
X106362500Y-123090500D02*
X106362500Y-123952000D01*
X106353500Y-122231500D02*
X106353500Y-123081500D01*
X106353500Y-123081500D02*
X106362500Y-123090500D01*
X121412000Y-127444500D02*
X122140500Y-126716000D01*
X122140500Y-126716000D02*
X122140500Y-122030000D01*
X113952500Y-127444500D02*
X121412000Y-127444500D01*
X110236000Y-124603000D02*
X111111000Y-124603000D01*
X111111000Y-124603000D02*
X113952500Y-127444500D01*
X124269500Y-118651000D02*
X124269500Y-96372500D01*
X124269500Y-96372500D02*
X124036000Y-96139000D01*
X124036000Y-96139000D02*
X122936000Y-96139000D01*
X122140500Y-122030000D02*
X122140500Y-120780000D01*
X122140500Y-120780000D02*
X124269500Y-118651000D01*
X119507000Y-91694000D02*
X122364500Y-91694000D01*
X122364500Y-91694000D02*
X122936000Y-92265500D01*
X122936000Y-92265500D02*
X122936000Y-93467581D01*
X122936000Y-93467581D02*
X122936000Y-96139000D01*
D35*
X106353500Y-122231500D02*
X102896000Y-122231500D01*
X102896000Y-122231500D02*
X102552500Y-121888000D01*
X106853500Y-122231500D02*
X106353500Y-122231500D01*
X108331000Y-124603000D02*
X108206000Y-124603000D01*
X108206000Y-124603000D02*
X108190000Y-124587000D01*
X110236000Y-124603000D02*
X108331000Y-124603000D01*
D34*
X108267500Y-116664087D02*
X107566212Y-115962799D01*
X117272000Y-126111200D02*
X114414300Y-123253500D01*
X109270498Y-123253500D02*
X108267500Y-122250502D01*
X108267500Y-122250502D02*
X108267500Y-116664087D01*
X107696000Y-111676264D02*
X107696000Y-111252000D01*
X114414300Y-123253500D02*
X109270498Y-123253500D01*
X107566212Y-115962799D02*
X107566212Y-111806052D01*
X107566212Y-111806052D02*
X107696000Y-111676264D01*
X106045000Y-102235000D02*
X106344999Y-102534999D01*
X106344999Y-102534999D02*
X106344999Y-102855499D01*
X106344999Y-102855499D02*
X106895000Y-103405500D01*
X106895000Y-103405500D02*
X107745000Y-103405500D01*
X107817489Y-116850487D02*
X107116201Y-116149199D01*
X108329589Y-123761500D02*
X107817489Y-123249400D01*
X106941192Y-112209664D02*
X106941192Y-111785400D01*
X114732000Y-126111200D02*
X112382300Y-123761500D01*
X112382300Y-123761500D02*
X108329589Y-123761500D01*
X107817489Y-123249400D02*
X107817489Y-116850487D01*
X107116201Y-116149199D02*
X107116201Y-112384673D01*
X107116201Y-112384673D02*
X106941192Y-112209664D01*
X107745000Y-104205500D02*
X105946188Y-104205500D01*
X105719979Y-103979291D02*
X105419980Y-103679292D01*
X105946188Y-104205500D02*
X105719979Y-103979291D01*
X111595000Y-105112577D02*
X111593063Y-105110640D01*
X111595000Y-109655500D02*
X111595000Y-105112577D01*
X109601000Y-94996000D02*
X109410500Y-94996000D01*
X108521500Y-94107000D02*
X108521500Y-81343500D01*
X108521500Y-81343500D02*
X109855000Y-80010000D01*
X109410500Y-94996000D02*
X108521500Y-94107000D01*
X112359813Y-104485620D02*
X111033380Y-104485620D01*
X111033380Y-104485620D02*
X110795000Y-104724000D01*
X110795000Y-104724000D02*
X110795000Y-109655500D01*
X110236000Y-94424500D02*
X109936001Y-94124501D01*
X109029500Y-83312000D02*
X110680500Y-81661000D01*
X109936001Y-94124501D02*
X109809001Y-94124501D01*
X109809001Y-94124501D02*
X109029500Y-93345000D01*
X109029500Y-93345000D02*
X109029500Y-83312000D01*
X110680500Y-81661000D02*
X110744000Y-81661000D01*
X110744000Y-81661000D02*
X110934500Y-81470500D01*
X112395000Y-81216500D02*
X112395000Y-80010000D01*
X110934500Y-81470500D02*
X112141000Y-81470500D01*
X112141000Y-81470500D02*
X112395000Y-81216500D01*
X107745000Y-105805500D02*
X105481398Y-105805500D01*
X105481398Y-105805500D02*
X105454309Y-105778411D01*
X107745000Y-105005500D02*
X105751000Y-105005500D01*
X105751000Y-105005500D02*
X105729339Y-105027161D01*
X119507000Y-89090500D02*
X117444500Y-89090500D01*
X117444500Y-89090500D02*
X117317500Y-88963500D01*
X119507000Y-89090500D02*
X119507000Y-90194000D01*
X122491500Y-89725500D02*
X122023000Y-90194000D01*
X122023000Y-90194000D02*
X119507000Y-90194000D01*
X122936000Y-89725500D02*
X122491500Y-89725500D01*
X120229500Y-87185500D02*
X119507000Y-86463000D01*
X122936000Y-87185500D02*
X120229500Y-87185500D01*
X119507000Y-87590500D02*
X117420500Y-87590500D01*
X117420500Y-87590500D02*
X117317500Y-87693500D01*
X119507000Y-87590500D02*
X119507000Y-86463000D01*
X122086001Y-97829001D02*
X122936000Y-98679000D01*
X121158000Y-96901000D02*
X122086001Y-97829001D01*
X113946496Y-88963500D02*
X117502496Y-92519500D01*
X119761000Y-92519500D02*
X121158000Y-93916500D01*
X117502496Y-92519500D02*
X119761000Y-92519500D01*
X111917500Y-88963500D02*
X113946496Y-88963500D01*
X121158000Y-93916500D02*
X121158000Y-96901000D01*
X111917500Y-87693500D02*
X111917500Y-88963500D01*
X116245000Y-106605500D02*
X117095000Y-106605500D01*
X117607511Y-107118011D02*
X117607511Y-109606511D01*
X117095000Y-106605500D02*
X117607511Y-107118011D01*
X117607511Y-109606511D02*
X119049800Y-111048800D01*
X119049800Y-111048800D02*
X123139200Y-111048800D01*
X123139200Y-111048800D02*
X123748800Y-110439200D01*
X123748800Y-110439200D02*
X123748800Y-102031800D01*
X123748800Y-102031800D02*
X122936000Y-101219000D01*
X108341200Y-113284000D02*
X108341200Y-112384800D01*
X108341200Y-112384800D02*
X109118400Y-111607600D01*
X108341200Y-115163600D02*
X108341200Y-113284000D01*
X115489702Y-104205500D02*
X115209601Y-104485601D01*
X115209601Y-104485601D02*
X115114899Y-104485601D01*
X115114899Y-104485601D02*
X113961588Y-105638912D01*
X113961588Y-105638912D02*
X113961588Y-107781002D01*
X113961588Y-107781002D02*
X113966094Y-107785508D01*
X113966094Y-107785508D02*
X114266093Y-108085507D01*
X116245000Y-104205500D02*
X115489702Y-104205500D01*
X119697500Y-104775000D02*
X121597500Y-104775000D01*
X121597500Y-104775000D02*
X121602500Y-104780000D01*
X117322600Y-104368600D02*
X117729000Y-104775000D01*
X117729000Y-104775000D02*
X119697500Y-104775000D01*
X117322600Y-103633100D02*
X117322600Y-104368600D01*
X116245000Y-103405500D02*
X117095000Y-103405500D01*
X117095000Y-103405500D02*
X117322600Y-103633100D01*
X111917500Y-86423500D02*
X109879000Y-86423500D01*
X109879000Y-86423500D02*
X109855000Y-86447500D01*
X110817499Y-89789499D02*
X110055000Y-89027000D01*
X110055000Y-89027000D02*
X109855000Y-89027000D01*
X110817499Y-90793501D02*
X110817499Y-89789499D01*
X110934500Y-90910502D02*
X110817499Y-90793501D01*
X110934500Y-90995500D02*
X110934500Y-90910502D01*
X113474500Y-90995500D02*
X110934500Y-90995500D01*
X116512501Y-94033501D02*
X113474500Y-90995500D01*
X116459000Y-100041500D02*
X116459000Y-95984502D01*
X116512501Y-95931001D02*
X116512501Y-94033501D01*
X116459000Y-95984502D02*
X116512501Y-95931001D01*
X115345000Y-101155500D02*
X116459000Y-100041500D01*
X114795000Y-101155500D02*
X115345000Y-101155500D01*
X109855000Y-87947500D02*
X109855000Y-89027000D01*
X112479800Y-103105789D02*
X110100401Y-103105789D01*
X114485193Y-103283591D02*
X112657602Y-103283591D01*
X112657602Y-103283591D02*
X112479800Y-103105789D01*
X115070632Y-102698152D02*
X114485193Y-103283591D01*
X109195000Y-108805500D02*
X109195000Y-109655500D01*
X110100401Y-103105789D02*
X109195000Y-104011190D01*
X109195000Y-104011190D02*
X109195000Y-108805500D01*
X117455116Y-93375916D02*
X116027200Y-91948000D01*
X117475000Y-93375916D02*
X117455116Y-93375916D01*
X117475000Y-101536500D02*
X117475000Y-93375916D01*
X115887500Y-96055264D02*
X115887500Y-95631000D01*
X115887500Y-98868090D02*
X115887500Y-96055264D01*
X115893009Y-98873599D02*
X115887500Y-98868090D01*
X115126910Y-100012500D02*
X115893009Y-99246401D01*
X114288000Y-100012500D02*
X115126910Y-100012500D01*
X115893009Y-99246401D02*
X115893009Y-98873599D01*
X113995000Y-100305500D02*
X114288000Y-100012500D01*
X113995000Y-101155500D02*
X113995000Y-100305500D01*
X115252500Y-99250500D02*
X115252500Y-94869000D01*
X114998500Y-99504500D02*
X115252500Y-99250500D01*
X113996000Y-99504500D02*
X114998500Y-99504500D01*
X113195000Y-101155500D02*
X113195000Y-100305500D01*
X113195000Y-100305500D02*
X113996000Y-99504500D01*
X113982500Y-97980500D02*
X113982500Y-93472000D01*
X111732501Y-100230499D02*
X113982500Y-97980500D01*
X111595000Y-100305500D02*
X111670001Y-100230499D01*
X111670001Y-100230499D02*
X111732501Y-100230499D01*
X111595000Y-101155500D02*
X111595000Y-100305500D01*
X111595000Y-100305500D02*
X111569500Y-100280000D01*
X114617500Y-98679000D02*
X114617500Y-94170500D01*
X114363500Y-98933000D02*
X114617500Y-98679000D01*
X113767500Y-98933000D02*
X114363500Y-98933000D01*
X112395000Y-101155500D02*
X112395000Y-100305500D01*
X112395000Y-100305500D02*
X113767500Y-98933000D01*
X116245000Y-102605500D02*
X116245000Y-101179000D01*
X116245000Y-101179000D02*
X116967000Y-100457000D01*
X116967000Y-100457000D02*
X116967000Y-93789500D01*
X116967000Y-93789500D02*
X113411000Y-90233500D01*
X113411000Y-90233500D02*
X111917500Y-90233500D01*
X111917500Y-90233500D02*
X112392500Y-90233500D01*
X104794978Y-102699478D02*
X103211999Y-101116499D01*
X103211999Y-101116499D02*
X102362000Y-100266500D01*
X104794978Y-103979294D02*
X104794978Y-102699478D01*
X104829308Y-104013624D02*
X104794978Y-103979294D01*
X106156396Y-107405500D02*
X104829308Y-106078412D01*
X107745000Y-107405500D02*
X106156396Y-107405500D01*
X104829308Y-106078412D02*
X104829308Y-104013624D01*
X103211999Y-103656499D02*
X102362000Y-102806500D01*
X104379297Y-104823797D02*
X103211999Y-103656499D01*
X107745000Y-108205500D02*
X106319985Y-108205500D01*
X106319985Y-108205500D02*
X104379297Y-106264812D01*
X104379297Y-106264812D02*
X104379297Y-104823797D01*
X108013500Y-81915000D02*
X107315000Y-81216500D01*
X107315000Y-81216500D02*
X107315000Y-80010000D01*
X108013500Y-94424500D02*
X108013500Y-81915000D01*
X110490000Y-96901000D02*
X108013500Y-94424500D01*
X110490000Y-100000500D02*
X110490000Y-96901000D01*
X110795000Y-101155500D02*
X110795000Y-100305500D01*
X110795000Y-100305500D02*
X110490000Y-100000500D01*
X107505500Y-82486500D02*
X105878999Y-80859999D01*
X105624999Y-80859999D02*
X104775000Y-80010000D01*
X105878999Y-80859999D02*
X105624999Y-80859999D01*
X107505500Y-94169090D02*
X107505500Y-82486500D01*
X107499991Y-94174599D02*
X107505500Y-94169090D01*
X107499991Y-94547401D02*
X107499991Y-94174599D01*
X109995000Y-97042410D02*
X107499991Y-94547401D01*
X109995000Y-101155500D02*
X109995000Y-97042410D01*
X114485336Y-103860600D02*
X114909600Y-103860600D01*
X109995000Y-104887589D02*
X111021989Y-103860600D01*
X109995000Y-109655500D02*
X109995000Y-104887589D01*
X111021989Y-103860600D02*
X114485336Y-103860600D01*
X118446000Y-102844600D02*
X117906800Y-102844600D01*
X119634000Y-103182600D02*
X118784000Y-103182600D01*
X118784000Y-103182600D02*
X118446000Y-102844600D01*
X111036800Y-113080800D02*
X112250000Y-113080800D01*
X112250000Y-113080800D02*
X112438000Y-112892800D01*
X112395000Y-109655500D02*
X112395000Y-112849800D01*
X112395000Y-112849800D02*
X112438000Y-112892800D01*
X112438000Y-114792800D02*
X111255200Y-114792800D01*
X111255200Y-114792800D02*
X111036800Y-115011200D01*
X113538000Y-110848500D02*
X113538000Y-114472800D01*
X113218000Y-114792800D02*
X112438000Y-114792800D01*
X113538000Y-114472800D02*
X113218000Y-114792800D01*
X113195000Y-109655500D02*
X113195000Y-110505500D01*
X113195000Y-110505500D02*
X113538000Y-110848500D01*
X116738400Y-111760000D02*
X116738400Y-111060000D01*
X116738400Y-111060000D02*
X115925600Y-110247200D01*
X114088500Y-108712000D02*
X113995000Y-108805500D01*
X115925600Y-110247200D02*
X115925600Y-109301098D01*
X115925600Y-109301098D02*
X115336502Y-108712000D01*
X115336502Y-108712000D02*
X114088500Y-108712000D01*
X113995000Y-108805500D02*
X113995000Y-109655500D01*
X119710200Y-99364800D02*
X119710200Y-100906400D01*
X119710200Y-100906400D02*
X119634000Y-100982600D01*
X103796011Y-109531989D02*
X103062399Y-110265601D01*
X108400011Y-110049600D02*
X107882400Y-109531989D01*
X108400011Y-110279611D02*
X108400011Y-110049600D01*
X107882400Y-109531989D02*
X103796011Y-109531989D01*
X103062399Y-110265601D02*
X102387400Y-110940600D01*
X110642400Y-110794800D02*
X108915200Y-110794800D01*
X108915200Y-110794800D02*
X108400011Y-110279611D01*
X101662800Y-113233200D02*
X101662800Y-111665200D01*
X101662800Y-111665200D02*
X102387400Y-110940600D01*
X116245000Y-107405500D02*
X115395000Y-107405500D01*
X115395000Y-107405500D02*
X115036600Y-107047100D01*
M02*
